<?xml version="1.0" encoding="utf-8"?>
<!-- Generator: Adobe Illustrator 23.0.6, SVG Export Plug-In . SVG Version: 6.00 Build 0)  -->
<svg version="1.1" id="Слой_1" xmlns="http://www.w3.org/2000/svg" xmlns:xlink="http://www.w3.org/1999/xlink" x="0px" y="0px"
	 viewBox="0 0 36 396" style="enable-background:new 0 0 36 396;" xml:space="preserve">
<style type="text/css">
	.st0{fill:#1876D2;}
	.st1{fill:#FFFFFF;}
	.st2{fill:#FF4500;}
	.st3{fill:#34526F;}
	.st4{fill:#D50011;}
	.st5{fill:#4169E2;}
	.st6{fill:#29A71A;}
	.st7{fill:#0077B5;}
	.st8{fill:#665CAC;}
	.st9{fill:#1B8ADB;}
	.st10{fill:#292D32;enable-background:new    ;}
</style>
<g id="Facebook">
	<g>
		<path id="rc" class="st0" d="M4,0h28c2.2,0,4,1.8,4,4v28c0,2.2-1.8,4-4,4H4c-2.2,0-4-1.8-4-4V4C0,1.8,1.8,0,4,0z"/>
	</g>
	<path class="st1" d="M23.6,36V23.7h4.7l0.7-5.4h-5.4c-0.1-5.3-0.5-6.5,5.6-6.1V7.3c-5.1-0.6-11-0.5-11.2,7v4h-4.7v5.4H18V36H23.6z"
		/>
</g>
<g id="X">
	<g>
		<path d="M4,36h28c2.2,0,4,1.8,4,4v28c0,2.2-1.8,4-4,4H4c-2.2,0-4-1.8-4-4V40C0,37.8,1.8,36,4,36z"/>
	</g>
	<path class="st1" d="M20.1,52.1l9.2-10.5h-2.2l-8,9.1l-6.4-9.1H5.3L15,55.3l-9.6,11h2.2l8.4-9.6l6.7,9.6h7.4 M8.3,43.2h3.3L27,64.8
		h-3.3"/>
</g>
<g id="Reddit">
	<g>
		<path class="st2" d="M4,72h28c2.2,0,4,1.8,4,4v28c0,2.2-1.8,4-4,4H4c-2.2,0-4-1.8-4-4V76C0,73.8,1.8,72,4,72z"/>
	</g>
	<path class="st1" d="M29.6,89.7c0.1-2.6-3.3-4.2-5.2-2.4c-1.7-0.9-3.6-1.4-5.7-1.5l0.5-3.1l2.2,0.3c0.5,3,5.3,2.1,4.6-0.9
		c-0.3-2.1-3.4-2.6-4.4-0.7c-5.2-1.2-3.5,0.3-4.5,4.3c-2.2,0.1-4.2,0.6-5.9,1.5c-3-2.7-7.2,2-4.2,4.7c-2.4,12.6,24,12.6,21.6,0
		C29.2,91.4,29.6,90.6,29.6,89.7z M12.2,92.4c0-2,3.2-2,3.2,0C15.4,94.5,12.2,94.5,12.2,92.4z M21.4,97.5c-2,1-7.2,1.7-7.6-1.1
		c0.2-0.4,0.7-0.5,1.1-0.3c1.8,0.9,4,0.9,5.8,0C21.5,95.6,22.3,97,21.4,97.5z M21.7,94c-2,0-2-3.2,0-3.2S23.7,94.1,21.7,94z"/>
</g>
<g id="t">
	<g>
		<path class="st3" d="M4,108h28c2.2,0,4,1.8,4,4v28c0,2.2-1.8,4-4,4H4c-2.2,0-4-1.8-4-4v-28C0,109.8,1.8,108,4,108z"/>
	</g>
	<path class="st1" d="M19.5,133.1c-1.1-0.9-0.8-1.4-0.9-3.4V124h5.1v-3.5h-5.1v-5.7h-3c-0.3,2.9-1.6,5.1-4.3,6v3.2h2.4
		c0.1,1.7-0.3,8.8,0.3,10.2c1.8,3.8,7.2,3.6,10.5,1.8v-3.5C22.8,133.5,21,134,19.5,133.1z"/>
</g>
<g id="Pinterest">
	<g>
		<path class="st4" d="M4,144h28c2.2,0,4,1.8,4,4v28c0,2.2-1.8,4-4,4H4c-2.2,0-4-1.8-4-4v-28C0,145.8,1.8,144,4,144z"/>
	</g>
	<path class="st1" d="M13.6,174.1c1.2-1.5,2.2-5.8,2.6-7.3c4.8,5.2,12.2-1.2,11.7-8.4c-0.7-12.5-20.3-10.2-20.1,0.8
		c0,2.6,1,4.8,3.1,5.7c0.9,0.3,0.8-1,1-1.6c0.1-0.4,0.1-0.5-0.2-0.8c-2.9-4.1,0.8-10.3,6.4-10.1c8.7-0.8,7.2,13.4,1.5,13.6
		c-1.3,0-2.4-1-2.5-2.3c0-0.2,0-0.4,0.1-0.6c4.7-11.3-5.8-8.5-3.1-1.3c-0.3,1.7-2.5,9-2.2,11.6C12,173.9,13.3,174.3,13.6,174.1z"/>
</g>
<g id="VK">
	<g>
		<path class="st5" d="M4,180h28c2.2,0,4,1.8,4,4v28c0,2.2-1.8,4-4,4H4c-2.2,0-4-1.8-4-4v-28C0,181.8,1.8,180,4,180z"/>
	</g>
	<path class="st1" d="M20,197.4c-0.4-0.1-0.4-0.7-0.4-1.1c0-3.9,1.1-5.4-3.9-4.9c-0.6,0.1-1.5,0.3-1.7,0.9c0,0.3,0.7,0.3,1,0.7
		s0.3,1.4,0.3,2.2c0.1,2-0.6,3-1.7,1.2c-1-1.1-1.5-3-2.3-4.1c-0.5-0.3-1.4-0.4-2.2-0.3c-0.8,0-1.9-0.1-2.1,0.4
		c0.5,2.7,2.4,5.2,3.8,7.4c1.6,2.6,5.5,5.2,8.7,3.8c0.4-0.6,0-2.3,0.9-2.5c0.7,0.1,1.1,0.9,1.6,1.3c1.2,1.7,2.7,1.7,4.8,1.6
		c4.6-0.3-1.4-3.9-1.8-5.5c0.8-2.1,3.4-3.7,3.5-6.1c-0.2-0.5-1.5-0.3-2.2-0.3c-1,0-2.3-0.1-2.5,0.1C22.3,193.5,21.9,196.5,20,197.4
		L20,197.4z"/>
</g>
<g id="WhatsApp">
	<g>
		<path class="st6" d="M4,216h28c2.2,0,4,1.8,4,4v28c0,2.2-1.8,4-4,4H4c-2.2,0-4-1.8-4-4v-28C0,217.8,1.8,216,4,216z"/>
	</g>
	<path class="st1" d="M25.4,226.3c-9-8.7-23,2-16.9,13v-0.1L7,244.8l5.7-1.5C23.6,249.1,34,235.2,25.4,226.3z M17.8,242.8
		c-1.7,0-3.3-0.5-4.6-1.3c-0.1-0.5-3.5,0.7-3.7,0.7l0.9-3.3c-2.8-4.1-1.7-9.7,2.5-12.5c1.5-1,3.2-1.5,4.9-1.5
		C29.6,225.4,29.6,242.4,17.8,242.8L17.8,242.8z M22.7,236.1c-4.2-2.8-1.6,2.8-6-1c-2.7-2.8-1-1.5-0.7-3.8c-0.3-2.9-3.5-3.3-3.6,0.1
		c0.1,1.1,0.5,2,1.1,2.8c1.8,2.5,4.6,5,7.8,4.7c1.2-0.2,2.2-1.3,2-2.6C23.1,236.3,22.9,236.3,22.7,236.1z"/>
</g>
<g id="in">
	<g>
		<path class="st7" d="M4,252h28c2.2,0,4,1.8,4,4v28c0,2.2-1.8,4-4,4H4c-2.2,0-4-1.8-4-4v-28C0,253.8,1.8,252,4,252z"/>
	</g>
	<path class="st1" d="M11.9,261.5c0.1,3.4-5.3,3.6-5.4,0.1C6.2,258,12,257.9,11.9,261.5z M6.7,266.2h4.9v15.3H6.7V266.2z
		 M29.1,272.7v8.8h-4.9c-0.6-2.5,1.7-11.7-2.5-11.6c-4.5,0-2.1,9.1-2.6,11.6h-4.9v-15.3h4.9v2.3C22.1,263.4,29.5,265.9,29.1,272.7z"
		/>
</g>
<g id="Viber">
	<g>
		<path class="st8" d="M4,288h28c2.2,0,4,1.8,4,4v28c0,2.2-1.8,4-4,4H4c-2.2,0-4-1.8-4-4v-28C0,289.8,1.8,288,4,288z"/>
	</g>
	<path class="st1" d="M17.9,295.7c-3.5-0.2-10,0.5-9.6,7.8c-0.1,2.5-0.3,7.3,4.2,8.5c0.1,0.2-0.2,4.3,0.1,4.2
		c0.9-0.4,3.3-3.7,3.4-3.7c5-0.1,9.7,0.1,10.5-5.7C27.1,298.6,26.6,296.2,17.9,295.7L17.9,295.7z M22.9,308.8
		c-0.5,0.8-1.3,1.8-2.3,1.5c-3.8-1-8-5.3-9-9c-0.4-1.1,1.6-3.1,2.6-2.2c0.3,0.3,1.2,1.5,1.5,2.1c0.7,1.2-1.1,1.4-0.9,2.3
		c0,0,0.8,3,3.8,3.8c0,0,0.4,0,0.6-0.2c1-1.9,2.7,0.1,3.7,0.8C23.1,308,23.1,308.4,22.9,308.8L22.9,308.8z M17.9,300.3
		c-1.3-1.3,2.8,0,3,0.7c0.5,0.6,1.6,2.6,0.7,3.1c-0.2,0-0.3-0.1-0.3-0.3C21.4,301.8,20,300.4,17.9,300.3L17.9,300.3z M20.4,303.3
		c0,0.4-0.6,0.4-0.6,0c0-0.5-0.2-0.9-0.4-1.1c-0.2-0.4-1.3-0.2-1.3-0.7c0-0.2,0.1-0.3,0.3-0.3C19.6,301.3,20.4,302.1,20.4,303.3z
		 M23.4,304.4c0,0.4-0.6,0.4-0.6,0c0-3.3-2.2-5.7-5.4-5.7c-0.2,0-0.3-0.1-0.3-0.3C20.3,297.3,23.7,301,23.4,304.4z"/>
</g>
<g id="Telegram">
	<g>
		<path class="st9" d="M4,324h28c2.2,0,4,1.8,4,4v28c0,2.2-1.8,4-4,4H4c-2.2,0-4-1.8-4-4v-28C0,325.8,1.8,324,4,324z"/>
	</g>
	<path class="st1" d="M7.2,341.6l5.1,1.9l2,6.3c0.5,1.5,3.2-1.8,3.8-2c0.7-1,5.5,3.5,6.1,3.7c0.4,0.3,0.8,0.1,0.9-0.4l3.7-18
		c0.1-0.5-0.4-0.8-0.8-0.7l-20.8,8C6.6,340.7,6.6,341.4,7.2,341.6z M13.9,342.5l9.9-6.1c1.4-0.3-8.2,7.8-8,7.9
		c-0.8,0.2-0.4,4.1-1.3,3.1C14.5,346.5,12.6,343.1,13.9,342.5z"/>
</g>
<g>
	<path class="st10" d="M4,360h28c2.2,0,4,1.8,4,4v28c0,2.2-1.8,4-4,4H4c-2.2,0-4-1.8-4-4v-28C0,361.8,1.8,360,4,360z"/>
	<path class="st1" d="M18.2,374.5c-1.6,0-3,1.4-3,3c0,1.6,1.4,3,3,3c1.6,0,3-1.4,3-3C21.2,375.9,19.8,374.5,18.2,374.5z"/>
	<path class="st1" d="M6.7,374.5c-1.6,0-3,1.4-3,3c0,1.6,1.4,3,3,3s3-1.4,3-3C9.7,375.9,8.4,374.5,6.7,374.5z"/>
	<path class="st1" d="M29.6,374.5c-1.6,0-3,1.4-3,3c0,1.6,1.4,3,3,3c1.6,0,3-1.4,3-3C32.6,375.9,31.3,374.5,29.6,374.5z"/>
</g>
</svg>
