<svg xmlns="http://www.w3.org/2000/svg" xmlns:xlink="http://www.w3.org/1999/xlink" viewBox="0 0 36 396"><defs><style>g path{fill:#fff}</style><rect id="rc" width="36" height="36" rx="4" ry="4"/></defs><g id="Facebook"><use xlink:href="#rc" fill="#1876d2"/><path d="M23.6 36V23.7h4.7l.7-5.4h-5.4c-.1-5.3-.5-6.5 5.6-6.1V7.3c-5.1-.6-11-.5-11.2 7v4h-4.7v5.4H18V36h5.6z"/></g><g id="Twitter"><use xlink:href="#rc" y="36"/><path d="m20.1 52.1 9.2-10.5h-2.2l-8 9.1-6.4-9.1H5.3L15 55.3l-9.6 11h2.2l8.4-9.6 6.7 9.6h7.4M8.3 43.2h3.3L27 64.8h-3.3"/></g><g id="Reddit"><use xlink:href="#rc" y="72" fill="#ff4500"/><path d="M29.6 89.7c.1-2.6-3.3-4.2-5.2-2.4-1.7-.9-3.6-1.4-5.7-1.5l.5-3.1 2.2.3c.5 3 5.3 2.1 4.6-.9-.3-2.1-3.4-2.6-4.4-.7-5.2-1.2-3.5.3-4.5 4.3-2.2.1-4.2.6-5.9 1.5-3-2.7-7.2 2-4.2 4.7-2.4 12.6 24 12.6 21.6 0 .6-.5 1-1.3 1-2.2zm-17.4 2.7c0-2 3.2-2 3.2 0 0 2.1-3.2 2.1-3.2 0zm9.2 5.1c-2 1-7.2 1.7-7.6-1.1.2-.4.7-.5 1.1-.3 1.8.9 4 .9 5.8 0 .8-.5 1.6.9.7 1.4zm.3-3.5c-2 0-2-3.2 0-3.2s2 3.3 0 3.2z"/></g><g id="Tumblr"><use xlink:href="#rc" y="108" fill="#34526f"/><path d="M19.5 133.1c-1.1-.9-.8-1.4-.9-3.4V124h5.1v-3.5h-5.1v-5.7h-3c-.3 2.9-1.6 5.1-4.3 6v3.2h2.4c.1 1.7-.3 8.8.3 10.2 1.8 3.8 7.2 3.6 10.5 1.8v-3.5c-1.7 1-3.5 1.5-5 .6z"/></g><g id="Pinterest"><use xlink:href="#rc" y="144" fill="#d50011"/><path d="M13.6 174.1c1.2-1.5 2.2-5.8 2.6-7.3 4.8 5.2 12.2-1.2 11.7-8.4-.7-12.5-20.3-10.2-20.1.8 0 2.6 1 4.8 3.1 5.7.9.3.8-1 1-1.6.1-.4.1-.5-.2-.8-2.9-4.1.8-10.3 6.4-10.1 8.7-.8 7.2 13.4 1.5 13.6-1.3 0-2.4-1-2.5-2.3l.1-.6c4.7-11.3-5.8-8.5-3.1-1.3-.3 1.7-2.5 9-2.2 11.6.1.5 1.4.9 1.7.7z"/></g><g id="VK"><use xlink:href="#rc" y="180" fill="#4169e2"/><path d="M20 197.4c-.4-.1-.4-.7-.4-1.1 0-3.9 1.1-5.4-3.9-4.9-.6.1-1.5.3-1.7.9 0 .3.7.3 1 .7s.3 1.4.3 2.2c.1 2-.6 3-1.7 1.2-1-1.1-1.5-3-2.3-4.1-.5-.3-1.4-.4-2.2-.3-.8 0-1.9-.1-2.1.4.5 2.7 2.4 5.2 3.8 7.4 1.6 2.6 5.5 5.2 8.7 3.8.4-.6 0-2.3.9-2.5.7.1 1.1.9 1.6 1.3 1.2 1.7 2.7 1.7 4.8 1.6 4.6-.3-1.4-3.9-1.8-5.5.8-2.1 3.4-3.7 3.5-6.1-.2-.5-1.5-.3-2.2-.3-1 0-2.3-.1-2.5.1-1.5 1.3-1.9 4.3-3.8 5.2z"/></g><g id="WhatsApp"><use xlink:href="#rc" y="216" fill="#29a71a"/><path d="M25.4 226.3c-9-8.7-23 2-16.9 13v-.1L7 244.8l5.7-1.5c10.9 5.8 21.3-8.1 12.7-17zm-7.6 16.5c-1.7 0-3.3-.5-4.6-1.3-.1-.5-3.5.7-3.7.7l.9-3.3a9 9 0 0 1 7.4-14c11.8.5 11.8 17.5 0 17.9zm4.9-6.7c-4.2-2.8-1.6 2.8-6-1-2.7-2.8-1-1.5-.7-3.8-.3-2.9-3.5-3.3-3.6.1.1 1.1.5 2 1.1 2.8 1.8 2.5 4.6 5 7.8 4.7 1.2-.2 2.2-1.3 2-2.6-.2 0-.4 0-.6-.2z"/></g><g id="LinkedIn"><use xlink:href="#rc" y="252" fill="#0077b5"/><path d="M11.9 261.5c.1 3.4-5.3 3.6-5.4.1-.3-3.6 5.5-3.7 5.4-.1zm-5.2 4.7h4.9v15.3H6.7v-15.3zm22.4 6.5v8.8h-4.9c-.6-2.5 1.7-11.7-2.5-11.6-4.5 0-2.1 9.1-2.6 11.6h-4.9v-15.3h4.9v2.3c3-5.1 10.4-2.6 10 4.2z"/></g><g id="Viber"><use xlink:href="#rc" y="288" fill="#665cac"/><path d="M17.9 295.7c-3.5-.2-10 .5-9.6 7.8-.1 2.5-.3 7.3 4.2 8.5.1.2-.2 4.3.1 4.2.9-.4 3.3-3.7 3.4-3.7 5-.1 9.7.1 10.5-5.7.6-8.2.1-10.6-8.6-11.1zm5 13.1c-.5.8-1.3 1.8-2.3 1.5-3.8-1-8-5.3-9-9-.4-1.1 1.6-3.1 2.6-2.2.3.3 1.2 1.5 1.5 2.1.7 1.2-1.1 1.4-.9 2.3 0 0 .8 3 3.8 3.8 0 0 .4 0 .6-.2 1-1.9 2.7.1 3.7.8.2.1.2.5 0 .9zm-5-8.5c-1.3-1.3 2.8 0 3 .7.5.6 1.6 2.6.7 3.1-.2 0-.3-.1-.3-.3.1-2-1.3-3.4-3.4-3.5zm2.5 3c0 .4-.6.4-.6 0 0-.5-.2-.9-.4-1.1-.2-.4-1.3-.2-1.3-.7 0-.2.1-.3.3-.3 1.2.1 2 .9 2 2.1zm3 1.1c0 .4-.6.4-.6 0 0-3.3-2.2-5.7-5.4-5.7-.2 0-.3-.1-.3-.3 3.2-1.1 6.6 2.6 6.3 6z"/></g><g id="Telegram"><use xlink:href="#rc" y="324" fill="#1b8adb"/><path d="m7.2 341.6 5.1 1.9 2 6.3c.5 1.5 3.2-1.8 3.8-2 .7-1 5.5 3.5 6.1 3.7.4.3.8.1.9-.4l3.7-18c.1-.5-.4-.8-.8-.7l-20.8 8c-.6.3-.6 1 0 1.2zm6.7.9 9.9-6.1c1.4-.3-8.2 7.8-8 7.9-.8.2-.4 4.1-1.3 3.1 0-.9-1.9-4.3-.6-4.9z"/></g><g id="NativeShare"><use xlink:href="#rc" y="360" fill="#292d32"/><circle id="cr" cx="18" cy="378" r="3" fill="#fff"/><use xlink:href="#cr" transform="translate(-12)"/><use xlink:href="#cr" transform="translate(12)"/></g></svg>