<?xml version="1.0" encoding="UTF-8"?>
<svg id="_Слой_2" data-name="Слой 2" xmlns="http://www.w3.org/2000/svg" viewBox="0 0 202.52 46.67">
  <defs>
    <style>
      .cls-1 {
        fill: #006f9b;
      }
    </style>
  </defs>
  <g id="_Слой_1-2" data-name="Слой 1">
    <g id="Colnect">
      <g>
        <path class="cls-1" d="m10.1,19.86C5.35,21.99,1.93,24.68.58,29.13c-.29.95-1.38,4.52.5,7.02.72.96,1.61,1.42,2.43,1.82.94.46,3.27,1.45,7.98,1.02,3.19-.29,7.87-.72,10.49-4.04.17-.22,1.53-1.96,1.03-2.67-.47-.68-2.44-.14-4.15.32-1.56.42-2.16.75-3.07,1.05-2.62.87-7.08,1.29-8.48-.8-.71-1.05-.47-2.5-.38-3.06.23-1.4.94-2.33,1.24-2.71,1.64-2.08,4.85-3.5,7.92-3.27,1.46.11,2.53.57,3.34-.12.82-.7.7-2,.69-2.12-.15-1.41-1.33-2.26-1.85-2.51-2.58-1.24-3.87-1.13-8.15.79Z"/>
        <g>
          <path class="cls-1" d="m32.04,36.34l-.42.36c-.14.12-.36.12-.49,0l-1.79-1.53c-.14-.12-.14-.31,0-.43l.42-.36c.14-.12.36-.12.49,0l1.79,1.53c.14.12.14.31,0,.43Z"/>
          <path class="cls-1" d="m28.52,35.39l-9.29,8.15c-.21.19-.22.49,0,.67l1.59,1.36c.21.18.56.18.77,0l9.29-8.15c.21-.19.22-.49,0-.67l-1.59-1.36c-.21-.18-.56-.18-.77,0Z"/>
          <path class="cls-1" d="m20.76,46.21l-.42.36c-.14.12-.36.12-.49,0l-1.79-1.53c-.14-.12-.14-.31,0-.43l.42-.36c.14-.12.36-.12.49,0l1.79,1.53c.14.12.14.31,0,.43Z"/>
          <path class="cls-1" d="m38.21,17.47c-1.77.32-4.44,1.47-6.22,2.69-4.78,3.27-6.04,7.81-3.34,12,5.54,8.6,22.6,8.78,28.32.29,4-5.92-.35-12.66-9.5-14.94-3.21-.76-4.98-.78-9.25-.04Zm10.5,3.65c6.65,3.16,6.48,11.03-.22,13.83-7.92,3.29-17.37-1.36-16.25-7.98,1.03-5.95,9.67-9.01,16.48-5.85Z"/>
          <path class="cls-1" d="m36.61,22.18c-1.22.69-2.28,1.62-2.4,2.11-.17.69.13.6,1.14-.35.73-.71,2.1-1.56,3.02-1.96s1.41-.8,1.05-.89c-.31-.08-1.59.39-2.81,1.08Z"/>
        </g>
        <path class="cls-1" d="m78.52.78c-.33.56-.9,1.62-1.31,2.34s-.76,1.79-.8,2.42c-.11,2-6.78,16.16-10.93,23.28-5.12,8.62-5.41,11.35-1.3,11.58,1.47.08,2.6-.37,3.62-1.41,6.46-6.3,13.04-24.14,12.63-34.15-.14-4.14-1-6.02-1.91-4.07Z"/>
        <path class="cls-1" d="m95.63,18.41c-1.46.28-2.83.79-3.07,1.12-.4.39-.89.34-1.62-.06-.65-.34-2.1-.56-3.4-.45-2.51.17-3.15,1.18-7.2,11.34-2.18,5.73-2.1,6.63.73,7.86,2.43,1.07,3.8-.22,8.01-7.53,4.2-7.19,4.93-7.97,6.87-7.47.89.22,1.05,1.18.57,4.72-.24,2.41-.24,5.5,0,6.91.73,3.09,3.88,5.95,6.63,5.95,2.26,0,2.34-.28.73-3.03-1.46-2.41-1.13-6.96.89-11.12,1.86-3.93,1.29-6.07-2.02-7.58-2.99-1.4-3.32-1.46-7.12-.67Z"/>
        <path class="cls-1" d="m127.05,20.73c-4.78,1.41-13.21,5.7-15.97,8.23-1.95,1.75-2.11,2.37-1.7,4.51,1.14,4.96,6.08,6.88,15.4,5.98,5.27-.51,13.46-2.65,13.46-3.5,0-.28-.81-.34-1.78-.11-2.92.62-13.94.45-17.11-.28-3.08-.73-4.13-2.31-1.54-2.31,2.19,0,10.62-3.95,13.7-6.37,4.22-3.38,4.7-6.77,1.05-6.99-1.14-.06-3.57.34-5.51.85Zm.16,4.68c-2.19,1.69-8.43,4.12-9.16,3.61-.57-.45,1.95-2.14,5.51-3.78,4.95-2.14,6.73-2.09,3.65.17Z"/>
        <path class="cls-1" d="m149.51,20.56c-9.01,3.99-12.46,12.36-6.8,16.91,3.85,3.15,11.39,2.86,17.13-.56,2.79-1.69,3.85-3.88,1.97-3.88-.49,0-2.62.39-4.75.95-4.59,1.12-7.95.67-9.26-1.24-1.31-1.97-.08-5.28,2.62-7.13,2.13-1.4,2.79-1.57,5.41-1.24,2.13.28,3.2.17,3.69-.39,1.97-2.19-.41-5-4.26-5-1.15,0-3.69.73-5.74,1.57Z"/>
        <path class="cls-1" d="m179.99,13.07c-1.05,1.31-2.43,3.01-2.92,3.83-.73,1.04-1.87,1.53-3.97,1.81-4.38.55-9.81,2.3-9.81,3.18,0,1.2,2.68,2.52,5.51,2.68,3,.16,3,.05,1.3,4.49-1.7,4.49-1.14,7.83,1.7,9.47,3,1.81,5.76,1.59,9-.6,3.32-2.24,3.49-3.01.57-2.9-3.08.16-3.24-1.04-.65-6.57,2.03-4.49,2.27-4.65,5.6-5.69,1.95-.55,5.43-1.31,7.78-1.64s5.43-.93,6.73-1.31c2.03-.55,2.11-.71.89-1.04-.81-.22-4.38-.55-7.87-.71l-6.41-.33.49-1.92c.57-2.57-1.3-5.04-3.97-5.04-1.46,0-2.43.6-3.97,2.3Z"/>
      </g>
    </g>
  </g>
</svg>