<svg xmlns="http://www.w3.org/2000/svg" width="340" height="126" fill="none"><path fill="#2563EB" d="m131.3 4.8-2.1 5.6c-.7 1.7-1.2 4.3-1.2 5.9a407.1 407.1 0 0 1-18.5 58c-7.2 17.8-7.4 24.4-.2 24.4 2.7 0 4.7-1.2 6.4-3.8C126.8 79.5 137 37.2 135.2 14c-.7-9.6-2.4-13.9-3.9-9.2Zm169.5 27.5c-1.7 3.2-4 7.3-4.8 9.3-1.2 2.5-3 3.7-6.5 4.4-7.2 1.3-16.2 5.6-16.2 7.7 0 3 4.4 6.2 9.1 6.6 5 .4 5 .1 2.1 10.9-2.8 11-1.8 19 2.8 23 5 4.5 9.5 4 14.8-1.4 5.5-5.5 5.8-7.3 1-7-5.1.3-5.4-2.6-1.1-16 3.3-11 3.7-11.4 9.2-14 3.2-1.3 9-3.1 12.8-4 3.9-.7 9-2.2 11-3.1 3.4-1.4 3.5-1.8 1.5-2.6-1.3-.5-7.2-1.3-12.9-1.7l-10.5-.8.8-4.7c.9-6.2-2.2-12.2-6.6-12.2-2.4 0-4 1.4-6.5 5.6Zm-235.5 12a25.4 25.4 0 0 0-16.1 35 25.8 25.8 0 0 0 47.5-.9c5.7-13.9-1.8-29.2-16.6-34.3a21 21 0 0 0-14.8.2Zm17 8.4c11 7.3 10.9 26-.2 32.8-13 8-28.8-2.8-27-18.6 1.6-14.1 15.8-21.6 27.2-14.2Z"/><path fill="#2563EB" d="M63.2 57.9c-2.5 2.5-4.5 5.6-4.5 6.9 0 1.9.6 1.5 2.5-1.6 1.3-2.3 4.1-5.3 6.1-7 2-1.5 3-2.9 2-2.9-.8 0-3.6 2-6.1 4.6Zm-44.9-8.6A40.6 40.6 0 0 0 2.5 71.2c-1.8 7 .6 15.9 5.8 20.1 7.6 6.4 22.5 3.1 29.6-6.4 3.8-5.2 1.6-6.9-5.8-4.2-11.8 4.1-17.4 2-17.4-6.4 0-9.9 7.6-18.7 13.4-15.6 6.2 3.3 9.5-7.2 3.6-11.2-4.2-3-6.4-2.7-13.4 1.8Zm142.1-2.5c-2.4.7-4.7 1.9-5 2.7-.7.9-1.5.8-2.7-.2a8.7 8.7 0 0 0-5.6-1c-4.2.4-5.2 2.8-11.9 26.9-3.6 13.6-3.5 15.7 1.2 18.7 4 2.5 6.3-.6 13.2-17.9 7-17 8.1-19 11.3-17.7 1.5.5 1.8 2.8 1 11.2-.4 5.7-.4 13 0 16.4 1.2 7.3 6.4 14.1 10.9 14.1 3.7 0 3.9-.7 1.2-7.2-2.4-5.7-1.9-16.5 1.5-26.4 3-9.3 2.1-14.4-3.4-18-4.9-3.3-5.4-3.5-11.7-1.6Zm90.1 5.1c-3.3 2-7.8 6.6-10.2 10.1-12.6 19-2 39.9 17.2 34.1 6.4-1.8 14.5-8.8 14.5-12.2 0-3.1-1.2-3.2-9.2-.3-7.5 2.7-13 1.6-15-3-2.2-4.6-.2-12.5 4.2-16.9 3.5-3.3 4.5-3.7 8.8-2.9 3.5.7 5.2.4 6-1 3.2-5.1-.7-11.8-7-11.8a23 23 0 0 0-9.3 3.9Zm-38.2-.2A87 87 0 0 0 186 71.2c-3.2 4.1-3.5 5.6-2.8 10.7.5 3.3 2.1 7.4 3.5 9.2 5.4 6.9 21.2 7.2 37 .8 6.7-2.8 10-6.4 4-4.4-4.8 1.4-22.9 1-28.1-.7-5-1.7-6.8-5.5-2.5-5.5 3.6 0 17.4-9.3 22.5-15 7-8 7.7-16 1.7-16.6a28 28 0 0 0-9 2Zm.2 11.1c-3.6 4-13.8 9.7-15 8.5-1-1 3.2-5 9-8.9 8.2-5 11.1-5 6 .4ZM48.3 85.7c-2.3 2.7 5.6 10.3 8 7.9 1.3-1.3.8-2.5-2.4-5.7-3.4-3.4-4.4-3.8-5.6-2.2ZM40 95c-17.3 15.4-16.3 14-13.9 17.8 1.2 1.7 2.8 3 3.4 3 .6-.3 6-4.6 11.8-9.7 10-8.6 10.6-9.4 8.8-12-2.6-4.1-4.9-3.8-10.1.8Zm121.3 15.3c-1.3 3.8-1.2 3.7-3.2 1.9-3.4-3.3-8-2.3-10 1.6-1.7 3-1.5 4.4 1 5.9 6.5 3.5 8.8-2.2 10-4 .4-.7 0 1 .5 2.5.3.7.5 1 1.5 1.5.7.4 7.5 1 11.5 0 3-1 .4.3 2.5.5 4 0 4.4 0 8-.5 3-.5 5-1.2 7.5-1.4 1 0 .9.2 1.4 1.2.5 1 4.1.2 6.1.2 1 0 1-1.5 0-1.5s-3.5.5-4.5 0c-1-1-.9-2.3-.6-2.5h4.5c.5 0 .8-1.4 0-1.4H193v-3.1h4.4c1 0 1-2 0-2h-4c-1 0-2 1-2.4 3.5 0 1.5.1 3.3-.5 4-.6.6-3.3 1.4-4.5 1.5l-7 .5c-4.1.3-2.5-2-1.5-6.5 2-7.5 0-8.5-2-1-.9 3.7-.5 3.5-1 6.5-.4.7-2.2 1-3.1 1.1-1.8.3-6.2 0-7.4-.1-2.8-.5-2.1-.6-1.5-5.5 2.5-8.5.7-8.8-1.3-2.9Zm-5.2 4.7c0 2.1-2.5 4.7-4.9 2.8-1.6-1.2-.6-3.3 1-4.1 1-.6 4-.5 4 1.3Zm116.2-3.8c.6 5.6-.4 6-4 1.5-3.2-4.2-5.6-4.3-5.6-.4 0 2.6-.2 2.6-2.4.6-3.6-3.3-7.6-2.8-9.8 1.2-1.6 3.1-1.6 3.6.8 5.4 3 2.2 5.4 2.4 8.8.5 1.8-1 2.6-1 2.6 0 0 .7.6 1.3 1.3 1.3.8 0 1.3-1.4 1.3-3.3 0-4 .6-4.1 5.2-.8 2 1.5 5.2 3 7.2 3.5 3.2.8 3.6.5 3.6-2.7v-3.6l4.6 2.8c1.8 1.1 4.1 3.5 6.1 3.5 1.5 0 1-2.2 1.5-3.2s.5 1.5 1.5 3h7c2.5 0 2.5-1.4.4-1.4-6.4-.1-5.9-3.1.1-3.1.5 0 .4-1 0-1h-5s-.7-1.1 0-1.5c1.2-.6 5-.5 5-.5 3.2 0 2.9-2.3-1.8-2.3-5.1 0-6 .4-6 2.5 0 5-2.6 4.1-4-1.3-1.1-4-1.9-5.2-3-4.2-1 1.1-1 2.4 0 5 2 4.2-.1 4.2-3.4 0-3.6-4.6-5.6-4.2-5.6.9-.2 4.1-.2 4.3-2 1.9-1.1-1.5-2-3.8-2-5 0-1.3-.7-2.8-1.5-3.3-1-.7-1.3.5-1 4Zm-13.6 4.1c0 2.2-3.6 4.3-5 2.8-.9-.9 2.2-4.8 3.8-4.8.6 0 1.2 1 1.2 2Zm-240.8-3.2c-.4.8.9 3.4 3.3 5.6 3.2 3.4 4.4 3.9 5.7 2.6 1.2-1.2.8-2.4-2.2-5.6-4.2-4.4-5.4-4.8-6.8-2.6Zm116.2.9a6 6 0 0 0-1 4.2c1 5 13 4.4 13 1.2 0-.9-.5-2.7-3.8-.6-3.2 2-7.1.6-6-2.2.6-1.5 1.3-1.8 2.5-.7 2 1.6 3.5.4 2.4-2.1-1-2.4-5-2.4-7 .1Z"/><path fill="#2563EB" d="M200 113.3c-2.3 4.4.5 7 7.2 6.4 3-.2 5.2-.9 4.8-1.7-.4-.8-1.2-1-2-.8-3 1.2-6.4.7-7-1-.5-1.4-.1-3.1 2-2.6 3 1.4 3 1.6 2.7 0-.6-3.5-6-3.6-7.7-.3Zm12.7-1.3c.4.7 2.7.5 3.8.5 1 0 .8 2.2.8 4.2 0 3.3.8 3.3 2 3.3s2 0 2-3.3c0-2.4-.3-4.2 1.7-4.2 1.5 0 3.7 0 3.7-.5 0-1.7-3.4-1.3-7.5-1.3-4.5 0-7 .5-6.5 1.3Zm22.8 1.6c-1.5 2.1-1.8 3.3-.6 4.7 1.8 2.1 11.2 2.2 12.4.2 1.4-2.1-.5-3.2-2.2-1.4-3.2 3.2-9.2 1-7.1-2.4.7-1.1 1.5-1.1 2.5-.2 2.3 1.9 3.9.2 2-2.1-2.2-2.5-4.8-2.1-7 1.2Zm74.1-1.3c-2.7 2.6-1.9 6.2 1.6 7.2 4.3 1 10.3.1 9.9-1.5-.3-.8-1-1-1.8-.8-4.8 1.9-7.3 1.6-7.3-.5 0-1.8.8-2.2 2.8-1.6 2 .5 2.5.1 2.3-1.5-.6-2.8-5.2-3.6-7.5-1.3Zm12.4-.3c.4.7 1.7 1.3 2.8 1.3 1 0 1.9 1.4 1.9 3.4 0 2.1.8 3.3 2 3.3s2-1.2 2-3.3c0-2.4.6-3.4 2.6-3.4 1.5 0 2.7-.6 2.7-1.3 0-.8-3.3-1.3-7.5-1.3-4.5 0-7 .5-6.5 1.3Z"/></svg>