<svg width="135" height="40" viewBox="0 0 135 40" fill="none" xmlns="http://www.w3.org/2000/svg">
<path d="M130 40H5C2.2 40 0 37.8 0 35V5C0 2.2 2.2 0 5 0H130C132.8 0 135 2.2 135 5V35C135 37.7 132.8 40 130 40Z" fill="black"/>
<path d="M130 0.8C132.3 0.8 134.2 2.7 134.2 5V35C134.2 37.3 132.3 39.2 130 39.2H5C2.7 39.2 0.8 37.3 0.8 35V5C0.8 2.7 2.7 0.8 5 0.8H130ZM130 0H5C2.2 0 0 2.2 0 5V35C0 37.8 2.2 40 5 40H130C132.8 40 135 37.8 135 35V5C135 2.3 132.8 0 130 0Z" fill="#A6A6A6"/>
<path d="M47.3999 10.1999C47.3999 10.9999 47.1999 11.6999 46.6999 12.1999C46.0999 12.7999 45.3999 13.0999 44.4999 13.0999C43.5999 13.0999 42.8999 12.7999 42.2999 12.1999C41.6999 11.5999 41.3999 10.8999 41.3999 9.9999C41.3999 9.0999 41.6999 8.3999 42.2999 7.7999C42.8999 7.1999 43.5999 6.8999 44.4999 6.8999C44.8999 6.8999 45.2999 6.9999 45.6999 7.1999C46.0999 7.3999 46.3999 7.5999 46.5999 7.8999L46.0999 8.3999C45.6999 7.8999 45.1999 7.6999 44.4999 7.6999C43.8999 7.6999 43.2999 7.8999 42.8999 8.3999C42.3999 8.7999 42.1999 9.3999 42.1999 10.0999C42.1999 10.7999 42.3999 11.3999 42.8999 11.7999C43.3999 12.1999 43.8999 12.4999 44.4999 12.4999C45.1999 12.4999 45.6999 12.2999 46.1999 11.7999C46.4999 11.4999 46.6999 11.0999 46.6999 10.5999H44.4999V9.8999H47.3999C47.3999 9.8999 47.3999 10.0999 47.3999 10.1999Z" fill="white" stroke="white" stroke-width="0.2" stroke-miterlimit="10"/>
<path d="M52 7.7H49.3V9.6H51.8V10.3H49.3V12.2H52V13H48.5V7H52V7.7Z" fill="white" stroke="white" stroke-width="0.2" stroke-miterlimit="10"/>
<path d="M55.2998 13H54.4998V7.7H52.7998V7H56.9998V7.7H55.2998V13Z" fill="white" stroke="white" stroke-width="0.2" stroke-miterlimit="10"/>
<path d="M59.8999 13V7H60.6999V13H59.8999Z" fill="white" stroke="white" stroke-width="0.2" stroke-miterlimit="10"/>
<path d="M64.1001 13H63.3001V7.7H61.6001V7H65.7001V7.7H64.0001V13H64.1001Z" fill="white" stroke="white" stroke-width="0.2" stroke-miterlimit="10"/>
<path d="M73.5998 12.1999C72.9998 12.7999 72.2998 13.0999 71.3998 13.0999C70.4998 13.0999 69.7998 12.7999 69.1998 12.1999C68.5998 11.5999 68.2998 10.8999 68.2998 9.9999C68.2998 9.0999 68.5998 8.3999 69.1998 7.7999C69.7998 7.1999 70.4998 6.8999 71.3998 6.8999C72.2998 6.8999 72.9998 7.1999 73.5998 7.7999C74.1998 8.3999 74.4998 9.0999 74.4998 9.9999C74.4998 10.8999 74.1998 11.5999 73.5998 12.1999ZM69.7998 11.6999C70.1998 12.0999 70.7998 12.3999 71.3998 12.3999C71.9998 12.3999 72.5998 12.1999 72.9998 11.6999C73.3998 11.2999 73.6998 10.6999 73.6998 9.9999C73.6998 9.2999 73.4998 8.6999 72.9998 8.2999C72.5998 7.8999 71.9998 7.5999 71.3998 7.5999C70.7998 7.5999 70.1998 7.7999 69.7998 8.2999C69.3998 8.6999 69.0998 9.2999 69.0998 9.9999C69.0998 10.6999 69.2998 11.2999 69.7998 11.6999Z" fill="white" stroke="white" stroke-width="0.2" stroke-miterlimit="10"/>
<path d="M75.6001 13V7H76.5001L79.4001 11.7V10.5V7H80.2001V13H79.4001L76.3001 8.1V9.3V13H75.6001Z" fill="white" stroke="white" stroke-width="0.2" stroke-miterlimit="10"/>
<path d="M68.1001 21.8001C65.7001 21.8001 63.8001 23.6001 63.8001 26.1001C63.8001 28.5001 65.7001 30.4001 68.1001 30.4001C70.5001 30.4001 72.4001 28.6001 72.4001 26.1001C72.4001 23.5001 70.5001 21.8001 68.1001 21.8001ZM68.1001 28.6001C66.8001 28.6001 65.7001 27.5001 65.7001 26.0001C65.7001 24.5001 66.8001 23.4001 68.1001 23.4001C69.4001 23.4001 70.5001 24.4001 70.5001 26.0001C70.5001 27.5001 69.4001 28.6001 68.1001 28.6001ZM58.8001 21.8001C56.4001 21.8001 54.5001 23.6001 54.5001 26.1001C54.5001 28.5001 56.4001 30.4001 58.8001 30.4001C61.2001 30.4001 63.1001 28.6001 63.1001 26.1001C63.1001 23.5001 61.2001 21.8001 58.8001 21.8001ZM58.8001 28.6001C57.5001 28.6001 56.4001 27.5001 56.4001 26.0001C56.4001 24.5001 57.5001 23.4001 58.8001 23.4001C60.1001 23.4001 61.2001 24.4001 61.2001 26.0001C61.2001 27.5001 60.1001 28.6001 58.8001 28.6001ZM47.7001 23.1001V24.9001H52.0001C51.9001 25.9001 51.5001 26.7001 51.0001 27.2001C50.4001 27.8001 49.4001 28.5001 47.7001 28.5001C45.0001 28.5001 43.0001 26.4001 43.0001 23.7001C43.0001 21.0001 45.1001 18.9001 47.7001 18.9001C49.1001 18.9001 50.2001 19.5001 51.0001 20.2001L52.3001 18.9001C51.2001 17.9001 49.8001 17.1001 47.8001 17.1001C44.2001 17.1001 41.1001 20.1001 41.1001 23.7001C41.1001 27.3001 44.2001 30.3001 47.8001 30.3001C49.8001 30.3001 51.2001 29.7001 52.4001 28.4001C53.6001 27.2001 54.0001 25.5001 54.0001 24.2001C54.0001 23.8001 54.0001 23.4001 53.9001 23.1001H47.7001ZM93.1001 24.5001C92.7001 23.5001 91.7001 21.8001 89.5001 21.8001C87.3001 21.8001 85.5001 23.5001 85.5001 26.1001C85.5001 28.5001 87.3001 30.4001 89.7001 30.4001C91.6001 30.4001 92.8001 29.2001 93.2001 28.5001L91.8001 27.5001C91.3001 28.2001 90.7001 28.7001 89.7001 28.7001C88.7001 28.7001 88.1001 28.3001 87.6001 27.4001L93.3001 25.0001L93.1001 24.5001ZM87.3001 25.9001C87.3001 24.3001 88.6001 23.4001 89.5001 23.4001C90.2001 23.4001 90.9001 23.8001 91.1001 24.3001L87.3001 25.9001ZM82.6001 30.0001H84.5001V17.5001H82.6001V30.0001ZM79.6001 22.7001C79.1001 22.2001 78.3001 21.7001 77.3001 21.7001C75.2001 21.7001 73.2001 23.6001 73.2001 26.0001C73.2001 28.4001 75.1001 30.2001 77.3001 30.2001C78.3001 30.2001 79.1001 29.7001 79.5001 29.2001H79.6001V29.8001C79.6001 31.4001 78.7001 32.3001 77.3001 32.3001C76.2001 32.3001 75.4001 31.5001 75.2001 30.8001L73.6001 31.5001C74.1001 32.6001 75.3001 34.0001 77.4001 34.0001C79.6001 34.0001 81.4001 32.7001 81.4001 29.6001V22.0001H79.6001V22.7001ZM77.4001 28.6001C76.1001 28.6001 75.0001 27.5001 75.0001 26.0001C75.0001 24.5001 76.1001 23.4001 77.4001 23.4001C78.7001 23.4001 79.7001 24.5001 79.7001 26.0001C79.7001 27.5001 78.7001 28.6001 77.4001 28.6001ZM101.8 17.5001H97.3001V30.0001H99.2001V25.3001H101.8C103.9 25.3001 105.9 23.8001 105.9 21.4001C105.9 19.0001 103.9 17.5001 101.8 17.5001ZM101.9 23.5001H99.2001V19.2001H101.9C103.3 19.2001 104.1 20.4001 104.1 21.3001C104 22.4001 103.2 23.5001 101.9 23.5001ZM113.4 21.7001C112 21.7001 110.6 22.3001 110.1 23.6001L111.8 24.3001C112.2 23.6001 112.8 23.4001 113.5 23.4001C114.5 23.4001 115.4 24.0001 115.5 25.0001V25.1001C115.2 24.9001 114.4 24.6001 113.6 24.6001C111.8 24.6001 110 25.6001 110 27.4001C110 29.1001 111.5 30.2001 113.1 30.2001C114.4 30.2001 115 29.6001 115.5 29.0001H115.6V30.0001H117.4V25.2001C117.2 23.0001 115.5 21.7001 113.4 21.7001ZM113.2 28.6001C112.6 28.6001 111.7 28.3001 111.7 27.5001C111.7 26.5001 112.8 26.2001 113.7 26.2001C114.5 26.2001 114.9 26.4001 115.4 26.6001C115.2 27.8001 114.2 28.6001 113.2 28.6001ZM123.7 22.0001L121.6 27.4001H121.5L119.3 22.0001H117.3L120.6 29.6001L118.7 33.8001H120.6L125.7 22.0001H123.7ZM106.9 30.0001H108.8V17.5001H106.9V30.0001Z" fill="white"/>
<path d="M20.7001 19.3999L10.1001 30.6999C10.4001 31.8999 11.5001 32.7999 12.9001 32.7999C13.4001 32.7999 13.9001 32.6999 14.4001 32.3999L26.4001 25.4999L20.7001 19.3999Z" fill="#EA4335"/>
<path d="M31.5 17.5L26.3 14.5L20.5 19.7L26.3 25.5L31.4 22.5C32.3 22 32.9 21.1 32.9 20C33 18.9 32.4 18 31.5 17.5Z" fill="#FBBC04"/>
<path d="M10.1 9.30005C10 9.50005 10 9.80005 10 10V30C10 30.3 10 30.5001 10.1 30.7001L21.1 19.7001L10.1 9.30005Z" fill="#4285F4"/>
<path d="M20.8 20L26.3 14.5L14.3 7.59995C13.9 7.29995 13.4 7.19995 12.8 7.19995C11.5 7.19995 10.3 8.09995 10 9.29995L20.8 20Z" fill="#34A853"/>
</svg>
