<svg xmlns="http://www.w3.org/2000/svg" xmlns:xlink="http://www.w3.org/1999/xlink" xml:space="preserve" viewBox="0 0 128 4096"><style>.c1{fill:#ffcb03}.c2{fill:#e6ae01}.c3,text{fill:#fff}.c4{fill:#3a6898}.c5{fill:#003488}.cg1{fill:url(#vG)}.cg3{fill:url(#rHG1)}.cg4{fill:url(#rHG2)}.sk2,.sk4{stroke-miterlimit:10;stroke-width:2}.sk4{stroke-width:4}.sc1{stroke:#d95f00}.sc2{stroke:#fff}.sc3{stroke:#00689b}text{font-family:sans-serif;font-size:48px;font-weight:700;text-anchor:middle;dominant-baseline:middle}.sText{transform:translate(64px,1478px);fill:#000}@-moz-document url-prefix(){#Trasl text{transform:translate(53px,1708px)}.sText{transform:translate(62px,1478px)}#Ambas text{transform:translate(62px,1980px)}#Trs text{transform:translate(84px,3376px) skewY(16deg)}}</style><defs><path id="lOut" d="M112 21H16c-5 0-8 3-8 7v64c0 5 3 8 8 8h48v-3H20l-4-1-2-3 27-27 18 19 3 1h2v-4 4l2-1 19-19 29 27c-1 3-3 4-6 4H64v3h48c5 0 8-3 8-8V28c0-4-3-7-8-7zM12 91l-1-27V34l28 29-27 28zm53-11-2 1-2-1-49-51c2-2 4-4 8-4h88c4 0 6 2 8 5L65 80zm52 9L88 64l29-29v54z"/><path id="cloud" d="m117 1680-5-1H90l-3-2c-9-5-21-8-33-8-29 0-52 16-52 35s23 35 52 35 52-16 52-35l-1-5c1-4 2-9 5-12 5-4 13-2 13-4l-6-3z"/><path id="lg" class="sk2 sc1" d="m20 264 79-8 24 99-91 8-12-98z"/><path id="shield" d="M100 2321c-4 0-13-2-21-7-5-3-8-6-10-9h-9c-2 3-6 6-11 9-8 6-17 7-21 7H11l-2 1v56a118 118 0 0 0 50 41h9c8-3 18-9 28-17 11-8 18-17 23-24v-56l-2-1h-17z"/><path id="house" d="M19 91V48c3-1 7-2 9-5 7 7 19 7 25 0V0H16L0 18c0 11-2 27 13 30v48h40v-5H19ZM37 8h12v16H33l4-16Zm-6 22h18c1 6-1 12-9 12s-10-6-9-12ZM7 18C19 5 13 8 30 8l-5 16H7v-6Zm0 17v-5h17c3 15-16 15-17 5Z"/><radialGradient id="rHG1" cx="40%" cy="40%" r="50%" gradientUnits="objectBoundingBox"><stop offset=".8" stop-color="#ffcb03"/><stop offset="1" stop-color="#e6ae01"/></radialGradient><radialGradient id="rHG2" cx="40%" cy="40%" r="50%" gradientUnits="objectBoundingBox"><stop offset=".8" stop-color="#00689c"/><stop offset="1" stop-color="#005987"/></radialGradient><linearGradient id="vG" x1="0%" y1="50%" x2="100%" y2="50%" gradientUnits="objectBoundingBox"><stop offset=".5" style="stop-opacity:1;stop-color:#ffca00"/><stop offset=".5" style="stop-opacity:1;stop-color:#e5ad00"/></linearGradient><linearGradient id="vG2" x1="0%" y1="50%" x2="100%" y2="50%" gradientUnits="objectBoundingBox"><stop offset=".5" style="stop-opacity:1;stop-color:#00689c"/><stop offset=".5" style="stop-opacity:1;stop-color:#005987"/></linearGradient><g id="pencil"><path fill="#00547f" d="m109 1566-73 77h-5l-18-16v-4l74-77h4l18 16v4z"/><path d="m87 1546 21 19 1 1 2-1 3-17-6-5-20 2-1 1z" class="c2"/><path d="m114 1548-5-1-1-4h7l-1 5z"/></g></defs><g id="Letter"><path class="c2" d="M10 34h108v63H10z"/><path class="c1" d="m11 28 52 58 55-58-5-5-96 2-6 3z"/><use xlink:href="#lOut" fill="#d95f00"/></g><g id="Like"><path class="cg3 sk2 sc1" d="M125 199c3-11 2-14 2-19s-4-9-9-9H84v-23c0-21-15-20-21-19l-2 3v28c0 1 0 9-8 15-8 5-17 4-18 4l1 63 4 2 4 1h6l51-1c4-1 9-3 13-7 3-3 3-6 6-19l5-19z"/><path class="cg4" d="M34 177H7c-3 0-6 3-6 6v56c0 3 3 6 6 6h27c4 0 7-3 7-6v-56c0-3-3-6-7-6z"/><circle cx="24" cy="230" r="4" class="c5"/></g><g id="log"><use xlink:href="#lg" class="c2" transform="rotate(-7 134 423)"/><use xlink:href="#lg" class="c1 sk2 sc1"/><use xlink:href="#pencil" transform="rotate(160 124 637) scale(.6)"/></g><g id="HP"><circle cx="64" cy="448" r="64" class="cg4"/><path class="c1" d="m11 430 3 2 1 4h3l1 2 3 1 3 4 1 6-3 2h-5l-1 2v2l-1 3v2l2 2v3l-1 3v4l3 2 2 3 1 4 3 2v2l3 2c1 0 2 2 1 5l1 4v3l1 2 2 2 1 1 1 1 1 1 2 1h1l4 2 1-6-1-9v-7l2-10v-8l4-3 3-4-1-6-1-3-7-4-5-4-5-2 2-5 2-4 4-1 3-4 1-4v-4c1-4 3-7 6-8 0 0 3-1 5 1s1 4 1 5l4-6v-5a26 26 0 0 1-4-4v-4l-1-5-3-4c-5-4-8-5-8-4l-1 3v3l-2 1-4-1-4-2-4 2-4 3a56 56 0 0 0-16 16 54 54 0 0 0-6 10l2 5 4 3zm85-35 1 1h5l4 3 4 4 5 6 4 6a61 61 0 0 1 9 29v11a83 83 0 0 1-6 19l-1 2h-1l-4 2-2 1-3-4-1-4-5-5-3-1v-2l1-6c0-1-2-3-4-3l-4 2-1 3-1 3-1 5v3l-2 2-1 4-1 4 1 3-1 2v3l-1 1v2l-2 1v2h-1v3l-1 1v2l-1 1-1 2-2 2-1-3v-2l-3-4-1-5-2-4-1-5-2-4v-5l-3-2-1-2-1-1-1-4c0-2-2-2-2-5v-9l-1-4 1-2 1-2 1-3 2-2 1-1 6-1 4 1 3 1h2l6 2v-1l2 2 2 1 2 2 1 1 4 4c3 0 5-1 7-3v-5l1-5c2-8 1-10 1-10h-2l-3 2h-2l-2 1-1 2-2 1h-5l-3-1c-2-1-2 1-5 1l-4-1-2-2-2-2v-4l-2-1v-3l-1-3v-3h1l1-1 1-3 1-2v-2l1-3 2-1v-1l1-1 1-1 1-1 1-1h4v-1l3 1h7z"/></g><g id="Posts"><circle cx="64" cy="578" r="60" class="sk4" fill="#dbdadc" stroke="#ababab"/><path class="c5" d="M34 546h32v8H34z"/><path d="M35 559h31v4H35zm0 20h55v4H35zm0 8h55v4H35zm0 8h55v4H35zm0 8h55v4H35z" fill="#a9a9a9"/></g><g id="star1" transform="translate(0 -768)"><use href="#bS"/><use href="#ss7"/><text class="sText">1</text></g><g id="star2" transform="translate(0 -640)"><use href="#bS"/><use href="#ss1"/><use href="#ss7"/><text class="sText">2</text></g><g id="star3" transform="translate(0 -512)"><use href="#bS"/><use href="#ss1"/><use href="#ss2"/><use href="#ss7"/><text class="sText">3</text></g><g id="star4" transform="translate(0 -384)"><use href="#bS"/><use href="#ss1"/><use href="#ss2"/><use href="#ss6"/><use href="#ss7"/><text class="sText">4</text></g><g id="star5" transform="translate(0 -256)"><use href="#bS"/><use href="#ss1"/><use href="#ss2"/><use href="#ss6"/><use href="#ss4"/><use href="#ss7"/><text class="sText">5</text></g><g id="star6" transform="translate(0 -128)"><use href="#bS"/><use href="#ss1"/><use href="#ss2"/><use href="#ss3"/><use href="#ss4"/><use href="#ss7"/><use href="#ss6"/><text class="sText">6</text></g><g id="star7"><path transform="translate(19 1408)" id="bS" class="cg1" d="M74 102 46 87l-28 15 5-31L0 50l31-5 14-29 14 28 31 4-22 23 6 31z"/><path transform="translate(40 1436)" id="ss1" fill="#084bae" d="m49 14-4-2-5 2 1-5-4-4h5l2-5 3 5h4l-3 4 1 5z"/><use id="ss2" href="#ss1" transform="translate(14 44)"/><use id="ss3" href="#ss1" transform="translate(18 72)"/><use id="ss4" href="#ss1" transform="translate(-19 64)"/><use id="ss5" href="#ss1" transform="translate(-56 72)"/><use id="ss6" href="#ss1" transform="translate(-52 44)"/><use id="ss7" href="#ss1" transform="translate(-40)"/><text class="sText">7</text></g><g id="Edit"><use xlink:href="#pencil"/><path fill="#f04840" d="m60 1559-20 17c-1 0-20-1-20-18 1-17-20-15-20-15 16-9 36-9 48-1 8 6 12 17 12 17Z"/><path fill="#dbdadc" d="m49 1592-7-7-6-6 27-23a342 342 0 0 1 12 15l-26 21Z"/><path fill="#d95f00" d="M103 1615c11 19 10 23 9 24-3 2-10-3-25-13a151 151 0 0 1-38-34l26-21a467 467 0 0 1 28 44Z"/></g><g id="Trasl"><use xlink:href="#cloud" transform="rotate(-180 64 1730)" fill="#008fe1"/><path class="c3" d="M95 1785c-8 2-13-3-12-11l-1-27c-2-7-10-4-14 1v24h-6v-33h6v4c7-9 22-5 21 7v24c-1 5 1 8 6 6v5Z"/><use xlink:href="#cloud" class="c4"/><text transform="translate(55 1708)" style="font-size:64px">A</text></g><g id="Crdin"><use href="#back" transform="translate(-68)"/><g id="back"><circle class="cg4" cx="98.1" cy="1823" r="22"/><path fill="url(#vG2)" d="M78 1850h40l7 20 3 10-28 13h-1l-31-13 4-12 6-18z"/></g><ellipse class="cg3" cx="65.9" cy="1828.5" rx="26.7" ry="27.5"/><path class="cg1" d="M42 1862h47l8 24 4 12-33 17h-1l-37-17 5-15 7-21z"/></g><g id="Ambas"><g id="b" transform="translate(0 1922)"><path class="sk2" stroke="#ffcb03" fill="none" d="M64 113a52 52 0 0 0 40-19 54 54 0 0 0 13-36v-9c0-6-2-9-3-14l-7-13-7-8-8-7"/><path id="a" class="c1" d="M1 17c-2 0-1 2 0 4 3 6 12 8 18 7-1-6-12-9-18-11Zm0 0 8-5c2-3 3-9 1-12C5 3-1 11 0 16l1 1Z" transform="translate(68 96)"/><use href="#a" transform="rotate(-20 93 34) scale(.9)"/><use href="#a" transform="rotate(-35 89 21) scale(.8)"/><use href="#a" transform="rotate(-60 81 24) scale(.7)"/><use href="#a" transform="rotate(-73 77 15) scale(.6)"/><use href="#a" transform="rotate(-75 71 -1) scale(.5)"/><use href="#a" transform="rotate(-100 65 13) scale(.5)"/><use href="#a" transform="rotate(-115 60 9) scale(.4)"/><use href="#a" transform="rotate(-125 57 11) scale(.4)"/><use href="#a" transform="rotate(-140 53 15) scale(.4)"/><path class="c1" d="M27 7c-1-5-9-8-13-7 3 4 9 7 13 7Z" transform="translate(65 1)"/></g><use href="#b" transform="matrix(-1 0 0 1 128 0)"/><use xlink:href="#shield" class="c4 sk2" stroke="#000" transform="matrix(.65 0 0 .7 22 325)"/><text transform="translate(64 1980)" style="font-size:64px">A</text></g><g id="Prem" transform="translate(12 2055)"><use href="#ap" transform="matrix(-1 0 0 1 100 0)"/><path id="ap" class="c4" d="m49 87 8 33 10-14 17 9-11-37-12 4-12 5z"/><path class="cg1" transform="matrix(.88 0 0 .88 6 6)" d="M95 51c4-5-7-7-4-13 4-4 3-8-3-9-2-1-3-3-3-5 4-14-11-2-11-16-2-6-10 3-13-3-2-5-5-6-10-2-3 2-6-1-8-3-7-3-5 11-16 5-6-1-3 10-9 10-6-1-8 2-7 7l-2 5c-14 4 3 11-8 18-4 6 9 7 2 16-3 6 9 5 7 11-1 5 1 8 7 8s2 11 8 10c11-6 9 8 16 5 2-2 6-5 9-2 4 4 7 3 10-2s10 3 13-3c0-13 14-1 11-15 0-2 1-4 3-4 14-4-4-11 8-18ZM48 88C-4 89-4 6 48 7c52 0 52 82 0 81Z"/><circle class="cg1 sk2 sc2" cx="48" cy="48" r="35"/><path fill="#b57d0d" d="m61 68-14-7-13 7 2-15-11-10 16-2 6-13 7 13 16 2-11 10 2 15Z"/></g><use xlink:href="#lOut" id="Inbox" class="c3" transform="translate(0 2176)"/><g id="Mod"><use xlink:href="#shield" class="cg1 sk4 sc1"/><text transform="translate(64 2368)" style="font-size:88px">M</text></g><g id="Share"><path id="sc1" class="c5" d="M25 2465c-13 0-23 9-23 21 0 13 10 22 23 22s23-9 23-22c0-12-10-21-23-21zm0 34c-8 0-14-6-14-14 0-7 6-13 14-13s14 6 14 13c0 8-6 14-14 14z"/><use href="#sc1" transform="translate(78 38)"/><use href="#sc1" transform="translate(78 -38)"/><path id="sr1" class="c5" d="m82 2523-43-22 4-9 43 22z"/><use href="#sr1" transform="rotate(-55 22 2485)"/></g><g id="Cart" class="c3"><path d="M51 2639h9v5h-9zm46 0h9v5h-9z"/><circle id="sWheel" cx="54" cy="2652" r="10"/><use href="#sWheel" transform="translate(46)"/><path d="m33 2583-3-14-1-2v-4H1v6h23l3 14 12 56h73l13-56H33zm72 52H47v-11h58v11z"/></g><path id="Fb" transform="translate(0 -12)" class="c3" d="M73 2801v-55h17v-19H73v-9c0-4 0-9 8-9h7v-14c-5-1-13-2-22 1-3 1-7 3-10 7-4 5-4 12-4 14v10H36v19h16v55h21z"/><path id="Gg" class="c3" d="M104 2845H65v15h23c-1 5-3 11-9 14v1c-13 9-33 2-38-14-8-28 23-45 40-29l12-11c-25-24-70-7-70 31 0 39 45 56 70 33 9-9 14-26 11-40z"/><path id="F_v" class="c4" d="M15 2975h45v53H15zm53 0h45v53H68zm-53-31h98v22H15z"/><path id="T_v" class="c4" d="M40 3072h73v15H40zm0 26h73v15H40zm0 27h73v15H40zm0 26h73v15H40zm-25-79h16v15H15zm0 79h16v15H15zm0-26h16v15H15zm0-27h16v15H15z"/><path id="Th_v" class="c4" d="M83 3260h28v26H83zm-66-30h28v26H17zm0 30h28v26H17zm66-60h28v26H83zm0 30h28v26H83zm-35 0h31v27H48zm0 30h31v26H48zm-31-60h28v26H17zm31 0h31v26H48z"/><g id="Trs"><path id="brc" transform="translate(28 3325) skewY(16)" class="c4 sk4 sc3" d="M0 0h42v56H0z"/><path class="c3 sk4 sc3" d="m20 3349 80-23v56l-80 23z"/><use href="#brc" transform="translate(37 12)"/><text transform="translate(86 3376) skewY(16)" style="font-size:54px">A</text><path d="M8 73a161 161 0 0 1 27-41L8 40l2-5 33-9c-3 7-11 13-15 21l16 14-4 3-15-14-10 19-7 4Z" transform="translate(17 3325)" class="c4"/><path d="m48 0 10 2-2 10-3-4A45 45 0 0 1 0 6l2-3a42 42 0 0 0 49 1l-3-4Z" transform="translate(35 3406)" class="c4"/></g><g id="MKPT" class="c4"><use xlink:href="#house" id="hl" transform="translate(12 3456)"/><use href="#hl" transform="matrix(-1 0 0 1 128 0)"/><path d="M68 3520v-6c2 0 9 2 9-3s-7-3-9-4v-3l-4-2c-2 0-3 1-3 2v3c-13 1-13 20 0 20v6c-3 0-10-2-10 3s7 3 10 3c-2 9 8 9 7 1v-1c12 0 12-19 0-19zm-10-3c0-1 1-3 3-3v6c-2 0-3-1-3-3zm10 15v-5c1 0 2 1 2 3l-2 2z"/></g><g id="Col"><use href="#cu" transform="translate(20 -15)"/><use href="#cu" transform="translate(-20 -15)"/><g id="cu" class="c4 sk4 sc2"><circle cx="64" cy="3615" r="16"/><path d="M49 9c-4-7-10-9-12-9H16C14 0 8 2 4 9c-5 7-4 14-4 16v14h53V25c0-2 1-9-4-16Z" transform="translate(36 3632)"/></g></g><g id="Skrl"><path fill="#862565" d="M18 3698h92v92H18v-92z"/><path class="c3" d="M64 3735c-3 0-8-1-8-5 0-6 8-6 11-6l15 3 5 1v-16 2c-5-3-12-5-23-5-20 0-28 12-28 22 0 6 2 20 25 21 3 0 8 0 8 5s-4 7-11 7-16-3-20-4v15l23 3c21 0 29-11 29-21 0-13-9-22-26-22"/></g><g id="PP"><path fill="#27346a" d="M94 3848c-5-6-13-8-24-8H39c-2 0-4 2-5 4l-12 82c-1 2 1 3 2 3h19l5-31v1c0-2 2-3 4-3h9c18 0 32-8 37-29v-2c-1 0-1 0 0 0 1-7 0-13-4-17"/><path fill="#2790c3" d="M98 3867c-4 21-18 28-36 28h-9c-3 1-4 2-5 4l-6 38c0 2 1 3 2 3h17c2 0 3-1 4-3v-1l3-19v-2c0-1 2-3 4-3h2c16 0 28-6 32-25 2-7 1-14-3-18l-5-4v2z"/><path fill="#1f264f" d="m94 3864-2-1h-2l-8-1H57l-1 1c-2 0-2 1-3 2l-5 33v1c0-2 2-3 4-3h10c18 0 32-8 36-29v-2l-3-1h-1"/></g><g id="u" class="c3"><circle cx="64" cy="4000" r="30"/><path id="bR" d="M32 130c39 1 61 3 49-47-3-13-15-24-28-19-6 6-13 7-21 8v58Z" transform="translate(32 3966)"/><use href="#bR" transform="matrix(-1 0 0 1 129 0)"/></g></svg>
