<svg xmlns="http://www.w3.org/2000/svg" xmlns:xlink="http://www.w3.org/1999/xlink" viewBox="0 0 230 230" style="enable-background:new 0 0 230 230" xml:space="preserve"><style>.st22{stroke-width:2;fill:none;stroke:#60594e;stroke-linecap:round;stroke-miterlimit:10}</style><defs><path id="lt" d="M74.7 39.4A62.3 62.3 0 0 0 54.9 51a25.5 25.5 0 0 0 11.5 4.8 47 47 0 0 1 2.7-7.6 48 48 0 0 1 5.6-8.8z"/><path id="lc" d="M89.7 60.2V36.7a38.9 38.9 0 0 0-17.1 20.9 51.1 51.1 0 0 0 17.1 2.6z"/><path id="ct" d="M50.4 55.6a53.5 53.5 0 0 0-13.8 33.1h23.2a152.6 152.6 0 0 1 4-27c-2-.3-4.7-.9-7.7-2.4a23.4 23.4 0 0 1-5.7-3.7z"/><path id="cc" d="M89.7 88.7h-23a95.6 95.6 0 0 1 3-25 66.2 66.2 0 0 0 20 3.1v21.9z"/></defs><path style="fill:#fbf4e8" d="M0-.1h230.1V230H0z"/><g id="Inside_frame"><g id="top"><circle id="c" cx="26.7" cy="27.3" r="2.5" style="fill:#4e6693"/><use href="#c" transform="translate(6.5)"/><use href="#c" transform="translate(13.5)"/><use href="#c" transform="translate(20)"/><use href="#c" transform="translate(27)"/><use href="#c" transform="translate(34)"/><use href="#c" transform="translate(41)"/><use href="#c" transform="translate(47.5)"/><use href="#c" transform="translate(54)"/><use href="#c" transform="translate(60.5)"/><use href="#c" transform="translate(67.5)"/><use href="#c" transform="translate(74.5)"/><use href="#c" transform="translate(81.5)"/><use href="#c" transform="translate(88.5)"/><use href="#c" transform="translate(95.5)"/><use href="#c" transform="translate(101.5)"/><use href="#c" transform="translate(108.5)"/><use href="#c" transform="translate(115.5)"/><use href="#c" transform="translate(122.5)"/><use href="#c" transform="translate(129.5)"/><use href="#c" transform="translate(136.5)"/><use href="#c" transform="translate(143)"/><use href="#c" transform="translate(150)"/><use href="#c" transform="translate(157)"/><use href="#c" transform="translate(163.5)"/><use href="#c" transform="translate(170.5)"/><use href="#c" transform="translate(176.5)"/></g><use href="#top" transform="translate(0 177)"/><use href="#top" id="r" transform="rotate(90 115 115.5)"/><use href="#r" transform="translate(-177)"/></g><g id="Logo" style="fill:#085988"><path d="M155.5 162.2a16 16 0 0 0-8 10.8c-.2 1.1-1.2 5.3.4 8.2a5.8 5.8 0 0 0 2 2.1c.8.5 2.8 1.7 6.7 1.2 2.7-.3 6.6-.8 8.8-4.7.1-.3 1.3-2.3.9-3.1-.4-.8-2.1-.2-3.5.4l-2.6 1.2c-2.2 1-6 1.5-7.1-.9a6.7 6.7 0 0 1-.3-3.6c.2-1.6.8-2.7 1-3.2 1.4-2.4 4.1-4.1 6.7-3.8 1.2.1 2.1.7 2.8-.1.7-.8.6-2.3.6-2.5a3.8 3.8 0 0 0-1.6-2.9c-2.1-1.5-3.2-1.4-6.8.9zm21.1-.1c-1.4.4-3.5 1.6-5 3a11.2 11.2 0 0 0-2.7 13.2c4.4 9.5 18 9.7 22.6.3 3.2-6.5-.3-13.9-7.6-16.5-2.5-.8-3.9-.8-7.3 0zm8.4 4c5.3 3.5 5.2 12.1-.2 15.2a8.7 8.7 0 0 1-13-8.8c.9-6.5 7.7-9.9 13.2-6.4zm-26.5 25.3 3 3.3 9.9-9.1a95 95 0 0 0-3.1-3.2l-9.8 9zm-.8.8 3 3.3c0 .1.2.7-.3 1.2-.4.4-1 .5-1.5.3l-3.1-3.1c-.2-.5-.1-1.1.3-1.5.5-.4 1.2-.5 1.6-.2z"/><path d="m169 181.7 3.1 3.3 1-1.1-3-3.1-1.1.9zm5.3-8.4-.2-.7v-1.1l.4-1.2c.2-.5.5-.9.8-1.2l1.1-.9c.5-.3 1-.6 1.5-.7.5-.2 1-.1 1.1-.1l1.2.2-1 .1-1.1.3-1.1.6-.6.6-.4.5a6 6 0 0 0-.7 1.2l-.4.9-.2.9c-.3.2-.4.5-.4.6z"/></g><g id="World"><use xlink:href="#lt" style="fill:#db22a2"/><use xlink:href="#lc" style="fill:#256fbb"/><use xlink:href="#ct" style="fill:#fc6a6e"/><use xlink:href="#cc" style="fill:#14b4f5"/><use xlink:href="#lt" style="fill:#d92a28;transform:rotateY(180deg) translate(-186px,0)"/><use xlink:href="#lc" style="fill:#2d8a1f;transform:rotateY(180deg) translate(-186px,0)"/><use xlink:href="#ct" style="fill:#f9f122;transform:rotateY(180deg) translate(-186px,0)"/><use xlink:href="#cc" style="fill:#08e1f8;transform:rotateY(180deg) translate(-186px,0)"/><use xlink:href="#lt" style="fill:#01e0fd;transform:rotateX(180deg) translate(0,-186px)"/><use xlink:href="#lc" style="fill:#fe6a6c;transform:rotateX(180deg) translate(0,-186px)"/><use xlink:href="#ct" style="fill:#d92930;transform:rotateX(180deg) translate(0,-186px)"/><use xlink:href="#cc" style="fill:#6462ed;transform:rotateX(180deg) translate(0,-186px)"/><use xlink:href="#lt" style="fill:#328b16;transform:rotateX(180deg) rotateY(180deg) translate(-186px,-186px)"/><use xlink:href="#lc" style="fill:#2075ac;transform:rotateX(180deg) rotateY(180deg) translate(-186px,-186px)"/><use xlink:href="#ct" style="fill:#2171b1;transform:rotateX(180deg) rotateY(180deg) translate(-186px,-186px)"/><use xlink:href="#cc" style="fill:#be3db1;transform:rotateX(180deg) rotateY(180deg) translate(-186px,-186px)"/></g><g id="Waves"><path d="M105.6 175.6c-8 .3-12.9 2.8-16 4.9-6.7 4.7-6.5 9.7-15 15.1-2.4 1.5-6.2 3.9-11.5 4.5-3.4.4-6.3 0-11.9-1-7.5-1.3-7.8-2.2-11.6-2.1a24 24 0 0 0-11.3 3.1c-4.1 2.2-5.5 4.3-9.9 8.4a84.8 84.8 0 0 1-12.3 9.7" style="fill:none;stroke:#595247;stroke-width:2;stroke-linecap:round;stroke-miterlimit:10"/><path class="st22" d="M26.7 222.4c3.1-2.3 5.8-4 7.9-5.4a26 26 0 0 1 5.8-3.1c2.5-.8 4.5-.7 6.9-.6 2 .1 4.9.3 8.2 1.2a31 31 0 0 0 9.4 2c4.9.2 8.8-.9 11.2-1.7 5-1.6 7.8-4.1 9.5-6 2.4-2.8 2.4-4.6 5.7-7.8.6-.6 2.1-2.1 5.9-4.5l6.4-3.7c2.2-1.1 4.1-1.1 4.6-1.1 2.4-.3 4.5-.1 5.9.2"/><path d="M100.4 213.1a63.4 63.4 0 0 1-13.3 15.5m35.6-18.5c-1.9-.3-5.9-.8-10.1 0-.9.2-2.6.5-4.7 1.4-1.6.7-2.7 1.4-3.1 1.6a15.8 15.8 0 0 0-6.2 6.9" style="fill:none;stroke:#60594e;stroke-linecap:round;stroke-miterlimit:10"/><path class="st22" d="M229 140.4c-3.5-2-8.4-4.5-14.6-6.8a81.2 81.2 0 0 0-83.4 11.6s-15.8 12.9-23.6 32.1c-2.4 6-3.8 12.2-3.8 12.2a70.6 70.6 0 0 0-1.8 13.5c-.2 5.1.2 9.1.3 10.8l.7 5.2"/><path class="st22" d="m219.2 153.5-10.3-5.5c-5.5-2.3-18.7-7-35.5-4.5-3.9.6-18.3 3.1-32.2 14.6a64.6 64.6 0 0 0-20.7 29.7c-1.4 5.1-2.1 10.9-2.1 10.9-.4 4-.4 6.7-.4 12.1 0 4.2.5 7.4.8 9.5.4 2.8.7 5.2 1.1 7"/></g><path d="M1 229.1h8.9c.2-5 3.8-9 8.2-9.6 5.2-.7 10.4 3.6 10.8 9.5l8.9.1c.2-5 3.9-9.1 8.4-9.6a10 10 0 0 1 10.8 9.6h7.9c.5-5.1 4.5-9 9.2-9.4 5.3-.5 10.4 3.7 11.1 9.4h7.4c.5-5 4.5-8.8 9.2-9.2 5.2-.4 10.1 3.6 10.7 9.2h7.2a10 10 0 0 1 9.7-9.4 10 10 0 0 1 10 9.4h7.8a9.8 9.8 0 0 1 9.3-9.4 10 10 0 0 1 10.2 9.4h7.2c.4-5.5 5.1-9.7 10.5-9.5 5.1.2 9.3 4.3 9.7 9.5h7.9a9.9 9.9 0 0 1 9.9-9.3c5 .1 9.2 4.1 9.5 9.3h7.7v-7.5c-5.6-.7-9.6-5.7-9.3-11 .3-4.9 4.2-9 9.3-9.6v-8.4a10 10 0 0 1-9-9.6 10 10 0 0 1 9-10v-7c-5.7-.7-9.7-5.8-9.2-11 .4-4.6 4.3-8.4 9.2-9v-8.1a10 10 0 0 1-9.3-10.3 9.9 9.9 0 0 1 9.3-9v-7.2c-5.7-.9-9.6-6-9.2-11.3.4-4.7 4.2-8.6 9.2-9.3v-7.6a10 10 0 0 1 0-19.8l.1-7.6c-5.6-.2-10-4.9-9.8-10.3a10 10 0 0 1 9.7-9.5l.1-7.6a9.7 9.7 0 0 1-9.2-9.7c0-5.1 4.1-9.3 9.2-9.6V.9h-8.7a9.8 9.8 0 0 1-8.5 9.2c-5.1.5-10-3.5-10.5-9.2h-8.6a9 9 0 0 1-9 9.5 9.2 9.2 0 0 1-9.1-9.5H166a9.7 9.7 0 0 1-9.9 9.4c-4.9-.2-9-4.3-9.1-9.4h-8.8a9.1 9.1 0 0 1-9.2 9.3c-5-.1-9.1-4.3-9-9.3h-8.7c.1 5.1-4 9.4-9.1 9.4A9.2 9.2 0 0 1 93.1.9h-9.3c0 5.2-4.3 9.4-9.4 9.4-5-.1-9.1-4.3-9.1-9.4h-8.5c-.2 5.5-5 9.7-10.1 9.3A9.6 9.6 0 0 1 38.2.9h-8.3c-.3 5.5-5 9.7-10.2 9.4a9.7 9.7 0 0 1-9-9.4H1.2v8.5a10 10 0 0 1 9.1 8.9 10 10 0 0 1-9.1 10.5v7.5a10 10 0 0 1 9.5 9.9 10 10 0 0 1-9.5 10v7c5.2.8 8.9 5.4 8.7 10.5-.2 4.8-3.8 8.9-8.7 9.7v7.9a10 10 0 0 1 9 9.5c.2 5.1-3.7 9.8-9 10.4v7.3a10 10 0 0 1 0 20v7.5c5.2.6 9.1 5.2 8.9 10.3-.2 4.9-4 9-8.9 9.6v7.7a10 10 0 0 1 9.4 9.6 9.8 9.8 0 0 1-9.4 9.9v8c5.4.3 9.4 4.9 9.1 10a9.7 9.7 0 0 1-9.1 8.9c-.2 3.1-.2 6.1-.2 9.1z" style="fill:none;stroke:#000;stroke-width:2;stroke-miterlimit:10"/></svg>
