<?xml version="1.0" encoding="utf-8"?>
<!-- Generator: Adobe Illustrator 27.4.0, SVG Export Plug-In . SVG Version: 6.00 Build 0)  -->
<!DOCTYPE svg PUBLIC "-//W3C//DTD SVG 1.1//EN" "http://www.w3.org/Graphics/SVG/1.1/DTD/svg11.dtd" [
	<!ENTITY ns_extend "http://ns.adobe.com/Extensibility/1.0/">
	<!ENTITY ns_ai "http://ns.adobe.com/AdobeIllustrator/10.0/">
	<!ENTITY ns_graphs "http://ns.adobe.com/Graphs/1.0/">
	<!ENTITY ns_vars "http://ns.adobe.com/Variables/1.0/">
	<!ENTITY ns_imrep "http://ns.adobe.com/ImageReplacement/1.0/">
	<!ENTITY ns_sfw "http://ns.adobe.com/SaveForWeb/1.0/">
	<!ENTITY ns_custom "http://ns.adobe.com/GenericCustomNamespace/1.0/">
	<!ENTITY ns_adobe_xpath "http://ns.adobe.com/XPath/1.0/">
]>
<svg version="1.1" id="Слой_1" xmlns:x="&ns_extend;" xmlns:i="&ns_ai;" xmlns:graph="&ns_graphs;"
	 xmlns="http://www.w3.org/2000/svg" xmlns:xlink="http://www.w3.org/1999/xlink" x="0px" y="0px" viewBox="0 0 128 4096"
	 style="enable-background:new 0 0 128 4096;" xml:space="preserve">
<style type="text/css">
	.st0{fill:#E6AE01;}
	.st1{fill:#FFCB03;}
	.st2{fill:#D95F00;}
	.st3{fill:url(#SVGID_1_);stroke:#D95F00;stroke-width:0.5;stroke-miterlimit:10;}
	.st4{fill:#1C74BB;}
	.st5{fill:#035FA1;}
	.st6{fill:#003488;}
	.st7{fill:#FFDE4A;}
	.st8{fill:#0176C0;}
	.st9{fill:url(#SVGID_00000085965310989834117870000012283113318485300608_);}
	.st10{fill:url(#SVGID_00000121985889640784150160000013442004901888141997_);}
	.st11{fill:url(#SVGID_00000054266084697765966670000016495333635273182112_);}
	.st12{fill:#DBDADC;}
	.st13{fill:#A9A9A9;}
	.st14{fill:url(#SVGID_00000055670795128931871630000005999130474453388457_);}
	.st15{fill:#084BAE;}
	.st16{fill:url(#SVGID_00000036221415109426083290000006463653043278389685_);}
	.st17{enable-background:new    ;}
	.st18{fill:url(#SVGID_00000134932447935550892140000008720532382449884846_);}
	.st19{fill:url(#SVGID_00000104685194120248362760000005652787717224538768_);}
	.st20{fill:url(#SVGID_00000160181784799460536260000017088543846159646886_);}
	.st21{fill:url(#SVGID_00000159428708833825368730000017477709088988211856_);}
	.st22{fill:url(#SVGID_00000111166467766419578030000009604986007191333290_);}
	.st23{fill:url(#SVGID_00000059273289186805784060000007798328332242524063_);}
	.st24{fill:url(#SVGID_00000101069818869184014200000014253601353738288037_);}
	.st25{fill:url(#SVGID_00000049197332319206070410000012625176579935302531_);}
	.st26{fill:url(#SVGID_00000012461199658461824030000010674492051749203389_);}
	.st27{fill:#008FE1;}
	.st28{fill:#FFFFFF;}
	.st29{fill:#00689C;}
	.st30{fill:url(#SVGID_00000147201325419572603880000013936153156751165833_);}
	.st31{fill:url(#SVGID_00000121996806360338766150000016162568606482979511_);}
	.st32{fill:url(#SVGID_00000160173552924460881500000009918252459554260630_);}
	.st33{fill:url(#SVGID_00000069399510789815828690000006330071131765574587_);}
	.st34{fill:url(#SVGID_00000004536569486713758420000008120344180348432028_);}
	.st35{fill:url(#SVGID_00000100361828084436787030000015637010415284621218_);}
	.st36{fill:#FFC41B;}
	.st37{fill:#286B92;stroke:#000000;stroke-width:0.25;stroke-miterlimit:10;}
	.st38{fill:#FFFFFF;stroke:#FFFFFF;stroke-width:0.5;stroke-miterlimit:10;}
	.st39{fill:url(#SVGID_00000019641341735119922310000011750545944730346117_);}
	.st40{fill:url(#SVGID_00000011742653082316242510000006162966340801484964_);}
	.st41{fill:#B57D0D;}
	
		.st42{fill:url(#SVGID_00000021114840546347152970000014753587297568804792_);stroke:#F76400;stroke-width:0.5;stroke-miterlimit:10;}
	.st43{fill-rule:evenodd;clip-rule:evenodd;fill:#FFFFFF;}
	.st44{fill:#3A6898;}
	.st45{fill:#00689B;}
	.st46{fill:#315A8E;}
	.st47{fill:#862565;}
	.st48{fill:#27346A;}
	.st49{fill:#2790C3;}
	.st50{fill:#1F264F;}
</style>
<metadata>
	<sfw  xmlns="&ns_sfw;">
		<slices></slices>
		<sliceSourceBounds  bottomLeftOrigin="true" height="4086" width="128" x="0" y="-4022"></sliceSourceBounds>
	</sfw>
</metadata>
<g id="Letter_00000067209564758492954340000007677022533765833649_">
	<path class="st0" d="M110.5,69.5H16.4c-1.6,0-2.9-1.2-2.9-2.7V12.9c0-1.5,1.3-2.7,2.9-2.7h94.3c1.6,0,2.9,1.2,2.9,2.7v53.8
		C113.5,68.2,112.2,69.5,110.5,69.5z"/>
	<polygon class="st1" points="14.3,7.2 62.7,57.9 114.6,6.6 110.3,1.8 19,3.7 	"/>
	<path class="st2" d="M109,0H19.4C15.2,0,12,3.4,12,6.9v58.3c0,3.8,3.2,6.9,7.1,6.9h89.8c3.9,0,7.1-3.1,7.1-6.9V7
		C116.1,3.2,112.9,0,109,0z M112.5,62.5L86.2,38.7l26.3-25.6V62C112.5,62.2,112.5,62.4,112.5,62.5z M22.6,3.8h82.8
		c3.3,0,6.1,2.2,6.9,5.2L65.2,54.5l0,0c-0.1,0.1-0.2,0.2-0.3,0.3l-0.7,0.7c-0.2,0.2-0.3,0.3-0.4,0.4c-0.2,0.1-0.4,0.1-0.7,0.1
		c-0.3,0-0.4,0-0.6-0.1c-0.2-0.1-0.3-0.2-0.4-0.3c-0.2-0.2-0.4-0.4-0.5-0.5s-0.4-0.4-0.5-0.6l0,0C53.1,45.9,17,9.4,15.9,8
		C17.1,5.5,19.4,3.8,22.6,3.8z M15.2,61.3V11.9l25.5,26.2L15.5,63.5C15.4,62.8,15.2,62.1,15.2,61.3z M105.4,68.6H22.6
		c-0.4,0-2.8,0-5.4-2c0,0,0-0.1-0.1-0.1L43,40.7l16.3,16.8c0.7,0.9,2.3,1.6,3.7,1.6c1.3,0,2.6-0.5,3.4-1.2l0,0L83.8,41
		c9.3,8.1,18.2,16.5,27.1,24.8l0.1,0.1C109.9,67.6,107.8,68.6,105.4,68.6z"/>
</g>
<g id="Like2">
	
		<linearGradient id="SVGID_1_" gradientUnits="userSpaceOnUse" x1="80.105" y1="3967.3616" x2="81.861" y2="3858.1306" gradientTransform="matrix(1 0 0 -1 0 4098)">
		<stop  offset="0.7667" style="stop-color:#FFCB03"/>
		<stop  offset="1" style="stop-color:#7A5304"/>
	</linearGradient>
	<path class="st3" d="M125,198.9c2.9-11.4,2.4-14.1,2.3-18.7c-0.1-5-4.3-8.9-9.3-8.9H84.1v-23.1c0-20.8-15.4-19.8-20.8-18.8
		c-1,0.2-1.9,1.1-1.9,2.2v28.1c-0.1,1.2-0.6,9.3-8.1,14.9c-7.8,5.9-16.8,4.3-17.9,4.1c0.1,21.2,0.1,42.6,0.2,63.8
		c1.4,0.5,3.1,1.1,4.8,1.5c1.1,0.3,2.2,0.4,3.2,0.6c3.2,0.4,5.8,0.3,6.4,0.2c3.6-0.2,23.5-0.3,51.3-0.5c3.4-1,8.5-2.9,12.3-7
		c3.1-3.2,3.7-6,6.8-18.8C122,212.1,123.3,205.5,125,198.9z"/>
	<path class="st4" d="M34,176.9H7.3c-3.6,0-6.7,2.8-6.7,6.4v55.2c0,3.5,3,6.4,6.7,6.4H34c3.6,0,6.7-2.8,6.7-6.4v-55.2
		C40.7,179.7,37.6,176.9,34,176.9z"/>
	<path class="st5" d="M1,217.1c0,7,0,13.9,0,20.9c0,3.9,3,7,6.6,7h26.2c3.6,0,6.6-3.1,6.6-7c0-7.1,0-14.1,0-21.2
		c-5.8,1-12.7,1.8-20.6,1.8C12.7,218.7,6.4,218,1,217.1z"/>
	<ellipse class="st6" cx="25" cy="230.1" rx="4.5" ry="4.5"/>
</g>
<g id="Books">
	<g>
		<polygon class="st7" points="40,277.6 8,282.5 30.9,361.3 114,344.2 77.5,271.3 		"/>
		<path class="st2" d="M77.5,271.4L40,277.6l-32,5l23,78.8l83-17.2L77.5,271.4z M9.3,283.4l31.3-4.8l36.6-6.1l35.6,71l-81.1,16.7
			L9.3,283.4z"/>
		<polygon class="st7" points="22.1,263.8 96.7,256.7 120.1,340.2 33.4,346.7 22.1,264.5 		"/>
		<path class="st2" d="M96.7,256.7l-74.6,7.1v0.7l11.3,82.2l86.7-6.5L96.7,256.7z M23.4,265.4v-0.7l72.6-6.9l22.8,81.2l-84.3,6.3
			L23.4,265.4z"/>
	</g>
	<g id="Pencil">
		<path class="st8" d="M96.1,311.4l-11.9-8.9c-0.3-0.2-0.4-0.7-0.2-1.1l22.5-43.2c0.2-0.4,0.6-0.5,0.9-0.3l11.9,8.9
			c0.3,0.2,0.4,0.7,0.2,1.1L97,311.1C96.8,311.5,96.4,311.6,96.1,311.4z"/>
		<path d="M89.2,316.2c-2.2,0.7-4.4,1.4-6.6,2.1c0-2.6,0-5.1,0.1-7.7C84.9,312.5,87,314.3,89.2,316.2z"/>
		<path class="st1" d="M83.9,301.5c4.3,3.2,8.7,6.5,13,9.7c0,0-0.1,0.1-0.1,0.1c-1.6,2-3.9,3.9-7.7,4.9c-2.2-1.6-4.4-3.3-6.5-4.9
			c-0.2-2.6-0.1-5.5,0.9-8.6c0.1-0.3,0.2-0.5,0.3-0.8C83.8,301.7,83.9,301.6,83.9,301.5z"/>
	</g>
</g>
<g id="Globus">
	
		<linearGradient id="SVGID_00000114760779126626096630000014815619785519075498_" gradientUnits="userSpaceOnUse" x1="64.3476" y1="508.6689" x2="63.5064" y2="385.4965">
		<stop  offset="7.424594e-02" style="stop-color:#083B5F"/>
		<stop  offset="0.1434" style="stop-color:#07446C"/>
		<stop  offset="0.4253" style="stop-color:#04649E"/>
		<stop  offset="0.6722" style="stop-color:#027BC3"/>
		<stop  offset="0.8721" style="stop-color:#008AD9"/>
		<stop  offset="1" style="stop-color:#008FE1"/>
	</linearGradient>
	<ellipse style="fill:url(#SVGID_00000114760779126626096630000014815619785519075498_);" cx="63.9" cy="448" rx="63.9" ry="64"/>
	
		<linearGradient id="SVGID_00000022518532551626969470000016295469392627733172_" gradientUnits="userSpaceOnUse" x1="32.9967" y1="395.4758" x2="37.2736" y2="506.3279">
		<stop  offset="0.307" style="stop-color:#FFCB03"/>
		<stop  offset="0.3554" style="stop-color:#F5C303"/>
		<stop  offset="0.5748" style="stop-color:#CDA103"/>
		<stop  offset="0.7486" style="stop-color:#B48C03"/>
		<stop  offset="0.8543" style="stop-color:#AB8403"/>
	</linearGradient>
	<path style="fill:url(#SVGID_00000022518532551626969470000016295469392627733172_);" d="M11.1,429.6c0.7,0.3,2,1.1,3,2.6
		c1.1,1.5,1.3,3,1.4,3.8c0.5-0.1,1.3-0.2,2,0.2c0.8,0.4,0.9,1,1.6,1.7c0.9,0.9,1.6,0.9,2.6,1.5c0.8,0.5,1.9,1.5,2.8,3.5
		c0.4,1.9,0.8,3.9,1.3,5.8c-0.9,1.2-1.7,1.7-2.4,1.9c-0.9,0.3-1.5,0.1-3.7,0.3c-0.7,0.1-1.4,0.1-1.7,0.2c-0.2,0.4-0.4,0.9-0.6,1.6
		c-0.2,0.7-0.2,1-0.4,1.9c-0.3,1.7-0.4,1.7-0.6,3.1c-0.3,1.9-0.2,2.2-0.1,2.4c0.3,1,1,0.9,1.5,1.8c0.2,0.4,0.3,0.9,0,3.3
		c-0.2,1.7-0.3,2.2-0.4,3.1c-0.1,0.8-0.2,2.1-0.1,3.6c1.5,0.8,2.5,1.8,3,2.5c1.1,1.3,1.6,2.6,1.8,3c0.7,1.7,0.4,2.3,1,3.3
		c0.6,1,1.6,1.6,2.6,1.9c0.1,0.2,0.3,0.5,0.4,0.8c0.2,0.6,0.2,1,0.2,1.4c0.2,1,1.8,1.2,2.8,1.9c0.8,0.6,1.5,2,1,5.4
		c0,1.2,0.1,2.6,0.4,4.1c0.2,1,0.4,1.8,0.6,2.6c0.6,1.1,1,2,1.3,2.6c0.4,0.9,0.6,1.4,1.1,1.8c0.4,0.3,0.7,0.3,1.2,0.8
		c0.5,0.4,0.4,0.6,0.9,1c0.5,0.5,0.9,0.7,1.3,0.9c0.7,0.4,1,0.3,2,0.8c0.5,0.2,0.8,0.4,1.1,0.5c0.7,0.4,1.9,0.9,3.9,1.5
		c0.3-1.3,0.7-3.3,0.9-5.8c0.1-1.4,0.1-3.2-0.5-9.3c-0.6-6.3-0.8-5.6-0.8-7c0.1-4.1,1.3-5.3,2-9.7c0.3-1.9,0.5-4.8,0.1-8.4
		c1.1-0.6,2.5-1.4,4-2.7c1.4-1.2,2.3-2.4,3-3.4c0.2-1.4,0.3-3.8-0.4-6.4c-0.4-1.4-0.9-2.5-1.4-3.3c-3.1-0.9-5.2-2.2-6.6-3.3
		c-2.2-1.7-3-3.2-5.5-4.5c-1.8-1-3.5-1.3-4.6-1.5c0.6-1.9,1.2-3.9,1.8-5.8c0.2-0.6,0.7-2,2.1-3.3c1.5-1.2,3.1-1.5,3.6-1.5
		c0.9-0.9,2-2.2,3-3.9c0.9-1.6,1.4-3,1.8-4.1c0-1.4,0-2.8,0-4.3c0.4-3.7,2.4-6.7,5.3-7.5c0.4-0.1,3.6-1.1,5.5,1
		c1.6,1.7,1.1,4.2,1.1,4.5c0.9-0.9,2.3-2.6,3.2-5.2c0.7-2,0.8-3.7,0.8-4.9c-1.6-1.4-2.7-2.7-3.4-3.6c-0.4-0.6-0.6-0.9-0.7-1.1
		c-0.8-1.6-0.8-3.2-0.7-4.1c0-1.1-0.2-2.8-1-4.7c-0.7-1.7-1.6-2.9-2.3-3.7c-5.7-4.5-7.9-5-8.6-4.4c-0.6,0.5-1.1,2-1.1,3.2
		c0,1.2,0.4,1.7,0.1,2.6c-0.3,0.8-1,1.3-1.5,1.6c-2-0.1-3.3-0.7-4.1-1.2c-1.2-0.8-2.4-2.1-4.2-1.9c0,0-0.1,0-0.1,0
		c-0.4,0.1-1.3,0.3-3.9,2.1c-1.5,1-2.7,1.9-3.5,2.6c-2.6,1.8-5.6,4.1-8.6,7.2c-3,3-5.4,6-7.2,8.6c-1.1,1.5-2.1,3.1-3.2,5
		c-1.2,2.1-2.1,4-2.9,5.8c0,0.7,0.3,2.8,1.8,4.7C8.6,428.7,10.4,429.4,11.1,429.6z"/>
	
		<linearGradient id="SVGID_00000020385051730359326060000002556151112071313538_" gradientUnits="userSpaceOnUse" x1="69.3611" y1="436.6142" x2="125.5649" y2="473.8735">
		<stop  offset="8.997743e-02" style="stop-color:#FFCB03"/>
		<stop  offset="0.1576" style="stop-color:#F5C303"/>
		<stop  offset="0.4639" style="stop-color:#CDA103"/>
		<stop  offset="0.7067" style="stop-color:#B48C03"/>
		<stop  offset="0.8543" style="stop-color:#AB8403"/>
	</linearGradient>
	<path style="fill:url(#SVGID_00000020385051730359326060000002556151112071313538_);" d="M95.6,394.8c0.4,0.4,1.1,0.8,1.9,1.1
		c1.7,0.7,3.3,0.4,4,0.3c1.2,0.9,2.6,1.9,4,3.2c1.6,1.3,2.9,2.7,4.2,3.9c1.6,1.6,3.3,3.6,5,5.8c1.7,2.2,3,4.3,4.2,6.2
		c1.4,2.4,2.9,5.2,4.2,8.5c1.2,3,2.1,5.8,2.7,8.3c0.8,3.3,1.5,7.2,1.8,11.5c0.4,4.2,0.3,8,0.2,11.3c-0.5,2.9-1.1,6.1-2.1,9.5
		c-1,3.6-2.2,6.9-3.4,9.7c0,0.2-0.3,1.3-1.4,1.8c-0.6,0.3-1.1,0.3-1.4,0.3c-1.4,0.8-2.4,1.4-3.1,1.8c-2,1.1-2.4,1.4-2.9,1.2
		c-0.3-0.1-1-0.4-2.2-4c-1-3-0.5-3-1.1-4.2c-0.9-1.8-2.8-3.8-5.3-4.8c-0.9-0.4-2-0.6-2.8-1.6c-0.4-0.6-0.6-1.3-0.6-1.8
		c0.5-1.8,0.9-3.6,1.4-5.4c-0.1-1.9-1.6-3.5-3.5-3.8c-1.9-0.3-3.8,0.9-4.4,2.7c-0.3,0.6-0.7,1.5-1.1,2.7c-0.4,1.3-0.4,2.3-0.6,3.3
		c-0.1,1.2-0.4,2.9-0.9,5c-0.2,0.6-0.4,1.4-0.9,2.3c-0.5,1-0.9,1.6-1.3,2.1c-0.5,0.9-1.2,2.2-1.5,4.2c-0.2,1.2-0.4,2.7-0.3,4.5
		c0.1,0.9,0.2,1.7,0.4,2.4c-0.9,0.7-1.1,1.3-1.1,1.7c-0.1,0.9,0.7,1.3,0.5,2.2c-0.1,0.3-0.2,0.4-0.6,1.3c-0.2,0.5-0.4,1-0.5,1.3
		c0,0.4-0.1,0.9-0.4,1.3c-0.4,0.6-1,0.6-1.3,1.1c-0.2,0.3-0.5,0.9-0.2,2c-1.1,0-1.5,0.3-1.7,0.6c-0.4,0.7,0.6,1.5,0.3,2.5
		c-0.3,0.7-1.1,0.7-1.3,1.4c-0.2,0.7,0.6,1.1,0.5,1.8c-0.2,0.6-0.8,0.5-1.4,1.3c-0.6,0.7-0.3,1.1-1,2.1c-0.4,0.6-0.8,1.4-1.3,1.3
		c-0.9,0-1.5-2.3-1.5-2.5c-0.2-0.9-0.1-1.5-0.2-2.1c0-1.1-0.5-2.6-2.3-4.4c-0.6-1.5-1.2-3-1.8-4.5c-0.6-1.5-1.2-3.1-1.8-4.6
		c-0.2-1.9-0.6-3.3-1-4.2c-0.8-1.9-1.6-2.4-1.7-4c-0.1-1.1,0.2-1.3,0.2-3.1c0-1.2-0.1-2.1-0.2-2.8c-1.6-0.3-2.4-0.9-2.8-1.4
		c-0.5-0.6-0.5-1.1-1.3-2.1c-0.7-0.8-0.9-0.9-1.3-1.4c-0.7-1.1-0.6-2.1-0.6-3.2c-0.1-2.8-1.9-2.8-2.5-5.9c-0.4-2.1-0.1-4.3,0.2-5.9
		c0.2-1.2,0.4-1.8,0.4-3c0-1.7-0.4-3-0.8-4c0.2-0.5,0.6-1.2,1-2c0.7-1.1,0.9-1.3,1.1-1.9c0.4-1.2-0.1-1.5,0.4-2.5
		c0.2-0.4,0.4-0.6,1.8-2c0.6-0.6,1-1.1,1.3-1.3c1.6-0.4,3.7-0.7,6.2-0.7c1.2,0,2.4,0.2,3.4,0.3c0.7,0.4,1.8,0.8,3.2,1
		c1.5,0.2,1.5-0.2,2.6,0c2.5,0.4,3.5,2.3,5.7,2c0.2,0,0.3-0.1,0.4-0.1c0.1,0.4,0.5,1.2,1.3,1.8c0.9,0.8,1.8,1,2.3,1.1
		c0.5,0.4,1,0.9,1.5,1.3c0.6,0.5,1.1,1,1.7,1.4c0.1,0.2,1.3,3,4.2,3.5c2.4,0.4,4.8-0.8,6.1-3c0-1.5,0.1-3,0.1-4.5
		c0.4-1.8,0.8-3.7,1.3-5.5c1.8-7.5,1.4-9.5,0.6-9.8c-0.5-0.2-1.5,0.1-2,0.4c-0.7,0.4-1,0.8-2.1,1.5c-0.3,0.2-0.5,0.3-0.7,0.4
		c-0.4-0.2-1.2-0.4-2.1-0.1c-1,0.3-1.6,1.1-1.9,1.4c-0.5,0.7-0.4,1-0.9,1.4c-0.4,0.4-1,0.8-2.3,0.9c-0.4-0.1-1-0.2-1.7-0.1
		c-1.3,0.1-1.7,0.5-2.6,0.5c-1.6,0.1-1.8-1.1-3.3-1.3c-1.8-0.3-2.2,1.2-4.6,1.5c-0.5,0.1-2.5,0.3-4.1-0.9c-0.8-0.6-0.7-0.9-2.3-2.3
		c-1.3-1.2-1.5-1.1-1.8-1.6c-0.8-1.6,0.6-3.2-0.3-4.2c-0.4-0.5-0.8-0.2-1.4-0.7c-0.5-0.4-0.6-0.9-0.9-4c-0.2-2.5-0.1-2-0.2-2.5
		c-0.2-1.1-0.5-1.9-0.1-2.6c0-0.1,0,0,0.5-0.6c0.4-0.4,0.6-0.7,0.8-0.9c0.1-0.2,0.2-0.3,0.3-0.3c0.5-0.6,0.6-2,0.7-2.8
		c1.1-0.7,1.5-1.4,1.7-1.9c0.2-0.6,0.1-0.8,0.2-2.1c0.1-1.4,0.2-2.1,0.6-2.5c0.7-0.7,1.7-0.3,1.9-1c0.2-0.5-0.3-1,0-1.5
		c0.2-0.4,0.7-0.6,0.9-0.7c0.2-0.1,0.4-0.1,0.6-0.2c0-0.2,0-0.6,0.2-0.9c0.3-0.6,1.1-0.8,1.8-0.7c-0.1-0.8,0.1-1.1,0.3-1.3
		c0.4-0.3,1,0.3,2,0.3c0.8,0,1.4-0.3,1.8-0.6c0.4-0.4,0.7-0.5,0.9-0.5c0.7-0.1,1.1,0.3,2.1,0.6c0.5,0.1,1,0.2,1.3,0.2
		c0.6-0.3,1.1-0.3,1.4-0.3c0.4,0.1,0.6,0.1,0.7,0.2C92.6,395.8,93.5,395.8,95.6,394.8z"/>
</g>
<g id="Profile">
	<g id="_">
		<ellipse class="st12" cx="64" cy="575" rx="54.7" ry="56.3"/>
		<path class="st13" d="M64,512c-35.3,0-64,28.7-64,64s28.7,64,64,64s64-28.7,64-64S99.3,512,64,512z M64,631.2
			c-30.2,0-54.6-25.2-54.6-56.2s24.5-56.2,54.6-56.2s54.6,25.2,54.6,56.2S94.2,631.2,64,631.2z"/>
		<rect x="35" y="547.2" class="st8" width="31.3" height="8.2"/>
		<rect x="35" y="559.4" class="st13" width="31.3" height="4.1"/>
		<rect x="34.9" y="579.2" class="st13" width="54.7" height="4.1"/>
		<rect x="34.9" y="587.3" class="st13" width="54.7" height="4.1"/>
		<rect x="34.9" y="595.4" class="st13" width="54.7" height="4.1"/>
		<rect x="34.9" y="603.2" class="st13" width="54.7" height="4.1"/>
	</g>
</g>
<g id="_1_star">
	<g id="_1_Star">
		
			<linearGradient id="SVGID_00000010995081683995716960000001696977459210426023_" gradientUnits="userSpaceOnUse" x1="27.4977" y1="3283.4893" x2="101.2274" y2="3241.7383" gradientTransform="matrix(1 0 0 -1 0 3963.6379)">
			<stop  offset="0" style="stop-color:#FFE672"/>
			<stop  offset="0.17" style="stop-color:#FBE16B"/>
			<stop  offset="0.4" style="stop-color:#F2D659"/>
			<stop  offset="0.67" style="stop-color:#E3C33B"/>
			<stop  offset="0.97" style="stop-color:#CEAA11"/>
			<stop  offset="1" style="stop-color:#CCA70D"/>
		</linearGradient>
		<path style="fill:url(#SVGID_00000010995081683995716960000001696977459210426023_);" d="M89.8,727.8l-24.6-9.9
			c-0.4-0.4-0.8,0-1.2,0l-25,12c-1.2,0.4-2.3-0.4-2-1.5l4.8-23.6c0-0.4,0-0.7-0.4-1.1L21.4,688c-0.8-0.7-0.4-1.9,0.8-2.1l27.7-5.1
			c0.4,0,0.8-0.4,0.8-0.7L63,657.8c0.4-0.7,2-0.7,2.3,0l11.8,20.8c0,0.4,0.8,0.7,1.2,0.7l27.3,2.1c1.2,0,1.6,1.5,0.8,2.1l-20.3,17.5
			c-0.4,0.4-0.4,0.7-0.4,1.1l4.8,24C91.7,727.4,90.6,728.1,89.8,727.8L89.8,727.8L89.8,727.8z"/>
		<polygon class="st15" points="70.3,655.3 64.4,653.1 58.8,655.6 59.6,650.2 54.8,645.9 61.6,645.1 63.9,640 67.2,645.1 
			73.5,645.9 69.1,650.2 		"/>
		<g>
			<path d="M66,713.6l-4.4-0.4c-0.4,0-0.8-0.4-0.4-0.7l3.5-25.1c-1.2,0.4-2.3,0.7-3.5,1.1s-2.3,0.7-3.5,1.1c0-1.1,0-2.5-0.4-3.6
				c0.4,0,0.8-0.4,1.2-0.4c1.6-0.7,2.7-1.1,3.1-1.5c2.3-1.1,4.4-2.5,5.6-3.6c0.8-0.7,1.6-0.7,2.3-0.4c0.8,0.4,0.8,0.7,1.2,1.1
				L66,713.6C66.4,713.6,66.4,714,66,713.6z"/>
		</g>
	</g>
</g>
<g id="_2_starts">
	<g id="_2_Stars">
		
			<linearGradient id="SVGID_00000078040485468982163530000001824279604939063220_" gradientUnits="userSpaceOnUse" x1="23.177" y1="3152.1531" x2="104.6652" y2="3105.9956" gradientTransform="matrix(1 0 0 -1 0 3963.6379)">
			<stop  offset="0" style="stop-color:#FFE672"/>
			<stop  offset="0.17" style="stop-color:#FBE16B"/>
			<stop  offset="0.4" style="stop-color:#F2D659"/>
			<stop  offset="0.67" style="stop-color:#E3C33B"/>
			<stop  offset="0.97" style="stop-color:#CEAA11"/>
			<stop  offset="1" style="stop-color:#CCA70D"/>
		</linearGradient>
		<path style="fill:url(#SVGID_00000078040485468982163530000001824279604939063220_);" d="M92.1,863.3l-27.6-10.7
			c-0.4-0.4-0.8,0-1.6,0l-27.6,13.3c-1.2,0.4-2.3-0.4-2.3-1.5l5.5-25.9c0-0.4,0-0.7-0.4-1.1l-21.7-17.3c-0.8-0.7-0.4-2.1,0.8-2.1
			l30.7-5.4c0.4,0,0.8-0.4,1.2-0.7L63,787.8c0.4-1.1,2.3-1.1,2.7,0l13.4,22.2c0.4,0.4,0.8,0.7,1.2,0.7l30.3,2.1c1.2,0,2,1.5,0.8,2.1
			l-22.1,19c-0.4,0.4-0.4,0.7-0.4,1.1l4.7,25.5C94.9,863,92.9,863.6,92.1,863.3L92.1,863.3L92.1,863.3z"/>
		<g class="st17">
			<path d="M73.9,841.7v3.6l-23.3-1.1c0-1.1,0.4-1.8,0.8-2.5c0.8-1.5,1.6-2.5,3.1-3.9c1.2-1.5,3.1-2.8,5.9-4.3
				c3.9-2.5,6.7-4.7,7.9-6.2c1.6-1.5,2-2.8,2.3-4.3c0-1.5-0.4-2.8-1.6-3.9s-2.7-1.8-4.7-1.8c-2,0-3.5,0.4-5.1,1.5
				c-1.2,1.1-2,2.5-2,4.3l-4.3-0.7c0.4-2.8,1.6-5.1,3.5-6.4c2-1.5,4.7-2.1,7.9-1.8c3.1,0,5.9,1.1,7.9,2.8c2,1.8,2.7,3.9,2.7,6.2
				c0,1.1-0.4,2.5-1.2,3.6c-0.8,1.1-1.6,2.5-3.1,3.6c-1.6,1.1-3.5,2.8-6.7,5.1c-2.7,1.8-4.3,2.8-5.1,3.6c-0.8,0.7-1.6,1.5-2,1.8
				L73.9,841.7z"/>
		</g>
		<polygon class="st15" points="70.8,784.9 64.5,782.1 57.8,784.9 58.9,778.8 54.3,774.5 60.9,773.8 64.1,768 67.3,773.8 
			74.7,774.5 69.2,778.5 		"/>
		<polygon class="st15" points="99.2,806.5 92.9,804 86.6,806.5 87.7,800.7 82.2,796.4 89.7,795.4 92.5,790.3 96,795.4 103.5,796.1 
			98,800.7 		"/>
	</g>
</g>
<g id="_3_stars">
	<g id="_3_Stars">
		
			<linearGradient id="SVGID_00000068667992725044343610000006492432390251470756_" gradientUnits="userSpaceOnUse" x1="17.7474" y1="3023.1218" x2="100.3936" y2="2976.3081" gradientTransform="matrix(1 0 0 -1 0 3963.6379)">
			<stop  offset="0" style="stop-color:#FFE672"/>
			<stop  offset="0.17" style="stop-color:#FBE16B"/>
			<stop  offset="0.4" style="stop-color:#F2D659"/>
			<stop  offset="0.67" style="stop-color:#E3C33B"/>
			<stop  offset="0.97" style="stop-color:#CEAA11"/>
			<stop  offset="1" style="stop-color:#CCA70D"/>
		</linearGradient>
		<path style="fill:url(#SVGID_00000068667992725044343610000006492432390251470756_);" d="M87.5,993.2l-27.9-10.8
			c-0.4-0.4-0.8-0.4-1.6,0l-27.8,13.4c-1.2,0.7-2.3-0.4-2.3-1.5l5.5-26.1c0-0.4,0-0.7-0.4-1.1l-21.6-17.4c-0.8-0.7-0.4-2.1,0.8-2.1
			l31.4-5.5c0.4,0,0.8-0.4,1.2-0.7L59,916.7c0.4-1.1,2.3-1.1,2.7,0L75,939.9c0.4,0.4,0.8,0.7,1.2,0.7l30.6,2.1c1.2,0,2,1.5,0.8,2.1
			l-22.4,19.5c-0.4,0.4-0.4,0.7-0.4,1.1l4.7,26.1C89.9,992.8,88.7,993.9,87.5,993.2L87.5,993.2L87.5,993.2z"/>
		<g>
			<path d="M48.7,964.5l4.3-0.4c0.4,2.1,1.2,3.6,2.3,4.7c1.2,1.1,2.3,1.5,3.9,1.5c2,0,3.5-0.4,5.1-1.9c1.6-1.1,2-2.5,2.3-4.7
				c0-1.9-0.4-3.2-1.6-4.4c-1.2-1.1-2.7-1.9-4.7-1.9c-0.8,0-1.6,0-2.7,0.4l0.8-3.2c0.4,0,0.4,0,0.8,0c1.6,0,3.5-0.4,4.7-1.1
				c1.6-0.7,2.3-2.1,2.3-4c0-1.5-0.4-2.5-1.2-3.6c-0.8-1.1-2.3-1.5-3.9-1.5s-3.1,0.4-3.9,1.1c-1.2,0.7-2,2.1-2.3,4l-3.9-0.7
				c0.8-2.5,2-4.4,3.9-5.8c1.9-1.5,4.3-1.9,6.7-1.9c2,0,3.5,0.4,5.1,1.5c1.6,1.1,2.7,1.9,3.5,3.2c0.8,1.5,1.2,2.5,1.2,4
				c0,1.5-0.4,2.5-1.2,3.6c-0.8,1.1-2,1.9-3.5,2.5c2,0.4,3.5,1.5,4.3,2.9c1.2,1.5,1.6,2.9,1.6,5.1c0,2.5-1.2,5.1-3.5,6.9
				c-2.3,1.9-5.1,2.5-8.2,2.5c-3.1,0-5.5-1.1-7-2.9C49.8,969.3,48.7,967,48.7,964.5z"/>
		</g>
		<polygon class="st15" points="65.9,913.4 59.2,910.5 53,913.4 54.1,907.3 48.7,902.9 56.1,901.8 59.2,896 62.8,901.8 69.8,902.9 
			64.7,906.9 		"/>
		<polygon class="st15" points="95,935.6 88.3,932.7 82,935.6 83.2,929.7 77.7,925 85.2,924.3 88.3,918.9 91.4,924.3 98.9,925 
			93.8,929.3 		"/>
		<polygon class="st15" points="113.5,979.5 106.8,976.9 100,979.7 101.2,973.6 96.1,969.3 103.7,968.2 106.8,962.4 109.5,968.2 
			117,968.9 111.5,973.6 		"/>
	</g>
</g>
<g id="_4_stars">
	<g id="_4_Stars">
		
			<linearGradient id="SVGID_00000148622531673332417700000018376508986003199931_" gradientUnits="userSpaceOnUse" x1="18.1769" y1="2897.7922" x2="100.1205" y2="2851.3965" gradientTransform="matrix(1 0 0 -1 0 3963.6379)">
			<stop  offset="0" style="stop-color:#FFE672"/>
			<stop  offset="0.17" style="stop-color:#FBE16B"/>
			<stop  offset="0.4" style="stop-color:#F2D659"/>
			<stop  offset="0.67" style="stop-color:#E3C33B"/>
			<stop  offset="0.97" style="stop-color:#CEAA11"/>
			<stop  offset="1" style="stop-color:#CCA70D"/>
		</linearGradient>
		<path style="fill:url(#SVGID_00000148622531673332417700000018376508986003199931_);" d="M87.6,1117.6l-27.9-10.8
			c-0.4,0-0.8,0-1.6,0l-27.9,13c-1.2,0.4-2.3-0.4-2.3-1.5l5.5-25.2c0-0.4,0-0.7-0.4-1.1l-21.6-16.6c-0.8-0.7-0.4-2.1,0.8-2.1
			l31.4-5.4c0.4,0,0.8-0.4,1.2-0.7l14.2-23.7c0.4-1.1,2.3-1.1,2.7,0l13.3,22c0.4,0.4,0.8,0.7,1.2,0.7l30.6,2.1c1.2,0,2,1.5,0.8,2.1
			l-22.5,18.8c-0.4,0.4-0.4,0.7-0.4,1.1l4.7,25.2C89.9,1117.3,88.7,1118,87.6,1117.6L87.6,1117.6L87.6,1117.6z"/>
		<g>
			<path d="M58.9,1099.2l0.4-7.5l-14.6-0.7v-3.6l16.5-19.4h3.5l-1.2,20.1l4.7,0.4v3.6l-4.7-0.4l-0.4,7.5H58.9z M59.7,1088.5
				l0.8-14.1l-11.4,13.3L59.7,1088.5z"/>
		</g>
		<polygon class="st15" points="65.9,1040.3 59.3,1037.7 53,1040.6 54.2,1034.9 48.7,1030.5 56.1,1029.4 59.3,1024 62.8,1029.4 
			69.9,1030.2 64.8,1034.9 		"/>
		<polygon class="st15" points="95,1062.2 88.3,1059 82.5,1062.2 83.3,1056.1 77.8,1051.8 85.2,1051 88.3,1045.6 91.9,1050.7 
			98.9,1051.8 93.8,1056.1 		"/>
		<polygon class="st15" points="113.5,1104.3 106.8,1101.8 100.5,1104.3 101.7,1098.6 96.2,1094.3 103.7,1093.5 106.8,1087.7 
			109.6,1093.5 117,1094.3 111.9,1098.6 		"/>
		<polygon class="st15" points="98.5,1140 92.3,1137.1 85.6,1140 86.8,1133.8 81.7,1129.9 88.7,1128.8 92.3,1123.4 95.4,1128.8 
			102.4,1129.9 97.4,1133.8 		"/>
	</g>
</g>
<g id="_5_stars">
	<g id="_5_Stars">
		
			<linearGradient id="SVGID_00000026859313230754622350000005772748670180556471_" gradientUnits="userSpaceOnUse" x1="23.8531" y1="2770.0603" x2="100.0546" y2="2726.8804" gradientTransform="matrix(1 0 0 -1 0 3963.6379)">
			<stop  offset="0" style="stop-color:#FFE672"/>
			<stop  offset="0.17" style="stop-color:#FBE16B"/>
			<stop  offset="0.4" style="stop-color:#F2D659"/>
			<stop  offset="0.67" style="stop-color:#E3C33B"/>
			<stop  offset="0.97" style="stop-color:#CEAA11"/>
			<stop  offset="1" style="stop-color:#CCA70D"/>
		</linearGradient>
		<path style="fill:url(#SVGID_00000026859313230754622350000005772748670180556471_);" d="M87.7,1243.1l-25.4-10.4
			c-0.4,0-0.8,0-1.2,0l-25.9,12.6c-1.2,0.4-2.3-0.4-2-1.5l4.7-24.7c0-0.4,0-0.7-0.4-1.1l-20.4-16.5c-0.8-0.7-0.4-1.8,0.8-2.1l28.6-5
			c0.4,0,0.8-0.4,1.2-0.7l12.9-23.3c0.4-1.1,2-1.1,2.3,0l12.5,21.5c0.4,0.4,0.8,0.7,1.2,0.7l28.2,2.1c1.2,0,2,1.5,0.8,2.1L84.9,1215
			c-0.4,0.4-0.4,0.7-0.4,1.1l4.3,24.4C90,1242.7,88.8,1243.5,87.7,1243.1L87.7,1243.1L87.7,1243.1z"/>
		<g>
			<path d="M50.5,1218l4.3-0.4c0.4,1.8,1.2,3.2,2.3,4.3c1.2,1.1,2.7,1.5,4.3,1.5c2,0,3.9-0.7,5.1-2.1c1.6-1.5,2-3.2,2-5.4
				c0-2.2-0.8-3.9-2-5c-1.2-1.1-3.1-1.8-5.5-1.8c-1.2,0-2.7,0.4-3.5,0.7s-2,1.5-2.7,2.1l-3.9-0.4l3.5-15.8h17.2v3.6H57.9l-2,8.2
				c2-1.5,4.3-1.8,6.7-1.8c3.1,0,5.5,1.1,7.4,2.8c2,1.8,3.1,4.3,3.1,7.1c0,2.8-0.8,5-2.7,7.1c-2.3,2.5-5.1,3.6-9,3.6
				c-3.1,0-5.9-0.7-7.8-2.5C51.7,1222.3,50.9,1220.5,50.5,1218z"/>
		</g>
		<polygon class="st15" points="67.7,1167.4 62.2,1164.9 56,1167.8 57.1,1162 52.4,1157.7 58.7,1156.9 61.8,1152 65,1156.9 
			71.6,1157.7 66.5,1162 		"/>
		<polygon class="st15" points="94.7,1188.9 88.5,1185.7 83,1188.9 83.8,1182.8 78.7,1178.9 85.3,1177.8 88.5,1172.8 91.6,1177.8 
			97.9,1178.9 93.5,1182.8 		"/>
		<polygon class="st15" points="111.6,1230.2 105.3,1227.3 99.4,1230.2 100.2,1224.4 95.5,1220.1 102.5,1219.4 105.3,1214 
			108,1219.4 114.7,1220.1 110,1224.4 		"/>
		<polygon class="st15" points="97.9,1264.6 92,1262.1 86.1,1265 86.9,1258.9 82.2,1254.9 88.8,1254.2 92,1248.9 94.7,1254.2 
			101.4,1254.9 96.7,1258.9 		"/>
		<polygon class="st15" points="38,1266 32.1,1263.5 26.3,1266 27.1,1260.7 22.4,1256.4 29,1255.6 32.1,1249.9 34.8,1255.3 
			41.5,1256.4 36.8,1260.7 		"/>
	</g>
</g>
<g id="_6_stars">
	<g id="_6_Stars">
		
			<linearGradient id="SVGID_00000058574207437094005530000007922782636599802243_" gradientUnits="userSpaceOnUse" x1="21.7322" y1="2640.5225" x2="100.1081" y2="2596.1431" gradientTransform="matrix(1 0 0 -1 0 3963.6379)">
			<stop  offset="0" style="stop-color:#FFE672"/>
			<stop  offset="0.17" style="stop-color:#FBE16B"/>
			<stop  offset="0.4" style="stop-color:#F2D659"/>
			<stop  offset="0.67" style="stop-color:#E3C33B"/>
			<stop  offset="0.97" style="stop-color:#CEAA11"/>
			<stop  offset="1" style="stop-color:#CCA70D"/>
		</linearGradient>
		<path style="fill:url(#SVGID_00000058574207437094005530000007922782636599802243_);" d="M87.5,1373.9l-26.4-10.8
			c-0.4,0-0.8,0-1.2,0l-26.4,13.3c-1.2,0.4-2.3-0.4-2.3-1.5l5.5-25.5c0-0.4,0-0.7-0.4-1.1l-21.1-16.9c-0.8-0.7-0.4-2.1,0.8-2.1
			l29.6-5.4c0.4,0,0.8-0.4,1.2-0.7l13-24.1c0.4-1.1,2-1.1,2.7,0l12.6,22.3c0.4,0.4,0.8,0.7,1.2,0.7l29.2,2.1c1.2,0,2,1.5,0.8,2.1
			l-21.3,18.7c-0.4,0.4-0.4,0.7-0.4,1.1l4.7,25.2C89.9,1373.6,88.8,1374.3,87.5,1373.9L87.5,1373.9L87.5,1373.9z"/>
		<g>
			<path d="M71.7,1334.3h-4.3c-0.4-1.5-0.8-2.5-1.2-3.2c-1.2-1.1-2.3-1.8-3.9-1.8c-1.2,0-2.3,0.4-3.5,0.7c-1.2,0.7-2.3,2.1-3.1,3.6
				c-0.8,1.8-1.6,4-1.6,7.2c1.2-1.5,2.3-2.1,3.9-2.8c1.6-0.7,3.1-0.7,4.7-0.7c2.7,0,5.1,1.1,6.7,3.2c1.6,2.1,2.7,4.3,2.3,7.2
				c0,1.8-0.8,3.6-1.6,5.4s-2.3,2.8-3.9,3.6c-1.6,0.7-3.5,1.1-5.5,1.1c-3.5-0.4-6.3-1.5-8.3-4c-2-2.5-2.7-6.4-2.3-11.5
				c0.4-6.2,2-10.1,4.3-13c2.3-2.1,5.1-3.2,8.7-3.2c2.7,0,4.7,1.1,6.3,2.5C70.6,1330,71.7,1331.8,71.7,1334.3z M54,1346.6
				c0,1.5,0,2.5,0.8,4c0.4,1.1,1.2,2.1,2.3,2.8c1.2,0.7,2.3,1.1,3.5,1.1c1.6,0,3.1-0.4,4.7-1.8c1.2-1.1,2-2.8,2.3-5.1
				c0-2.1-0.4-4-1.6-5.1c-1.2-1.5-2.7-2.1-4.7-2.1c-2,0-3.5,0.4-4.7,1.5C54.8,1343,54,1344.8,54,1346.6z"/>
		</g>
		<polygon class="st15" points="67,1296.2 60.7,1293.3 54.8,1296.2 56,1290.5 51.3,1286.2 57.9,1285.1 60.7,1280 63.9,1285.1 
			70.6,1285.8 65.9,1290.5 		"/>
		<polygon class="st15" points="94.6,1318.1 88.3,1315.3 82.4,1318.1 83.6,1312.1 78.5,1308.1 85.1,1307 87.9,1301.6 91.5,1307 
			97.8,1307.8 93.5,1312.1 		"/>
		<polygon class="st15" points="112,1361 105.7,1357.7 99.3,1361 100.1,1354.9 95.4,1350.6 102.6,1349.5 105.3,1344.4 108.4,1349.5 
			115.1,1350.2 110,1354.9 		"/>
		<polygon class="st15" points="97.8,1396.3 91.9,1393.7 85.5,1396.6 86.7,1390.8 82,1386.1 88.3,1385.4 91.9,1380.1 94.6,1385.4 
			101.7,1386.1 96.6,1390.5 		"/>
		<polygon class="st15" points="36.3,1398 29.9,1395.2 24.1,1398 25.2,1391.9 20.1,1387.6 26.8,1386.9 29.9,1381.5 33.1,1386.9 
			39.8,1387.6 35.1,1391.9 		"/>
		<polygon class="st15" points="21.3,1363.2 15,1359.9 8.7,1363.2 9.9,1357 5.1,1353.1 11.8,1352 15,1346.6 17.7,1352 24.8,1352.7 
			19.7,1357 		"/>
	</g>
</g>
<g id="_7_stars">
	<g id="_7_Stars">
		
			<linearGradient id="SVGID_00000154403436543464801480000007214154618966825399_" gradientUnits="userSpaceOnUse" x1="21.2549" y1="2514.6089" x2="99.8943" y2="2470.0327" gradientTransform="matrix(1 0 0 -1 0 3963.6379)">
			<stop  offset="0" style="stop-color:#FFE672"/>
			<stop  offset="0.17" style="stop-color:#FBE16B"/>
			<stop  offset="0.4" style="stop-color:#F2D659"/>
			<stop  offset="0.67" style="stop-color:#E3C33B"/>
			<stop  offset="0.97" style="stop-color:#CEAA11"/>
			<stop  offset="1" style="stop-color:#CCA70D"/>
		</linearGradient>
		<path style="fill:url(#SVGID_00000154403436543464801480000007214154618966825399_);" d="M87.8,1498.7l-26.7-10.4
			c-0.4,0-0.8,0-1.6,0l-26.7,12.5c-1.2,0.4-2.3-0.4-2.3-1.5l5.5-24.4c0-0.4,0-0.7-0.4-1.1l-21.2-16.1c-0.8-0.7-0.4-1.8,0.8-2.1
			l29.8-5c0.4,0,0.8-0.4,1.2-0.7l13.3-23c0.4-1.1,2-1.1,2.7,0l12.9,21.5c0.4,0.4,0.8,0.7,1.2,0.7l29.5,2.1c1.2,0,2,1.5,0.8,2.1
			l-21.6,18.3c-0.4,0.4-0.4,0.7-0.4,1.1l4.7,24.4C90.2,1498,88.9,1499.1,87.8,1498.7L87.8,1498.7L87.8,1498.7z"/>
		<g>
			<path d="M50.1,1457.2v-3.6l22.8,0.7v2.8c-2.3,2.1-4.7,4.7-7,8.2c-2.3,3.2-4.3,6.8-5.5,10.4c-0.8,2.5-1.6,5.4-2,8.2H54
				c0-2.5,0.8-5.4,2-8.6c1.2-3.2,2.7-6.8,4.7-9.7c2-3.2,4.3-5.8,6.7-7.9L50.1,1457.2z"/>
		</g>
		<polygon class="st15" points="67.4,1424.1 60.7,1420.9 54.8,1424.1 56,1418.1 51.3,1414.5 57.9,1413.4 60.7,1408 64.3,1413.4 
			71.3,1414.1 65.9,1418.1 		"/>
		<polygon class="st15" points="95.3,1444.6 88.6,1442.1 82.7,1444.9 83.9,1438.9 78.8,1434.9 85.8,1434.2 88.6,1428.8 92.2,1434.2 
			98.8,1434.9 93.7,1438.9 		"/>
		<polygon class="st15" points="112.5,1485.8 106.3,1482.9 100,1486.2 101.6,1480.1 96.1,1475.8 103.1,1475 106.3,1470.1 
			109.4,1475 116.1,1475.8 111.4,1480.1 		"/>
		<polygon class="st15" points="98.4,1520.3 92.6,1517.3 86.2,1520.3 87,1514.9 82.3,1510.6 88.9,1509.5 92.2,1504.4 95.3,1509.5 
			102.4,1510.2 97.3,1514.5 		"/>
		<polygon class="st15" points="36,1521.6 29.6,1518.8 23.4,1522 24.6,1516 19.5,1511.7 26.5,1510.9 29.2,1505.9 32.8,1510.9 
			39.5,1511.7 34.8,1516 		"/>
		<polygon class="st15" points="20.2,1487.9 14.4,1485.5 8.1,1487.9 8.9,1482.3 4.1,1478.3 10.9,1477.6 14,1472.2 17.1,1477.6 
			24.2,1478.3 19.1,1482.3 		"/>
		<polygon class="st15" points="36,1444.6 29.6,1442.1 23.4,1444.9 24.6,1438.9 19.5,1434.9 26.5,1434.2 29.2,1428.8 32.8,1434.2 
			39.5,1434.9 34.8,1438.9 		"/>
	</g>
</g>
<g id="Pencil_and_kistochka">
	<g id="pencil">
		
			<linearGradient id="SVGID_00000070091879905445988440000005359800221381590689_" gradientUnits="userSpaceOnUse" x1="213.1729" y1="1781.0939" x2="213.0102" y2="1757.2628" gradientTransform="matrix(1.1801 -1.2737 0.9738 0.9023 -1913.5325 269.5202)">
			<stop  offset="6.921235e-03" style="stop-color:#008FE1"/>
			<stop  offset="0.465" style="stop-color:#0068A1"/>
			<stop  offset="0.739" style="stop-color:#00547F"/>
		</linearGradient>
		<path style="fill:url(#SVGID_00000070091879905445988440000005359800221381590689_);" d="M109.1,1566.4L35.5,1643
			c-1.2,1.3-3.3,1.3-4.6,0.1l-17.8-15.9c-1.3-1.2-1.4-3.2-0.2-4.5l73.6-76.6c1.2-1.3,3.3-1.3,4.6-0.1l17.8,15.9
			C110.3,1563.1,110.3,1565.1,109.1,1566.4z"/>
		<path class="st1" d="M86.9,1545.8c7.1,6.4,14.1,12.7,21.2,19.1c0.4,0.4,0.9,0.8,1.3,1.1c0.5-0.4,1-0.9,1.5-1.3
			c0.9-5.5,1.8-11,2.7-16.4c-2-1.7-4-3.5-6-5.2c-6.5,0.5-13.1,1.1-19.6,1.6C87.7,1545,87.3,1545.4,86.9,1545.8z"/>
		<path d="M113.6,1548.3c-0.3,0-2.6,0.2-4.4-1.5c-1.6-1.5-1.6-3.4-1.6-3.8c2.4-0.1,4.7-0.2,7.1-0.4
			C114.4,1544.5,114,1546.4,113.6,1548.3z"/>
	</g>
	<g id="kistochka">
		
			<linearGradient id="SVGID_00000127045748126008246820000015172566953843212683_" gradientUnits="userSpaceOnUse" x1="57.7044" y1="1624.3997" x2="75.332" y2="1607.8071" gradientTransform="matrix(0.9979 6.526394e-02 -6.526394e-02 0.9979 127.2546 -0.4441)">
			<stop  offset="0.3506" style="stop-color:#FF7D00"/>
			<stop  offset="0.3824" style="stop-color:#FB7A00"/>
			<stop  offset="0.6469" style="stop-color:#D95F00"/>
		</linearGradient>
		<path style="fill:url(#SVGID_00000127045748126008246820000015172566953843212683_);" d="M52.5,1595.9l24.7-19.6
			c0.3-0.2,0.8-0.2,1,0.1c11.3,14.8,11.9,16.4,11.9,16.4c2,3.1,3.6,5.6,4.8,7.3c2.3,3.4,3.3,4.7,5.1,7.5c1.1,1.7,2.4,3.8,3.8,6.5
			c0,0,0,0,0,0.1c1.3,2,2.6,4.2,3.9,6.8c1.4,2.8,2.5,5.4,3.3,7.8c0,0,0,0,0,0c0,0,0,0,0,0c1,2.1,1.9,4.5,2.8,7.2
			c0.8,2.5,1.5,4.9,2,7.1c0.1,0.3,0,0.6-0.2,0.7c-0.2,0.2-0.5,0.2-0.8,0.1c-3.5-1.5-6.5-2.9-8.9-4.2c-2.8-1.4-5-2.5-6.6-3.4
			c-1.8-1-4.7-2.5-8-4.5c-3.5-2.1-7.8-4.7-12.6-8.1c0,0,0,0-0.1,0c0,0,0,0-0.1,0c-3.2-2.4-6.5-5.1-9.9-8.1c-2.8-2.5-5.4-5.1-7.6-7.5
			c0,0,0,0,0,0c0,0,0,0,0,0l-8.7-11.1C52.1,1596.6,52.2,1596.2,52.5,1595.9z"/>
		
			<linearGradient id="SVGID_00000080920897319739081310000018122577061724539560_" gradientUnits="userSpaceOnUse" x1="47.9094" y1="1589.2177" x2="69.067" y2="1573.1879">
			<stop  offset="0.3506" style="stop-color:#DBDADC"/>
			<stop  offset="0.4453" style="stop-color:#CAC9CB"/>
			<stop  offset="0.6469" style="stop-color:#A9A9A9"/>
		</linearGradient>
		<path style="fill:url(#SVGID_00000080920897319739081310000018122577061724539560_);" d="M78.6,1576.9c-8.5,7-17,13.9-25.5,20.9
			c-0.4-0.5-0.8-1-1.2-1.5c-3.5-4.3-7.1-8.4-10.7-12.3c8.4-7.1,16.8-14.1,25.2-21.2c8.1,9.3,11.3,13,11.6,13.2c0,0,0.2,0.1,0.4,0.3
			C78.4,1576.6,78.5,1576.8,78.6,1576.9z"/>
		
			<linearGradient id="SVGID_00000178168885303433759460000003991339541607739793_" gradientUnits="userSpaceOnUse" x1="25.4148" y1="1564.9025" x2="48.7791" y2="1547.2009">
			<stop  offset="0.3307" style="stop-color:#F04840"/>
			<stop  offset="0.6469" style="stop-color:#D03E35"/>
		</linearGradient>
		<path style="fill:url(#SVGID_00000178168885303433759460000003991339541607739793_);" d="M59,1568.9l-12.4,10.7l-2.3,1.8
			c-1.1-0.4-2.2-0.9-3.4-1.4c-3-1.4-5.1-2.8-7.3-4.2c-2.2-1.5-3.5-2.4-5.2-3.9c-1.7-1.5-3-3-3.8-4c-0.3-0.7-0.6-1.6-0.8-2.7
			c-0.1-0.6-0.2-1.2-0.2-1.7c0-1-0.1-1.5-0.1-2.1c0-0.3,0-1.1,0.1-2.1c0-0.1,0.1-0.6,0.3-1.5c0.1-0.6,0.1-0.8,0.3-1.1
			c0.1-0.3,0.2-0.4,0.4-0.8c0.2-0.4,0.2-0.6,0.3-0.9c0.1-0.4-0.1-0.7-0.2-1.3c-0.1-0.5-0.3-0.9-0.6-1.3c-0.3-0.4-0.6-0.6-0.9-0.8
			c-0.8-0.5-1.5-0.6-1.9-0.7c-0.1,0-0.7-0.1-1.2-0.1c-0.1,0-0.9,0.1-1,0.1c-0.1,0-0.2,0-0.4-0.1c-0.1,0-0.2-0.1-0.4-0.2
			c-0.1,0-0.2-0.1-0.4-0.3c-0.2-0.2-0.3-0.3-0.4-0.3c-0.6-0.7-0.6-0.6-0.7-0.8c-0.4-0.4-0.7-0.8-1-1.2c-0.6-1-0.6-2.1-0.5-2.6
			c0.1-0.6,0.3-1.4,0.6-2.3c0.5-1.1,1.1-1.9,1.6-2.5c0.5-0.5,1-1,1.7-1.6c1.7-1.2,4.5-2,4.5-2c1-0.3,1.8-0.4,3.2-0.6
			c0.6-0.1,1.7-0.2,3.2-0.3c0.9-0.1,1.5-0.1,2.4-0.1c0.4,0,0.8,0,1.6,0.1c0.6,0,0.9,0.1,1.2,0.1c0.6,0.1,1.1,0.2,1.7,0.3
			c0.8,0.2,0.7,0.2,1.4,0.4c0.6,0.1,0.8,0.2,1.1,0.3c0.3,0.1,0.4,0.2,0.9,0.4c0.5,0.3,0.9,0.4,1.2,0.5c0.9,0.3,1.8,0.8,3,1.4
			c1,0.5,1.8,1,2.1,1.2c0.8,0.5,1.8,1.1,3,2c1.3,0.8,2.3,1.4,3.1,2c1.4,0.9,2.1,1.4,2.8,2.1c1.1,1,1.7,1.8,2.2,2.5
			c1.3,1.8,2.1,3.3,2.3,3.9c0.6,1.3,0.8,2.2,1.2,3.6c0.4,1.4,0.7,2.3,0.8,3.7c0.2,1.4,0.1,2.5,0.1,3.4c-0.1,1.2-0.2,2.1-0.3,2.9
			C60.9,1567.4,59.9,1568.2,59,1568.9z"/>
	</g>
</g>
<g id="Speech">
	<g>
		<g>
			<g>
				<path class="st27" d="M75,1722c-29,0.5-52.2,16.3-51.9,35.5c0,1.7,0.3,3.4,0.7,5c-0.3,4-1.5,8.7-5,11.7c-5,4.2-12.5,3-12.5,4.6
					c-0.1,1.2,4.2,2.4,6,2.8c1.1,0.2,2.4,0.3,4.9,0.5c2.1,0.2,3.6,0.2,3.9,0.2c1.7,0.1,2.7,0,4.9,0c5-0.1,4.5,0,7.1-0.1
					c1.6,0,3.7-0.1,6.2-0.3c1.1,0.7,2.2,1.3,3.4,1.9c9.1,4.8,20.8,7.6,33.4,7.4c29-0.5,52.2-16.3,51.9-35.5
					C127.7,1736.7,104,1721.5,75,1722z"/>
			</g>
			<path class="st28" d="M65.2,1758.2c0-5.2,0.2-9.3,0.5-10.8c-1.1-0.1-4-0.3-4.4-0.4l1-7c1.3,0.4,4.3,0.4,8.3,0.4h10.9
				c8.8,0,10.4,3.5,10.4,16.5v26h-4.7V1759c0-8.6-0.6-11.6-6.3-11.6H69.8v35.3h-4.6V1758.2z"/>
		</g>
	</g>
	<g>
		<path class="st29" d="M116.1,1680.1c-1.1-0.3-2.4-0.4-4.9-0.6c-2.1-0.2-3.6-0.3-3.9-0.3c-1.7-0.1-2.7-0.1-4.9-0.1
			c-5,0-4.5-0.1-7.1,0c-1.6,0-3.7,0.1-6.2,0.2c-1.1-0.7-2.2-1.4-3.3-2c-9.1-4.9-20.7-7.9-33.3-7.9c-29,0-52.4,15.5-52.4,34.7
			s23.5,34.7,52.4,34.7s52.4-15.5,52.4-34.7c0-1.7-0.2-3.4-0.6-5.1c0.4-4,1.6-8.7,5.2-11.6c5-4.1,12.5-2.8,12.6-4.4
			C122.1,1681.8,117.9,1680.5,116.1,1680.1z"/>
		<g>
			<path class="st28" d="M29.8,1726.7l20.6-52.1H57l20.6,52.1h-9.7l-14.2-38.8l-14.2,38.8H29.8z M39.5,1716.8v-8.2h28.9v8.2H39.5z"
				/>
		</g>
	</g>
</g>
<g id="Humans">
	<g id="back_person">
		
			<radialGradient id="SVGID_00000161610632844141256540000011491346345982646661_" cx="11738.5029" cy="-5701.3271" r="82.2326" fx="11658.373" fy="-5682.8521" gradientTransform="matrix(0.2758 0 0 0.2584 -3208.3545 3284.7393)" gradientUnits="userSpaceOnUse">
			<stop  offset="0.8151" style="stop-color:#00689C"/>
			<stop  offset="0.9081" style="stop-color:#005987"/>
			<stop  offset="1" style="stop-color:#00547F"/>
		</radialGradient>
		
			<ellipse style="fill:url(#SVGID_00000161610632844141256540000011491346345982646661_);" cx="29.5" cy="1812.1" rx="22.4" ry="20.1"/>
		
			<linearGradient id="SVGID_00000039111445972145314070000003971941106699458745_" gradientUnits="userSpaceOnUse" x1="2.6069" y1="-1100.2686" x2="55.8233" y2="-1099.1121" gradientTransform="matrix(1 0 0 1 0 2956)">
			<stop  offset="0.5" style="stop-color:#00689C"/>
			<stop  offset="0.56" style="stop-color:#00547F"/>
		</linearGradient>
		<path style="fill:url(#SVGID_00000039111445972145314070000003971941106699458745_);" d="M9.8,1836.8h40
			c2.3,6.1,4.3,12.2,6.7,18.3c1.2,2.8,2.3,5.8,3.5,8.6c-9,3.9-18.9,8.2-27.9,12.6c-0.4,0-0.8,0-1.2,0c-10.2-3.9-20.8-8.2-31-12.2
			c1.6-3.6,2.7-7.5,4.3-10.7C5.5,1847.6,7.8,1842.2,9.8,1836.8L9.8,1836.8z"/>
	</g>
	<g id="back_person-2">
		
			<radialGradient id="SVGID_00000143600218109127351320000001269720590588492943_" cx="141.8204" cy="2258.5901" r="20.9899" fx="142.3365" fy="2258.7715" gradientTransform="matrix(1.0612 0 0 -0.994 -53.3674 4055.8052)" gradientUnits="userSpaceOnUse">
			<stop  offset="0.84" style="stop-color:#00689C"/>
			<stop  offset="0.94" style="stop-color:#005987"/>
		</radialGradient>
		
			<ellipse style="fill:url(#SVGID_00000143600218109127351320000001269720590588492943_);" cx="97.8" cy="1812.1" rx="22.4" ry="20.1"/>
		
			<linearGradient id="SVGID_00000114033266775712696060000012191091446263201460_" gradientUnits="userSpaceOnUse" x1="70.7309" y1="-1100.2634" x2="123.9473" y2="-1099.1077" gradientTransform="matrix(1 0 0 1 0 2956)">
			<stop  offset="0.5" style="stop-color:#00689C"/>
			<stop  offset="0.56" style="stop-color:#00547F"/>
		</linearGradient>
		<path style="fill:url(#SVGID_00000114033266775712696060000012191091446263201460_);" d="M77.7,1836.8h40
			c2.3,6.1,4.3,12.2,6.7,18.3c1.2,2.8,2.3,5.8,3.5,8.6c-9,3.9-18.9,8.2-27.9,12.6c-0.4,0-0.8,0-1.2,0c-10.2-3.9-20.8-8.2-31-12.2
			c1.6-3.6,2.7-7.5,4.3-10.7C73.8,1847.6,75.8,1842.2,77.7,1836.8L77.7,1836.8z"/>
	</g>
	<g id="centerPerson">
		
			<radialGradient id="SVGID_00000012472012210902761280000014555485310429341590_" cx="9299.877" cy="-4686.2622" r="82.2326" fx="9354.9707" fy="-4723.4233" gradientTransform="matrix(0.3289 0 0 0.3081 -2997.5923 3258.6108)" gradientUnits="userSpaceOnUse">
			<stop  offset="0.84" style="stop-color:#FFCB03"/>
			<stop  offset="0.94" style="stop-color:#ECB601"/>
			<stop  offset="1" style="stop-color:#E6AE01"/>
		</radialGradient>
		
			<ellipse style="fill:url(#SVGID_00000012472012210902761280000014555485310429341590_);" cx="65.6" cy="1817.1" rx="26.7" ry="25.1"/>
		
			<linearGradient id="SVGID_00000116951916631930757600000015488118049347519412_" gradientUnits="userSpaceOnUse" x1="33.2626" y1="-1085.1415" x2="96.6433" y2="-1083.7861" gradientTransform="matrix(1 0 0 1 0 2956)">
			<stop  offset="0.5" style="stop-color:#FFCB03"/>
			<stop  offset="0.56" style="stop-color:#E6AE01"/>
		</linearGradient>
		<path style="fill:url(#SVGID_00000116951916631930757600000015488118049347519412_);" d="M41.6,1847.6h47.5
			c2.7,7.5,5.1,15,7.8,22.3c1.6,3.6,2.7,7.1,3.9,10.7c-11,5.4-22.4,10.4-33,15.4c-0.4,0-0.8,0-1.6,0c-12.1-5.4-24.8-10.1-36.9-15.4
			c1.6-4.3,3.5-9,5.1-13.3C37.3,1860.9,39.7,1854,41.6,1847.6L41.6,1847.6z"/>
	</g>
</g>
<g id="Laure__x2B__Shield">
	<path id="Laure" class="st36" d="M127.2,1992.7c-2.4-0.5-10.5,2.5-12.7,6.2c1.3-3.7,2.4-7.6,3-11.6c5.3,1.1,12.4-9.8,10.1-13.5
		c-3.8,0.9-8.3,4.9-9.7,8.9c0.3-3.8,0.3-7.6,0-11.3c4.7-0.3,9-11.7,6.1-14.4c-3.3,1.8-6.2,6.3-6.6,10.4c-0.5-3.5-1.4-6.9-2.4-10.3
		c3.6-1.5,6.1-11,2.6-13.6c-2.5,2.4-4.2,6.7-3.8,10.3c-1.2-3-2.5-5.8-4.2-8.6c2.8-2.1,3-10.2-0.1-12.4c-1.2,1.1-2.8,6.9-1.6,9.5
		c-1.6-2.3-3.4-4.7-5.4-6.7c2.2-2.6,0.4-9.9-2-10.5c-1,2.2-1.3,6.1,0.1,8.3c-1.9-1.8-3.8-3.5-5.9-5c1.3-2.1-0.7-8-3.1-8.2
		c-0.5,1.1-0.3,5.6,1.4,7c-4.2-1.9-6.4-6.4-11.5-6.4c-1.1,0.2-2.6-0.2-2.3,0.9c3.2,4.8,9.8,3.2,13.7,6.7c-2.2-0.8-5.4,1.5-5.9,2.6
		c1.4,1.8,6.7,0.4,7.7-1.3c2,1.5,4.1,3.2,5.8,5c-2.4-1.3-5.8-0.1-7.3,1.8c0.6,2.2,7.2,2.2,9.2,0.1c1.9,2.1,3.6,4.4,5.3,6.7
		c-2.1-2.2-7.5-0.9-8.5,0.4c1.1,3,7.9,3.8,10.4,2.5c1.5,2.6,3,5.5,4.1,8.3c-2.3-2.7-6.7-3-9.6-1.6c0.8,3.4,7.7,6,10.8,5.1
		c1.1,3.2,1.9,6.6,2.3,9.8c-1.7-3.6-6.3-5.5-9.9-4.5c-1,2.7,7.1,8.9,10.3,8.5c0.3,3.7,0.3,7.3,0,11c-0.7-4.2-5.5-7.7-9.3-7.8
		c-1.8,2.6,5.4,11.6,8.8,12.2c-0.5,3.9-1.7,7.6-3,11.3c0.9-4.8-4.8-10.7-7.6-11.1c-2.4,3.6,2.4,13.3,5.7,15.5
		c-1.7,3.6-3.8,7.3-6.4,10.4c1.9-4.8-1.1-11.3-4.7-14.1c-3.5,3.6-1.6,13.5,1.1,17.9c-2.8,3.1-6.1,5.9-9.6,8.1
		c3.5-4.6,2.3-11.8-0.5-16c-4.9,2.8-5.4,13-4.5,18.6c-3.8,2-8,3.3-12.2,4.2c5.1-3.2,6.3-11.3,4.6-16.1c-5.5,0-10.3,12.4-10.5,17
		c-3.4,0.3-7,0.1-10.4,0c-0.2-4.5-5.2-17-10.5-17c-1.5,4.8-0.5,13.1,4.6,16.1c-4.2-0.8-8.4-2.4-12.2-4.2c1.1-5.5,0.3-15.9-4.5-18.6
		c-2.8,4.1-4.1,11.4-0.5,16c-3.4-2.4-6.8-4.9-9.6-8.1c3.1-5,3.8-12.3,1.8-17.7c-3.1,1.1-6.9,9.3-4.9,13.9c-2.5-3.2-4.6-6.7-6.4-10.4
		c3.2-2.2,8.1-11.9,5.7-15.5c-2.6,0.5-8.6,6.4-7.6,11.1c-1.3-3.7-2.4-7.4-3-11.3c3.4-0.7,10.6-9.4,8.8-12.2
		c-3.9,0.1-8.6,3.5-9.3,7.8c-0.4-3.7-0.4-7.3,0-11c3.2,0.5,11.3-5.9,10.3-8.5c-3.3-0.9-8.3,0.8-9.9,4.5c0.5-3.4,1.4-6.7,2.3-9.8
		c3,0.9,10-1.7,10.8-5.1c-2.8-1.4-7.3-1.1-9.6,1.6c1.2-2.9,2.4-5.6,4.1-8.3c2.4,1.5,9.2,0.5,10.4-2.5c-1.2-1.4-6.3-2.5-8.5-0.4
		c1.6-2.3,3.4-4.7,5.3-6.7c1.8,2,8.7,2.2,9.2-0.1c-1.5-1.8-5-3.1-7.3-1.8c1.9-1.8,3.8-3.5,5.8-5c1.4,1.7,6,3.2,7.7,1.3
		c-0.5-1.3-3.8-3.4-5.9-2.6c4-3.7,10.3-1.8,13.7-6.7c0.3-1.2-2.7-0.9-3.8-0.7c-4.5,0.9-6,5.2-10.1,6.7c1.5-1.5,1.9-5.9,1.4-7
		c-2.5,0.3-4.4,6.1-3.1,8.2c-2,1.5-4.1,3.2-5.9,5c2.8-5.6-0.4-13.4-3-2.8c1.7,6.6-0.8,6.6-4.3,11.7c1.2-2.8-0.4-8.4-1.6-9.5
		c-3,1.9-3.4,9.9-0.3,12c-1.7,2.9-3.1,5.5-4.2,8.6c0.4-3.7-1.3-7.9-3.8-10.3c-3.5,2.8-1,12,2.6,13.6c-1.1,3.4-1.9,6.7-2.4,10.3
		c-0.4-4-3.3-8.6-6.6-10.4c-2.8,2.5,1.2,14.1,6.1,14.4c-0.4,3.8-0.4,7.6,0,11.3c-1.5-3.9-5.8-8.1-9.7-8.9
		c-2.1,3.9,4.6,14.4,10.1,13.5c0.6,4,1.7,7.9,3,11.6c-2.2-3.7-10.2-6.7-12.7-6.2c-0.5,5.9,9.3,13.5,14.7,10.8
		c1.8,3.9,4,7.4,6.5,10.7c-4-2.7-10.8-3.6-15-2c1.4,6.6,12.7,11,18.4,6.4c2.9,3.1,6.4,6.1,9.9,8.5c-5.1-1.3-12.2,0.2-15.9,3.4
		c3.8,6.2,16.8,6.7,20.8-0.4c4.1,2.1,8.1,3.6,12.6,4.5c-5.7,0.7-12.2,5.2-15,9.7c6.3,5.3,19.9-0.9,21.1-8.8c0.9,0.1,1.8,0.1,2.8,0.1
		c-0.5,0.5-4.7,3.8-1.8,3.4c0.8-0.6,3.6-4.1,4.9-3.4c0,0,3.5,3.3,3.5,3.3c2.8,0.4-1.2-2.9-1.7-3.3c1,0,2-0.1,2.9-0.1
		c0.8,7.7,14.9,14.2,21.1,8.8c-2.7-4.5-9.4-8.9-15-9.7c4.3-0.9,8.6-2.5,12.6-4.5c3.9,7.1,17.1,6.7,20.8,0.4
		c-3.8-3.1-10.8-4.7-16-3.4c3.7-2.5,6.8-5.2,9.9-8.5c5.6,4.7,17,0.1,18.4-6.4c-4.3-1.7-10.9-0.4-15,2.1c2.5-3.3,4.7-6.9,6.5-10.7
		C118.2,2006.2,128.4,1998.3,127.2,1992.7z"/>
	<g id="Shield_2">
		<path class="st37" d="M87.9,1949.3c0,0-0.1,0-0.1,0c-2.9-0.3-8.5-1.3-14.1-5.1c-3.2-2.2-5.4-4.7-6.8-6.6H64h-2.9
			c-1.4,1.9-3.5,4.4-6.8,6.6c-5.6,3.9-11.2,4.8-14.1,5.1c0,0-0.1,0-0.1,0c-3.7,0-7.4,0-11.1,0c-0.5,0-1,0.4-1,1l0.1,39.7
			c0,0.2,0,0.4,0.2,0.5c3.1,4.8,7.9,11,14.9,17.1c6.6,5.7,13,9.5,18,12c1,0,2,0,2.9,0s2,0,2.9,0c5-2.5,11.4-6.3,18-12
			c7-6.1,11.7-12.3,14.9-17.1c0.1-0.2,0.2-0.3,0.2-0.5l0.1-39.7c0-0.5-0.4-1-1-1C95.3,1949.3,91.6,1949.3,87.9,1949.3z"/>
		<path class="st28" d="M38.3,1994.7l22.6-43.8H68l22.6,43.8h-12l-14.1-29.9l-14.1,29.9H38.3z M49.2,1987.7v-8h31.1v8H49.2z"/>
	</g>
</g>
<g id="Medal">
	<path class="st29" d="M90.5,2114.4C90.5,2114.4,90.1,2114.4,90.5,2114.4l-2,3.6c-1.2,2.5-4.3,4.3-7.7,4.3c-1.2,0-2.3-0.4-3.5-0.7
		l-3.5-1.8c0,0,0,0-0.4,0l-2.7,2.9c-0.8,0.7-1.6,1.1-2.3,1.5l19.8,27.4l3.9-15.9l17.8,2.9l-17.5-24.5L90.5,2114.4L90.5,2114.4z"/>
	<path class="st29" d="M35.8,2114.4L18.4,2139l17.8-2.9l3.9,15.9l19.8-27.4c-0.8-0.4-1.6-0.7-2.3-1.5l-2.7-2.9c0,0,0,0-0.4,0
		l-3.5,1.8c-1.2,0.4-2.3,0.7-3.5,0.7c-3.1,0-6.6-1.8-7.7-4.3l-1.6-3.6c0,0,0,0-0.4,0L35.8,2114.4L35.8,2114.4z"/>
	<g>
		<path class="st38" d="M64.1,2056.2c20.2,0,36.8,14.8,36.8,33.2c0-19.1-16.6-34.7-36.8-34.7s-36.8,15.5-36.8,34.7
			C27.7,2071,44,2056.2,64.1,2056.2z"/>
		<path class="st38" d="M64.1,2122.7c-20.2,0-36.8-15.1-36.8-33.2l0,0c0,19.1,16.6,34.7,36.8,34.7s36.8-15.5,36.8-34.7l0,0
			C101,2107.9,85.1,2122.7,64.1,2122.7z"/>
	</g>
	
		<linearGradient id="SVGID_00000148662060963701570450000016130699297951876016_" gradientUnits="userSpaceOnUse" x1="27.7021" y1="-866.5866" x2="101.1484" y2="-866.5866" gradientTransform="matrix(1 0 0 1 0 2956)">
		<stop  offset="0.39" style="stop-color:#FFDE4A"/>
		<stop  offset="0.57" style="stop-color:#E8AD28"/>
	</linearGradient>
	<path style="fill:url(#SVGID_00000148662060963701570450000016130699297951876016_);" d="M64.1,2056.2c-20.2,0-36.8,15.1-36.8,33.2
		c0,18.5,16.6,33.2,36.8,33.2s36.8-15.1,36.8-33.2C101,2071,85.1,2056.2,64.1,2056.2z"/>
	
		<linearGradient id="SVGID_00000007403058602265665800000007374567305229479859_" gradientUnits="userSpaceOnUse" x1="18.2253" y1="-867.1408" x2="109.0312" y2="-867.1408" gradientTransform="matrix(1 0 0 1 0 2956)">
		<stop  offset="0.45" style="stop-color:#FFDE4A"/>
		<stop  offset="0.57" style="stop-color:#E8AD28"/>
	</linearGradient>
	<path style="fill:url(#SVGID_00000007403058602265665800000007374567305229479859_);" d="M65.3,2053.3c-0.8,0.7-2.3,0.7-3.1,0
		l-5.4-3.2c-0.8-0.4-1.6-0.4-2,0.4l-3.5,5.1c-0.4,0.7-2,1.1-3.1,1.1l-6.2-1.5c-0.8-0.4-1.6,0.4-2,0.7l-1.6,5.8
		c-0.4,1.1-1.2,1.8-2.3,1.8l-6.6,0.4c-0.8,0-1.6,0.7-1.2,1.5l0.8,5.8c0,1.1-0.4,2.1-1.6,2.5l-5.8,2.1c-0.8,0.4-1.2,1.1-0.8,1.8
		l2.7,5.4c0.4,0.7,0.4,2.1-0.4,2.9l-4.7,3.6c-0.8,0.4-0.8,1.5,0,1.8l4.7,3.6c0.8,0.7,1.2,1.8,0.4,2.9l-2.7,5.4
		c-0.4,0.7,0,1.5,0.8,1.8l5.8,2.1c0.8,0.4,1.6,1.5,1.6,2.5l-0.8,5.8c0,0.7,0.4,1.5,1.2,1.5l6.6,0.4c1.2,0,2.3,0.7,2.3,1.8l1.6,5.8
		c0.4,0.7,1.2,1.1,2,0.7l6.2-1.5c1.2-0.4,2.3,0,3.1,1.1l3.5,3.6c0.4,0.7,1.6,0.7,2,0.4l5.4-3.2c0.8-0.7,2.3-0.7,3.1,0l5.4,3.2
		c0.8,0.4,1.6,0.4,2-0.4l3.5-5.1c0.4-0.7,2-1.1,3.1-1.1l6.2,1.5c0.8,0.4,1.6-0.4,2-1.1l1.6-5.8c0.4-1.1,1.2-1.8,2.3-1.8l6.6-0.4
		c0.8,0,1.6-0.7,1.2-1.5l-0.8-5.8c0-1.1,0.4-2.1,1.6-2.5l6.2-2.1c0.8-0.4,1.2-1.1,0.8-1.8l-2.7-5.4c-0.4-0.7-0.4-2.1,0.4-2.9
		l4.3-3.6c0.4-0.4,0.4-1.5,0-1.8l-4.3-3.6c-0.8-0.7-1.2-1.8-0.4-2.9l2.7-5.4c0.4-0.7,0-1.5-0.8-1.8l-6.2-2.1
		c-0.8-0.4-1.6-1.5-1.6-2.5l0.8-5.8c0-0.7-0.4-1.5-1.2-1.5l-6.6-0.4c-1.2,0-2-0.7-2.3-1.8l-1.6-5.8c0-0.7-1.2-1.1-2-0.7l-6.2,1.5
		c-1.2,0.4-2.3,0-3.1-1.1l-3.5-5.1c-0.4-0.7-1.6-0.7-2-0.4L65.3,2053.3L65.3,2053.3z M102.2,2089.4c0,19.1-17,34.7-38,34.7
		s-38-15.5-38-34.7s17-34.7,38-34.7S102.2,2070.3,102.2,2089.4L102.2,2089.4z"/>
	<polygon class="st41" points="76.5,2108.2 63.4,2101.8 50.6,2107.9 53,2094.5 42.5,2084.8 57.2,2083.3 63.4,2071.4 70,2083.3 
		84.7,2085.4 73.9,2094.5 	"/>
</g>
<path id="White_letter" class="st28" d="M109,2176H19.4c-4.3,0-7.4,3.4-7.4,6.9v58.3c0,3.8,3.2,6.9,7.1,6.9h89.8
	c3.9,0,7.1-3.1,7.1-6.9V2183C116.1,2179.2,112.9,2176,109,2176z M112.5,2238.5l-26.2-23.8l26.3-25.6v48.9
	C112.5,2238.2,112.5,2238.4,112.5,2238.5z M22.6,2179.8h82.8c3.3,0,6.1,2.2,6.9,5.2l-47.1,45.5l0,0c-0.1,0.1-0.2,0.2-0.3,0.3
	l-0.7,0.7c-0.2,0.2-0.3,0.3-0.4,0.4c-0.2,0.1-0.4,0.1-0.7,0.1c-0.3,0-0.4,0-0.6-0.1c-0.2-0.1-0.3-0.2-0.4-0.3
	c-0.2-0.2-0.4-0.4-0.5-0.5s-0.4-0.4-0.5-0.6l0,0c-7.9-8.4-44-45-45.1-46.4C17.1,2181.5,19.4,2179.8,22.6,2179.8z M15.2,2237.3v-49.5
	l25.5,26.2l-25.1,25.3C15.4,2238.8,15.2,2238.1,15.2,2237.3z M105.4,2244.6H22.6c-0.4,0-2.8,0-5.4-2c0,0,0-0.1-0.1-0.1l25.9-25.8
	l16.3,16.8c0.7,0.9,2.3,1.6,3.7,1.6c1.3,0,2.6-0.5,3.4-1.2l0,0l17.3-16.8c9.3,8.1,18.2,16.5,27.1,24.8l0.1,0.1
	C109.9,2243.6,107.8,2244.6,105.4,2244.6z"/>
<g id="Shield">
	
		<linearGradient id="SVGID_00000087385230888781605260000014383856973278739092_" gradientUnits="userSpaceOnUse" x1="8.9258" y1="-593.7348" x2="119.0094" y2="-594.2649" gradientTransform="matrix(1 0 0 1 0 2956)">
		<stop  offset="0.45" style="stop-color:#FFCB03"/>
		<stop  offset="0.55" style="stop-color:#D99900"/>
	</linearGradient>
	
		<path style="fill:url(#SVGID_00000087385230888781605260000014383856973278739092_);stroke:#F76400;stroke-width:0.5;stroke-miterlimit:10;" d="
		M100.2,2321.3L100.2,2321.3c-4.3-0.4-12.9-1.9-21.5-7.2c-4.7-2.9-8.2-6.5-10.2-9.1h-9c-2,2.5-5.5,6.2-10.2,9.1
		c-8.6,5.5-17.2,6.9-21.5,7.2l0,0c-5.9,0-11.4,0-17.2,0c-0.8,0-1.6,0.7-1.6,1.1v55.2c0,0.4,0,0.4,0.4,0.7
		c4.7,6.9,12.1,15.2,22.7,23.9c10.2,8,20,13.1,27.4,16.7h9c7.8-3.2,17.6-8.7,27.4-16.7c10.6-8.3,18-17.1,22.7-23.9
		c0-0.4,0.4-0.4,0.4-0.7v-55.2c0-0.7-0.8-1.1-1.6-1.1C111.6,2321.3,106.1,2321.3,100.2,2321.3L100.2,2321.3z"/>
	<g>
		<g class="st17">
			<path class="st28" d="M63.8,2365.7l21.1-34.5h9.4v51.9h-9.7v-38.9l0.4,2.1l-18,29.4h-7l-18-28.7l0.4-2.9v38.9H33v-51.9h9.4
				L63.8,2365.7z"/>
		</g>
	</g>
</g>
<g id="Share">
	<path class="st6" d="M103,2432c-12.8,0-23,9.3-23,21.1s10.1,21.1,23,21.1s23-9.3,23-21.1C125.6,2441.3,115.5,2432,103,2432z
		 M103,2466c-7.8,0-14.4-5.8-14.4-13.3s6.3-13.3,14.4-13.3s14.4,5.8,14.4,13.3C117.4,2460.4,110.8,2466,103,2466z"/>
	<path class="st6" d="M25,2467.7c-12.8,0-23,9.3-23,21.1s10.1,21.1,23,21.1s23-9.3,23-21.1C48,2477,37.8,2467.7,25,2467.7L25,2467.7
		z M25,2501.3c-7.8,0-14.4-5.8-14.4-13.3s6.3-13.3,14.4-13.3s14.4,5.8,14.4,13.3S32.7,2501.3,25,2501.3z"/>
	<path class="st6" d="M103,2503.7c-12.8,0-23,9.3-23,21.1c0,11.8,10.1,21.1,23,21.1s23-9.3,23-21.1
		C126,2513,115.5,2503.7,103,2503.7z M103,2537.7c-7.8,0-14.4-5.8-14.4-13.3s6.3-13.3,14.4-13.3s14.4,5.8,14.4,13.3
		C117.4,2532,110.8,2537.7,103,2537.7z"/>
	<polygon class="st6" points="83.7,2522.6 40.5,2501.1 45.2,2492.4 88.4,2514 	"/>
	<polygon class="st6" points="40.5,2477.3 83.8,2455.7 88.5,2464.3 45.3,2485.9 	"/>
</g>
<g id="Telezka">
	<rect x="50.5" y="2635.7" class="st28" width="8.7" height="5.1"/>
	<rect x="96.9" y="2635.7" class="st28" width="8.7" height="5.1"/>
	<ellipse class="st28" cx="54.8" cy="2648.6" rx="10.3" ry="9.4"/>
	<ellipse class="st28" cx="101.6" cy="2648.6" rx="10.3" ry="9.4"/>
	<path class="st28" d="M33,2579.6l-3.1-13.7l-0.4-1.9c-0.3-1.2-0.6-2.6-0.9-3.8c-9-0.1-18.2-0.2-27.2-0.2v6c7.3,0,14.8,0,22.1,0
		c1,4.6,2.1,9.1,3.1,13.7l12.2,56.2h73.5l13-56.2H33z M105.4,2632.3H47.3v-11.1h58.1V2632.3z"/>
</g>
<g id="Facebook">
	<g id="Dribbble-Light-Preview">
		<g id="icons">
			<path id="facebook-_176_" class="st43" d="M73.4,2784c0.1-16.5,0.5-33.4,0.6-49.6l14.6,0.1l2.4-16.9l-17.3-0.1l0-8.3
				c0-4.3,0-8.6,7.9-8.6l7.8,0l0.1-11.9c0,0-6.7-0.8-13.4-0.8c-14.2-0.1-23.3,7.1-23.3,19.7l0,9.7l-15.7-0.1l-0.1,16.9l15.8,0.1
				c-0.1,16.5,0.3,33.4,0.2,49.6C59.7,2783.6,66.4,2783.6,73.4,2784L73.4,2784z"/>
		</g>
	</g>
</g>
<path id="Google" class="st28" d="M104.1,2847.1H64.8v14.1h23c-0.5,3.5-3,8.8-8.5,12.3h0c-13,8.1-33.1,2.9-38.3-12h0
	c-8.2-24.1,22.5-39.9,40-25.1l11.8-10.5c-24.8-21.4-69.4-6.2-69.8,28.1c0.3,34.1,44.7,49.2,69.5,28.8h0h0
	C102.2,2875.1,107.2,2859.9,104.1,2847.1z"/>
<g id="Table">
	<g id="Full_view">
		<rect x="15" y="2974.7" class="st44" width="45.3" height="53.3"/>
		<rect x="67.7" y="2974.7" class="st44" width="45.3" height="53.3"/>
		<rect x="15" y="2944" class="st44" width="97.7" height="22.4"/>
	</g>
</g>
<g id="Full">
	<g id="Table_view">
		<rect x="39.7" y="3072" class="st45" width="73.3" height="15.1"/>
		<rect x="39.7" y="3098.2" class="st45" width="73.3" height="15.1"/>
		<rect x="39.7" y="3124.6" class="st45" width="73.3" height="15.1"/>
		<rect x="39.7" y="3150.9" class="st45" width="73.3" height="15.1"/>
		<rect x="15" y="3072" class="st45" width="16.4" height="15.1"/>
		<rect x="15" y="3150.9" class="st45" width="16.4" height="15.1"/>
		<rect x="15" y="3124.6" class="st45" width="16.4" height="15.1"/>
		<rect x="15" y="3098.2" class="st45" width="16.4" height="15.1"/>
	</g>
</g>
<g id="Thangnail">
	<g id="Thangnail_view">
		<rect x="83.3" y="3259.7" class="st45" width="27.7" height="26.3"/>
		<rect x="17" y="3229.9" class="st45" width="27.7" height="26.3"/>
		<rect x="17" y="3259.7" class="st45" width="27.7" height="26.3"/>
		<rect x="83.3" y="3200" class="st45" width="27.7" height="26.3"/>
		<rect x="83.3" y="3229.9" class="st45" width="27.7" height="26.3"/>
		<rect x="48.1" y="3229.9" class="st45" width="31.1" height="26.6"/>
		<rect x="48.1" y="3259.7" class="st45" width="31.1" height="26.3"/>
		<rect x="17" y="3200" class="st45" width="27.7" height="26.3"/>
		<rect x="48.1" y="3200" class="st45" width="31.1" height="26.3"/>
	</g>
</g>
<g id="Translate">
	<path class="st46" d="M64.4,3336.1c-12.7-2-25.4-4.3-38.5-6.6c0,6.9,0,14,0,20.9C38.2,3345.8,51.3,3341.2,64.4,3336.1L64.4,3336.1z
		"/>
	<polygon class="st28" points="17,3348.6 64.4,3336.1 64.4,3394 17,3407.8 	"/>
	<path class="st46" d="M17,3348.4v59.4l47.4-14V3336L17,3348.4z M63.4,3393L18,3406.4v-56.9l45.4-11.9V3393z"/>
	<path class="st28" d="M64.4,3336.1l36-8.1v21.7L64.4,3336.1L64.4,3336.1z"/>
	<polygon class="st46" points="63.4,3336.2 64.6,3336.6 99.3,3329.2 99.3,3349.3 74,3340.1 100.4,3349.9 100.4,3328 	"/>
	<polygon class="st46" points="64.4,3336.1 111,3345.8 111,3407.8 64.4,3394 	"/>
	<path class="st28" d="M69.5,3388.5c4.7-15.8,7.6-23.7,12.3-40.3c3.8,0.8,5.9,1.2,9.7,2c4.7,19,7.6,28.7,12.3,48.8
		c-3.4-0.8-5.1-1.6-8.9-2.3c-3.4-14.4-4.7-21.7-8.4-36.5h-0.4c-3.4,12.8-4.7,19-8.4,31C75,3390,72.9,3389.6,69.5,3388.5L69.5,3388.5
		z M76.3,3381.9v-7.3c8.9,2.3,13.1,3.1,22.1,5.8v7.7C89.4,3385.4,85.1,3384.3,76.3,3381.9z"/>
	<g>
		<path class="st46" d="M44.5,3374.2c-0.4-0.4-0.9-1.2-0.4-2c2.9-5.8,6.4-12,7.6-17.4c0-0.1,0-0.7-0.4-1.1c-0.6-0.6-1.6-0.4-1.6-0.4
			c-3.8,0.9-7.7,1.8-11.7,2.8c-3.5,0.8-7,1.7-11.7,3.1v3.1c0.5-0.1,1.1-0.3,1.6-0.4l-1.6,0.4v1.5l1.7-0.4v-1.5
			c6.8-1.7,10.3-2.5,17.7-4.3c0.9-0.4,1.7,0.8,1.3,2c-4.2,11.3-24.6,33.8-24.6,36.5c0,0.2,0,0.6,0.3,1.1c0.5,0.9,1.7,0.9,1.8,0.9
			c8.7-10.9,15.1-18.7,15.7-19.8c0.4-0.8,1.3-1.2,2.2-0.8c4.2,3.1,10.6,8.1,14,11.6c1.2,0.3,2.5-0.2,2.9-1.1c0.4-1-0.3-2-0.3-2
			C55.5,3382.3,49.1,3377.6,44.5,3374.2z"/>
		<path class="st46" d="M39.4,3353.3c2.5-0.8,5.1-2,5.1-2.7c0-0.8-2.5-0.8-5.1,0c-2.5,0.8-5.1,2-5.1,2.7
			C34.3,3354,36.5,3354,39.4,3353.3z"/>
	</g>
	<path class="st46" d="M82.9,3401.5l-16.3,7.4l6.8,3.5c-2.9,2-7,3.9-11.8,3.9c-4.8,0.1-8.9-1.7-10.4-2.3c-4.2-1.8-7.1-4.4-8.8-5.8
		c-1.4-1.3-2.5-2.5-3.2-3.4c-0.4,0.5-0.9,0.9-1.3,1.4c0.1,0.2,11.8,14.6,27.4,11.4c3.1-0.6,6.4-2,9.7-4.3l6.9,3.5L82.9,3401.5z"/>
</g>
<g id="Store">
	<path class="st44" d="M115.9,3483.6c-0.1-4.1-0.3-7.4-0.5-9.7c-2-2.5-4.1-4.9-6.3-7.4c-3.2-3.6-6.3-7.1-9.4-10.4
		c-23.8,0-47.7,0-71.5,0.1c-3,3.3-6,6.7-9,10.1c-2.3,2.6-4.6,5.3-6.9,7.9c-0.1,2.7-0.5,10,0,16.6c0.1,1.4,0.3,3.4,1.4,5.6
		c1.2,2.3,2.8,3.7,3.8,4.4c0.8,0.6,1.8,1.2,3,1.8c1.5,0.7,2.8,1.1,3.9,1.4c0.2,0,0.5,0,0.7,0.1l0,42.4c0,1.8,0,3.7,0,5.5l78.7,0
		l0-5.5l0-42.6c1-0.2,2.2-0.5,3.5-1.1c1.4-0.6,2.5-1.3,3.3-2c4-3,4.9-8.2,5.2-10C116,3489.9,116.1,3488.8,115.9,3483.6z
		 M43.3,3486.2h17.3v4.5c0,4.2-3.9,7.5-8.6,7.5s-8.6-3.4-8.6-7.5V3486.2z M44.5,3480.2l4.8-16.3c3.8,0,7.5,0,11.3,0v16.3H44.5z
		 M67.5,3486.2h17.3v4.5c0,4.2-3.9,7.5-8.6,7.5c-4.8,0-8.6-3.4-8.6-7.5V3486.2z M67.5,3480.2v-16.3c3.9,0,7.8,0,11.6,0l4.8,16.3
		H67.5z M19.1,3474.2l9-10.3c4.6,0,9.3,0,13.9,0l-4.8,16.3H19.1V3474.2z M19.1,3490.7v-4.5h17.3v4.5c0,4.2-3.9,7.5-8.6,7.5
		C23,3498.3,19.1,3494.9,19.1,3490.7z M30.9,3546.4l0-42.4c3.6-0.6,6.7-2.3,9-4.7c2.9,3.1,7.2,5,12.1,5c4.9,0,9.2-2,12.1-5
		c2.9,3.1,7.2,5,12.1,5c4.9,0,9.2-2,12.1-5c2.4,2.6,5.8,4.3,9.7,4.8l0,42.4L30.9,3546.4z M108.9,3490.7c0,4.2-3.9,7.5-8.6,7.5
		c-4.8,0-8.6-3.4-8.6-7.5v-4.5h17.3V3490.7z M108.9,3480.2H91.1l-4.8-16.3c4.5,0,8.9,0,13.4,0c3.1,3.4,6.1,6.9,9.2,10.3V3480.2z"/>
	<path class="st44" d="M67.5,3519.9v-5.7c2.8-0.2,9.6,1.3,9.5-3.4c0.1-4.7-6.7-3.2-9.5-3.4c0-0.3,0-3.1,0-3.3
		c-0.6-1.3-2-2.2-3.5-2.2c-1.5,0-2.8,0.9-3.4,2.2c0,1.1,0,2.2,0,3.4c-12.3,0.2-12.3,19.2,0,19.5v5.7c-2.8,0.2-9.6-1.3-9.5,3.4
		c-0.1,4.7,6.7,3.2,9.5,3.4c-1.3,8.5,8.2,8.5,6.9,0h0v-0.1C79.8,3539.1,79.8,3520.1,67.5,3519.9z M58,3517c0-1.5,1.1-2.6,2.6-2.8
		v5.6C59.1,3519.6,58,3518.5,58,3517z M67.5,3532.4v-5.6c1.4,0.2,2.6,1.3,2.6,2.8C70.1,3531.1,68.9,3532.3,67.5,3532.4z"/>
</g>
<g id="Team">
	<g>
		<path class="st44" d="M97.3,3650.9H109v-18.3c-0.4-1.1-1.2-5-4.7-7.5c-4.3-3.6-9.8-3.6-11-3.6H80.9v7.1c2.7,1.8,6.7,4.3,9.8,9
			C95,3642.6,96.5,3647.7,97.3,3650.9z"/>
		<path class="st44" d="M81.3,3584.6c-7,1.5-12.1,6.8-12.9,12.5c6.7,1.1,11.7,5.8,13.3,11.4c0.4,1.8,0.4,3.2,0,5
			c2,0.4,3.9,0.4,6.3,0c9-1.8,14.5-9.7,12.5-18C98.1,3587.4,90.3,3582.8,81.3,3584.6z"/>
	</g>
	<g>
		<path class="st44" d="M30.8,3650.9H19v-18.3c0.4-1.1,1.2-5,4.7-7.5c4.3-3.6,9.8-3.6,11-3.6h12.5v7.1c-2.7,1.8-6.7,4.3-9.8,9
			C33.1,3642.6,31.6,3647.7,30.8,3650.9z"/>
		<path class="st44" d="M48,3584.6c7,1.8,11.4,7.5,11.7,13.3c-6.7,0.7-12.1,5-14.1,10.7c-0.4,1.8-0.4,3.2-0.4,5c-2,0-3.9,0-6.3-0.4
			c-9-2.1-13.7-10.4-11.4-18.7S39.4,3582.5,48,3584.6L48,3584.6z"/>
	</g>
	<g>
		<ellipse class="st44" cx="63.7" cy="3614.9" rx="16.4" ry="15"/>
		<path class="st44" d="M85.6,3636.2c-4.3-3.6-10.2-3.2-11.4-3.2H52.7c-0.8,0-6.7-0.4-11.4,3.2c-3.5,2.8-3.9,7.1-4.3,7.9v21.9h52.5
			v-21.9C89.9,3643,89.5,3639.4,85.6,3636.2L85.6,3636.2z"/>
	</g>
</g>
<g id="Skrill">
	<rect x="28" y="3712" class="st47" width="72" height="64"/>
	<path class="st28" d="M63.9,3737.6c-1.6,0-6-0.4-6-3.5c0-3.9,6-3.9,8-3.9c3.6,0,8.8,1.1,12.4,1.8c0,0,2,0.7,3.6,1.1l0,0v-10.6l0,0
		c-4-1.1-9.2-2.5-18.4-2.5c-16,0-21.1,8.2-21.1,15.3c0,3.9,2,13.2,20,14.5c1.6,0,5.6,0.4,5.6,3.5c0,2.8-3.2,4.3-8.8,4.3
		c-6.4,0-11.9-1.5-15.6-2.5v11c5.6,1.1,11.2,1.8,18.4,1.8c15.6,0,22-7.8,22-15.3C84.4,3744,76.7,3738.3,63.9,3737.6"/>
</g>
<g id="PayPal">
	<path class="st48" d="M93.9,3847.5c-4.6-5.3-13-7.5-23.8-7.5H38.9c-2.2,0-4.1,1.6-4.4,3.8l-13,82.1c-0.3,1.6,1,3.1,2.6,3.1h19.2
		l4.8-30.6l-0.1,1c0.3-2.2,2.2-3.8,4.4-3.8h9.1c18,0,32-7.3,36.1-28.3c0.1-0.6,0.2-1.2,0.3-1.8c-0.5-0.3-0.5-0.3,0,0
		C99.3,3857.6,98.1,3852.3,93.9,3847.5"/>
	<path class="st48" d="M55.6,3862.6c0.5-0.2,1.1-0.4,1.7-0.4h24.4c2.9,0,5.6,0.2,8.1,0.6c0.7,0.1,1.4,0.2,2.1,0.4
		c0.7,0.1,1.3,0.3,1.9,0.5c0.3,0.1,0.6,0.2,0.9,0.3c1.2,0.4,2.3,0.9,3.4,1.4c1.2-7.8,0-13.1-4.2-17.9c-4.6-5.3-13-7.5-23.8-7.5H38.9
		c-2.2,0-4.1,1.6-4.4,3.8l-13,82.1c-0.3,1.6,1,3.1,2.6,3.1h19.2l10-63.4C53.7,3864.2,54.5,3863.1,55.6,3862.6z"/>
	<path class="st49" d="M97.8,3867.2c-4.1,21-18.2,28.3-36.1,28.3h-9.1c-2.2,0-4,1.6-4.4,3.8l-6,38c-0.2,1.4,0.9,2.7,2.3,2.7h16.2
		c1.9,0,3.6-1.4,3.9-3.3l0.2-0.8l3.1-19.3l0.2-1.1c0.3-1.9,1.9-3.3,3.9-3.3h2.4c15.7,0,28-6.4,31.6-24.8c1.5-7.7,0.7-14.1-3.2-18.6
		c-1.2-1.4-2.7-2.5-4.4-3.4C98,3866,97.9,3866.6,97.8,3867.2L97.8,3867.2z"/>
	<path class="st50" d="M93.8,3863.7c-0.6-0.2-1.3-0.3-1.9-0.5c-0.7-0.1-1.4-0.3-2.1-0.4c-2.5-0.4-5.2-0.6-8.1-0.6H57.3
		c-0.6,0-1.2,0.1-1.7,0.4c-1.1,0.5-2,1.6-2.2,2.9l-5.2,32.8l-0.1,1c0.3-2.2,2.2-3.8,4.4-3.8h9.1c18,0,32-7.3,36.1-28.3
		c0.1-0.6,0.2-1.2,0.3-1.8c-1-0.5-2.2-1-3.4-1.4C94.4,3863.9,94.1,3863.8,93.8,3863.7"/>
</g>
<g id="User">
	<path class="st28" d="M61.9,3968h3.5c16.1,0,28.7,11.9,28.7,26.4v3.2c0,14.7-12.9,26.4-28.7,26.4h-3.5c-16.1,0-28.7-11.9-28.7-26.4
		v-3.2C33.6,3979.5,46.2,3968,61.9,3968z"/>
	<path class="st28" d="M107.5,4029.7c-4.7-2.5-9.4-3.2-11.4-3.2c-5.5-0.4-11.4,2.1-14.5,5.1c-0.8,0.7-1.6,1.8-3.1,2.5
		c-2.7,1.5-6.7,2.1-6.7,2.1c-1.5,0.4-4.6,0.7-7.6,0.7s-5.7-0.4-7.6-0.7c0,0-3.9-0.7-6.7-2.1c-1.6-0.7-2.3-1.8-3.1-2.5
		c-3.1-2.9-9-5.4-14.5-5.1c-2,0-7,0.7-11.4,3.2c-4.7,2.5-7,6.2-8.2,7.9c-1.8,4.1-4.1,10.7-4.3,19c-0.3,9.8,2.4,17.4,4.3,21.8
		c0.3,0.6,0.7,1.4,1.2,2.1c0.6,0.8,1.5,1.8,2.7,2.9c2,1.5,3.5,2.1,4.7,2.5c16.3,0.1,29.7,0.1,39.4,0.1c0,0,16.2,0,46.6-0.1
		c1.2-0.4,2.7-1.1,4.7-2.5c2.3-2.1,3.5-4,3.9-5.1c1.9-4.1,4.4-11.3,4.4-20.5c0-9-2.5-16.1-4.4-20.3
		C114.6,4035.8,112.2,4032.3,107.5,4029.7z"/>
</g>
</svg>
