<?xml version="1.0" encoding="utf-8"?>
<!-- Generator: Adobe Illustrator 27.4.0, SVG Export Plug-In . SVG Version: 6.00 Build 0)  -->
<!DOCTYPE svg PUBLIC "-//W3C//DTD SVG 1.1//EN" "http://www.w3.org/Graphics/SVG/1.1/DTD/svg11.dtd" [
	<!ENTITY ns_extend "http://ns.adobe.com/Extensibility/1.0/">
	<!ENTITY ns_ai "http://ns.adobe.com/AdobeIllustrator/10.0/">
	<!ENTITY ns_graphs "http://ns.adobe.com/Graphs/1.0/">
	<!ENTITY ns_vars "http://ns.adobe.com/Variables/1.0/">
	<!ENTITY ns_imrep "http://ns.adobe.com/ImageReplacement/1.0/">
	<!ENTITY ns_sfw "http://ns.adobe.com/SaveForWeb/1.0/">
	<!ENTITY ns_custom "http://ns.adobe.com/GenericCustomNamespace/1.0/">
	<!ENTITY ns_adobe_xpath "http://ns.adobe.com/XPath/1.0/">
]>
<svg version="1.1" id="Слой_1" xmlns:x="&ns_extend;" xmlns:i="&ns_ai;" xmlns:graph="&ns_graphs;"
	 xmlns="http://www.w3.org/2000/svg" xmlns:xlink="http://www.w3.org/1999/xlink" x="0px" y="0px" viewBox="0 0 128 4096"
	 style="enable-background:new 0 0 128 4096;" xml:space="preserve">
<style type="text/css">
	.st0{fill:#E6AE01;}
	.st1{fill:#FFCB03;}
	.st2{fill:#D95F00;}
	.st3{fill:url(#SVGID_1_);stroke:#D95F00;stroke-width:0.5;stroke-miterlimit:10;}
	.st4{fill:#1C74BB;}
	.st5{fill:#035FA1;}
	.st6{fill:#003488;}
	.st7{fill:#FFD44D;}
	.st8{fill:#FFDE4A;}
	.st9{fill:#0176C0;}
	.st10{fill:url(#SVGID_00000100364375840572298060000017703204775646027933_);}
	.st11{fill:url(#SVGID_00000081622537574186082640000003776194174961139896_);}
	.st12{fill:url(#SVGID_00000010998096343492136070000015878540972060283008_);}
	.st13{fill:#DBDADC;}
	.st14{fill:#A9A9A9;}
	.st15{fill:url(#SVGID_00000083047573647202031370000016430269480847080103_);}
	.st16{fill:#084BAE;}
	.st17{fill:url(#SVGID_00000176760099420917902950000017403232546740465075_);}
	.st18{enable-background:new    ;}
	.st19{fill:url(#SVGID_00000101821816090627319890000001764732470521974703_);}
	.st20{fill:url(#SVGID_00000155842234035091472290000006906871702193474714_);}
	.st21{fill:url(#SVGID_00000083781151156170959830000006355813467750911902_);}
	.st22{fill:url(#SVGID_00000073696607203110279050000004392925893901960885_);}
	.st23{fill:url(#SVGID_00000003068855090014008800000004870749554172269984_);}
	.st24{fill:url(#SVGID_00000080885141627098598670000005795176653895213702_);}
	.st25{fill:url(#SVGID_00000086657815664669353610000001818033165927004854_);}
	.st26{fill:url(#SVGID_00000062192977733821033590000014540327468417870262_);}
	.st27{fill:url(#SVGID_00000124158104468831904620000013846229038402770845_);}
	.st28{fill:#008FE1;}
	.st29{fill:#FFFFFF;}
	.st30{fill:#00689C;}
	.st31{fill:url(#SVGID_00000036944358239900124930000011599476346158700725_);}
	.st32{fill:url(#SVGID_00000026136515269840122590000006248100950411333310_);}
	.st33{fill:url(#SVGID_00000155128705214455314320000006048986437976712889_);}
	.st34{fill:url(#SVGID_00000168808040696909734720000011517120150982690238_);}
	.st35{fill:url(#SVGID_00000146485215565412127800000001549569184716459162_);}
	.st36{fill:url(#SVGID_00000004509741703146688330000002779881418412066441_);}
	.st37{fill:#FFC41B;}
	.st38{fill:#286B92;stroke:#000000;stroke-width:0.25;stroke-miterlimit:10;}
	.st39{fill:#FFFFFF;stroke:#FFFFFF;stroke-width:0.5;stroke-miterlimit:10;}
	.st40{fill:url(#SVGID_00000052089985526374321830000017468359919755741333_);}
	.st41{fill:url(#SVGID_00000038388180075308616390000011243927093197726852_);}
	.st42{fill:#B57D0D;}
	
		.st43{fill:url(#SVGID_00000177486601677334625920000006870501092067504528_);stroke:#F76400;stroke-width:0.5;stroke-miterlimit:10;}
	.st44{fill-rule:evenodd;clip-rule:evenodd;fill:#FFFFFF;}
	.st45{fill:#3A6898;}
	.st46{fill:#00689B;}
	.st47{fill:#315A8E;}
	.st48{fill:#862565;}
	.st49{fill:#27346A;}
	.st50{fill:#2790C3;}
	.st51{fill:#1F264F;}
</style>
<metadata>
	<sfw  xmlns="&ns_sfw;">
		<slices></slices>
		<sliceSourceBounds  bottomLeftOrigin="true" height="4086" width="128.2" x="0" y="10"></sliceSourceBounds>
	</sfw>
</metadata>
<g id="Letter_00000067209564758492954340000007677022533765833649_">
	<path class="st0" d="M110.5,69.5H16.4c-1.6,0-2.9-1.2-2.9-2.7V12.9c0-1.5,1.3-2.7,2.9-2.7h94.3c1.6,0,2.9,1.2,2.9,2.7v53.8
		C113.5,68.2,112.2,69.5,110.5,69.5z"/>
	<polygon class="st1" points="14.3,7.2 62.7,57.9 114.6,6.6 110.3,1.8 19,3.7 	"/>
	<path class="st2" d="M109,0H19.4C15.2,0,12,3.4,12,6.9v58.3c0,3.8,3.2,6.9,7.1,6.9h89.8c3.9,0,7.1-3.1,7.1-6.9V7
		C116.1,3.2,112.9,0,109,0z M112.5,62.5L86.2,38.7l26.3-25.6V62C112.5,62.2,112.5,62.4,112.5,62.5z M22.6,3.8h82.8
		c3.3,0,6.1,2.2,6.9,5.2L65.2,54.5l0,0c-0.1,0.1-0.2,0.2-0.3,0.3l-0.7,0.7c-0.2,0.2-0.3,0.3-0.4,0.4C63.6,56,63.4,56,63.1,56
		s-0.4,0-0.6-0.1c-0.2-0.1-0.3-0.2-0.4-0.3c-0.2-0.2-0.4-0.4-0.5-0.5s-0.4-0.4-0.5-0.6l0,0C53.1,45.9,17,9.4,15.9,8
		C17.1,5.5,19.4,3.8,22.6,3.8z M15.2,61.3V11.9l25.5,26.2L15.5,63.5C15.4,62.8,15.2,62.1,15.2,61.3z M105.4,68.6H22.6
		c-0.4,0-2.8,0-5.4-2c0,0,0-0.1-0.1-0.1L43,40.7l16.3,16.8c0.7,0.9,2.3,1.6,3.7,1.6c1.3,0,2.6-0.5,3.4-1.2l0,0L83.8,41
		c9.3,8.1,18.2,16.5,27.1,24.8l0.1,0.1C109.9,67.6,107.8,68.6,105.4,68.6z"/>
</g>
<g id="Like2">
	
		<linearGradient id="SVGID_1_" gradientUnits="userSpaceOnUse" x1="80.1716" y1="0.6374" x2="81.9276" y2="109.8683" gradientTransform="matrix(1 0 0 1 0 130)">
		<stop  offset="0.7667" style="stop-color:#FFCB03"/>
		<stop  offset="1" style="stop-color:#7A5304"/>
	</linearGradient>
	<path class="st3" d="M125,198.9c2.9-11.4,2.4-14.1,2.3-18.7c-0.1-5-4.3-8.9-9.3-8.9H84.1v-23.1c0-20.8-15.4-19.8-20.8-18.8
		c-1,0.2-1.9,1.1-1.9,2.2v28.1c-0.1,1.2-0.6,9.3-8.1,14.9c-7.8,5.9-16.8,4.3-17.9,4.1c0.1,21.2,0.1,42.6,0.2,63.8
		c1.4,0.5,3.1,1.1,4.8,1.5c1.1,0.3,2.2,0.4,3.2,0.6c3.2,0.4,5.8,0.3,6.4,0.2c3.6-0.2,23.5-0.3,51.3-0.5c3.4-1,8.5-2.9,12.3-7
		c3.1-3.2,3.7-6,6.8-18.8C122,212.1,123.3,205.5,125,198.9z"/>
	<path class="st4" d="M34,176.9H7.3c-3.6,0-6.7,2.8-6.7,6.4v55.2c0,3.5,3,6.4,6.7,6.4H34c3.6,0,6.7-2.8,6.7-6.4v-55.2
		C40.7,179.7,37.6,176.9,34,176.9z"/>
	<path class="st5" d="M1,217.1c0,7,0,13.9,0,20.9c0,3.9,3,7,6.6,7h26.2c3.6,0,6.6-3.1,6.6-7c0-7.1,0-14.1,0-21.2
		c-5.8,1-12.7,1.8-20.6,1.8C12.7,218.7,6.4,218,1,217.1z"/>
	<ellipse class="st6" cx="25" cy="230.1" rx="4.5" ry="4.5"/>
</g>
<g id="Books">
	<g>
		<polygon class="st7" points="38.5,275.5 5,281.3 29,375 116.1,354.7 77.8,268 		"/>
		<path class="st2" d="M77.8,268l-39.3,7.5L5,281.3L29,375l87.1-20.3L77.8,268z M7.1,283.1l32.3-5.6l37.8-7.2l36.8,82.8l-83.8,19.4
			L7.1,283.1z"/>
		<polygon class="st8" points="20.3,263.4 98.5,255 123,354.3 32.2,362 20.3,264.3 		"/>
		<path class="st2" d="M98.5,255l-78.2,8.4v0.8L32.2,362l90.8-7.7L98.5,255z M22.4,266.2v-0.8l75-8.1l23.5,94.9l-87.1,7.4
			L22.4,266.2z"/>
	</g>
	<g id="Pencil">
		<path class="st9" d="M89.7,335.1l-12.5-10.6c-0.3-0.2-0.4-0.8-0.2-1.3l23.6-51.4c0.2-0.5,0.6-0.6,0.9-0.4l12.5,10.6
			c0.3,0.2,0.4,0.8,0.2,1.3l-23.6,51.4C90.4,335.3,90,335.4,89.7,335.1z"/>
		<path d="M82.4,340.9c-2.3,0.8-4.6,1.7-6.9,2.5c0-3.1,0-6.1,0.1-9.2C77.9,336.5,80.1,338.6,82.4,340.9z"/>
		<path class="st1" d="M76.9,323.4c4.5,3.8,9.1,7.7,13.6,11.5l-0.1,0.1c-1.7,2.4-4.1,4.6-8.1,5.8c-2.3-1.9-4.6-3.9-6.8-5.8
			c-0.2-3.1-0.1-6.5,0.9-10.2c0.1-0.4,0.2-0.6,0.3-1C76.8,323.6,76.9,323.5,76.9,323.4z"/>
	</g>
</g>
<g id="Globus">
	
		<linearGradient id="SVGID_00000081608077182187997760000014789687361359622304_" gradientUnits="userSpaceOnUse" x1="64.3143" y1="3587.3308" x2="63.4731" y2="3710.5032" gradientTransform="matrix(1 0 0 -1 0 4096)">
		<stop  offset="7.424594e-02" style="stop-color:#083B5F"/>
		<stop  offset="0.1434" style="stop-color:#07446C"/>
		<stop  offset="0.4253" style="stop-color:#04649E"/>
		<stop  offset="0.6722" style="stop-color:#027BC3"/>
		<stop  offset="0.8721" style="stop-color:#008AD9"/>
		<stop  offset="1" style="stop-color:#008FE1"/>
	</linearGradient>
	<ellipse style="fill:url(#SVGID_00000081608077182187997760000014789687361359622304_);" cx="63.9" cy="448" rx="63.9" ry="64"/>
	
		<linearGradient id="SVGID_00000062166744988854125220000010571796916202162831_" gradientUnits="userSpaceOnUse" x1="33.0801" y1="3700.5273" x2="37.357" y2="3589.6753" gradientTransform="matrix(1 0 0 -1 0 4096)">
		<stop  offset="0.307" style="stop-color:#FFCB03"/>
		<stop  offset="0.3554" style="stop-color:#F5C303"/>
		<stop  offset="0.5748" style="stop-color:#CDA103"/>
		<stop  offset="0.7486" style="stop-color:#B48C03"/>
		<stop  offset="0.8543" style="stop-color:#AB8403"/>
	</linearGradient>
	<path style="fill:url(#SVGID_00000062166744988854125220000010571796916202162831_);" d="M11.1,429.6c0.7,0.3,2,1.1,3,2.6
		c1.1,1.5,1.3,3,1.4,3.8c0.5-0.1,1.3-0.2,2,0.2c0.8,0.4,0.9,1,1.6,1.7c0.9,0.9,1.6,0.9,2.6,1.5c0.8,0.5,1.9,1.5,2.8,3.5
		c0.4,1.9,0.8,3.9,1.3,5.8c-0.9,1.2-1.7,1.7-2.4,1.9c-0.9,0.3-1.5,0.1-3.7,0.3c-0.7,0.1-1.4,0.1-1.7,0.2c-0.2,0.4-0.4,0.9-0.6,1.6
		s-0.2,1-0.4,1.9c-0.3,1.7-0.4,1.7-0.6,3.1c-0.3,1.9-0.2,2.2-0.1,2.4c0.3,1,1,0.9,1.5,1.8c0.2,0.4,0.3,0.9,0,3.3
		c-0.2,1.7-0.3,2.2-0.4,3.1c-0.1,0.8-0.2,2.1-0.1,3.6c1.5,0.8,2.5,1.8,3,2.5c1.1,1.3,1.6,2.6,1.8,3c0.7,1.7,0.4,2.3,1,3.3
		s1.6,1.6,2.6,1.9c0.1,0.2,0.3,0.5,0.4,0.8c0.2,0.6,0.2,1,0.2,1.4c0.2,1,1.8,1.2,2.8,1.9c0.8,0.6,1.5,2,1,5.4c0,1.2,0.1,2.6,0.4,4.1
		c0.2,1,0.4,1.8,0.6,2.6c0.6,1.1,1,2,1.3,2.6c0.4,0.9,0.6,1.4,1.1,1.8c0.4,0.3,0.7,0.3,1.2,0.8c0.5,0.4,0.4,0.6,0.9,1
		c0.5,0.5,0.9,0.7,1.3,0.9c0.7,0.4,1,0.3,2,0.8c0.5,0.2,0.8,0.4,1.1,0.5c0.7,0.4,1.9,0.9,3.9,1.5c0.3-1.3,0.7-3.3,0.9-5.8
		c0.1-1.4,0.1-3.2-0.5-9.3c-0.6-6.3-0.8-5.6-0.8-7c0.1-4.1,1.3-5.3,2-9.7c0.3-1.9,0.5-4.8,0.1-8.4c1.1-0.6,2.5-1.4,4-2.7
		c1.4-1.2,2.3-2.4,3-3.4c0.2-1.4,0.3-3.8-0.4-6.4c-0.4-1.4-0.9-2.5-1.4-3.3c-3.1-0.9-5.2-2.2-6.6-3.3c-2.2-1.7-3-3.2-5.5-4.5
		c-1.8-1-3.5-1.3-4.6-1.5c0.6-1.9,1.2-3.9,1.8-5.8c0.2-0.6,0.7-2,2.1-3.3c1.5-1.2,3.1-1.5,3.6-1.5c0.9-0.9,2-2.2,3-3.9
		c0.9-1.6,1.4-3,1.8-4.1c0-1.4,0-2.8,0-4.3c0.4-3.7,2.4-6.7,5.3-7.5c0.4-0.1,3.6-1.1,5.5,1c1.6,1.7,1.1,4.2,1.1,4.5
		c0.9-0.9,2.3-2.6,3.2-5.2c0.7-2,0.8-3.7,0.8-4.9c-1.6-1.4-2.7-2.7-3.4-3.6c-0.4-0.6-0.6-0.9-0.7-1.1c-0.8-1.6-0.8-3.2-0.7-4.1
		c0-1.1-0.2-2.8-1-4.7c-0.7-1.7-1.6-2.9-2.3-3.7c-5.7-4.5-7.9-5-8.6-4.4c-0.6,0.5-1.1,2-1.1,3.2s0.4,1.7,0.1,2.6
		c-0.3,0.8-1,1.3-1.5,1.6c-2-0.1-3.3-0.7-4.1-1.2c-1.2-0.8-2.4-2.1-4.2-1.9h-0.1c-0.4,0.1-1.3,0.3-3.9,2.1c-1.5,1-2.7,1.9-3.5,2.6
		c-2.6,1.8-5.6,4.1-8.6,7.2c-3,3-5.4,6-7.2,8.6c-1.1,1.5-2.1,3.1-3.2,5c-1.2,2.1-2.1,4-2.9,5.8c0,0.7,0.3,2.8,1.8,4.7
		C8.6,428.7,10.4,429.4,11.1,429.6z"/>
	
		<linearGradient id="SVGID_00000121987988219068688170000014046085501449733272_" gradientUnits="userSpaceOnUse" x1="69.3859" y1="3659.4233" x2="125.5897" y2="3622.1641" gradientTransform="matrix(1 0 0 -1 0 4096)">
		<stop  offset="8.997743e-02" style="stop-color:#FFCB03"/>
		<stop  offset="0.1576" style="stop-color:#F5C303"/>
		<stop  offset="0.4639" style="stop-color:#CDA103"/>
		<stop  offset="0.7067" style="stop-color:#B48C03"/>
		<stop  offset="0.8543" style="stop-color:#AB8403"/>
	</linearGradient>
	<path style="fill:url(#SVGID_00000121987988219068688170000014046085501449733272_);" d="M95.6,394.8c0.4,0.4,1.1,0.8,1.9,1.1
		c1.7,0.7,3.3,0.4,4,0.3c1.2,0.9,2.6,1.9,4,3.2c1.6,1.3,2.9,2.7,4.2,3.9c1.6,1.6,3.3,3.6,5,5.8c1.7,2.2,3,4.3,4.2,6.2
		c1.4,2.4,2.9,5.2,4.2,8.5c1.2,3,2.1,5.8,2.7,8.3c0.8,3.3,1.5,7.2,1.8,11.5c0.4,4.2,0.3,8,0.2,11.3c-0.5,2.9-1.1,6.1-2.1,9.5
		c-1,3.6-2.2,6.9-3.4,9.7c0,0.2-0.3,1.3-1.4,1.8c-0.6,0.3-1.1,0.3-1.4,0.3c-1.4,0.8-2.4,1.4-3.1,1.8c-2,1.1-2.4,1.4-2.9,1.2
		c-0.3-0.1-1-0.4-2.2-4c-1-3-0.5-3-1.1-4.2c-0.9-1.8-2.8-3.8-5.3-4.8c-0.9-0.4-2-0.6-2.8-1.6c-0.4-0.6-0.6-1.3-0.6-1.8
		c0.5-1.8,0.9-3.6,1.4-5.4c-0.1-1.9-1.6-3.5-3.5-3.8s-3.8,0.9-4.4,2.7c-0.3,0.6-0.7,1.5-1.1,2.7c-0.4,1.3-0.4,2.3-0.6,3.3
		c-0.1,1.2-0.4,2.9-0.9,5c-0.2,0.6-0.4,1.4-0.9,2.3c-0.5,1-0.9,1.6-1.3,2.1c-0.5,0.9-1.2,2.2-1.5,4.2c-0.2,1.2-0.4,2.7-0.3,4.5
		c0.1,0.9,0.2,1.7,0.4,2.4c-0.9,0.7-1.1,1.3-1.1,1.7c-0.1,0.9,0.7,1.3,0.5,2.2c-0.1,0.3-0.2,0.4-0.6,1.3c-0.2,0.5-0.4,1-0.5,1.3
		c0,0.4-0.1,0.9-0.4,1.3c-0.4,0.6-1,0.6-1.3,1.1c-0.2,0.3-0.5,0.9-0.2,2c-1.1,0-1.5,0.3-1.7,0.6c-0.4,0.7,0.6,1.5,0.3,2.5
		c-0.3,0.7-1.1,0.7-1.3,1.4c-0.2,0.7,0.6,1.1,0.5,1.8c-0.2,0.6-0.8,0.5-1.4,1.3c-0.6,0.7-0.3,1.1-1,2.1c-0.4,0.6-0.8,1.4-1.3,1.3
		c-0.9,0-1.5-2.3-1.5-2.5c-0.2-0.9-0.1-1.5-0.2-2.1c0-1.1-0.5-2.6-2.3-4.4c-0.6-1.5-1.2-3-1.8-4.5c-0.6-1.5-1.2-3.1-1.8-4.6
		c-0.2-1.9-0.6-3.3-1-4.2c-0.8-1.9-1.6-2.4-1.7-4c-0.1-1.1,0.2-1.3,0.2-3.1c0-1.2-0.1-2.1-0.2-2.8c-1.6-0.3-2.4-0.9-2.8-1.4
		c-0.5-0.6-0.5-1.1-1.3-2.1c-0.7-0.8-0.9-0.9-1.3-1.4c-0.7-1.1-0.6-2.1-0.6-3.2c-0.1-2.8-1.9-2.8-2.5-5.9c-0.4-2.1-0.1-4.3,0.2-5.9
		c0.2-1.2,0.4-1.8,0.4-3c0-1.7-0.4-3-0.8-4c0.2-0.5,0.6-1.2,1-2c0.7-1.1,0.9-1.3,1.1-1.9c0.4-1.2-0.1-1.5,0.4-2.5
		c0.2-0.4,0.4-0.6,1.8-2c0.6-0.6,1-1.1,1.3-1.3c1.6-0.4,3.7-0.7,6.2-0.7c1.2,0,2.4,0.2,3.4,0.3c0.7,0.4,1.8,0.8,3.2,1
		c1.5,0.2,1.5-0.2,2.6,0c2.5,0.4,3.5,2.3,5.7,2c0.2,0,0.3-0.1,0.4-0.1c0.1,0.4,0.5,1.2,1.3,1.8c0.9,0.8,1.8,1,2.3,1.1
		c0.5,0.4,1,0.9,1.5,1.3c0.6,0.5,1.1,1,1.7,1.4c0.1,0.2,1.3,3,4.2,3.5c2.4,0.4,4.8-0.8,6.1-3c0-1.5,0.1-3,0.1-4.5
		c0.4-1.8,0.8-3.7,1.3-5.5c1.8-7.5,1.4-9.5,0.6-9.8c-0.5-0.2-1.5,0.1-2,0.4c-0.7,0.4-1,0.8-2.1,1.5c-0.3,0.2-0.5,0.3-0.7,0.4
		c-0.4-0.2-1.2-0.4-2.1-0.1c-1,0.3-1.6,1.1-1.9,1.4c-0.5,0.7-0.4,1-0.9,1.4c-0.4,0.4-1,0.8-2.3,0.9c-0.4-0.1-1-0.2-1.7-0.1
		c-1.3,0.1-1.7,0.5-2.6,0.5c-1.6,0.1-1.8-1.1-3.3-1.3c-1.8-0.3-2.2,1.2-4.6,1.5c-0.5,0.1-2.5,0.3-4.1-0.9c-0.8-0.6-0.7-0.9-2.3-2.3
		c-1.3-1.2-1.5-1.1-1.8-1.6c-0.8-1.6,0.6-3.2-0.3-4.2c-0.4-0.5-0.8-0.2-1.4-0.7c-0.5-0.4-0.6-0.9-0.9-4c-0.2-2.5-0.1-2-0.2-2.5
		c-0.2-1.1-0.5-1.9-0.1-2.6c0-0.1,0,0,0.5-0.6c0.4-0.4,0.6-0.7,0.8-0.9c0.1-0.2,0.2-0.3,0.3-0.3c0.5-0.6,0.6-2,0.7-2.8
		c1.1-0.7,1.5-1.4,1.7-1.9c0.2-0.6,0.1-0.8,0.2-2.1c0.1-1.4,0.2-2.1,0.6-2.5c0.7-0.7,1.7-0.3,1.9-1c0.2-0.5-0.3-1,0-1.5
		c0.2-0.4,0.7-0.6,0.9-0.7c0.2-0.1,0.4-0.1,0.6-0.2c0-0.2,0-0.6,0.2-0.9c0.3-0.6,1.1-0.8,1.8-0.7c-0.1-0.8,0.1-1.1,0.3-1.3
		c0.4-0.3,1,0.3,2,0.3c0.8,0,1.4-0.3,1.8-0.6c0.4-0.4,0.7-0.5,0.9-0.5c0.7-0.1,1.1,0.3,2.1,0.6c0.5,0.1,1,0.2,1.3,0.2
		c0.6-0.3,1.1-0.3,1.4-0.3c0.4,0.1,0.6,0.1,0.7,0.2C92.6,395.8,93.5,395.8,95.6,394.8z"/>
</g>
<g id="Profile">
	<g id="_">
		<ellipse class="st13" cx="64" cy="575" rx="54.7" ry="56.3"/>
		<path class="st14" d="M64,512c-35.3,0-64,28.7-64,64s28.7,64,64,64s64-28.7,64-64S99.3,512,64,512z M64,631.2
			C33.8,631.2,9.4,606,9.4,575s24.5-56.2,54.6-56.2s54.6,25.2,54.6,56.2S94.2,631.2,64,631.2z"/>
		<rect x="35" y="547.2" class="st9" width="31.3" height="8.2"/>
		<rect x="35" y="559.4" class="st14" width="31.3" height="4.1"/>
		<rect x="34.9" y="579.2" class="st14" width="54.7" height="4.1"/>
		<rect x="34.9" y="587.3" class="st14" width="54.7" height="4.1"/>
		<rect x="34.9" y="595.4" class="st14" width="54.7" height="4.1"/>
		<rect x="34.9" y="603.2" class="st14" width="54.7" height="4.1"/>
	</g>
</g>
<g id="_1_star">
	<g id="_1_Star">
		
			<linearGradient id="SVGID_00000088122574114128668480000013683254147956165510_" gradientUnits="userSpaceOnUse" x1="27.4902" y1="684.5239" x2="101.22" y2="726.2749" gradientTransform="matrix(1 0 0 1 0 -4.3621)">
			<stop  offset="0" style="stop-color:#FFE672"/>
			<stop  offset="0.17" style="stop-color:#FBE16B"/>
			<stop  offset="0.4" style="stop-color:#F2D659"/>
			<stop  offset="0.67" style="stop-color:#E3C33B"/>
			<stop  offset="0.97" style="stop-color:#CEAA11"/>
			<stop  offset="1" style="stop-color:#CCA70D"/>
		</linearGradient>
		<path style="fill:url(#SVGID_00000088122574114128668480000013683254147956165510_);" d="M89.8,727.8l-24.6-9.9
			c-0.4-0.4-0.8,0-1.2,0l-25,12c-1.2,0.4-2.3-0.4-2-1.5l4.8-23.6c0-0.4,0-0.7-0.4-1.1l-20-15.7c-0.8-0.7-0.4-1.9,0.8-2.1l27.7-5.1
			c0.4,0,0.8-0.4,0.8-0.7L63,657.8c0.4-0.7,2-0.7,2.3,0l11.8,20.8c0,0.4,0.8,0.7,1.2,0.7l27.3,2.1c1.2,0,1.6,1.5,0.8,2.1L86.1,701
			c-0.4,0.4-0.4,0.7-0.4,1.1l4.8,24C91.7,727.4,90.6,728.1,89.8,727.8L89.8,727.8L89.8,727.8z"/>
		<polygon class="st16" points="70.3,655.3 64.4,653.1 58.8,655.6 59.6,650.2 54.8,645.9 61.6,645.1 63.9,640 67.2,645.1 
			73.5,645.9 69.1,650.2 		"/>
		<g>
			<path d="M66,713.6l-4.4-0.4c-0.4,0-0.8-0.4-0.4-0.7l3.5-25.1c-1.2,0.4-2.3,0.7-3.5,1.1s-2.3,0.7-3.5,1.1c0-1.1,0-2.5-0.4-3.6
				c0.4,0,0.8-0.4,1.2-0.4c1.6-0.7,2.7-1.1,3.1-1.5c2.3-1.1,4.4-2.5,5.6-3.6c0.8-0.7,1.6-0.7,2.3-0.4c0.8,0.4,0.8,0.7,1.2,1.1
				L66,713.6C66.4,713.6,66.4,714,66,713.6z"/>
		</g>
	</g>
</g>
<g id="_2_starts">
	<g id="_2_Stars">
		
			<linearGradient id="SVGID_00000091722342366343601290000017350265977731575739_" gradientUnits="userSpaceOnUse" x1="23.2081" y1="815.7921" x2="104.6962" y2="861.9496" gradientTransform="matrix(1 0 0 1 0 -4.3621)">
			<stop  offset="0" style="stop-color:#FFE672"/>
			<stop  offset="0.17" style="stop-color:#FBE16B"/>
			<stop  offset="0.4" style="stop-color:#F2D659"/>
			<stop  offset="0.67" style="stop-color:#E3C33B"/>
			<stop  offset="0.97" style="stop-color:#CEAA11"/>
			<stop  offset="1" style="stop-color:#CCA70D"/>
		</linearGradient>
		<path style="fill:url(#SVGID_00000091722342366343601290000017350265977731575739_);" d="M92.1,863.3l-27.6-10.7
			c-0.4-0.4-0.8,0-1.6,0l-27.6,13.3c-1.2,0.4-2.3-0.4-2.3-1.5l5.5-25.9c0-0.4,0-0.7-0.4-1.1l-21.7-17.3c-0.8-0.7-0.4-2.1,0.8-2.1
			l30.7-5.4c0.4,0,0.8-0.4,1.2-0.7L63,787.8c0.4-1.1,2.3-1.1,2.7,0L79.1,810c0.4,0.4,0.8,0.7,1.2,0.7l30.3,2.1c1.2,0,2,1.5,0.8,2.1
			l-22.1,19c-0.4,0.4-0.4,0.7-0.4,1.1l4.7,25.5C94.9,863,92.9,863.6,92.1,863.3L92.1,863.3L92.1,863.3z"/>
		<g class="st18">
			<path d="M73.9,841.7v3.6l-23.3-1.1c0-1.1,0.4-1.8,0.8-2.5c0.8-1.5,1.6-2.5,3.1-3.9c1.2-1.5,3.1-2.8,5.9-4.3
				c3.9-2.5,6.7-4.7,7.9-6.2c1.6-1.5,2-2.8,2.3-4.3c0-1.5-0.4-2.8-1.6-3.9s-2.7-1.8-4.7-1.8s-3.5,0.4-5.1,1.5c-1.2,1.1-2,2.5-2,4.3
				l-4.3-0.7c0.4-2.8,1.6-5.1,3.5-6.4c2-1.5,4.7-2.1,7.9-1.8c3.1,0,5.9,1.1,7.9,2.8c2,1.8,2.7,3.9,2.7,6.2c0,1.1-0.4,2.5-1.2,3.6
				c-0.8,1.1-1.6,2.5-3.1,3.6c-1.6,1.1-3.5,2.8-6.7,5.1c-2.7,1.8-4.3,2.8-5.1,3.6c-0.8,0.7-1.6,1.5-2,1.8L73.9,841.7z"/>
		</g>
		<polygon class="st16" points="70.8,784.9 64.5,782.1 57.8,784.9 58.9,778.8 54.3,774.5 60.9,773.8 64.1,768 67.3,773.8 
			74.7,774.5 69.2,778.5 		"/>
		<polygon class="st16" points="99.2,806.5 92.9,804 86.6,806.5 87.7,800.7 82.2,796.4 89.7,795.4 92.5,790.3 96,795.4 103.5,796.1 
			98,800.7 		"/>
	</g>
</g>
<g id="_3_stars">
	<g id="_3_Stars">
		
			<linearGradient id="SVGID_00000084517619526589134490000008731935769080452009_" gradientUnits="userSpaceOnUse" x1="17.7367" y1="944.8971" x2="100.3829" y2="991.7108" gradientTransform="matrix(1 0 0 1 0 -4.3621)">
			<stop  offset="0" style="stop-color:#FFE672"/>
			<stop  offset="0.17" style="stop-color:#FBE16B"/>
			<stop  offset="0.4" style="stop-color:#F2D659"/>
			<stop  offset="0.67" style="stop-color:#E3C33B"/>
			<stop  offset="0.97" style="stop-color:#CEAA11"/>
			<stop  offset="1" style="stop-color:#CCA70D"/>
		</linearGradient>
		<path style="fill:url(#SVGID_00000084517619526589134490000008731935769080452009_);" d="M87.5,993.2l-27.9-10.8
			c-0.4-0.4-0.8-0.4-1.6,0l-27.8,13.4c-1.2,0.7-2.3-0.4-2.3-1.5l5.5-26.1c0-0.4,0-0.7-0.4-1.1l-21.6-17.4c-0.8-0.7-0.4-2.1,0.8-2.1
			l31.4-5.5c0.4,0,0.8-0.4,1.2-0.7L59,916.7c0.4-1.1,2.3-1.1,2.7,0L75,939.9c0.4,0.4,0.8,0.7,1.2,0.7l30.6,2.1c1.2,0,2,1.5,0.8,2.1
			l-22.4,19.5c-0.4,0.4-0.4,0.7-0.4,1.1l4.7,26.1C89.9,992.8,88.7,993.9,87.5,993.2L87.5,993.2L87.5,993.2z"/>
		<g>
			<path d="M48.7,964.5l4.3-0.4c0.4,2.1,1.2,3.6,2.3,4.7c1.2,1.1,2.3,1.5,3.9,1.5c2,0,3.5-0.4,5.1-1.9c1.6-1.1,2-2.5,2.3-4.7
				c0-1.9-0.4-3.2-1.6-4.4c-1.2-1.1-2.7-1.9-4.7-1.9c-0.8,0-1.6,0-2.7,0.4l0.8-3.2c0.4,0,0.4,0,0.8,0c1.6,0,3.5-0.4,4.7-1.1
				c1.6-0.7,2.3-2.1,2.3-4c0-1.5-0.4-2.5-1.2-3.6c-0.8-1.1-2.3-1.5-3.9-1.5s-3.1,0.4-3.9,1.1c-1.2,0.7-2,2.1-2.3,4l-3.9-0.7
				c0.8-2.5,2-4.4,3.9-5.8c1.9-1.5,4.3-1.9,6.7-1.9c2,0,3.5,0.4,5.1,1.5s2.7,1.9,3.5,3.2c0.8,1.5,1.2,2.5,1.2,4s-0.4,2.5-1.2,3.6
				c-0.8,1.1-2,1.9-3.5,2.5c2,0.4,3.5,1.5,4.3,2.9c1.2,1.5,1.6,2.9,1.6,5.1c0,2.5-1.2,5.1-3.5,6.9c-2.3,1.9-5.1,2.5-8.2,2.5
				c-3.1,0-5.5-1.1-7-2.9C49.8,969.3,48.7,967,48.7,964.5z"/>
		</g>
		<polygon class="st16" points="65.9,913.4 59.2,910.5 53,913.4 54.1,907.3 48.7,902.9 56.1,901.8 59.2,896 62.8,901.8 69.8,902.9 
			64.7,906.9 		"/>
		<polygon class="st16" points="95,935.6 88.3,932.7 82,935.6 83.2,929.7 77.7,925 85.2,924.3 88.3,918.9 91.4,924.3 98.9,925 
			93.8,929.3 		"/>
		<polygon class="st16" points="113.5,979.5 106.8,976.9 100,979.7 101.2,973.6 96.1,969.3 103.7,968.2 106.8,962.4 109.5,968.2 
			117,968.9 111.5,973.6 		"/>
	</g>
</g>
<g id="_4_stars">
	<g id="_4_Stars">
		
			<linearGradient id="SVGID_00000016072689562570648460000003808912441458849709_" gradientUnits="userSpaceOnUse" x1="18.191" y1="1070.1829" x2="100.1346" y2="1116.5786" gradientTransform="matrix(1 0 0 1 0 -4.3621)">
			<stop  offset="0" style="stop-color:#FFE672"/>
			<stop  offset="0.17" style="stop-color:#FBE16B"/>
			<stop  offset="0.4" style="stop-color:#F2D659"/>
			<stop  offset="0.67" style="stop-color:#E3C33B"/>
			<stop  offset="0.97" style="stop-color:#CEAA11"/>
			<stop  offset="1" style="stop-color:#CCA70D"/>
		</linearGradient>
		<path style="fill:url(#SVGID_00000016072689562570648460000003808912441458849709_);" d="M87.6,1117.6l-27.9-10.8
			c-0.4,0-0.8,0-1.6,0l-27.9,13c-1.2,0.4-2.3-0.4-2.3-1.5l5.5-25.2c0-0.4,0-0.7-0.4-1.1l-21.6-16.6c-0.8-0.7-0.4-2.1,0.8-2.1
			l31.4-5.4c0.4,0,0.8-0.4,1.2-0.7l14.2-23.7c0.4-1.1,2.3-1.1,2.7,0l13.3,22c0.4,0.4,0.8,0.7,1.2,0.7l30.6,2.1c1.2,0,2,1.5,0.8,2.1
			l-22.5,18.8c-0.4,0.4-0.4,0.7-0.4,1.1l4.7,25.2C89.9,1117.3,88.7,1118,87.6,1117.6L87.6,1117.6L87.6,1117.6z"/>
		<g>
			<path d="M58.9,1099.2l0.4-7.5l-14.6-0.7v-3.6l16.5-19.4h3.5l-1.2,20.1l4.7,0.4v3.6l-4.7-0.4l-0.4,7.5H58.9z M59.7,1088.5
				l0.8-14.1l-11.4,13.3L59.7,1088.5z"/>
		</g>
		<polygon class="st16" points="65.9,1040.3 59.3,1037.7 53,1040.6 54.2,1034.9 48.7,1030.5 56.1,1029.4 59.3,1024 62.8,1029.4 
			69.9,1030.2 64.8,1034.9 		"/>
		<polygon class="st16" points="95,1062.2 88.3,1059 82.5,1062.2 83.3,1056.1 77.8,1051.8 85.2,1051 88.3,1045.6 91.9,1050.7 
			98.9,1051.8 93.8,1056.1 		"/>
		<polygon class="st16" points="113.5,1104.3 106.8,1101.8 100.5,1104.3 101.7,1098.6 96.2,1094.3 103.7,1093.5 106.8,1087.7 
			109.6,1093.5 117,1094.3 111.9,1098.6 		"/>
		<polygon class="st16" points="98.5,1140 92.3,1137.1 85.6,1140 86.8,1133.8 81.7,1129.9 88.7,1128.8 92.3,1123.4 95.4,1128.8 
			102.4,1129.9 97.4,1133.8 		"/>
	</g>
</g>
<g id="_5_stars">
	<g id="_5_Stars">
		
			<linearGradient id="SVGID_00000021111868898390166600000009537408263822175413_" gradientUnits="userSpaceOnUse" x1="23.7849" y1="1198.0601" x2="99.9864" y2="1241.24" gradientTransform="matrix(1 0 0 1 0 -4.3621)">
			<stop  offset="0" style="stop-color:#FFE672"/>
			<stop  offset="0.17" style="stop-color:#FBE16B"/>
			<stop  offset="0.4" style="stop-color:#F2D659"/>
			<stop  offset="0.67" style="stop-color:#E3C33B"/>
			<stop  offset="0.97" style="stop-color:#CEAA11"/>
			<stop  offset="1" style="stop-color:#CCA70D"/>
		</linearGradient>
		<path style="fill:url(#SVGID_00000021111868898390166600000009537408263822175413_);" d="M87.7,1243.1l-25.4-10.4
			c-0.4,0-0.8,0-1.2,0l-25.9,12.6c-1.2,0.4-2.3-0.4-2-1.5l4.7-24.7c0-0.4,0-0.7-0.4-1.1l-20.4-16.5c-0.8-0.7-0.4-1.8,0.8-2.1l28.6-5
			c0.4,0,0.8-0.4,1.2-0.7l12.9-23.3c0.4-1.1,2-1.1,2.3,0l12.5,21.5c0.4,0.4,0.8,0.7,1.2,0.7l28.2,2.1c1.2,0,2,1.5,0.8,2.1L84.9,1215
			c-0.4,0.4-0.4,0.7-0.4,1.1l4.3,24.4C90,1242.7,88.8,1243.5,87.7,1243.1L87.7,1243.1L87.7,1243.1z"/>
		<g>
			<path d="M50.5,1218l4.3-0.4c0.4,1.8,1.2,3.2,2.3,4.3c1.2,1.1,2.7,1.5,4.3,1.5c2,0,3.9-0.7,5.1-2.1c1.6-1.5,2-3.2,2-5.4
				c0-2.2-0.8-3.9-2-5s-3.1-1.8-5.5-1.8c-1.2,0-2.7,0.4-3.5,0.7s-2,1.5-2.7,2.1l-3.9-0.4l3.5-15.8h17.2v3.6H57.9l-2,8.2
				c2-1.5,4.3-1.8,6.7-1.8c3.1,0,5.5,1.1,7.4,2.8c2,1.8,3.1,4.3,3.1,7.1c0,2.8-0.8,5-2.7,7.1c-2.3,2.5-5.1,3.6-9,3.6
				c-3.1,0-5.9-0.7-7.8-2.5C51.7,1222.3,50.9,1220.5,50.5,1218z"/>
		</g>
		<polygon class="st16" points="67.7,1167.4 62.2,1164.9 56,1167.8 57.1,1162 52.4,1157.7 58.7,1156.9 61.8,1152 65,1156.9 
			71.6,1157.7 66.5,1162 		"/>
		<polygon class="st16" points="94.7,1188.9 88.5,1185.7 83,1188.9 83.8,1182.8 78.7,1178.9 85.3,1177.8 88.5,1172.8 91.6,1177.8 
			97.9,1178.9 93.5,1182.8 		"/>
		<polygon class="st16" points="111.6,1230.2 105.3,1227.3 99.4,1230.2 100.2,1224.4 95.5,1220.1 102.5,1219.4 105.3,1214 
			108,1219.4 114.7,1220.1 110,1224.4 		"/>
		<polygon class="st16" points="97.9,1264.6 92,1262.1 86.1,1265 86.9,1258.9 82.2,1254.9 88.8,1254.2 92,1248.9 94.7,1254.2 
			101.4,1254.9 96.7,1258.9 		"/>
		<polygon class="st16" points="38,1266 32.1,1263.5 26.3,1266 27.1,1260.7 22.4,1256.4 29,1255.6 32.1,1249.9 34.8,1255.3 
			41.5,1256.4 36.8,1260.7 		"/>
	</g>
</g>
<g id="_6_stars">
	<g id="_6_Stars">
		
			<linearGradient id="SVGID_00000152986035113902483000000016314175360475457448_" gradientUnits="userSpaceOnUse" x1="21.732" y1="1327.4779" x2="100.1079" y2="1371.8573" gradientTransform="matrix(1 0 0 1 0 -4.3621)">
			<stop  offset="0" style="stop-color:#FFE672"/>
			<stop  offset="0.17" style="stop-color:#FBE16B"/>
			<stop  offset="0.4" style="stop-color:#F2D659"/>
			<stop  offset="0.67" style="stop-color:#E3C33B"/>
			<stop  offset="0.97" style="stop-color:#CEAA11"/>
			<stop  offset="1" style="stop-color:#CCA70D"/>
		</linearGradient>
		<path style="fill:url(#SVGID_00000152986035113902483000000016314175360475457448_);" d="M87.5,1373.9l-26.4-10.8
			c-0.4,0-0.8,0-1.2,0l-26.4,13.3c-1.2,0.4-2.3-0.4-2.3-1.5l5.5-25.5c0-0.4,0-0.7-0.4-1.1l-21.1-16.9c-0.8-0.7-0.4-2.1,0.8-2.1
			l29.6-5.4c0.4,0,0.8-0.4,1.2-0.7l13-24.1c0.4-1.1,2-1.1,2.7,0l12.6,22.3c0.4,0.4,0.8,0.7,1.2,0.7l29.2,2.1c1.2,0,2,1.5,0.8,2.1
			L85,1345c-0.4,0.4-0.4,0.7-0.4,1.1l4.7,25.2C89.9,1373.6,88.8,1374.3,87.5,1373.9L87.5,1373.9L87.5,1373.9z"/>
		<g>
			<path d="M71.7,1334.3h-4.3c-0.4-1.5-0.8-2.5-1.2-3.2c-1.2-1.1-2.3-1.8-3.9-1.8c-1.2,0-2.3,0.4-3.5,0.7c-1.2,0.7-2.3,2.1-3.1,3.6
				c-0.8,1.8-1.6,4-1.6,7.2c1.2-1.5,2.3-2.1,3.9-2.8c1.6-0.7,3.1-0.7,4.7-0.7c2.7,0,5.1,1.1,6.7,3.2s2.7,4.3,2.3,7.2
				c0,1.8-0.8,3.6-1.6,5.4s-2.3,2.8-3.9,3.6c-1.6,0.7-3.5,1.1-5.5,1.1c-3.5-0.4-6.3-1.5-8.3-4s-2.7-6.4-2.3-11.5
				c0.4-6.2,2-10.1,4.3-13c2.3-2.1,5.1-3.2,8.7-3.2c2.7,0,4.7,1.1,6.3,2.5C70.6,1330,71.7,1331.8,71.7,1334.3z M54,1346.6
				c0,1.5,0,2.5,0.8,4c0.4,1.1,1.2,2.1,2.3,2.8c1.2,0.7,2.3,1.1,3.5,1.1c1.6,0,3.1-0.4,4.7-1.8c1.2-1.1,2-2.8,2.3-5.1
				c0-2.1-0.4-4-1.6-5.1c-1.2-1.5-2.7-2.1-4.7-2.1s-3.5,0.4-4.7,1.5C54.8,1343,54,1344.8,54,1346.6z"/>
		</g>
		<polygon class="st16" points="67,1296.2 60.7,1293.3 54.8,1296.2 56,1290.5 51.3,1286.2 57.9,1285.1 60.7,1280 63.9,1285.1 
			70.6,1285.8 65.9,1290.5 		"/>
		<polygon class="st16" points="94.6,1318.1 88.3,1315.3 82.4,1318.1 83.6,1312.1 78.5,1308.1 85.1,1307 87.9,1301.6 91.5,1307 
			97.8,1307.8 93.5,1312.1 		"/>
		<polygon class="st16" points="112,1361 105.7,1357.7 99.3,1361 100.1,1354.9 95.4,1350.6 102.6,1349.5 105.3,1344.4 108.4,1349.5 
			115.1,1350.2 110,1354.9 		"/>
		<polygon class="st16" points="97.8,1396.3 91.9,1393.7 85.5,1396.6 86.7,1390.8 82,1386.1 88.3,1385.4 91.9,1380.1 94.6,1385.4 
			101.7,1386.1 96.6,1390.5 		"/>
		<polygon class="st16" points="36.3,1398 29.9,1395.2 24.1,1398 25.2,1391.9 20.1,1387.6 26.8,1386.9 29.9,1381.5 33.1,1386.9 
			39.8,1387.6 35.1,1391.9 		"/>
		<polygon class="st16" points="21.3,1363.2 15,1359.9 8.7,1363.2 9.9,1357 5.1,1353.1 11.8,1352 15,1346.6 17.7,1352 24.8,1352.7 
			19.7,1357 		"/>
	</g>
</g>
<g id="_7_stars">
	<g id="_7_Stars">
		
			<linearGradient id="SVGID_00000168117041159498946340000002294744912272189367_" gradientUnits="userSpaceOnUse" x1="21.2581" y1="1453.3855" x2="99.8975" y2="1497.9615" gradientTransform="matrix(1 0 0 1 0 -4.3621)">
			<stop  offset="0" style="stop-color:#FFE672"/>
			<stop  offset="0.17" style="stop-color:#FBE16B"/>
			<stop  offset="0.4" style="stop-color:#F2D659"/>
			<stop  offset="0.67" style="stop-color:#E3C33B"/>
			<stop  offset="0.97" style="stop-color:#CEAA11"/>
			<stop  offset="1" style="stop-color:#CCA70D"/>
		</linearGradient>
		<path style="fill:url(#SVGID_00000168117041159498946340000002294744912272189367_);" d="M87.8,1498.7l-26.7-10.4
			c-0.4,0-0.8,0-1.6,0l-26.7,12.5c-1.2,0.4-2.3-0.4-2.3-1.5l5.5-24.4c0-0.4,0-0.7-0.4-1.1l-21.2-16.1c-0.8-0.7-0.4-1.8,0.8-2.1
			l29.8-5c0.4,0,0.8-0.4,1.2-0.7l13.3-23c0.4-1.1,2-1.1,2.7,0l12.9,21.5c0.4,0.4,0.8,0.7,1.2,0.7l29.5,2.1c1.2,0,2,1.5,0.8,2.1
			L85,1471.6c-0.4,0.4-0.4,0.7-0.4,1.1l4.7,24.4C90.2,1498,88.9,1499.1,87.8,1498.7L87.8,1498.7L87.8,1498.7z"/>
		<g>
			<path d="M50.1,1457.2v-3.6l22.8,0.7v2.8c-2.3,2.1-4.7,4.7-7,8.2c-2.3,3.2-4.3,6.8-5.5,10.4c-0.8,2.5-1.6,5.4-2,8.2H54
				c0-2.5,0.8-5.4,2-8.6s2.7-6.8,4.7-9.7c2-3.2,4.3-5.8,6.7-7.9L50.1,1457.2z"/>
		</g>
		<polygon class="st16" points="67.4,1424.1 60.7,1420.9 54.8,1424.1 56,1418.1 51.3,1414.5 57.9,1413.4 60.7,1408 64.3,1413.4 
			71.3,1414.1 65.9,1418.1 		"/>
		<polygon class="st16" points="95.3,1444.6 88.6,1442.1 82.7,1444.9 83.9,1438.9 78.8,1434.9 85.8,1434.2 88.6,1428.8 92.2,1434.2 
			98.8,1434.9 93.7,1438.9 		"/>
		<polygon class="st16" points="112.5,1485.8 106.3,1482.9 100,1486.2 101.6,1480.1 96.1,1475.8 103.1,1475 106.3,1470.1 
			109.4,1475 116.1,1475.8 111.4,1480.1 		"/>
		<polygon class="st16" points="98.4,1520.3 92.6,1517.3 86.2,1520.3 87,1514.9 82.3,1510.6 88.9,1509.5 92.2,1504.4 95.3,1509.5 
			102.4,1510.2 97.3,1514.5 		"/>
		<polygon class="st16" points="36,1521.6 29.6,1518.8 23.4,1522 24.6,1516 19.5,1511.7 26.5,1510.9 29.2,1505.9 32.8,1510.9 
			39.5,1511.7 34.8,1516 		"/>
		<polygon class="st16" points="20.2,1487.9 14.4,1485.5 8.1,1487.9 8.9,1482.3 4.1,1478.3 10.9,1477.6 14,1472.2 17.1,1477.6 
			24.2,1478.3 19.1,1482.3 		"/>
		<polygon class="st16" points="36,1444.6 29.6,1442.1 23.4,1444.9 24.6,1438.9 19.5,1434.9 26.5,1434.2 29.2,1428.8 32.8,1434.2 
			39.5,1434.9 34.8,1438.9 		"/>
	</g>
</g>
<g id="Pencil_and_kistochka">
	<g id="pencil">
		
			<linearGradient id="SVGID_00000019647359370972628460000007873193809315117984_" gradientUnits="userSpaceOnUse" x1="240.2531" y1="2283.6709" x2="240.0904" y2="2307.502" gradientTransform="matrix(1.1801 -1.2737 -0.9738 -0.9023 2012.8291 3971.5938)">
			<stop  offset="6.921235e-03" style="stop-color:#008FE1"/>
			<stop  offset="0.465" style="stop-color:#0068A1"/>
			<stop  offset="0.739" style="stop-color:#00547F"/>
		</linearGradient>
		<path style="fill:url(#SVGID_00000019647359370972628460000007873193809315117984_);" d="M109.1,1566.4L35.5,1643
			c-1.2,1.3-3.3,1.3-4.6,0.1l-17.8-15.9c-1.3-1.2-1.4-3.2-0.2-4.5l73.6-76.6c1.2-1.3,3.3-1.3,4.6-0.1l17.8,15.9
			C110.3,1563.1,110.3,1565.1,109.1,1566.4z"/>
		<path class="st1" d="M86.9,1545.8c7.1,6.4,14.1,12.7,21.2,19.1c0.4,0.4,0.9,0.8,1.3,1.1c0.5-0.4,1-0.9,1.5-1.3
			c0.9-5.5,1.8-11,2.7-16.4c-2-1.7-4-3.5-6-5.2c-6.5,0.5-13.1,1.1-19.6,1.6C87.7,1545,87.3,1545.4,86.9,1545.8z"/>
		<path d="M113.6,1548.3c-0.3,0-2.6,0.2-4.4-1.5c-1.6-1.5-1.6-3.4-1.6-3.8c2.4-0.1,4.7-0.2,7.1-0.4
			C114.4,1544.5,114,1546.4,113.6,1548.3z"/>
	</g>
	<g id="kistochka">
		
			<linearGradient id="SVGID_00000143591145820732011990000003739661307773228180_" gradientUnits="userSpaceOnUse" x1="53.4527" y1="2471.5415" x2="71.0803" y2="2488.134" gradientTransform="matrix(0.9979 6.526394e-02 6.526394e-02 -0.9979 -135.8896 4087.0886)">
			<stop  offset="0.3506" style="stop-color:#FF7D00"/>
			<stop  offset="0.3824" style="stop-color:#FB7A00"/>
			<stop  offset="0.6469" style="stop-color:#D95F00"/>
		</linearGradient>
		<path style="fill:url(#SVGID_00000143591145820732011990000003739661307773228180_);" d="M52.5,1595.9l24.7-19.6
			c0.3-0.2,0.8-0.2,1,0.1c11.3,14.8,11.9,16.4,11.9,16.4c2,3.1,3.6,5.6,4.8,7.3c2.3,3.4,3.3,4.7,5.1,7.5c1.1,1.7,2.4,3.8,3.8,6.5
			c0,0,0,0,0,0.1c1.3,2,2.6,4.2,3.9,6.8c1.4,2.8,2.5,5.4,3.3,7.8l0,0l0,0c1,2.1,1.9,4.5,2.8,7.2c0.8,2.5,1.5,4.9,2,7.1
			c0.1,0.3,0,0.6-0.2,0.7c-0.2,0.2-0.5,0.2-0.8,0.1c-3.5-1.5-6.5-2.9-8.9-4.2c-2.8-1.4-5-2.5-6.6-3.4c-1.8-1-4.7-2.5-8-4.5
			c-3.5-2.1-7.8-4.7-12.6-8.1c0,0,0,0-0.1,0c0,0,0,0-0.1,0c-3.2-2.4-6.5-5.1-9.9-8.1c-2.8-2.5-5.4-5.1-7.6-7.5l0,0l0,0l-8.7-11.1
			C52.1,1596.6,52.2,1596.2,52.5,1595.9z"/>
		
			<linearGradient id="SVGID_00000099626499262810232490000012388153975497450383_" gradientUnits="userSpaceOnUse" x1="47.935" y1="2506.7485" x2="69.0926" y2="2522.7783" gradientTransform="matrix(1 0 0 -1 0 4096)">
			<stop  offset="0.3506" style="stop-color:#DBDADC"/>
			<stop  offset="0.4453" style="stop-color:#CAC9CB"/>
			<stop  offset="0.6469" style="stop-color:#A9A9A9"/>
		</linearGradient>
		<path style="fill:url(#SVGID_00000099626499262810232490000012388153975497450383_);" d="M78.6,1576.9c-8.5,7-17,13.9-25.5,20.9
			c-0.4-0.5-0.8-1-1.2-1.5c-3.5-4.3-7.1-8.4-10.7-12.3c8.4-7.1,16.8-14.1,25.2-21.2c8.1,9.3,11.3,13,11.6,13.2c0,0,0.2,0.1,0.4,0.3
			C78.4,1576.6,78.5,1576.8,78.6,1576.9z"/>
		
			<linearGradient id="SVGID_00000060735332159242843630000005577133638904790422_" gradientUnits="userSpaceOnUse" x1="25.4616" y1="2531.0356" x2="48.8259" y2="2548.7373" gradientTransform="matrix(1 0 0 -1 0 4096)">
			<stop  offset="0.3307" style="stop-color:#F04840"/>
			<stop  offset="0.6469" style="stop-color:#D03E35"/>
		</linearGradient>
		<path style="fill:url(#SVGID_00000060735332159242843630000005577133638904790422_);" d="M59,1568.9l-12.4,10.7l-2.3,1.8
			c-1.1-0.4-2.2-0.9-3.4-1.4c-3-1.4-5.1-2.8-7.3-4.2c-2.2-1.5-3.5-2.4-5.2-3.9s-3-3-3.8-4c-0.3-0.7-0.6-1.6-0.8-2.7
			c-0.1-0.6-0.2-1.2-0.2-1.7c0-1-0.1-1.5-0.1-2.1c0-0.3,0-1.1,0.1-2.1c0-0.1,0.1-0.6,0.3-1.5c0.1-0.6,0.1-0.8,0.3-1.1
			c0.1-0.3,0.2-0.4,0.4-0.8c0.2-0.4,0.2-0.6,0.3-0.9c0.1-0.4-0.1-0.7-0.2-1.3c-0.1-0.5-0.3-0.9-0.6-1.3c-0.3-0.4-0.6-0.6-0.9-0.8
			c-0.8-0.5-1.5-0.6-1.9-0.7c-0.1,0-0.7-0.1-1.2-0.1c-0.1,0-0.9,0.1-1,0.1s-0.2,0-0.4-0.1c-0.1,0-0.2-0.1-0.4-0.2
			c-0.1,0-0.2-0.1-0.4-0.3c-0.2-0.2-0.3-0.3-0.4-0.3c-0.6-0.7-0.6-0.6-0.7-0.8c-0.4-0.4-0.7-0.8-1-1.2c-0.6-1-0.6-2.1-0.5-2.6
			c0.1-0.6,0.3-1.4,0.6-2.3c0.5-1.1,1.1-1.9,1.6-2.5c0.5-0.5,1-1,1.7-1.6c1.7-1.2,4.5-2,4.5-2c1-0.3,1.8-0.4,3.2-0.6
			c0.6-0.1,1.7-0.2,3.2-0.3c0.9-0.1,1.5-0.1,2.4-0.1c0.4,0,0.8,0,1.6,0.1c0.6,0,0.9,0.1,1.2,0.1c0.6,0.1,1.1,0.2,1.7,0.3
			c0.8,0.2,0.7,0.2,1.4,0.4c0.6,0.1,0.8,0.2,1.1,0.3c0.3,0.1,0.4,0.2,0.9,0.4c0.5,0.3,0.9,0.4,1.2,0.5c0.9,0.3,1.8,0.8,3,1.4
			c1,0.5,1.8,1,2.1,1.2c0.8,0.5,1.8,1.1,3,2c1.3,0.8,2.3,1.4,3.1,2c1.4,0.9,2.1,1.4,2.8,2.1c1.1,1,1.7,1.8,2.2,2.5
			c1.3,1.8,2.1,3.3,2.3,3.9c0.6,1.3,0.8,2.2,1.2,3.6s0.7,2.3,0.8,3.7c0.2,1.4,0.1,2.5,0.1,3.4c-0.1,1.2-0.2,2.1-0.3,2.9
			C60.9,1567.4,59.9,1568.2,59,1568.9z"/>
	</g>
</g>
<g id="Speech">
	<g>
		<g>
			<g>
				<path class="st28" d="M73.5,1722c-28.8,0.5-51.8,16.3-51.5,35.6c0,1.7,0.3,3.4,0.7,5c-0.3,4-1.5,8.7-5,11.7
					c-5,4.2-12.4,3-12.4,4.6c-0.1,1.2,4.2,2.4,6,2.8c1.1,0.2,2.4,0.3,4.9,0.5c2.1,0.2,3.6,0.2,3.9,0.2c1.7,0.1,2.7,0,4.9,0
					c5-0.1,4.5,0,7.1-0.1c1.6,0,3.7-0.1,6.2-0.3c1.1,0.7,2.2,1.3,3.4,1.9c9,4.8,20.7,7.6,33.2,7.4c28.8-0.5,51.8-16.3,51.5-35.6
					C125.8,1736.7,102.3,1721.5,73.5,1722z"/>
			</g>
			<path class="st29" d="M63.8,1758.2c0-5.2,0.2-9.3,0.5-10.8c-1.1-0.1-4-0.3-4.4-0.4l1-7c1.3,0.4,4.3,0.4,8.2,0.4h10.8
				c8.7,0,10.3,3.5,10.3,16.5v26h-4.7V1759c0-8.6-0.6-11.6-6.3-11.6h-11v35.4h-4.6C63.8,1782.8,63.8,1758.2,63.8,1758.2z"/>
		</g>
	</g>
	<g>
		<path class="st30" d="M117.3,1680c-1.1-0.3-2.4-0.4-4.9-0.6c-2.1-0.2-3.6-0.3-3.9-0.3c-1.7-0.1-2.7-0.1-4.9-0.1
			c-5,0-4.5-0.1-7.1,0c-1.6,0-3.7,0.1-6.2,0.2c-1.1-0.7-2.2-1.4-3.3-2c-9-4.9-20.6-7.9-33.1-7.9c-28.8,0-52,15.5-52,34.8
			c0,19.2,23.3,34.8,52,34.8s52-15.5,52-34.8c0-1.7-0.2-3.4-0.6-5.1c0.4-4,1.6-8.7,5.2-11.6c5-4.1,12.4-2.8,12.5-4.4
			C123.3,1681.7,119.1,1680.4,117.3,1680z"/>
		<g>
			<path class="st29" d="M31.6,1726.7l20.5-52.2h6.6l20.5,52.2h-9.6l-14.1-38.9l-14.1,38.9H31.6z M41.2,1716.8v-8.2h28.7v8.2H41.2z"
				/>
		</g>
	</g>
</g>
<g id="Humans">
	<g id="back_person">
		
			<radialGradient id="SVGID_00000071545727244016718650000001589159442316432037_" cx="11739.6367" cy="9929.7393" r="82.2326" fx="11659.5068" fy="9948.2148" gradientTransform="matrix(0.2758 0 0 -0.2832 -3208.3545 4634.9536)" gradientUnits="userSpaceOnUse">
			<stop  offset="0.8151" style="stop-color:#00689C"/>
			<stop  offset="0.9081" style="stop-color:#005987"/>
			<stop  offset="1" style="stop-color:#00547F"/>
		</radialGradient>
		<ellipse style="fill:url(#SVGID_00000071545727244016718650000001589159442316432037_);" cx="29.8" cy="1823" rx="22.4" ry="22"/>
		
			<linearGradient id="SVGID_00000106859690947511409910000000201902937130698407_" gradientUnits="userSpaceOnUse" x1="2.9353" y1="5181.063" x2="56.1509" y2="5179.9067" gradientTransform="matrix(1 0 0 -1 0 7052)">
			<stop  offset="0.5" style="stop-color:#00689C"/>
			<stop  offset="0.56" style="stop-color:#00547F"/>
		</linearGradient>
		<path style="fill:url(#SVGID_00000106859690947511409910000000201902937130698407_);" d="M10.1,1850.1h40
			c2.3,6.7,4.3,13.4,6.7,20.1c1.2,3.1,2.3,6.4,3.5,9.4c-9,4.3-18.9,9-27.9,13.8c-0.4,0-0.8,0-1.2,0c-10.2-4.3-20.8-9-31-13.4
			c1.6-3.9,2.7-8.2,4.3-11.7C5.8,1861.9,8.1,1856,10.1,1850.1L10.1,1850.1z"/>
	</g>
	<g id="back_person-2">
		
			<radialGradient id="SVGID_00000100366989319014735640000003314073098892252318_" cx="142.115" cy="1722.3506" r="20.9899" fx="142.6311" fy="1722.532" gradientTransform="matrix(1.0612 0 0 1.0896 -53.3674 -55.0624)" gradientUnits="userSpaceOnUse">
			<stop  offset="0.84" style="stop-color:#00689C"/>
			<stop  offset="0.94" style="stop-color:#005987"/>
		</radialGradient>
		<ellipse style="fill:url(#SVGID_00000100366989319014735640000003314073098892252318_);" cx="98.1" cy="1823" rx="22.4" ry="22"/>
		
			<linearGradient id="SVGID_00000036231719178725396770000014751029797120338837_" gradientUnits="userSpaceOnUse" x1="71.0592" y1="5181.0576" x2="124.2749" y2="5179.9019" gradientTransform="matrix(1 0 0 -1 0 7052)">
			<stop  offset="0.5" style="stop-color:#00689C"/>
			<stop  offset="0.56" style="stop-color:#00547F"/>
		</linearGradient>
		<path style="fill:url(#SVGID_00000036231719178725396770000014751029797120338837_);" d="M78,1850.1h40c2.3,6.7,4.3,13.4,6.7,20.1
			c1.2,3.1,2.3,6.4,3.5,9.4c-9,4.3-18.9,9-27.9,13.8c-0.4,0-0.8,0-1.2,0c-10.2-4.3-20.8-9-31-13.4c1.6-3.9,2.7-8.2,4.3-11.7
			C74.1,1861.9,76.1,1856,78,1850.1L78,1850.1z"/>
	</g>
	<g id="centerPerson">
		
			<radialGradient id="SVGID_00000050650804868269979410000017612769250662814871_" cx="9300.8271" cy="8882.9912" r="82.2326" fx="9355.9209" fy="8845.8301" gradientTransform="matrix(0.3289 0 0 -0.3377 -2997.5923 4825.9712)" gradientUnits="userSpaceOnUse">
			<stop  offset="0.84" style="stop-color:#FFCB03"/>
			<stop  offset="0.94" style="stop-color:#ECB601"/>
			<stop  offset="1" style="stop-color:#E6AE01"/>
		</radialGradient>
		
			<ellipse style="fill:url(#SVGID_00000050650804868269979410000017612769250662814871_);" cx="65.9" cy="1828.5" rx="26.7" ry="27.5"/>
		
			<linearGradient id="SVGID_00000049903099203656037970000006038691377578470296_" gradientUnits="userSpaceOnUse" x1="33.5934" y1="5164.4756" x2="96.9742" y2="5163.1206" gradientTransform="matrix(1 0 0 -1 0 7052)">
			<stop  offset="0.5" style="stop-color:#FFCB03"/>
			<stop  offset="0.56" style="stop-color:#E6AE01"/>
		</linearGradient>
		<path style="fill:url(#SVGID_00000049903099203656037970000006038691377578470296_);" d="M41.9,1861.9h47.5
			c2.7,8.2,5.1,16.4,7.8,24.4c1.6,3.9,2.7,7.8,3.9,11.7c-11,5.9-22.4,11.4-33,16.9c-0.4,0-0.8,0-1.6,0
			c-12.1-5.9-24.8-11.1-36.9-16.9c1.6-4.7,3.5-9.9,5.1-14.6C37.6,1876.5,40,1869,41.9,1861.9L41.9,1861.9z"/>
	</g>
</g>
<g id="Laure__x2B__Shield">
	<path id="Laure" class="st37" d="M127.3,1992.7c-2.4-0.5-10.6,2.5-12.8,6.2c1.3-3.7,2.4-7.6,3-11.6c5.3,1.1,12.5-9.8,10.2-13.5
		c-3.8,0.9-8.3,4.9-9.8,8.9c0.3-3.8,0.3-7.6,0-11.3c4.7-0.3,9.1-11.7,6.1-14.4c-3.3,1.8-6.2,6.3-6.6,10.4c-0.5-3.5-1.4-6.9-2.4-10.3
		c3.6-1.5,6.1-11,2.6-13.6c-2.5,2.4-4.2,6.7-3.8,10.3c-1.2-3-2.5-5.8-4.2-8.6c2.8-2.1,3-10.2-0.1-12.4c-1.2,1.1-2.8,6.9-1.6,9.5
		c-1.6-2.3-3.4-4.7-5.4-6.7c2.2-2.6,0.4-9.9-2-10.5c-1,2.2-1.3,6.1,0.1,8.3c-1.9-1.8-3.8-3.5-5.9-5c1.3-2.1-0.7-8-3.1-8.2
		c-0.5,1.1-0.3,5.6,1.4,7c-4.2-1.9-6.4-6.4-11.6-6.4c-1.1,0.2-2.6-0.2-2.3,0.9c3.2,4.8,9.9,3.2,13.8,6.7c-2.2-0.8-5.4,1.5-5.9,2.6
		c1.4,1.8,6.7,0.4,7.7-1.3c2,1.5,4.1,3.2,5.8,5c-2.4-1.3-5.8-0.1-7.3,1.8c0.6,2.2,7.2,2.2,9.3,0.1c1.9,2.1,3.6,4.4,5.3,6.7
		c-2.1-2.2-7.5-0.9-8.6,0.4c1.1,3,7.9,3.8,10.5,2.5c1.5,2.6,3,5.5,4.1,8.3c-2.3-2.7-6.7-3-9.7-1.6c0.8,3.4,7.7,6,10.9,5.1
		c1.1,3.2,1.9,6.6,2.3,9.8c-1.7-3.6-6.3-5.5-10-4.5c-1,2.7,7.1,8.9,10.4,8.5c0.3,3.7,0.3,7.3,0,11c-0.7-4.2-5.5-7.7-9.4-7.8
		c-1.8,2.6,5.4,11.6,8.9,12.2c-0.5,3.9-1.7,7.6-3,11.3c0.9-4.8-4.8-10.7-7.6-11.1c-2.4,3.6,2.4,13.3,5.7,15.5
		c-1.7,3.6-3.8,7.3-6.4,10.4c1.9-4.8-1.1-11.3-4.7-14.1c-3.5,3.6-1.6,13.5,1.1,17.9c-2.8,3.1-6.1,5.9-9.7,8.1
		c3.5-4.6,2.3-11.8-0.5-16c-4.9,2.8-5.4,13-4.5,18.6c-3.8,2-8,3.3-12.3,4.2c5.1-3.2,6.3-11.3,4.6-16.1c-5.5,0-10.4,12.4-10.6,17
		c-3.4,0.3-7,0.1-10.5,0c-0.2-4.5-5.2-17-10.6-17c-1.5,4.8-0.5,13.1,4.6,16.1c-4.2-0.8-8.5-2.4-12.3-4.2c1.1-5.5,0.3-15.9-4.5-18.6
		c-2.8,4.1-4.1,11.4-0.5,16c-3.4-2.4-6.8-4.9-9.7-8.1c3.1-5,3.8-12.3,1.8-17.7c-3.1,1.1-6.9,9.3-4.9,13.9c-2.5-3.2-4.6-6.7-6.4-10.4
		c3.2-2.2,8.1-11.9,5.7-15.5c-2.6,0.5-8.7,6.4-7.6,11.1c-1.3-3.7-2.4-7.4-3-11.3c3.4-0.7,10.7-9.4,8.9-12.2
		c-3.9,0.1-8.7,3.5-9.4,7.8c-0.4-3.7-0.4-7.3,0-11c3.2,0.5,11.4-5.9,10.4-8.5c-3.3-0.9-8.3,0.8-10,4.5c0.5-3.4,1.4-6.7,2.3-9.8
		c3,0.9,10.1-1.7,10.9-5.1c-2.8-1.4-7.3-1.1-9.7,1.6c1.2-2.9,2.4-5.6,4.1-8.3c2.4,1.5,9.3,0.5,10.5-2.5c-1.2-1.4-6.3-2.5-8.6-0.4
		c1.6-2.3,3.4-4.7,5.3-6.7c1.8,2,8.8,2.2,9.3-0.1c-1.5-1.8-5-3.1-7.3-1.8c1.9-1.8,3.8-3.5,5.8-5c1.4,1.7,6,3.2,7.7,1.3
		c-0.5-1.3-3.8-3.4-5.9-2.6c4-3.7,10.4-1.8,13.8-6.7c0.3-1.2-2.7-0.9-3.8-0.7c-4.5,0.9-6,5.2-10.2,6.7c1.5-1.5,1.9-5.9,1.4-7
		c-2.5,0.3-4.4,6.1-3.1,8.2c-2,1.5-4.1,3.2-5.9,5c2.8-5.6-0.4-13.4-3-2.8c1.7,6.6-0.8,6.6-4.3,11.7c1.2-2.8-0.4-8.4-1.6-9.5
		c-3,1.9-3.4,9.9-0.3,12c-1.7,2.9-3.1,5.5-4.2,8.6c0.4-3.7-1.3-7.9-3.8-10.3c-3.5,2.8-1,12,2.6,13.6c-1.1,3.4-1.9,6.7-2.4,10.3
		c-0.4-4-3.3-8.6-6.6-10.4c-2.8,2.5,1.2,14.1,6.1,14.4c-0.4,3.8-0.4,7.6,0,11.3c-1.5-3.9-5.8-8.1-9.8-8.9
		c-2.1,3.9,4.6,14.4,10.2,13.5c0.6,4,1.7,7.9,3,11.6c-2.2-3.7-10.3-6.7-12.8-6.2c-0.5,5.9,9.4,13.5,14.8,10.8
		c1.8,3.9,4,7.4,6.5,10.7c-4-2.7-10.9-3.6-15.1-2c1.4,6.6,12.8,11,18.5,6.4c2.9,3.1,6.4,6.1,10,8.5c-5.1-1.3-12.3,0.2-16,3.4
		c3.8,6.2,16.9,6.7,20.9-0.4c4.1,2.1,8.1,3.6,12.7,4.5c-5.7,0.7-12.3,5.2-15.1,9.7c6.3,5.3,20-0.9,21.2-8.8c0.9,0.1,1.8,0.1,2.8,0.1
		c-0.5,0.5-4.7,3.8-1.8,3.4c0.8-0.6,3.6-4.1,4.9-3.4l3.5,3.3c2.8,0.4-1.2-2.9-1.7-3.3c1,0,2-0.1,2.9-0.1c0.8,7.7,15,14.2,21.2,8.8
		c-2.7-4.5-9.5-8.9-15.1-9.7c4.3-0.9,8.7-2.5,12.7-4.5c3.9,7.1,17.2,6.7,20.9,0.4c-3.8-3.1-10.9-4.7-16.1-3.4
		c3.7-2.5,6.8-5.2,10-8.5c5.6,4.7,17.1,0.1,18.5-6.4c-4.3-1.7-11-0.4-15.1,2.1c2.5-3.3,4.7-6.9,6.5-10.7
		C118.2,2006.2,128.5,1998.3,127.3,1992.7z"/>
	<g id="Shield_2">
		<path class="st38" d="M87.7,1949.4h-0.1c-2.9-0.3-8.6-1.3-14.2-5.1c-3.2-2.2-5.4-4.7-6.8-6.6h-2.9h-2.9c-1.4,1.9-3.5,4.4-6.8,6.6
			c-5.6,3.9-11.3,4.8-14.2,5.1h-0.1c-3.7,0-7.4,0-11.2,0c-0.5,0-1,0.4-1,1l0.1,39.6c0,0.2,0,0.4,0.2,0.5c3.1,4.8,7.9,11,15,17.1
			c6.6,5.7,13.1,9.5,18.1,12c1,0,2,0,2.9,0s2,0,2.9,0c5-2.5,11.5-6.3,18.1-12c7-6.1,11.8-12.3,15-17.1c0.1-0.2,0.2-0.3,0.2-0.5
			l0.1-39.6c0-0.5-0.4-1-1-1C95.2,1949.4,91.5,1949.4,87.7,1949.4z"/>
		<path class="st29" d="M37.8,1994.7l22.7-43.7h7.1l22.7,43.7H78.4l-14.2-29.9L50,1994.7H37.8z M48.8,1987.7v-8h31.3v8H48.8z"/>
	</g>
</g>
<g id="Medal">
	<path class="st30" d="M90.5,2114.4C90.5,2114.4,90.1,2114.4,90.5,2114.4l-2,3.6c-1.2,2.5-4.3,4.3-7.7,4.3c-1.2,0-2.3-0.4-3.5-0.7
		l-3.5-1.8c0,0,0,0-0.4,0l-2.7,2.9c-0.8,0.7-1.6,1.1-2.3,1.5l19.8,27.4l3.9-15.9l17.8,2.9l-17.5-24.5L90.5,2114.4L90.5,2114.4z"/>
	<path class="st30" d="M35.8,2114.4L18.4,2139l17.8-2.9l3.9,15.9l19.8-27.4c-0.8-0.4-1.6-0.7-2.3-1.5l-2.7-2.9c0,0,0,0-0.4,0
		L51,2122c-1.2,0.4-2.3,0.7-3.5,0.7c-3.1,0-6.6-1.8-7.7-4.3l-1.6-3.6c0,0,0,0-0.4,0L35.8,2114.4L35.8,2114.4z"/>
	<g>
		<path class="st39" d="M64.1,2056.2c20.2,0,36.8,14.8,36.8,33.2c0-19.1-16.6-34.7-36.8-34.7s-36.8,15.5-36.8,34.7
			C27.7,2071,44,2056.2,64.1,2056.2z"/>
		<path class="st39" d="M64.1,2122.7c-20.2,0-36.8-15.1-36.8-33.2l0,0c0,19.1,16.6,34.7,36.8,34.7s36.8-15.5,36.8-34.7l0,0
			C101,2107.9,85.1,2122.7,64.1,2122.7z"/>
	</g>
	
		<linearGradient id="SVGID_00000155839571419347260780000007565873647692991416_" gradientUnits="userSpaceOnUse" x1="27.7021" y1="4962.6001" x2="101.1484" y2="4962.6001" gradientTransform="matrix(1 0 0 -1 0 7052)">
		<stop  offset="0.39" style="stop-color:#FFDE4A"/>
		<stop  offset="0.57" style="stop-color:#E8AD28"/>
	</linearGradient>
	<path style="fill:url(#SVGID_00000155839571419347260780000007565873647692991416_);" d="M64.1,2056.2c-20.2,0-36.8,15.1-36.8,33.2
		c0,18.5,16.6,33.2,36.8,33.2s36.8-15.1,36.8-33.2C101,2071,85.1,2056.2,64.1,2056.2z"/>
	
		<linearGradient id="SVGID_00000044858871602021846800000001278921256411009698_" gradientUnits="userSpaceOnUse" x1="18.2253" y1="4963.2637" x2="109.0312" y2="4963.2637" gradientTransform="matrix(1 0 0 -1 0 7052)">
		<stop  offset="0.45" style="stop-color:#FFDE4A"/>
		<stop  offset="0.57" style="stop-color:#E8AD28"/>
	</linearGradient>
	<path style="fill:url(#SVGID_00000044858871602021846800000001278921256411009698_);" d="M65.3,2053.3c-0.8,0.7-2.3,0.7-3.1,0
		l-5.4-3.2c-0.8-0.4-1.6-0.4-2,0.4l-3.5,5.1c-0.4,0.7-2,1.1-3.1,1.1l-6.2-1.5c-0.8-0.4-1.6,0.4-2,0.7l-1.6,5.8
		c-0.4,1.1-1.2,1.8-2.3,1.8l-6.6,0.4c-0.8,0-1.6,0.7-1.2,1.5l0.8,5.8c0,1.1-0.4,2.1-1.6,2.5l-5.8,2.1c-0.8,0.4-1.2,1.1-0.8,1.8
		l2.7,5.4c0.4,0.7,0.4,2.1-0.4,2.9l-4.7,3.6c-0.8,0.4-0.8,1.5,0,1.8l4.7,3.6c0.8,0.7,1.2,1.8,0.4,2.9l-2.7,5.4
		c-0.4,0.7,0,1.5,0.8,1.8l5.8,2.1c0.8,0.4,1.6,1.5,1.6,2.5l-0.8,5.8c0,0.7,0.4,1.5,1.2,1.5l6.6,0.4c1.2,0,2.3,0.7,2.3,1.8l1.6,5.8
		c0.4,0.7,1.2,1.1,2,0.7l6.2-1.5c1.2-0.4,2.3,0,3.1,1.1l3.5,3.6c0.4,0.7,1.6,0.7,2,0.4l5.4-3.2c0.8-0.7,2.3-0.7,3.1,0l5.4,3.2
		c0.8,0.4,1.6,0.4,2-0.4l3.5-5.1c0.4-0.7,2-1.1,3.1-1.1l6.2,1.5c0.8,0.4,1.6-0.4,2-1.1l1.6-5.8c0.4-1.1,1.2-1.8,2.3-1.8l6.6-0.4
		c0.8,0,1.6-0.7,1.2-1.5l-0.8-5.8c0-1.1,0.4-2.1,1.6-2.5l6.2-2.1c0.8-0.4,1.2-1.1,0.8-1.8l-2.7-5.4c-0.4-0.7-0.4-2.1,0.4-2.9
		l4.3-3.6c0.4-0.4,0.4-1.5,0-1.8l-4.3-3.6c-0.8-0.7-1.2-1.8-0.4-2.9l2.7-5.4c0.4-0.7,0-1.5-0.8-1.8l-6.2-2.1
		c-0.8-0.4-1.6-1.5-1.6-2.5l0.8-5.8c0-0.7-0.4-1.5-1.2-1.5l-6.6-0.4c-1.2,0-2-0.7-2.3-1.8l-1.6-5.8c0-0.7-1.2-1.1-2-0.7l-6.2,1.5
		c-1.2,0.4-2.3,0-3.1-1.1l-3.5-5.1c-0.4-0.7-1.6-0.7-2-0.4L65.3,2053.3L65.3,2053.3z M102.2,2089.4c0,19.1-17,34.7-38,34.7
		s-38-15.5-38-34.7s17-34.7,38-34.7S102.2,2070.3,102.2,2089.4L102.2,2089.4z"/>
	<polygon class="st42" points="76.5,2108.2 63.4,2101.8 50.6,2107.9 53,2094.5 42.5,2084.8 57.2,2083.3 63.4,2071.4 70,2083.3 
		84.7,2085.4 73.9,2094.5 	"/>
</g>
<path id="White_letter" class="st29" d="M109,2176H19.4c-4.3,0-7.4,3.4-7.4,6.9v58.3c0,3.8,3.2,6.9,7.1,6.9h89.8
	c3.9,0,7.1-3.1,7.1-6.9V2183C116.1,2179.2,112.9,2176,109,2176z M112.5,2238.5l-26.2-23.8l26.3-25.6v48.9
	C112.5,2238.2,112.5,2238.4,112.5,2238.5z M22.6,2179.8h82.8c3.3,0,6.1,2.2,6.9,5.2l-47.1,45.5l0,0c-0.1,0.1-0.2,0.2-0.3,0.3
	l-0.7,0.7c-0.2,0.2-0.3,0.3-0.4,0.4c-0.2,0.1-0.4,0.1-0.7,0.1s-0.4,0-0.6-0.1c-0.2-0.1-0.3-0.2-0.4-0.3c-0.2-0.2-0.4-0.4-0.5-0.5
	s-0.4-0.4-0.5-0.6l0,0c-7.9-8.4-44-45-45.1-46.4C17.1,2181.5,19.4,2179.8,22.6,2179.8z M15.2,2237.3v-49.5l25.5,26.2l-25.1,25.3
	C15.4,2238.8,15.2,2238.1,15.2,2237.3z M105.4,2244.6H22.6c-0.4,0-2.8,0-5.4-2c0,0,0-0.1-0.1-0.1l25.9-25.8l16.3,16.8
	c0.7,0.9,2.3,1.6,3.7,1.6c1.3,0,2.6-0.5,3.4-1.2l0,0l17.3-16.8c9.3,8.1,18.2,16.5,27.1,24.8l0.1,0.1
	C109.9,2243.6,107.8,2244.6,105.4,2244.6z"/>
<g id="Shield">
	
		<linearGradient id="SVGID_00000107548603534651674590000003514281042883551419_" gradientUnits="userSpaceOnUse" x1="8.9257" y1="4689.7847" x2="119.0093" y2="4690.3149" gradientTransform="matrix(1 0 0 -1 0 7052)">
		<stop  offset="0.45" style="stop-color:#FFCB03"/>
		<stop  offset="0.55" style="stop-color:#D99900"/>
	</linearGradient>
	
		<path style="fill:url(#SVGID_00000107548603534651674590000003514281042883551419_);stroke:#F76400;stroke-width:0.5;stroke-miterlimit:10;" d="
		M100.2,2321.3L100.2,2321.3c-4.3-0.4-12.9-1.9-21.5-7.2c-4.7-2.9-8.2-6.5-10.2-9.1h-9c-2,2.5-5.5,6.2-10.2,9.1
		c-8.6,5.5-17.2,6.9-21.5,7.2l0,0c-5.9,0-11.4,0-17.2,0c-0.8,0-1.6,0.7-1.6,1.1v55.2c0,0.4,0,0.4,0.4,0.7
		c4.7,6.9,12.1,15.2,22.7,23.9c10.2,8,20,13.1,27.4,16.7h9c7.8-3.2,17.6-8.7,27.4-16.7c10.6-8.3,18-17.1,22.7-23.9
		c0-0.4,0.4-0.4,0.4-0.7v-55.2c0-0.7-0.8-1.1-1.6-1.1C111.6,2321.3,106.1,2321.3,100.2,2321.3L100.2,2321.3z"/>
	<g>
		<g class="st18">
			<path class="st29" d="M63.8,2365.7l21.1-34.5h9.4v51.9h-9.7v-38.9l0.4,2.1l-18,29.4h-7L42,2347l0.4-2.9v38.9H33v-51.9h9.4
				L63.8,2365.7z"/>
		</g>
	</g>
</g>
<g id="Share">
	<path class="st6" d="M103,2432c-12.8,0-23,9.3-23,21.1s10.1,21.1,23,21.1s23-9.3,23-21.1C125.6,2441.3,115.5,2432,103,2432z
		 M103,2466c-7.8,0-14.4-5.8-14.4-13.3s6.3-13.3,14.4-13.3s14.4,5.8,14.4,13.3C117.4,2460.4,110.8,2466,103,2466z"/>
	<path class="st6" d="M25,2467.7c-12.8,0-23,9.3-23,21.1s10.1,21.1,23,21.1s23-9.3,23-21.1S37.8,2467.7,25,2467.7L25,2467.7z
		 M25,2501.3c-7.8,0-14.4-5.8-14.4-13.3s6.3-13.3,14.4-13.3s14.4,5.8,14.4,13.3S32.7,2501.3,25,2501.3z"/>
	<path class="st6" d="M103,2503.7c-12.8,0-23,9.3-23,21.1s10.1,21.1,23,21.1s23-9.3,23-21.1S115.5,2503.7,103,2503.7z M103,2537.7
		c-7.8,0-14.4-5.8-14.4-13.3s6.3-13.3,14.4-13.3s14.4,5.8,14.4,13.3C117.4,2532,110.8,2537.7,103,2537.7z"/>
	<polygon class="st6" points="83.7,2522.6 40.5,2501.1 45.2,2492.4 88.4,2514 	"/>
	<polygon class="st6" points="40.5,2477.3 83.8,2455.7 88.5,2464.3 45.3,2485.9 	"/>
</g>
<g id="Telezka">
	<rect x="50.5" y="2635.7" class="st29" width="8.7" height="5.1"/>
	<rect x="96.9" y="2635.7" class="st29" width="8.7" height="5.1"/>
	<ellipse class="st29" cx="54.8" cy="2648.6" rx="10.3" ry="9.4"/>
	<ellipse class="st29" cx="101.6" cy="2648.6" rx="10.3" ry="9.4"/>
	<path class="st29" d="M33,2579.6l-3.1-13.7l-0.4-1.9c-0.3-1.2-0.6-2.6-0.9-3.8c-9-0.1-18.2-0.2-27.2-0.2v6c7.3,0,14.8,0,22.1,0
		c1,4.6,2.1,9.1,3.1,13.7l12.2,56.2h73.5l13-56.2H33V2579.6z M105.4,2632.3H47.3v-11.1h58.1C105.4,2621.2,105.4,2632.3,105.4,2632.3
		z"/>
</g>
<g id="Facebook">
	<g id="Dribbble-Light-Preview">
		<g id="icons">
			<path id="facebook-_176_" class="st44" d="M73.4,2784c0.1-16.5,0.5-33.4,0.6-49.6l14.6,0.1l2.4-16.9l-17.3-0.1v-8.3
				c0-4.3,0-8.6,7.9-8.6h7.8l0.1-11.9c0,0-6.7-0.8-13.4-0.8c-14.2-0.1-23.3,7.1-23.3,19.7v9.7l-15.7-0.1l-0.1,16.9l15.8,0.1
				c-0.1,16.5,0.3,33.4,0.2,49.6C59.7,2783.6,66.4,2783.6,73.4,2784L73.4,2784z"/>
		</g>
	</g>
</g>
<path id="Google" class="st29" d="M104.1,2847.1H64.8v14.1h23c-0.5,3.5-3,8.8-8.5,12.3l0,0c-13,8.1-33.1,2.9-38.3-12l0,0
	c-8.2-24.1,22.5-39.9,40-25.1l11.8-10.5c-24.8-21.4-69.4-6.2-69.8,28.1c0.3,34.1,44.7,49.2,69.5,28.8l0,0l0,0
	C102.2,2875.1,107.2,2859.9,104.1,2847.1z"/>
<g id="Table">
	<g id="Full_view">
		<rect x="15" y="2974.7" class="st45" width="45.3" height="53.3"/>
		<rect x="67.7" y="2974.7" class="st45" width="45.3" height="53.3"/>
		<rect x="15" y="2944" class="st45" width="97.7" height="22.4"/>
	</g>
</g>
<g id="Full">
	<g id="Table_view">
		<rect x="39.7" y="3072" class="st46" width="73.3" height="15.1"/>
		<rect x="39.7" y="3098.2" class="st46" width="73.3" height="15.1"/>
		<rect x="39.7" y="3124.6" class="st46" width="73.3" height="15.1"/>
		<rect x="39.7" y="3150.9" class="st46" width="73.3" height="15.1"/>
		<rect x="15" y="3072" class="st46" width="16.4" height="15.1"/>
		<rect x="15" y="3150.9" class="st46" width="16.4" height="15.1"/>
		<rect x="15" y="3124.6" class="st46" width="16.4" height="15.1"/>
		<rect x="15" y="3098.2" class="st46" width="16.4" height="15.1"/>
	</g>
</g>
<g id="Thangnail">
	<g id="Thangnail_view">
		<rect x="83.3" y="3259.7" class="st46" width="27.7" height="26.3"/>
		<rect x="17" y="3229.9" class="st46" width="27.7" height="26.3"/>
		<rect x="17" y="3259.7" class="st46" width="27.7" height="26.3"/>
		<rect x="83.3" y="3200" class="st46" width="27.7" height="26.3"/>
		<rect x="83.3" y="3229.9" class="st46" width="27.7" height="26.3"/>
		<rect x="48.1" y="3229.9" class="st46" width="31.1" height="26.6"/>
		<rect x="48.1" y="3259.7" class="st46" width="31.1" height="26.3"/>
		<rect x="17" y="3200" class="st46" width="27.7" height="26.3"/>
		<rect x="48.1" y="3200" class="st46" width="31.1" height="26.3"/>
	</g>
</g>
<g id="Translate">
	<path class="st47" d="M64.4,3336.1c-12.7-2-25.4-4.3-38.5-6.6c0,6.9,0,14,0,20.9C38.2,3345.8,51.3,3341.2,64.4,3336.1L64.4,3336.1z
		"/>
	<polygon class="st29" points="17,3348.6 64.4,3336.1 64.4,3394 17,3407.8 	"/>
	<path class="st47" d="M17,3348.4v59.4l47.4-14V3336L17,3348.4z M63.4,3393L18,3406.4v-56.9l45.4-11.9V3393z"/>
	<path class="st29" d="M64.4,3336.1l36-8.1v21.7L64.4,3336.1L64.4,3336.1z"/>
	<polygon class="st47" points="63.4,3336.2 64.6,3336.6 99.3,3329.2 99.3,3349.3 74,3340.1 100.4,3349.9 100.4,3328 	"/>
	<polygon class="st47" points="64.4,3336.1 111,3345.8 111,3407.8 64.4,3394 	"/>
	<path class="st29" d="M69.5,3388.5c4.7-15.8,7.6-23.7,12.3-40.3c3.8,0.8,5.9,1.2,9.7,2c4.7,19,7.6,28.7,12.3,48.8
		c-3.4-0.8-5.1-1.6-8.9-2.3c-3.4-14.4-4.7-21.7-8.4-36.5h-0.4c-3.4,12.8-4.7,19-8.4,31C75,3390,72.9,3389.6,69.5,3388.5L69.5,3388.5
		z M76.3,3381.9v-7.3c8.9,2.3,13.1,3.1,22.1,5.8v7.7C89.4,3385.4,85.1,3384.3,76.3,3381.9z"/>
	<g>
		<path class="st47" d="M44.5,3374.2c-0.4-0.4-0.9-1.2-0.4-2c2.9-5.8,6.4-12,7.6-17.4c0-0.1,0-0.7-0.4-1.1c-0.6-0.6-1.6-0.4-1.6-0.4
			c-3.8,0.9-7.7,1.8-11.7,2.8c-3.5,0.8-7,1.7-11.7,3.1v3.1c0.5-0.1,1.1-0.3,1.6-0.4l-1.6,0.4v1.5l1.7-0.4v-1.5
			c6.8-1.7,10.3-2.5,17.7-4.3c0.9-0.4,1.7,0.8,1.3,2c-4.2,11.3-24.6,33.8-24.6,36.5c0,0.2,0,0.6,0.3,1.1c0.5,0.9,1.7,0.9,1.8,0.9
			c8.7-10.9,15.1-18.7,15.7-19.8c0.4-0.8,1.3-1.2,2.2-0.8c4.2,3.1,10.6,8.1,14,11.6c1.2,0.3,2.5-0.2,2.9-1.1c0.4-1-0.3-2-0.3-2
			C55.5,3382.3,49.1,3377.6,44.5,3374.2z"/>
		<path class="st47" d="M39.4,3353.3c2.5-0.8,5.1-2,5.1-2.7c0-0.8-2.5-0.8-5.1,0c-2.5,0.8-5.1,2-5.1,2.7
			C34.3,3354,36.5,3354,39.4,3353.3z"/>
	</g>
	<path class="st47" d="M82.9,3401.5l-16.3,7.4l6.8,3.5c-2.9,2-7,3.9-11.8,3.9c-4.8,0.1-8.9-1.7-10.4-2.3c-4.2-1.8-7.1-4.4-8.8-5.8
		c-1.4-1.3-2.5-2.5-3.2-3.4c-0.4,0.5-0.9,0.9-1.3,1.4c0.1,0.2,11.8,14.6,27.4,11.4c3.1-0.6,6.4-2,9.7-4.3l6.9,3.5L82.9,3401.5z"/>
</g>
<g id="Store">
	<path class="st45" d="M115.9,3483.6c-0.1-4.1-0.3-7.4-0.5-9.7c-2-2.5-4.1-4.9-6.3-7.4c-3.2-3.6-6.3-7.1-9.4-10.4
		c-23.8,0-47.7,0-71.5,0.1c-3,3.3-6,6.7-9,10.1c-2.3,2.6-4.6,5.3-6.9,7.9c-0.1,2.7-0.5,10,0,16.6c0.1,1.4,0.3,3.4,1.4,5.6
		c1.2,2.3,2.8,3.7,3.8,4.4c0.8,0.6,1.8,1.2,3,1.8c1.5,0.7,2.8,1.1,3.9,1.4c0.2,0,0.5,0,0.7,0.1v42.4c0,1.8,0,3.7,0,5.5h78.7v-5.5
		v-42.6c1-0.2,2.2-0.5,3.5-1.1c1.4-0.6,2.5-1.3,3.3-2c4-3,4.9-8.2,5.2-10C116,3489.9,116.1,3488.8,115.9,3483.6z M43.3,3486.2h17.3
		v4.5c0,4.2-3.9,7.5-8.6,7.5s-8.6-3.4-8.6-7.5v-4.5H43.3z M44.5,3480.2l4.8-16.3c3.8,0,7.5,0,11.3,0v16.3H44.5z M67.5,3486.2h17.3
		v4.5c0,4.2-3.9,7.5-8.6,7.5c-4.8,0-8.6-3.4-8.6-7.5v-4.5H67.5z M67.5,3480.2v-16.3c3.9,0,7.8,0,11.6,0l4.8,16.3H67.5z M19.1,3474.2
		l9-10.3c4.6,0,9.3,0,13.9,0l-4.8,16.3H19.1V3474.2z M19.1,3490.7v-4.5h17.3v4.5c0,4.2-3.9,7.5-8.6,7.5
		C23,3498.3,19.1,3494.9,19.1,3490.7z M30.9,3546.4V3504c3.6-0.6,6.7-2.3,9-4.7c2.9,3.1,7.2,5,12.1,5s9.2-2,12.1-5
		c2.9,3.1,7.2,5,12.1,5s9.2-2,12.1-5c2.4,2.6,5.8,4.3,9.7,4.8v42.4L30.9,3546.4z M108.9,3490.7c0,4.2-3.9,7.5-8.6,7.5
		c-4.8,0-8.6-3.4-8.6-7.5v-4.5H109L108.9,3490.7L108.9,3490.7z M108.9,3480.2H91.1l-4.8-16.3c4.5,0,8.9,0,13.4,0
		c3.1,3.4,6.1,6.9,9.2,10.3C108.9,3474.2,108.9,3480.2,108.9,3480.2z"/>
	<path class="st45" d="M67.5,3519.9v-5.7c2.8-0.2,9.6,1.3,9.5-3.4c0.1-4.7-6.7-3.2-9.5-3.4c0-0.3,0-3.1,0-3.3
		c-0.6-1.3-2-2.2-3.5-2.2s-2.8,0.9-3.4,2.2c0,1.1,0,2.2,0,3.4c-12.3,0.2-12.3,19.2,0,19.5v5.7c-2.8,0.2-9.6-1.3-9.5,3.4
		c-0.1,4.7,6.7,3.2,9.5,3.4c-1.3,8.5,8.2,8.5,6.9,0l0,0v-0.1C79.8,3539.1,79.8,3520.1,67.5,3519.9z M58,3517c0-1.5,1.1-2.6,2.6-2.8
		v5.6C59.1,3519.6,58,3518.5,58,3517z M67.5,3532.4v-5.6c1.4,0.2,2.6,1.3,2.6,2.8C70.1,3531.1,68.9,3532.3,67.5,3532.4z"/>
</g>
<g id="Team">
	<g>
		<path class="st45" d="M97.3,3650.9H109v-18.3c-0.4-1.1-1.2-5-4.7-7.5c-4.3-3.6-9.8-3.6-11-3.6H80.9v7.1c2.7,1.8,6.7,4.3,9.8,9
			C95,3642.6,96.5,3647.7,97.3,3650.9z"/>
		<path class="st45" d="M81.3,3584.6c-7,1.5-12.1,6.8-12.9,12.5c6.7,1.1,11.7,5.8,13.3,11.4c0.4,1.8,0.4,3.2,0,5
			c2,0.4,3.9,0.4,6.3,0c9-1.8,14.5-9.7,12.5-18C98.1,3587.4,90.3,3582.8,81.3,3584.6z"/>
	</g>
	<g>
		<path class="st45" d="M30.8,3650.9H19v-18.3c0.4-1.1,1.2-5,4.7-7.5c4.3-3.6,9.8-3.6,11-3.6h12.5v7.1c-2.7,1.8-6.7,4.3-9.8,9
			C33.1,3642.6,31.6,3647.7,30.8,3650.9z"/>
		<path class="st45" d="M48,3584.6c7,1.8,11.4,7.5,11.7,13.3c-6.7,0.7-12.1,5-14.1,10.7c-0.4,1.8-0.4,3.2-0.4,5c-2,0-3.9,0-6.3-0.4
			c-9-2.1-13.7-10.4-11.4-18.7S39.4,3582.5,48,3584.6L48,3584.6z"/>
	</g>
	<g>
		<ellipse class="st45" cx="63.7" cy="3614.9" rx="16.4" ry="15"/>
		<path class="st45" d="M85.6,3636.2c-4.3-3.6-10.2-3.2-11.4-3.2H52.7c-0.8,0-6.7-0.4-11.4,3.2c-3.5,2.8-3.9,7.1-4.3,7.9v21.9h52.5
			v-21.9C89.9,3643,89.5,3639.4,85.6,3636.2L85.6,3636.2z"/>
	</g>
</g>
<g id="Skrill">
	<rect x="28" y="3712" class="st48" width="72" height="64"/>
	<path class="st29" d="M63.9,3737.6c-1.6,0-6-0.4-6-3.5c0-3.9,6-3.9,8-3.9c3.6,0,8.8,1.1,12.4,1.8c0,0,2,0.7,3.6,1.1l0,0v-10.6l0,0
		c-4-1.1-9.2-2.5-18.4-2.5c-16,0-21.1,8.2-21.1,15.3c0,3.9,2,13.2,20,14.5c1.6,0,5.6,0.4,5.6,3.5c0,2.8-3.2,4.3-8.8,4.3
		c-6.4,0-11.9-1.5-15.6-2.5v11c5.6,1.1,11.2,1.8,18.4,1.8c15.6,0,22-7.8,22-15.3C84.4,3744,76.7,3738.3,63.9,3737.6"/>
</g>
<g id="PayPal">
	<path class="st49" d="M93.9,3847.5c-4.6-5.3-13-7.5-23.8-7.5H38.9c-2.2,0-4.1,1.6-4.4,3.8l-13,82.1c-0.3,1.6,1,3.1,2.6,3.1h19.2
		l4.8-30.6l-0.1,1c0.3-2.2,2.2-3.8,4.4-3.8h9.1c18,0,32-7.3,36.1-28.3c0.1-0.6,0.2-1.2,0.3-1.8c-0.5-0.3-0.5-0.3,0,0
		C99.3,3857.6,98.1,3852.3,93.9,3847.5"/>
	<path class="st49" d="M55.6,3862.6c0.5-0.2,1.1-0.4,1.7-0.4h24.4c2.9,0,5.6,0.2,8.1,0.6c0.7,0.1,1.4,0.2,2.1,0.4
		c0.7,0.1,1.3,0.3,1.9,0.5c0.3,0.1,0.6,0.2,0.9,0.3c1.2,0.4,2.3,0.9,3.4,1.4c1.2-7.8,0-13.1-4.2-17.9c-4.6-5.3-13-7.5-23.8-7.5H38.9
		c-2.2,0-4.1,1.6-4.4,3.8l-13,82.1c-0.3,1.6,1,3.1,2.6,3.1h19.2l10-63.4C53.7,3864.2,54.5,3863.1,55.6,3862.6z"/>
	<path class="st50" d="M97.8,3867.2c-4.1,21-18.2,28.3-36.1,28.3h-9.1c-2.2,0-4,1.6-4.4,3.8l-6,38c-0.2,1.4,0.9,2.7,2.3,2.7h16.2
		c1.9,0,3.6-1.4,3.9-3.3l0.2-0.8l3.1-19.3l0.2-1.1c0.3-1.9,1.9-3.3,3.9-3.3h2.4c15.7,0,28-6.4,31.6-24.8c1.5-7.7,0.7-14.1-3.2-18.6
		c-1.2-1.4-2.7-2.5-4.4-3.4C98,3866,97.9,3866.6,97.8,3867.2L97.8,3867.2z"/>
	<path class="st51" d="M93.8,3863.7c-0.6-0.2-1.3-0.3-1.9-0.5c-0.7-0.1-1.4-0.3-2.1-0.4c-2.5-0.4-5.2-0.6-8.1-0.6H57.3
		c-0.6,0-1.2,0.1-1.7,0.4c-1.1,0.5-2,1.6-2.2,2.9l-5.2,32.8l-0.1,1c0.3-2.2,2.2-3.8,4.4-3.8h9.1c18,0,32-7.3,36.1-28.3
		c0.1-0.6,0.2-1.2,0.3-1.8c-1-0.5-2.2-1-3.4-1.4C94.4,3863.9,94.1,3863.8,93.8,3863.7"/>
</g>
<g id="User">
	<path class="st29" d="M61.9,3968h3.5c16.1,0,28.7,11.9,28.7,26.4v3.2c0,14.7-12.9,26.4-28.7,26.4h-3.5c-16.1,0-28.7-11.9-28.7-26.4
		v-3.2C33.6,3979.5,46.2,3968,61.9,3968z"/>
	<path class="st29" d="M107.5,4029.7c-4.7-2.5-9.4-3.2-11.4-3.2c-5.5-0.4-11.4,2.1-14.5,5.1c-0.8,0.7-1.6,1.8-3.1,2.5
		c-2.7,1.5-6.7,2.1-6.7,2.1c-1.5,0.4-4.6,0.7-7.6,0.7s-5.7-0.4-7.6-0.7c0,0-3.9-0.7-6.7-2.1c-1.6-0.7-2.3-1.8-3.1-2.5
		c-3.1-2.9-9-5.4-14.5-5.1c-2,0-7,0.7-11.4,3.2c-4.7,2.5-7,6.2-8.2,7.9c-1.8,4.1-4.1,10.7-4.3,19c-0.3,9.8,2.4,17.4,4.3,21.8
		c0.3,0.6,0.7,1.4,1.2,2.1c0.6,0.8,1.5,1.8,2.7,2.9c2,1.5,3.5,2.1,4.7,2.5c16.3,0.1,29.7,0.1,39.4,0.1c0,0,16.2,0,46.6-0.1
		c1.2-0.4,2.7-1.1,4.7-2.5c2.3-2.1,3.5-4,3.9-5.1c1.9-4.1,4.4-11.3,4.4-20.5c0-9-2.5-16.1-4.4-20.3
		C114.6,4035.8,112.2,4032.3,107.5,4029.7z"/>
</g>
</svg>
