<svg version="1.1" id="Слой_1" xmlns="http://www.w3.org/2000/svg" x="0" y="0" viewBox="0 0 135 40" style="enable-background:new 0 0 135 40" xml:space="preserve"><style>.st1{fill:#fff}</style><path d="M130 40H5a5 5 0 0 1-5-5V5a5 5 0 0 1 5-5h125a5 5 0 0 1 5 5v30a5 5 0 0 1-5 5"/><path d="M130 .8c2.3 0 4.2 1.9 4.2 4.2v30c0 2.3-1.9 4.2-4.2 4.2H5A4.2 4.2 0 0 1 .8 35V5C.8 2.7 2.7.8 5 .8h125zm0-.8H5a5 5 0 0 0-5 5v30a5 5 0 0 0 5 5h125a5 5 0 0 0 5-5V5a5 5 0 0 0-5-5" style="fill:#a6a6a6"/><path class="st1" d="M68.1 21.8a4.2 4.2 0 0 0-4.3 4.3c0 2.4 1.9 4.3 4.3 4.3s4.3-1.8 4.3-4.3c0-2.6-1.9-4.3-4.3-4.3m0 6.8c-1.3 0-2.4-1.1-2.4-2.6s1.1-2.6 2.4-2.6 2.4 1 2.4 2.6c0 1.5-1.1 2.6-2.4 2.6m-9.3-6.8a4.2 4.2 0 0 0-4.3 4.3c0 2.4 1.9 4.3 4.3 4.3s4.3-1.8 4.3-4.3c0-2.6-1.9-4.3-4.3-4.3m0 6.8c-1.3 0-2.4-1.1-2.4-2.6s1.1-2.6 2.4-2.6c1.3 0 2.4 1 2.4 2.6 0 1.5-1.1 2.6-2.4 2.6m-11.1-5.5v1.8H52c-.1 1-.5 1.8-1 2.3-.6.6-1.6 1.3-3.3 1.3a4.7 4.7 0 0 1-4.7-4.8 4.7 4.7 0 0 1 8-3.5l1.3-1.3a6.4 6.4 0 0 0-4.5-1.8c-3.6 0-6.7 3-6.7 6.6s3.1 6.6 6.7 6.6a6 6 0 0 0 6.2-6.1l-.1-1.1h-6.2zm45.4 1.4c-.4-1-1.4-2.7-3.6-2.7s-4 1.7-4 4.3c0 2.4 1.8 4.3 4.2 4.3 1.9 0 3.1-1.2 3.5-1.9l-1.5-1c-.5.7-1.1 1.2-2.1 1.2s-1.6-.4-2.1-1.3l5.7-2.4-.1-.5zm-5.8 1.4c0-1.6 1.3-2.5 2.2-2.5.7 0 1.4.4 1.6.9l-3.8 1.6zM82.6 30h1.9V17.5h-1.9V30zm-3-7.3c-.5-.5-1.3-.9-2.3-.9a4.3 4.3 0 0 0-4.1 4.3c0 2.4 1.9 4.2 4.1 4.2 1 0 1.8-.5 2.2-1h.1v.6c0 1.6-.9 2.5-2.3 2.5-1.1 0-1.9-.8-2.1-1.5l-1.6.7a4.1 4.1 0 0 0 3.8 2.5c2.2 0 4-1.3 4-4.4V22h-1.8v.7zm-2.2 5.9c-1.3 0-2.4-1.1-2.4-2.6s1.1-2.6 2.4-2.6c1.3 0 2.3 1.1 2.3 2.6s-1 2.6-2.3 2.6m24.4-11.1h-4.5V30h1.9v-4.7h2.6c2.1 0 4.1-1.5 4.1-3.9s-2-3.9-4.1-3.9m.1 6h-2.7v-4.3h2.7c1.4 0 2.2 1.2 2.2 2.1-.1 1.1-.9 2.2-2.2 2.2m11.5-1.8c-1.4 0-2.8.6-3.3 1.9l1.7.7c.4-.7 1-.9 1.7-.9 1 0 1.9.6 2 1.6v.1a4 4 0 0 0-1.9-.5c-1.8 0-3.6 1-3.6 2.8 0 1.7 1.5 2.8 3.1 2.8 1.3 0 1.9-.6 2.4-1.2h.1v1h1.8v-4.8c-.2-2.2-1.9-3.5-4-3.5m-.2 6.9c-.6 0-1.5-.3-1.5-1.1 0-1 1.1-1.3 2-1.3.8 0 1.2.2 1.7.4-.2 1.2-1.2 2-2.2 2m10.5-6.6-2.1 5.4h-.1l-2.2-5.4h-2l3.3 7.6-1.9 4.2h1.9l5.1-11.8h-2zm-16.8 8h1.9V17.5h-1.9V30z"/><path d="M20.7 19.4 10.1 30.7a2.8 2.8 0 0 0 2.8 2.1c.5 0 1-.1 1.5-.4l12-6.9-5.7-6.1z" style="fill:#ea4335"/><path d="m31.5 17.5-5.2-3-5.8 5.2 5.8 5.8 5.1-3c.9-.5 1.5-1.4 1.5-2.5.1-1.1-.5-2-1.4-2.5" style="fill:#fbbc04"/><path d="m10.1 9.3-.1.7v20l.1.7 11-11-11-10.4z" style="fill:#4285f4"/><path d="m20.8 20 5.5-5.5-12-6.9c-.4-.3-.9-.4-1.5-.4A3 3 0 0 0 10 9.3L20.8 20z" style="fill:#34a853"/><path class="st1" d="M41.3 12.1V6h2.3l1.1.2c.3.1.5.3.7.6s.2.5.2.8l-.2.7-.6.6c.4.1.7.3.8.6l.3.9-.2.8-.4.6c-.1.2-.5.2-.7.2l-1 .1h-2.3zm.8-3.5h1.3l.8-.1.5-.3.2-.5-.1-.5c-.1-.2-.2-.3-.4-.3l-.9-.1h-1.2v1.8zm0 2.8h2l.5-.2.3-.3.1-.5-.2-.6-.5-.4-.9-.1H42v2.1zM50.7 6h.8v3.5l-.2 1.5c-.1.4-.4.7-.7.9-.4.2-.8.3-1.4.3-.6 0-1-.1-1.4-.3s-.6-.5-.8-.9c-.2-.4-.2-.9-.2-1.5V6h.8v3.5l.1 1.2c.1.3.3.4.5.6l.9.2c.6 0 1-.1 1.3-.4.3-.3.4-.8.4-1.5V6zm2 6.1V6h2.7l1.2.2.7.6.3.9c0 .4-.1.8-.4 1.1-.3.3-.7.5-1.3.6l.5.3.7.8 1.1 1.7h-1l-.8-1.3-.6-.8-.4-.4-.4-.2h-1.3v2.7h-1zm.8-3.4h1.7l.9-.1.5-.4.2-.5a1 1 0 0 0-.3-.7c-.2-.2-.5-.3-1-.3h-1.9v2z"/><path class="st1" d="M57.9 12.1 60.2 6h.9l2.5 6.1h-.9l-.7-1.8h-2.5l-.7 1.8h-.9zm1.7-2.5h2.1L61.1 8l-.4-1.3-.3 1.2-.8 1.7zm4.4 2.5V6h2.1l1.1.1.9.4c.3.3.6.6.7 1l.2 1.6-.2 1.2c-.1.4-.2.7-.4.9l-.6.6-.7.3-1 .1H64zm.8-.7h1.3l.9-.1.5-.3.4-.8.2-1.2c0-.6-.1-1.1-.3-1.5s-.4-.5-.7-.6l-1-.1h-1.3v4.6zm4.4.7L71.6 6h.9l2.5 6.1h-1l-.7-1.8h-2.5l-.7 1.8h-.9zM71 9.6h2.1L72.4 8 72 6.7l-.3 1.2-.7 1.7zM82.4 9c0 .9-.2 1.7-.7 2.3-.5.6-1.2.9-2.1.9-1 0-1.7-.3-2.1-.9-.5-.6-.7-1.3-.7-2.3v-.4h4.7a2 2 0 0 0-.5-1.4c-.3-.4-.8-.5-1.4-.5-.9 0-1.4.4-1.7 1.3l-.8-.2c.2-.6.5-1 .9-1.3.4-.3.9-.4 1.5-.4s1.1.1 1.5.4c.5.3.8.7 1 1.2.3.2.4.7.4 1.3zm-.9.4h-3.9c0 .7.2 1.2.6 1.6.3.4.8.6 1.4.6.6 0 1-.2 1.4-.6.3-.4.5-1 .5-1.6zm1.7 2.7V6h.8v5.4h3v.7h-3.8zm4.5 0V6h2.1l1.1.1.9.4c.3.3.6.6.7 1l.2 1.4-.2 1.2c-.1.4-.2.7-.4.9l-.6.6-.7.3-1 .1h-2.1zm.8-.7h1.3l.9-.1.5-.3.4-.8.2-1.2c0-.6-.1-1.1-.3-1.5s-.4-.5-.7-.6l-1-.1h-1.3v4.6zM99 9c0 .9-.2 1.7-.7 2.3-.5.6-1.2.9-2.1.9-1 0-1.7-.3-2.1-.9a4 4 0 0 1-.7-2.3v-.4h4.7a2 2 0 0 0-.5-1.4c-.3-.4-.8-.5-1.4-.5-.9 0-1.4.4-1.7 1.3l-.8-.2c.2-.6.5-1 .9-1.3.4-.3.9-.4 1.5-.4s1.1.1 1.5.4c.5.3.8.7 1 1.2.2.2.3.7.4 1.3zm-.9.4h-3.9c0 .7.2 1.2.6 1.6.3.4.8.6 1.4.6.6 0 1-.2 1.4-.6.3-.4.5-1 .5-1.6zm3.8 2.7V6h4.4v.7h-3.6v1.9h3.4v.7h-3.4v2.1h3.7v.7h-4.5zm5.4 0V6h2.1l1.1.1.9.4c.3.3.6.6.7 1l.2 1.4-.2 1.2c-.1.4-.2.7-.4.9l-.6.6-.7.3-1 .1h-2.1zm.9-.7h1.3l.9-.1.5-.3.4-.8.2-1.2c0-.6-.1-1.1-.3-1.5s-.5-.6-.8-.7l-1-.1h-1.3v4.7zm5.1-5.7v-1h.9v.9h-.9zm.1 6.4V6h.8v6.1h-.8zm2 0V6h.8l3.2 4.8V6h.8v6.1h-.8l-3.2-4.8v4.8h-.8zm6-3.5v-.9h.9v.9h-.9zm0 3.5v-.9h.9v.9h-.9z"/></svg>