<svg version="1.1" id="Слой_1" xmlns="http://www.w3.org/2000/svg" x="0" y="0" viewBox="0 0 135 40" style="enable-background:new 0 0 135 40" xml:space="preserve"><style>.st1{fill:#fff}</style><path d="M130 40H5a5 5 0 0 1-5-5V5a5 5 0 0 1 5-5h125a5 5 0 0 1 5 5v30a5 5 0 0 1-5 5"/><path d="M130 .8c2.3 0 4.2 1.9 4.2 4.2v30c0 2.3-1.9 4.2-4.2 4.2H5A4.2 4.2 0 0 1 .8 35V5C.8 2.7 2.7.8 5 .8h125zm0-.8H5a5 5 0 0 0-5 5v30a5 5 0 0 0 5 5h125a5 5 0 0 0 5-5V5a5 5 0 0 0-5-5" style="fill:#a6a6a6"/><path class="st1" d="M68.1 21.8a4.2 4.2 0 0 0-4.3 4.3c0 2.4 1.9 4.3 4.3 4.3s4.3-1.8 4.3-4.3c0-2.6-1.9-4.3-4.3-4.3m0 6.8c-1.3 0-2.4-1.1-2.4-2.6s1.1-2.6 2.4-2.6 2.4 1 2.4 2.6c0 1.5-1.1 2.6-2.4 2.6m-9.3-6.8a4.2 4.2 0 0 0-4.3 4.3c0 2.4 1.9 4.3 4.3 4.3s4.3-1.8 4.3-4.3c0-2.6-1.9-4.3-4.3-4.3m0 6.8c-1.3 0-2.4-1.1-2.4-2.6s1.1-2.6 2.4-2.6c1.3 0 2.4 1 2.4 2.6 0 1.5-1.1 2.6-2.4 2.6m-11.1-5.5v1.8H52c-.1 1-.5 1.8-1 2.3-.6.6-1.6 1.3-3.3 1.3a4.7 4.7 0 0 1-4.7-4.8 4.7 4.7 0 0 1 8-3.5l1.3-1.3a6.4 6.4 0 0 0-4.5-1.8c-3.6 0-6.7 3-6.7 6.6 0 3.6 3.1 6.6 6.7 6.6a6 6 0 0 0 6.2-6.1l-.1-1.1h-6.2zm45.4 1.4c-.4-1-1.4-2.7-3.6-2.7s-4 1.7-4 4.3c0 2.4 1.8 4.3 4.2 4.3 1.9 0 3.1-1.2 3.5-1.9l-1.5-1c-.5.7-1.1 1.2-2.1 1.2s-1.6-.4-2.1-1.3l5.7-2.4-.1-.5zm-5.8 1.4c0-1.6 1.3-2.5 2.2-2.5.7 0 1.4.4 1.6.9l-3.8 1.6zM82.6 30h1.9V17.5h-1.9V30zm-3-7.3c-.5-.5-1.3-1-2.3-1a4.3 4.3 0 0 0-4.1 4.3c0 2.4 1.9 4.2 4.1 4.2 1 0 1.8-.5 2.2-1h.1v.6c0 1.6-.9 2.5-2.3 2.5-1.1 0-1.9-.8-2.1-1.5l-1.6.7a4.1 4.1 0 0 0 3.8 2.5c2.2 0 4-1.3 4-4.4V22h-1.8v.7zm-2.2 5.9c-1.3 0-2.4-1.1-2.4-2.6s1.1-2.6 2.4-2.6c1.3 0 2.3 1.1 2.3 2.6s-1 2.6-2.3 2.6m24.4-11.1h-4.5V30h1.9v-4.7h2.6c2.1 0 4.1-1.5 4.1-3.9s-2-3.9-4.1-3.9m.1 6h-2.7v-4.3h2.7c1.4 0 2.2 1.2 2.2 2.1-.1 1.1-.9 2.2-2.2 2.2m11.5-1.8c-1.4 0-2.8.6-3.3 1.9l1.7.7c.4-.7 1-.9 1.7-.9 1 0 1.9.6 2 1.6v.1a4 4 0 0 0-1.9-.5c-1.8 0-3.6 1-3.6 2.8 0 1.7 1.5 2.8 3.1 2.8 1.3 0 1.9-.6 2.4-1.2h.1v1h1.8v-4.8c-.2-2.2-1.9-3.5-4-3.5m-.2 6.9c-.6 0-1.5-.3-1.5-1.1 0-1 1.1-1.3 2-1.3.8 0 1.2.2 1.7.4-.2 1.2-1.2 2-2.2 2m10.5-6.6-2.1 5.4h-.1l-2.2-5.4h-2l3.3 7.6-1.9 4.2h1.9l5.1-11.8h-2zm-16.8 8h1.9V17.5h-1.9V30z"/><path d="M20.7 19.4 10.1 30.7a2.8 2.8 0 0 0 2.8 2.1c.5 0 1-.1 1.5-.4l12-6.9-5.7-6.1z" style="fill:#ea4335"/><path d="m31.5 17.5-5.2-3-5.8 5.2 5.9 5.8 5.1-3a2.8 2.8 0 0 0 0-5" style="fill:#fbbc04"/><path d="m10.1 9.3-.1.7v20l.1.7 11-11-11-10.4z" style="fill:#4285f4"/><path d="m20.8 20 5.5-5.5-12-6.9c-.4-.3-.9-.4-1.5-.4A3 3 0 0 0 10 9.3L20.8 20z" style="fill:#34a853"/><path class="st1" d="M41.8 6.9h1v2.6h2.9V6.9h1v6.2h-1v-2.7h-2.9v2.7h-1V6.9zm6.4 0H52v.9h-2.8v1.7h2.5v.9h-2.5v1.7H52v.9h-3.8V6.9zm5.1 0h1.2l2.8 4.5h.1l-.1-1.2V6.9h1v6.2h-1l-2.9-4.8h-.1l.1 1.2v3.6h-1V6.9zm7.7.9h-1.7v-.9h4.5v.9H62v5.3h-1V7.8zm5.7-.9h1v6.2h-1V6.9z"/></svg>