<svg version="1.1" id="Слой_1" xmlns="http://www.w3.org/2000/svg" x="0" y="0" viewBox="0 0 135 40" style="enable-background:new 0 0 135 40" xml:space="preserve"><style>.st1{fill:#fff}</style><path d="M130 40H5a5 5 0 0 1-5-5V5a5 5 0 0 1 5-5h125a5 5 0 0 1 5 5v30a5 5 0 0 1-5 5"/><path d="M130 .8c2.3 0 4.2 1.9 4.2 4.2v30c0 2.3-1.9 4.2-4.2 4.2H5A4.2 4.2 0 0 1 .8 35V5C.8 2.7 2.7.8 5 .8h125zm0-.8H5a5 5 0 0 0-5 5v30a5 5 0 0 0 5 5h125a5 5 0 0 0 5-5V5a5 5 0 0 0-5-5" style="fill:#a6a6a6"/><path class="st1" d="M68.1 10.8a4.2 4.2 0 0 0-4.3 4.3c0 2.4 1.9 4.3 4.3 4.3s4.3-1.8 4.3-4.3c0-2.6-1.9-4.3-4.3-4.3m0 6.8c-1.3 0-2.4-1.1-2.4-2.6s1.1-2.6 2.4-2.6 2.4 1 2.4 2.6c0 1.5-1.1 2.6-2.4 2.6m-9.3-6.8a4.2 4.2 0 0 0-4.3 4.3c0 2.4 1.9 4.3 4.3 4.3s4.3-1.8 4.3-4.3c0-2.6-1.9-4.3-4.3-4.3m0 6.8c-1.3 0-2.4-1.1-2.4-2.6s1.1-2.6 2.4-2.6c1.3 0 2.4 1 2.4 2.6 0 1.5-1.1 2.6-2.4 2.6m-11.1-5.5v1.8H52c-.1 1-.5 1.8-1 2.3-.6.6-1.6 1.3-3.3 1.3a4.7 4.7 0 0 1-4.7-4.8 4.7 4.7 0 0 1 8-3.5l1.3-1.3a6.4 6.4 0 0 0-4.5-1.8 6.6 6.6 0 0 0-6.8 6.6c0 3.6 3.1 6.6 6.7 6.6a6 6 0 0 0 6.2-6.1l-.1-1.1h-6.1zm45.4 1.4c-.4-1-1.4-2.7-3.6-2.7s-4 1.7-4 4.3c0 2.4 1.8 4.3 4.2 4.3 1.9 0 3.1-1.2 3.5-1.9l-1.5-1c-.5.7-1.1 1.2-2.1 1.2s-1.6-.4-2.1-1.3l5.7-2.4-.1-.5zm-5.8 1.4c0-1.6 1.3-2.5 2.2-2.5.7 0 1.4.4 1.6.9l-3.8 1.6zM82.6 19h1.9V6.5h-1.9V19zm-3-7.3c-.5-.5-1.3-1-2.3-1a4.3 4.3 0 0 0-4.1 4.3c0 2.4 1.9 4.2 4.1 4.2 1 0 1.8-.5 2.2-1h.1v.6c0 1.6-.9 2.5-2.3 2.5-1.1 0-1.9-.8-2.1-1.5l-1.6.7a4.1 4.1 0 0 0 3.8 2.5c2.2 0 4-1.3 4-4.4V11h-1.8v.7zm-2.2 5.9c-1.3 0-2.4-1.1-2.4-2.6s1.1-2.6 2.4-2.6c1.3 0 2.3 1.1 2.3 2.6s-1 2.6-2.3 2.6m24.4-11.1h-4.5V19h1.9v-4.7h2.6c2.1 0 4.1-1.5 4.1-3.9s-2-3.9-4.1-3.9m.1 6h-2.7V8.2h2.7c1.4 0 2.2 1.2 2.2 2.1-.1 1.1-.9 2.2-2.2 2.2m11.5-1.8c-1.4 0-2.8.6-3.3 1.9l1.7.7c.4-.7 1-.9 1.7-.9 1 0 1.9.6 2 1.6v.1a4 4 0 0 0-1.9-.5c-1.8 0-3.6 1-3.6 2.8 0 1.7 1.5 2.8 3.1 2.8 1.3 0 1.9-.6 2.4-1.2h.1v1h1.8v-4.8c-.2-2.2-1.9-3.5-4-3.5m-.2 6.9c-.6 0-1.5-.3-1.5-1.1 0-1 1.1-1.3 2-1.3.8 0 1.2.2 1.7.4-.2 1.2-1.2 2-2.2 2m10.5-6.6-2.1 5.4h-.1l-2.2-5.4h-2l3.3 7.6-1.9 4.2h1.9l5.1-11.8h-2zm-16.8 8h1.9V6.5h-1.9V19z"/><path d="M20.7 19.4 10.1 30.7a2.8 2.8 0 0 0 2.8 2.1c.5 0 1-.1 1.5-.4l12-6.9-5.7-6.1z" style="fill:#ea4335"/><path d="m31.5 17.5-5.2-3-5.8 5.2 5.9 5.8 5.1-3a2.8 2.8 0 0 0 0-5" style="fill:#fbbc04"/><path d="m10.1 9.3-.1.7v20l.1.7 11-11-11-10.4z" style="fill:#4285f4"/><path d="m20.8 20 5.5-5.5-12-6.9c-.4-.3-.9-.4-1.5-.4A3 3 0 0 0 10 9.3L20.8 20z" style="fill:#34a853"/><path class="st1" d="m41.8 27 7.1-.4v.7h-.3a3 3 0 0 0-1.5.4c-1.3.8-2.6 2.2-2.6 3.3 0 1.2.9 1.9 3 2.2l-.3.6c-2.5-.4-3.4-1.3-3.4-2.8 0-1.2 1.2-2.7 2.8-3.7l-4.6.4-.2.1V27zm5.6 1.7 1.2 1.2-.3.3c-.2-.4-.8-.9-1.1-1.2l.2-.3zm1-.8 1.2 1.2-.3.3a6 6 0 0 0-1.1-1.2l.2-.3zm9.5 2.6v.6h-3.7V33c0 .4-.1.6-.4.7l-1.8.1-.3-.6h1.1c.7 0 .8 0 .8-.3V31H50v-.6h3.7v-1.5h-3.1v-.6h3.1v-1.4l-2.9.3a1 1 0 0 0-.2-.5 23 23 0 0 0 5.9-.9l.5.5h-.2l-2.4.5-.2.1v1.4h3.2v.6h-3.2v1.5h3.7zm2.6-4.1-.3.1a21.8 21.8 0 0 0-.4 5.6l.7-1.6.4.4a12 12 0 0 0-.7 1.8l-.1.4v.3l-.6.1c-.3-.8-.4-1.8-.4-3 0-1.1.2-2.7.5-4.2l.9.1zm5.5 6.4h-1l-1.6-.1c-1.1-.2-1.6-.7-1.6-1.4 0-.6.3-1.1.8-1.7l.6.2c-.4.5-.7.9-.7 1.4 0 1 1.5 1 2.4 1H66v.6zm-4-5.3c1.1 0 2.6-.1 3.8-.3l.1.6c-1.1.2-2.8.3-3.8.3l-.1-.6zm9.1-1.2h.6c0 1.6.2 4.9 3.7 7l-.5.5a7.8 7.8 0 0 1-3.6-5.1 7.8 7.8 0 0 1-3.6 5.1l-.5-.4c1.9-1 3-2.9 3.6-5.4l.4.1-.1-1.2h-2.2v-.6h2.2zm5 1.5 1.6-.1.1-1.6.9.1-.2.2-.1 1.2.3.1a3 3 0 0 0-.3 1.2c1-.9 2-1.5 2.7-1.5.8 0 1.2.6 1.2 1.6v.3l-.1 2.5c0 .5.1.8.4.8.3 0 .8-.3 1.2-.6l.1.7c-.4.3-1 .6-1.4.6-.7 0-1-.4-1-1.3l.2-2.9c0-.8-.3-1.1-.7-1.1-.7 0-1.7.7-2.7 1.7v4h-.6v-3.5a9 9 0 0 1-1.6 2.1l-.3-.5c.7-.7 1.5-1.7 1.9-2.6v-.8l-1.6.1v-.7zm15.3 5.3a8.4 8.4 0 0 0-2.6-1.5l-.1 1c-.1.7-.7 1-1.5 1-1.1 0-2-.5-2-1.4 0-.9.9-1.4 2-1.4l1 .1-.1-.6-.2-4.2.9.1-.2.2V28l2.9-.3.1.6-2.9.3.1 2.5c1.1.3 2.2.9 3 1.5l-.4.5zm-4.3-1.8c-.8 0-1.4.4-1.4.9 0 .6.7.9 1.4.9.6 0 1.1-.2 1.1-.8v-.8c-.4-.2-.8-.2-1.1-.2zm6.3-2.3c1.3-.4 2.9-.7 3.6-.7 1.3 0 2.1.7 2.1 2v.1c0 1.6-1.3 2.7-3.8 3.4l-.4-.5c2.2-.5 3.5-1.6 3.5-2.9 0-.8-.4-1.4-1.4-1.4-.7 0-2.1.3-3.1.7l-.2.2-.3-.9zm1.2-3c1.2.1 2.6.4 3.5.7l-.1.6c-.9-.3-2.3-.6-3.5-.7l.1-.6z"/></svg>