<svg xmlns="http://www.w3.org/2000/svg" viewBox="0 0 135 40" style="enable-background:new 0 0 135 40" xml:space="preserve"><path d="M130 40H5a5 5 0 0 1-5-5V5a5 5 0 0 1 5-5h125a5 5 0 0 1 5 5v30a5 5 0 0 1-5 5"/><path d="M130 .8c2.3 0 4.2 1.9 4.2 4.2v30c0 2.3-1.9 4.2-4.2 4.2H5A4.2 4.2 0 0 1 .8 35V5C.8 2.7 2.7.8 5 .8h125zm0-.8H5a5 5 0 0 0-5 5v30a5 5 0 0 0 5 5h125a5 5 0 0 0 5-5V5a5 5 0 0 0-5-5" style="fill:#a6a6a6"/><path d="M20.7 19.4 10.1 30.7a2.8 2.8 0 0 0 2.8 2.1c.5 0 1-.1 1.5-.4l12-6.9-5.7-6.1z" style="fill:#ea4335"/><path d="m31.5 17.5-5.2-3-5.8 5.2 5.9 5.8 5.1-3a2.8 2.8 0 0 0 0-5" style="fill:#fbbc04"/><path d="m10.1 9.3-.1.7v20l.1.7 11-11-11-10.4z" style="fill:#4285f4"/><path d="m20.8 20 5.5-5.5-12-6.9c-.4-.3-.9-.4-1.5-.4A3 3 0 0 0 10 9.3L20.8 20z" style="fill:#34a853"/><path d="M42.9 16.8c-.7-.4-1.2-.9-1.6-1.5a4.3 4.3 0 0 1 0-4.4c.4-.7.9-1.2 1.6-1.5a4.7 4.7 0 0 1 3.9-.3c.5.2 1 .5 1.3.9l-.9.9-1-.7c-.4-.2-.8-.2-1.2-.2-.5 0-1 .1-1.5.4s-.8.6-1.1 1.1a3 3 0 0 0-.4 1.6c0 .6.1 1.1.4 1.6.3.5.6.8 1.1 1.1.5.3 1 .4 1.5.4l1.2-.2.9-.6.4-.6.2-.8h-2.8v-1.1h4l.1.7-.2 1.5c-.2.5-.4.9-.8 1.2a4 4 0 0 1-3 1.2l-2.1-.7zm8.7.1a3 3 0 0 1-1.1-1.1 3 3 0 0 1-.4-1.6c0-.6.1-1.1.4-1.6.3-.5.6-.8 1.1-1.1s1-.4 1.6-.4 1.1.1 1.6.4c.5.3.8.7 1.1 1.1.3.5.4 1 .4 1.6a3 3 0 0 1-.4 1.6 3 3 0 0 1-1.1 1.1c-.5.3-1 .4-1.6.4s-1.1-.1-1.6-.4zm2.5-1 .7-.7c.2-.3.2-.6.2-1l-.2-1-.7-.7c-.3-.2-.6-.2-.9-.2l-.9.2c-.3.1-.5.4-.7.7-.2.3-.2.6-.2 1l.2 1 .7.7c.3.2.6.2.9.2.3.1.6 0 .9-.2zm4.5 1a3 3 0 0 1-1.1-1.1 3 3 0 0 1-.4-1.6c0-.6.1-1.1.4-1.6.3-.5.6-.8 1.1-1.1s1-.4 1.6-.4 1.1.1 1.6.4c.5.3.8.7 1.1 1.1.3.5.4 1 .4 1.6a3 3 0 0 1-.4 1.6 3 3 0 0 1-1.1 1.1c-.5.3-1 .4-1.6.4s-1.1-.1-1.6-.4zm2.5-1 .7-.7c.2-.3.2-.6.2-1l-.2-1-.7-.7c-.3-.2-.6-.2-.9-.2l-.9.2c-.3.1-.5.4-.7.7-.2.3-.2.6-.2 1l.2 1 .7.7c.3.2.6.2.9.2.3.1.6 0 .9-.2zm4.2 3.4c-.5-.3-.8-.7-.9-1.2l1.2-.5c.1.3.3.6.6.7a1.9 1.9 0 0 0 2.3-.2c.3-.3.5-.8.5-1.3v-.5h-.1c-.2.3-.4.5-.8.6l-1.1.2c-.5 0-.9-.1-1.4-.4-.4-.3-.8-.6-1-1.1-.2-.5-.4-1-.4-1.6 0-.6.1-1.1.4-1.6s.6-.8 1-1.1c.4-.3.9-.4 1.4-.4l1.1.2.8.7h.1v-.7h1v5.5c0 .6-.1 1.2-.4 1.6-.2.4-.6.8-1 1-.4.2-.9.3-1.5.3-.7.3-1.3.1-1.8-.2zm2.7-3.5c.3-.1.5-.4.6-.7l.2-1a2 2 0 0 0-.5-1.4c-.3-.3-.7-.5-1.2-.5l-.9.2c-.3.1-.5.4-.6.6-.2.3-.2.6-.2 1l.2 1 .6.6.9.2c.3.2.6.2.9 0zm3.5-6.9h1.3v8.2h-1.3V8.9zm4.1 8a3 3 0 0 1-1.1-1.1 3 3 0 0 1-.4-1.6c0-.6.1-1.1.4-1.6.2-.5.6-.9 1-1.1.4-.3 1-.4 1.5-.4.6 0 1.1.1 1.5.4.4.3.8.6 1 1.1l.3 1.5v.4h-4.5c0 .5.2 1 .6 1.3.3.3.7.4 1.2.4l.9-.2c.3-.2.5-.4.6-.7l1.1.5c-.3.5-.6.9-1.1 1.1-.4.3-1 .4-1.6.4-.4 0-1-.1-1.4-.4zm3-3.4-.2-.6-.5-.5a2 2 0 0 0-.9-.2c-.4 0-.8.1-1 .4-.3.2-.5.6-.6 1h3.2zm4.7-4.6h2.9c.5 0 .9.1 1.3.3.4.2.7.5 1 .9.2.4.4.8.4 1.3s-.1.9-.4 1.3-.6.7-1 .9a3 3 0 0 1-1.3.3h-1.6v3.2h-1.3V8.9zm2.8 3.8.7-.2.5-.5.2-.6-.2-.6-.5-.5-.7-.2h-1.6v2.6h1.6zm3.7-3.8h1.3v8.2h-1.3V8.9zm3.5 8.2-.8-.7c-.2-.3-.3-.6-.3-1 0-.6.2-1.1.7-1.4s1-.5 1.7-.5l.9.1.7.2v-.3c0-.4-.1-.7-.4-.9-.3-.2-.6-.3-1-.3l-.8.2-.6.5-.9-.7c.3-.4.6-.6 1-.8s.9-.3 1.4-.3a3 3 0 0 1 2 .6c.5.4.7 1 .7 1.8v3.7h-1.2v-.7h-.1c-.2.3-.4.5-.7.6s-.7.3-1.1.3l-1.2-.4zm2.2-1 .6-.6.2-.8-.6-.2-.7-.1c-.5 0-.8.1-1 .3a1 1 0 0 0-.3.7c0 .3.1.5.3.7.2.2.5.3.8.3l.7-.3zm5 .7-2.4-5.5h1.4l1.7 4 1.6-4h1.4l-3.6 8.3h-1.3l1.2-2.8zm11-7.8c0-.3-.4-.5-.8-.7l-.3-.2.3-.1c.5 0 .9.2 1.2.3.3.1.3.1.3.3v5.7c0 1.7-.1 2.2-.2 2.6l-.3.4-.1-.4v-4.8h-.6l-.6.2-.5-.2c0 .8-.7 1.8-2.2 1.8-1.4 0-2.1-1-2.1-2 0-.8.5-1.6 1.7-1.8l.4-.2-.1-.2-.1-.2.1-.1c.3 0 .7.2.7.4l-.2.3c1.1.2 1.7.8 1.8 1.5h1.5V9zm-5.1 3.1c0 .7.5 1.4 1.4 1.4 1 0 1.6-.7 1.6-1.4s-.5-1.4-1.6-1.4c-1-.1-1.4.6-1.4 1.4zm7-3.7c0-.2-.4-.5-1-.8l-.3-.2.4-.1 1.2.3.4.3v7.6l-.2 2.2-.3.4c-.1 0-.2-.2-.2-.5V8.4zm3 6.1a11 11 0 0 0 3.4-4.5l.1-.2c0-.1-.1-.3-.7-.7l-.3-.3.3-.1h.4c.4.2 1.3.5 1.3.8l-.1.2-.9 1.6c.2.4.7.9 1.1 1.1.5.3.4.1 1 1l.2.5c0 .2-.1.3-.3.3l-.3-.1-2-2.5a8.3 8.3 0 0 1-3.4 3l.2-.1zm7.9-6c0-.3-.6-.6-1.1-.8l-.4-.2.3-.1a5 5 0 0 1 1.5.3l.4.3v8.2c0 1.6-.3 2.1-.5 2.1l-.3-.8v-5.6h-1.6l-.4.1c-.1 0-.9-.3-.9-.5l.1-.1h2.8V8.5zm-78 15.8-.8-.5-.2-.1.4-.1 1 .2.2.2v3.5h.4c.4-.1.3-.2.8-.2.2 0 .5 0 .5.3 0 .1-.1.2-.3.2h-1.5v2.5l-.2 1.3-.2.2-.1-.4V28c-1.1.6-3.2 1.3-4.3 1.3-.1 0-.4-.3-.4-.7v-2.8c-.1-.2-.3-.3-.7-.4l-.1-.1.3-.1 1.3.2 1.3-.1c.4 0 .3-.3.9-.3.2 0 .6 0 .6.2 0 .1-.1.2-.3.2l-2.5.1-.2.1V28c0 .7 0 .7.3.7s2.6-.4 3.9-1v-3.4zm6.9 3.5-1.9.1-.6.1c-.3 0-1.1-.4-1.1-.5h.3l1.3.1 4.8-.1.8-.1c.2 0 .7 0 .7.3 0 .1-.1.2-.3.2l-2.3-.1h-1.1l-.1 2-.3.4c-.1 0-.2-.1-.2-.4v-2zm-1.8 1.9c0-.2-.2-.3-.7-.4l-.2-.1.3-.1.9.1c.2 0 .2.1.2.2v1.3c0 .2.1.3.4.3h1.9c.6 0 .3-.3 1.1-.3.2 0 .7 0 .7.3l-.2.2h-3.4c-.6 0-.9-.1-.9-.6l-.1-.9zm1.6-5.6s.2 0 .2-.2l-.1-.1-.1-.1.1-.1c.1 0 .5.1.5.3l-.1.2c1 .2 1.5.8 1.5 1.5s-.6 1.4-1.7 1.4c-1.2 0-1.8-.7-1.8-1.5.1-.6.6-1.2 1.5-1.4zm-.9 1.4c0 .5.4 1.1 1.3 1.1.8 0 1.2-.6 1.2-1.1s-.4-1.1-1.2-1.1c-.9 0-1.3.6-1.3 1.1zm13.3 5-2.7-.1-3 .1-.6.1-1-.4-.2-.2h.3l1.8.1h1.6v-2h-1.1c-.4 0-.7-.1-.7-.5v-.9c0-.2-.3-.2-.6-.3l-.1-.1.5-.1.9.1 2.4-.1.6-.1.1-1.3-3 .2-.4.1-.9-.4h.2l1.3.1 2.5-.1.6-.1.6.1-.2.3-.3 1.1.4.2-.2.1-3.3.2-.2.1v1.1c0 .1.1.2.3.2l2.3-.1c.5-.1.3-.3.9-.3.2 0 .6 0 .6.2 0 .1-.1.2-.3.2l-1.9.1v2l1.9-.1c.3 0 .3-.2.7-.2.2 0 1 0 1 .4-.4.2-.5.3-.8.3zm7.6-.3c.4 0 .3-.2.8-.2.2 0 .9 0 .9.3 0 .1-.1.2-.3.2l-2.4-.1-3.4.1-.5.2c-.2 0-1.2-.4-1.2-.6h.3l1.7.1 3.7-.1.4.1zm-4.4-4.9c0-.2-.3-.3-.7-.5l-.2-.1.3-.1 1.2.2h2.4c1-.1.4-.3 1.4-.3h.1c.3 0 .4.1.4.3 0 .1-.1.2-.4.2l-3.7.1c-.1 0-.2 0-.2.2v1.9c0 .3 0 .3 1.2.3H72c.6 0 .4-.3 1.2-.3.4 0 .5.2.5.3 0 .1-.1.2-.3.2h-4c-.3 0-.7-.2-.7-.6l-.1-1.8z" style="fill:#fff"/></svg>