<svg xmlns="http://www.w3.org/2000/svg" viewBox="0 0 135 40" style="enable-background:new 0 0 135 40" xml:space="preserve"><path d="M130 40H5a5 5 0 0 1-5-5V5a5 5 0 0 1 5-5h125a5 5 0 0 1 5 5v30a5 5 0 0 1-5 5"/><path d="M130 .8c2.3 0 4.2 1.9 4.2 4.2v30c0 2.3-1.9 4.2-4.2 4.2H5A4.2 4.2 0 0 1 .8 35V5C.8 2.7 2.7.8 5 .8h125zm0-.8H5a5 5 0 0 0-5 5v30a5 5 0 0 0 5 5h125a5 5 0 0 0 5-5V5a5 5 0 0 0-5-5" style="fill:#a6a6a6"/><path d="M20.7 19.4 10.1 30.7a2.8 2.8 0 0 0 2.8 2.1c.5 0 1-.1 1.5-.4l12-6.9-5.7-6.1z" style="fill:#ea4335"/><path d="m31.5 17.5-5.2-3-5.8 5.2 5.9 5.8 5.1-3a2.8 2.8 0 0 0 0-5" style="fill:#fbbc04"/><path d="m10.1 9.3-.1.7v20l.1.7 11-11-11-10.4z" style="fill:#4285f4"/><path d="m20.8 20 5.5-5.5-12-6.9c-.4-.3-.9-.4-1.5-.4A3 3 0 0 0 10 9.3L20.8 20z" style="fill:#34a853"/><path d="M43.1 14.8c-.5-.3-.9-.7-1.2-1.2a3 3 0 0 1-.4-1.7c0-.6.1-1.2.4-1.7s.7-.9 1.2-1.2a3 3 0 0 1 1.6-.4c.5 0 .9.1 1.3.3l1 .7-.7.7-.7-.5-.9-.2a2 2 0 0 0-1.1.3l-.8.8-.3 1.2c0 .5.1.9.3 1.2.2.4.5.6.8.8s.7.3 1.1.3l.9-.2.7-.4.3-.5.2-.6h-2.1v-.9h3v.5l-.2 1.1c-.1.4-.3.7-.6.9-.6.6-1.4.9-2.3.9-.4.3-1 .1-1.5-.2zm7.5-5.9h1.1l2.3 6.2h-1l-.6-1.6h-2.5l-.6 1.6h-1.1l2.4-6.2zm1.5 3.7-.7-1.9-.2-.7h-.1l-.2.7-.7 1.9h1.9zm3.7 2.4c-.4-.2-.6-.5-.8-.9s-.3-.8-.3-1.3V8.9h1v3.9c0 .5.1.8.4 1.1.2.3.6.4 1 .4s.8-.1 1-.4.4-.7.4-1.1V8.9h1v3.8c0 .5-.1.9-.3 1.3s-.5.7-.8.9c-.4.2-.8.3-1.3.3a2 2 0 0 1-1.3-.2zm6.3-5.2h-1.7v-.9h4.5v.9h-1.7v5.3h-1V9.8zm3.7-.9h1v6.2h-1V8.9zm4.5 0h1v6.2h-1V8.9zm2.9 5.9c-.4-.3-.7-.7-.9-1.3l.9-.4.5.8c.2.2.5.3.8.3l.8-.2c.2-.2.3-.4.3-.7 0-.3-.1-.5-.3-.6l-1-.5-.4-.1c-.4-.1-.8-.4-1.1-.6-.3-.3-.4-.6-.4-1.1l.3-.9.9-.5 1-.2c.5 0 1 .1 1.3.4l.7.9-.9.4-.4-.5-.7-.2-.7.2c-.2.1-.3.3-.3.6 0 .2.1.4.3.5l.8.4.4.1c.5.2.9.4 1.2.7s.4.7.4 1.2c0 .4-.1.7-.3 1s-.5.5-.8.6l-1 .2c-.5 0-1-.2-1.4-.5zm0-7.5.9-.1.4.5h.1l.4-.4h.9v.1l-.9 1h-.8l-1-1.1zM43.4 29.4a4 4 0 0 1-1.8-1.8c-.5-.8-.7-1.6-.7-2.6s.2-1.8.7-2.6a5.2 5.2 0 0 1 4.3-2.5c.7 0 1.4.1 2 .4.6.3 1.2.6 1.6 1.1l-1.1 1.1c-.3-.4-.7-.6-1.1-.8-.4-.2-.9-.3-1.5-.3a3.3 3.3 0 0 0-3 1.7 3.8 3.8 0 0 0 0 3.8c.3.5.8 1 1.3 1.3.5.3 1.1.4 1.8.4.6 0 1.1-.1 1.4-.3l1-.7.5-.7.3-1h-3.3v-1.4h4.7l.1.8-.3 1.8c-.2.6-.5 1.1-.9 1.5-.9 1-2.1 1.4-3.6 1.4-.8.1-1.7-.1-2.4-.6zm10.1.2a4 4 0 0 1-1.3-1.3c-.3-.6-.5-1.2-.5-1.9s.2-1.3.5-1.9c.3-.6.7-1 1.3-1.3a3.8 3.8 0 0 1 3.8 0c.5.3 1 .8 1.3 1.3.3.6.5 1.2.5 1.8 0 .7-.2 1.3-.5 1.9-.3.6-.7 1-1.3 1.3-.5.3-1.2.5-1.9.5s-1.3-.1-1.9-.4zm2.9-1.1.8-.8c.2-.3.3-.8.3-1.2s-.1-.9-.3-1.2a3 3 0 0 0-.8-.8c-.3-.2-.7-.3-1.1-.3s-.7.1-1.1.3c-.3.2-.6.4-.8.8-.2.3-.3.7-.3 1.2s.1.9.3 1.2l.8.8c.3.2.7.3 1.1.3s.8-.2 1.1-.3zm5.3 1.1a4 4 0 0 1-1.3-1.3c-.3-.6-.5-1.2-.5-1.9s.2-1.3.5-1.9c.3-.6.7-1 1.3-1.3a3.8 3.8 0 0 1 3.8 0c.5.3 1 .8 1.3 1.3.3.6.5 1.2.5 1.8 0 .7-.2 1.3-.5 1.9-.3.6-.7 1-1.3 1.3-.5.3-1.2.5-1.9.5s-1.3-.1-1.9-.4zm2.9-1.1.8-.8c.2-.3.3-.8.3-1.2s-.1-.9-.3-1.2a3 3 0 0 0-.8-.8c-.3-.2-.7-.3-1.1-.3s-.7.1-1.1.3c-.3.2-.6.4-.8.8-.2.3-.3.7-.3 1.2s.1.9.3 1.2l.8.8c.3.2.7.3 1.1.3s.8-.2 1.1-.3zm5 3.9c-.6-.4-.9-.8-1.1-1.4l1.4-.6c.1.4.4.7.7.9s.7.3 1.1.3a2 2 0 0 0 1.5-.6c.4-.4.5-.9.5-1.6v-.6h-.1c-.2.3-.5.6-.9.8-.4.2-.8.3-1.3.3a3 3 0 0 1-1.6-.4 3 3 0 0 1-1.2-1.3c-.3-.5-.4-1.2-.4-1.9s.1-1.3.4-1.9c.3-.5.7-1 1.2-1.3a3 3 0 0 1 1.6-.5c.5 0 .9.1 1.3.3.4.2.7.4.9.8h.1V23h1.4v6.5c0 .7-.1 1.4-.4 1.9s-.7.9-1.2 1.2c-.5.3-1.1.4-1.8.4-.9 0-1.6-.2-2.1-.6zm3.1-4.1c.3-.2.5-.4.7-.8.2-.3.3-.7.3-1.2 0-.7-.2-1.2-.6-1.6a2 2 0 0 0-1.4-.6c-.4 0-.7.1-1 .3-.3.2-.5.4-.7.8-.2.3-.3.7-.3 1.2s.1.9.3 1.2l.7.8c.3.2.6.3 1 .3l1-.4zm4.1-8.1h1.5v9.7h-1.5v-9.7zm4.7 9.4c-.5-.3-1-.7-1.3-1.3a4.1 4.1 0 0 1-.1-3.7c.3-.6.7-1 1.2-1.3a3.5 3.5 0 0 1 3.6 0c.5.3.9.7 1.2 1.3.3.5.4 1.1.4 1.8v.5h-5.3c.1.6.3 1.1.7 1.5.4.3.9.5 1.4.5a2 2 0 0 0 1.1-.3c.3-.2.6-.5.7-.8l1.3.6c-.3.6-.7 1-1.3 1.3-.5.3-1.1.5-1.9.5a7 7 0 0 1-1.7-.6zm3.6-4-.2-.7-.6-.6c-.3-.2-.6-.2-1-.2-.5 0-.9.1-1.2.4-.3.3-.6.7-.7 1.1h3.7zm5.4-5.4h3.3c.6 0 1.1.1 1.6.4s.9.6 1.1 1.1c.3.5.4 1 .4 1.5 0 .6-.1 1.1-.4 1.5-.3.5-.7.8-1.1 1.1s-1 .4-1.6.4H92V30h-1.5v-9.8zm3.4 4.5.9-.2.6-.6c.2-.3.2-.5.2-.7l-.2-.7-.6-.6a2 2 0 0 0-.9-.2H92v3h1.9zm4.3-4.5h1.5v9.7h-1.5v-9.7zm4.1 9.6c-.4-.2-.7-.5-.9-.8l-.3-1.2c0-.7.3-1.3.8-1.7.5-.4 1.2-.6 2-.6l1.1.1.8.3v-.4c0-.4-.2-.8-.5-1-.3-.3-.7-.4-1.2-.4l-1 .2-.8.6-1-.8a3 3 0 0 1 1.2-1c.5-.2 1-.4 1.6-.4 1 0 1.8.2 2.3.7s.8 1.2.8 2.1v4.3h-1.5V29h-.1l-.8.7-1.2.3a2 2 0 0 1-1.3-.2zm2.6-1.2.7-.7c.2-.3.2-.6.2-.9l-.7-.3-.9-.1c-.6 0-1 .1-1.2.3-.3.2-.4.5-.4.9 0 .3.1.6.4.8.2.2.6.3.9.3a2 2 0 0 0 1-.3zm5.8.9-2.9-6.5h1.7l1.9 4.7h.1l1.9-4.7h1.6l-4.3 9.8h-1.6l1.6-3.3z" style="fill:#fff"/></svg>