<svg version="1.1" id="Слой_1" xmlns="http://www.w3.org/2000/svg" x="0" y="0" viewBox="0 0 135 40" style="enable-background:new 0 0 135 40" xml:space="preserve"><style>.st1{fill:#fff}</style><path d="M130 40H5a5 5 0 0 1-5-5V5a5 5 0 0 1 5-5h125a5 5 0 0 1 5 5v30a5 5 0 0 1-5 5"/><path d="M130 .8c2.3 0 4.2 1.9 4.2 4.2v30c0 2.3-1.9 4.2-4.2 4.2H5A4.2 4.2 0 0 1 .8 35V5C.8 2.7 2.7.8 5 .8h125zm0-.8H5a5 5 0 0 0-5 5v30a5 5 0 0 0 5 5h125a5 5 0 0 0 5-5V5a5 5 0 0 0-5-5" style="fill:#a6a6a6"/><path class="st1" d="M68.1 11.2a4.2 4.2 0 0 0-4.3 4.3c0 2.4 1.9 4.3 4.3 4.3s4.3-1.8 4.3-4.3-1.9-4.3-4.3-4.3m0 6.8c-1.3 0-2.4-1.1-2.4-2.6s1.1-2.6 2.4-2.6 2.4 1 2.4 2.6-1.1 2.6-2.4 2.6m-9.3-6.8a4.2 4.2 0 0 0-4.3 4.3c0 2.4 1.9 4.3 4.3 4.3s4.3-1.8 4.3-4.3-1.9-4.3-4.3-4.3m0 6.8c-1.3 0-2.4-1.1-2.4-2.6s1.1-2.6 2.4-2.6c1.3 0 2.4 1 2.4 2.6S60.1 18 58.8 18m-11.1-5.5v1.8H52c-.1 1-.5 1.8-1 2.3-.6.6-1.6 1.3-3.3 1.3a4.7 4.7 0 0 1-4.7-4.8 4.7 4.7 0 0 1 8-3.5l1.3-1.3a6.4 6.4 0 0 0-4.5-1.8c-3.6 0-6.7 3-6.7 6.6 0 3.6 3.1 6.6 6.7 6.6a6 6 0 0 0 6.2-6.1l-.1-1.1h-6.2zm45.4 1.4c-.4-1-1.4-2.7-3.6-2.7s-4 1.7-4 4.3c0 2.4 1.8 4.3 4.2 4.3 1.9 0 3.1-1.2 3.5-1.9l-1.5-1c-.5.7-1.1 1.2-2.1 1.2s-1.6-.4-2.1-1.3l5.7-2.4-.1-.5zm-5.8 1.4c0-1.6 1.3-2.5 2.2-2.5.7 0 1.4.4 1.6.9l-3.8 1.6zm-4.7 4.1h1.9V6.9h-1.9v12.5zm-3-7.2c-.5-.5-1.3-1-2.3-1a4.3 4.3 0 0 0-4.1 4.3c0 2.4 1.9 4.2 4.1 4.2 1 0 1.8-.5 2.2-1h.1v.6c0 1.6-.9 2.5-2.3 2.5-1.1 0-1.9-.8-2.1-1.5l-1.7.7a4.1 4.1 0 0 0 3.8 2.5c2.2 0 4-1.3 4-4.4v-7.6h-1.8v.7zM77.4 18c-1.3 0-2.4-1.1-2.4-2.6s1.1-2.6 2.4-2.6c1.3 0 2.3 1.1 2.3 2.6 0 1.6-1 2.6-2.3 2.6m24.4-11.1h-4.5v12.5h1.9v-4.7h2.6c2.1 0 4.1-1.5 4.1-3.9s-2-3.9-4.1-3.9m.1 6.1h-2.7V8.7h2.7c1.4 0 2.2 1.2 2.2 2.1-.1 1-.9 2.2-2.2 2.2m11.5-1.8c-1.4 0-2.8.6-3.3 1.9l1.7.7c.4-.7 1-.9 1.7-.9 1 0 1.9.6 2 1.6v.1a4 4 0 0 0-1.9-.5c-1.8 0-3.6 1-3.6 2.8 0 1.7 1.5 2.8 3.1 2.8 1.3 0 1.9-.6 2.4-1.2h.1v1h1.8v-4.8c-.2-2.3-1.9-3.5-4-3.5m-.2 6.8c-.6 0-1.5-.3-1.5-1.1 0-1 1.1-1.3 2-1.3.8 0 1.2.2 1.7.4-.2 1.2-1.2 2-2.2 2m10.5-6.5-2.1 5.4h-.1l-2.2-5.4h-2l3.3 7.6-1.9 4.2h1.9l5.1-11.8h-2zm-16.8 7.9h1.9V6.9h-1.9v12.5z"/><path d="M20.7 19.4 10.1 30.7a2.8 2.8 0 0 0 2.8 2.1c.5 0 1-.1 1.5-.4l12-6.9-5.7-6.1z" style="fill:#ea4335"/><path d="m31.5 17.5-5.2-3-5.8 5.2 5.8 5.8 5.1-3c.9-.5 1.5-1.4 1.5-2.5.1-1.1-.5-2-1.4-2.5" style="fill:#fbbc04"/><path d="m10.1 9.3-.1.7v20l.1.7 11-11-11-10.4z" style="fill:#4285f4"/><path d="m20.8 20 5.5-5.5-12-6.9c-.4-.3-.9-.4-1.5-.4A3 3 0 0 0 10 9.3L20.8 20z" style="fill:#34a853"/><path class="st1" d="M45.2 26.3c.5.3.9.7 1.2 1.2.3.5.4 1.1.4 1.7 0 .6-.1 1.2-.4 1.7-.3.5-.7.9-1.2 1.2a3 3 0 0 1-1.6.4c-.5 0-1-.1-1.4-.3l-1.1-.8.7-.7c.2.3.5.5.8.6.3.2.6.2 1 .2l1-.2.8-.7.4-1H43v-.9h2.8l-.4-1-.8-.7c-.3-.2-.7-.2-1-.2l-.9.2c-.3.1-.5.3-.7.6l-.7-.7 1-.8c.4-.2.8-.3 1.3-.3.6.1 1.1.2 1.6.5zm2.3 1.5h1v1.8h2.2v-1.8h1v4.5h-1v-1.8h-2.2v1.8h-1v-4.5zm4.7 3.6h.5l.3-.8.1-1.2v-1.6h3.7v3.6h.7v2.2h-.9v-1.3h-3.5v1.3h-.9v-2.2zm3.6 0v-2.7H54v.8l-.1 1-.3.9h2.2zm2.7.7c-.3-.2-.6-.5-.7-.9l.8-.4c.2.5.6.8 1.2.8l.9-.3c.3-.2.4-.5.5-.8h-1.9v-.7h1.9c-.1-.4-.2-.6-.5-.9-.3-.2-.5-.3-.9-.3l-.7.2-.4.5-.8-.3c.1-.4.4-.7.7-.9s.7-.3 1.2-.3l1.2.3.8.8.3 1.2c0 .4-.1.9-.3 1.2-.2.4-.5.6-.8.8-.3.2-.7.3-1.2.3s-.9-.1-1.3-.3zm4.6 0c-.3-.2-.6-.5-.7-.9l.8-.4c.2.5.6.8 1.2.8l.9-.3c.3-.2.4-.5.5-.8h-1.9v-.7h1.9c-.1-.4-.2-.6-.5-.9-.3-.2-.5-.3-.9-.3l-.7.2-.4.5-.8-.3c.1-.4.4-.7.7-.9s.7-.3 1.2-.3l1.2.3.8.8.3 1.2c0 .4-.1.9-.3 1.2-.2.4-.5.6-.8.8-.3.2-.7.3-1.2.3s-.9-.1-1.3-.3zm5.1 0c-.4-.2-.6-.5-.8-.8s-.3-.8-.3-1.2.1-.9.3-1.2c.2-.4.5-.6.8-.8s.8-.3 1.2-.3c.5 0 .9.1 1.3.3.3.2.6.5.7.9l-.9.4c-.2-.5-.6-.7-1.1-.7l-.7.2-.5.5-.2.8.2.8.5.5.7.2a1.4 1.4 0 0 0 1.2-.7l.9.4c-.2.4-.4.7-.8.9-.3.2-.8.3-1.3.3l-1.2-.5zm6.1.1c-.3-.1-.4-.3-.6-.5l-.2-.8c0-.5.2-.8.5-1.1.3-.3.8-.4 1.3-.4l.7.1.5.2v-.2a1 1 0 0 0-.3-.7c-.2-.2-.5-.3-.8-.3l-.6.1-.5.4-.7-.5c.2-.3.5-.5.8-.6.3-.2.7-.2 1.1-.2.6 0 1.1.2 1.5.5.3.3.5.8.5 1.3v2.8h-.9v-.5l-.5.5-.8.2c-.4-.1-.7-.1-1-.3zm1.7-.7.4-.4.2-.6-.5-.2-.6-.1-.8.2c-.2.1-.3.3-.3.6l.2.5.6.2.8-.2zm2.4-3.7h2.2l.7.2.5.4.2.6-.2.6-.4.4.5.4.2.6-.2.7-.5.5-.7.2h-2.4v-4.6zm2.1 1.8.4-.1.2-.4-.2-.4-.4-.1h-1.2v1h1.2zm.1 1.9.4-.2.2-.4-.2-.4-.4-.2h-1.3v1.1h1.3zm2.7.7c-.3-.1-.4-.3-.6-.5l-.2-.8c0-.5.2-.8.5-1.1.3-.3.8-.4 1.3-.4l.7.1.5.2v-.2a1 1 0 0 0-.3-.7c-.2-.2-.5-.3-.8-.3l-.6.1-.5.4-.7-.5c.2-.3.5-.5.8-.6.3-.2.7-.2 1.1-.2.6 0 1.1.2 1.5.5.3.3.5.8.5 1.3v2.8h-.9v-.5l-.5.5-.8.2c-.5-.1-.8-.1-1-.3zm1.6-.7.4-.4.2-.6-.5-.2-.6-.1-.8.2c-.2.1-.3.3-.3.6l.2.5.6.2.8-.2zm2.9.7c-.3-.1-.4-.3-.6-.5l-.2-.8c0-.5.2-.8.5-1.1.3-.3.8-.4 1.3-.4l.7.1.5.2v-.2a1 1 0 0 0-.3-.7c-.2-.2-.5-.3-.8-.3l-.6.1-.5.4-.7-.5c.2-.3.5-.5.8-.6.3-.2.7-.2 1.1-.2.6 0 1.1.2 1.5.5.3.3.5.8.5 1.3v2.8h-1v-.5l-.5.5-.8.2c-.4-.1-.7-.1-.9-.3zm1.6-.7.4-.4.2-.6-.5-.2-.6-.1-.8.2-.1.5.2.5.6.2.6-.1zm2.4-3.7h.9v.6c.1-.2.3-.4.6-.5l.8-.2c.4 0 .8.1 1.1.3l.8.8.3 1.2c0 .4-.1.9-.3 1.2s-.4.6-.8.8a2 2 0 0 1-1.1.3l-.8-.2c-.3-.1-.4-.3-.6-.5V34h-1v-6.2zm2.9 3.6.5-.5.2-.8-.2-.8-.5-.5-.7-.2a1.4 1.4 0 0 0-1.2.7l-.2.8.2.8.5.5.7.2.7-.2zm2.8.8c-.3-.1-.4-.3-.6-.5l-.2-.8c0-.5.2-.8.5-1.1.3-.3.8-.4 1.3-.4l.7.1.5.2v-.2a1 1 0 0 0-.3-.7c-.2-.2-.5-.3-.8-.3l-.6.1-.5.4-.7-.5c.2-.3.5-.5.8-.6.3-.2.7-.2 1.1-.2.6 0 1.1.2 1.5.5.3.3.5.8.5 1.3v2.8h-.9v-.5l-.5.5-.8.2c-.5-.1-.8-.1-1-.3zm1.6-.7.4-.4.2-.6-.5-.2-.6-.1-.8.2c-.2.1-.3.3-.3.6l.2.5.6.2.8-.2zm2.4-3.7h1v3l2.1-3h1v4.5h-1v-3l-2.1 3h-1v-4.5zm1.5-.9a.8.8 0 0 1-.4-.4l-.2-.6h.7l.1.3.3.1.3-.1.1-.3h.7l-.2.6-.4.4-.6.1-.4-.1zm3.5 2-.2-.5.2-.5.5-.2.5.2.2.5-.2.5c-.1.2-.3.2-.5.2l-.5-.2zm0 3.2-.2-.5.2-.5.5-.2.5.2c.2.1.2.3.2.5l-.2.5-.5.2c-.2 0-.3 0-.5-.2z"/></svg>