<svg version="1.1" id="Слой_1" xmlns="http://www.w3.org/2000/svg" x="0" y="0" viewBox="0 0 135 40.1" style="enable-background:new 0 0 135 40.1" xml:space="preserve"><style>.st1{fill:#fff}.st6{fill:none;stroke:#fff;stroke-width:.2;stroke-miterlimit:10}</style><path d="M130 40.1H5a5 5 0 0 1-5-5v-30a5 5 0 0 1 5-5h125a5 5 0 0 1 5 5v30a5 5 0 0 1-5 5"/><path d="M130 .9c2.3 0 4.2 1.9 4.2 4.2v30c0 2.3-1.9 4.2-4.2 4.2H5a4.2 4.2 0 0 1-4.2-4.2v-30C.8 2.8 2.7.9 5 .9h125zm0-.8H5a5 5 0 0 0-5 5v30a5 5 0 0 0 5 5h125a5 5 0 0 0 5-5v-30a5 5 0 0 0-5-5" style="fill:#a6a6a6"/><path class="st1" d="M68.1 21.9a4.2 4.2 0 0 0-4.3 4.3c0 2.4 1.9 4.3 4.3 4.3s4.3-1.8 4.3-4.3-1.9-4.3-4.3-4.3m0 6.8c-1.3 0-2.4-1.1-2.4-2.6s1.1-2.6 2.4-2.6 2.4 1 2.4 2.6c0 1.5-1.1 2.6-2.4 2.6m-9.3-6.8a4.2 4.2 0 0 0-4.3 4.3c0 2.4 1.9 4.3 4.3 4.3s4.3-1.8 4.3-4.3-1.9-4.3-4.3-4.3m0 6.8c-1.3 0-2.4-1.1-2.4-2.6s1.1-2.6 2.4-2.6c1.3 0 2.4 1 2.4 2.6 0 1.5-1.1 2.6-2.4 2.6m-11.1-5.5V25H52c-.1 1-.5 1.8-1 2.3-.6.6-1.6 1.3-3.3 1.3a4.7 4.7 0 0 1-4.7-4.8 4.7 4.7 0 0 1 8-3.5l1.3-1.3a6.4 6.4 0 0 0-4.5-1.8c-3.6 0-6.7 3-6.7 6.6s3.1 6.6 6.7 6.6a6 6 0 0 0 6.2-6.1l-.1-1.1h-6.2zm45.4 1.4c-.4-1-1.4-2.7-3.6-2.7s-4 1.7-4 4.3c0 2.4 1.8 4.3 4.2 4.3 1.9 0 3.1-1.2 3.5-1.9l-1.5-1c-.5.7-1.1 1.2-2.1 1.2s-1.6-.4-2.1-1.3l5.7-2.4-.1-.5zM87.3 26c0-1.6 1.3-2.5 2.2-2.5.7 0 1.4.4 1.6.9L87.3 26zm-4.7 4.1h1.9V17.6h-1.9v12.5zm-3-7.3c-.5-.5-1.3-.9-2.3-.9a4.3 4.3 0 0 0-4.1 4.3c0 2.4 1.9 4.2 4.1 4.2 1 0 1.8-.5 2.2-1h.1v.6c0 1.6-.9 2.5-2.3 2.5-1.1 0-1.9-.8-2.1-1.5l-1.6.7a4.1 4.1 0 0 0 3.8 2.5c2.2 0 4-1.3 4-4.4v-7.6h-1.8v.6zm-2.2 5.9c-1.3 0-2.4-1.1-2.4-2.6s1.1-2.6 2.4-2.6c1.3 0 2.3 1.1 2.3 2.6s-1 2.6-2.3 2.6m24.4-11.1h-4.5v12.5h1.9v-4.7h2.6c2.1 0 4.1-1.5 4.1-3.9s-2-3.9-4.1-3.9m.1 6.1h-2.7v-4.3h2.7c1.4 0 2.2 1.2 2.2 2.1-.1 1-.9 2.2-2.2 2.2m11.5-1.8c-1.4 0-2.8.6-3.3 1.9l1.7.7c.4-.7 1-.9 1.7-.9 1 0 1.9.6 2 1.6v.1a4 4 0 0 0-1.9-.5c-1.8 0-3.6 1-3.6 2.8 0 1.7 1.5 2.8 3.1 2.8 1.3 0 1.9-.6 2.4-1.2h.1v1h1.8v-4.8c-.2-2.3-1.9-3.5-4-3.5m-.2 6.8c-.6 0-1.5-.3-1.5-1.1 0-1 1.1-1.3 2-1.3.8 0 1.2.2 1.7.4-.2 1.2-1.2 2-2.2 2m10.5-6.6-2.1 5.4h-.1l-2.2-5.4h-2l3.3 7.6-1.9 4.2h1.9l5.1-11.8h-2zm-16.8 8h1.9V17.6h-1.9v12.5z"/><path d="M20.7 19.6 10.1 30.9a2.8 2.8 0 0 0 2.8 2.1c.5 0 1-.1 1.5-.4l12-6.9-5.7-6.1z" style="fill:#ea4335"/><path d="m31.5 17.6-5.2-3-5.8 5.2 5.8 5.8 5.1-3c.9-.5 1.5-1.4 1.5-2.5.1-1-.5-2-1.4-2.5" style="fill:#fbbc04"/><path d="m10.1 9.4-.1.7v20l.1.7 11-11-11-10.4z" style="fill:#4285f4"/><path d="m20.8 20.1 5.5-5.5-12-6.9c-.4-.3-.9-.4-1.5-.4A3 3 0 0 0 10 9.4l10.8 10.7z" style="fill:#34a853"/><path class="st1" d="M42.1 14.4h-.7v-2h.6c.5-.4.8-1.2.8-2.3v-3h4v5.3h.7v2h-.7v-1.3h-4.6v1.3zm1.4-4.3c0 .9-.2 1.7-.6 2.3h3V7.9h-2.5v2.2z"/><path class="st6" d="M42.1 14.4h-.7v-2h.6c.5-.4.8-1.2.8-2.3v-3h4v5.3h.7v2h-.7v-1.3h-4.6v1.3zm1.4-4.3c0 .9-.2 1.7-.6 2.3h3V7.9h-2.5v2.2z"/><path class="st1" d="M53.4 12.4a3 3 0 0 1-2.2.9 3 3 0 0 1-2.2-.9 3 3 0 0 1-.9-2.2c0-.9.3-1.6.9-2.2.6-.7 1.3-1 2.2-1a3 3 0 0 1 2.2.9c.6.6.9 1.3.9 2.2 0 .9-.3 1.6-.9 2.3m-3.8-.5c.4.5 1 .7 1.6.7a2 2 0 0 0 1.6-.7c.4-.4.7-1 .7-1.7s-.2-1.3-.7-1.7a2 2 0 0 0-1.6-.7 2 2 0 0 0-1.6.7 2.4 2.4 0 0 0 0 3.4"/><path class="st6" d="M53.4 12.4a3 3 0 0 1-2.2.9 3 3 0 0 1-2.2-.9 3 3 0 0 1-.9-2.2c0-.9.3-1.6.9-2.2.6-.7 1.3-1 2.2-1a3 3 0 0 1 2.2.9c.6.6.9 1.3.9 2.2 0 .9-.3 1.6-.9 2.3zm-3.8-.5c.4.5 1 .7 1.6.7a2 2 0 0 0 1.6-.7c.4-.4.7-1 .7-1.7s-.2-1.3-.7-1.7a2 2 0 0 0-1.6-.7 2 2 0 0 0-1.6.7 2.4 2.4 0 0 0 0 3.4z"/><path class="st1" d="M58.2 13.3a3 3 0 0 1-2.2-.9 3 3 0 0 1-.9-2.2c0-.9.3-1.6.9-2.2s1.3-1 2.2-1c.9 0 1.6.3 2.2 1l-.5.5c-.4-.5-1-.8-1.7-.8s-1.2.2-1.7.7c-.4.4-.7 1-.7 1.7s.2 1.3.7 1.7c.4.4 1 .7 1.7.7s1.3-.3 1.8-.9l.5.5-1 .8a2 2 0 0 1-1.3.4"/><path class="st6" d="M58.2 13.3a3 3 0 0 1-2.2-.9 3 3 0 0 1-.9-2.2c0-.9.3-1.6.9-2.2s1.3-1 2.2-1c.9 0 1.6.3 2.2 1l-.5.5c-.4-.5-1-.8-1.7-.8s-1.2.2-1.7.7c-.4.4-.7 1-.7 1.7s.2 1.3.7 1.7c.4.4 1 .7 1.7.7s1.3-.3 1.8-.9l.5.5-1 .8a2 2 0 0 1-1.3.4z"/><path class="st1" d="M63.7 13.1h-.8V7.9h-1.7v-.8h4.2v.8h-1.7z"/><path class="st6" d="M63.7 13.1h-.8V7.9h-1.7v-.8h4.2v.8h-1.7z"/><path class="st1" d="m70.6 7.1-2.3 5.1c-.3.7-.8 1.1-1.4 1.1l-.6-.1.2-.7.4.1.4-.1.3-.4.2-.5-2-4.4h.9l1.5 3.4 1.4-3.4h1z"/><path class="st6" d="m70.6 7.1-2.3 5.1c-.3.7-.8 1.1-1.4 1.1l-.6-.1.2-.7.4.1.4-.1.3-.4.2-.5-2-4.4h.9l1.5 3.4 1.4-3.4h1z"/><path class="st1" d="M71.5 13.1v-6h4.4v6h-.8V7.9h-2.8v5.2z"/><path class="st6" d="M71.5 13.1v-6h4.4v6h-.8V7.9h-2.8v5.2z"/><path class="st1" d="M77.2 13.1v-6h.8v2.6h3V7.1h.8v6H81v-2.7h-3v2.7z"/><path class="st6" d="M77.2 13.1v-6h.8v2.6h3V7.1h.8v6H81v-2.7h-3v2.7z"/><path class="st1" d="M88.1 12.4c-.6.6-1.3.9-2.2.9s-1.6-.3-2.2-.9a3 3 0 0 1-.9-2.2c0-.9.3-1.6.9-2.2.5-.7 1.3-1 2.2-1a3 3 0 0 1 2.2.9c.6.6.9 1.3.9 2.2-.1.9-.4 1.6-.9 2.3m-3.9-.5c.4.5 1 .7 1.6.7a2 2 0 0 0 1.6-.7c.4-.4.7-1 .7-1.7s-.2-1.3-.7-1.7a2 2 0 0 0-1.6-.7 2 2 0 0 0-1.6.7c-.4.4-.7 1-.7 1.7.1.6.3 1.2.7 1.7"/><path class="st6" d="M88.1 12.4c-.6.6-1.3.9-2.2.9s-1.6-.3-2.2-.9a3 3 0 0 1-.9-2.2c0-.9.3-1.6.9-2.2.5-.7 1.3-1 2.2-1a3 3 0 0 1 2.2.9c.6.6.9 1.3.9 2.2-.1.9-.4 1.6-.9 2.3zm-3.9-.5c.4.5 1 .7 1.6.7a2 2 0 0 0 1.6-.7c.4-.4.7-1 .7-1.7s-.2-1.3-.7-1.7a2 2 0 0 0-1.6-.7 2 2 0 0 0-1.6.7c-.4.4-.7 1-.7 1.7.1.6.3 1.2.7 1.7z"/><path class="st1" d="M92.1 13.1v-6h2.2c.5 0 .9.2 1.2.5.3.3.5.7.5 1.2l-.2.8a1 1 0 0 1-.6.5l.7.5c.2.2.3.5.3.9 0 .5-.2.9-.5 1.2-.4.3-.8.5-1.3.5h-2.3zm.8-3.4h1.4c.3 0 .5-.1.7-.3l.3-.6-.3-.6a1 1 0 0 0-.7-.3h-1.4v1.8zm0 2.7h1.6c.3 0 .5-.1.7-.3.2-.2.3-.4.3-.7a1 1 0 0 0-.3-.7 1 1 0 0 0-.7-.3H93v2z"/><path class="st6" d="M92.1 13.1v-6h2.2c.5 0 .9.2 1.2.5.3.3.5.7.5 1.2l-.2.8a1 1 0 0 1-.6.5l.7.5c.2.2.3.5.3.9 0 .5-.2.9-.5 1.2-.4.3-.8.5-1.3.5h-2.3zm.8-3.4h1.4c.3 0 .5-.1.7-.3l.3-.6-.3-.6a1 1 0 0 0-.7-.3h-1.4v1.8zm0 2.7h1.6c.3 0 .5-.1.7-.3.2-.2.3-.4.3-.7a1 1 0 0 0-.3-.7 1 1 0 0 0-.7-.3H93v2z"/></svg>