<svg version="1.1" id="Слой_1" xmlns="http://www.w3.org/2000/svg" x="0" y="0" viewBox="0 0 135 40" style="enable-background:new 0 0 135 40" xml:space="preserve"><style>.st1{fill:#fff}</style><path d="M130 40H5a5 5 0 0 1-5-5V5a5 5 0 0 1 5-5h125a5 5 0 0 1 5 5v30a5 5 0 0 1-5 5"/><path d="M130 .8c2.3 0 4.2 1.9 4.2 4.2v30c0 2.3-1.9 4.2-4.2 4.2H5A4.2 4.2 0 0 1 .8 35V5C.8 2.7 2.7.8 5 .8h125zm0-.8H5a5 5 0 0 0-5 5v30a5 5 0 0 0 5 5h125a5 5 0 0 0 5-5V5a5 5 0 0 0-5-5" style="fill:#a6a6a6"/><path class="st1" d="M68.1 21.8a4.2 4.2 0 0 0-4.3 4.3c0 2.4 1.9 4.3 4.3 4.3s4.3-1.8 4.3-4.3c0-2.6-1.9-4.3-4.3-4.3m0 6.8c-1.3 0-2.4-1.1-2.4-2.6s1.1-2.6 2.4-2.6 2.4 1 2.4 2.6c0 1.5-1.1 2.6-2.4 2.6m-9.3-6.8a4.2 4.2 0 0 0-4.3 4.3c0 2.4 1.9 4.3 4.3 4.3s4.3-1.8 4.3-4.3c0-2.6-1.9-4.3-4.3-4.3m0 6.8c-1.3 0-2.4-1.1-2.4-2.6s1.1-2.6 2.4-2.6c1.3 0 2.4 1 2.4 2.6 0 1.5-1.1 2.6-2.4 2.6m-11.1-5.5v1.8H52c-.1 1-.5 1.8-1 2.3-.6.6-1.6 1.3-3.3 1.3a4.7 4.7 0 0 1-4.7-4.8 4.7 4.7 0 0 1 8-3.5l1.3-1.3a6.4 6.4 0 0 0-4.5-1.8c-3.6 0-6.7 3-6.7 6.6s3.1 6.6 6.7 6.6a6 6 0 0 0 6.2-6.1l-.1-1.1h-6.2zm45.4 1.4c-.4-1-1.4-2.7-3.6-2.7s-4 1.7-4 4.3c0 2.4 1.8 4.3 4.2 4.3 1.9 0 3.1-1.2 3.5-1.9l-1.5-1c-.5.7-1.1 1.2-2.1 1.2s-1.6-.4-2.1-1.3l5.7-2.4-.1-.5zm-5.8 1.4c0-1.6 1.3-2.5 2.2-2.5.7 0 1.4.4 1.6.9l-3.8 1.6zM82.6 30h1.9V17.5h-1.9V30zm-3-7.3c-.5-.5-1.3-.9-2.3-.9a4.3 4.3 0 0 0-4.1 4.3c0 2.4 1.9 4.2 4.1 4.2 1 0 1.8-.5 2.2-1h.1v.6c0 1.6-.9 2.5-2.3 2.5-1.1 0-1.9-.8-2.1-1.5l-1.6.7a4.1 4.1 0 0 0 3.8 2.5c2.2 0 4-1.3 4-4.4V22h-1.8v.7zm-2.2 5.9c-1.3 0-2.4-1.1-2.4-2.6s1.1-2.6 2.4-2.6c1.3 0 2.3 1.1 2.3 2.6s-1 2.6-2.3 2.6m24.4-11.1h-4.5V30h1.9v-4.7h2.6c2.1 0 4.1-1.5 4.1-3.9s-2-3.9-4.1-3.9m.1 6h-2.7v-4.3h2.7c1.4 0 2.2 1.2 2.2 2.1-.1 1.1-.9 2.2-2.2 2.2m11.5-1.8c-1.4 0-2.8.6-3.3 1.9l1.7.7c.4-.7 1-.9 1.7-.9 1 0 1.9.6 2 1.6v.1a4 4 0 0 0-1.9-.5c-1.8 0-3.6 1-3.6 2.8 0 1.7 1.5 2.8 3.1 2.8 1.3 0 1.9-.6 2.4-1.2h.1v1h1.8v-4.8c-.2-2.2-1.9-3.5-4-3.5m-.2 6.9c-.6 0-1.5-.3-1.5-1.1 0-1 1.1-1.3 2-1.3.8 0 1.2.2 1.7.4-.2 1.2-1.2 2-2.2 2m10.5-6.6-2.1 5.4h-.1l-2.2-5.4h-2l3.3 7.6-1.9 4.2h1.9l5.1-11.8h-2zm-16.8 8h1.9V17.5h-1.9V30z"/><path d="M20.7 19.4 10.1 30.7a2.8 2.8 0 0 0 2.8 2.1c.5 0 1-.1 1.5-.4l12-6.9-5.7-6.1z" style="fill:#ea4335"/><path d="m31.5 17.5-5.2-3-5.8 5.2 5.8 5.8 5.1-3c.9-.5 1.5-1.4 1.5-2.5.1-1.1-.5-2-1.4-2.5" style="fill:#fbbc04"/><path d="m10.1 9.3-.1.7v20l.1.7 11-11-11-10.4z" style="fill:#4285f4"/><path d="m20.8 20 5.5-5.5-12-6.9c-.4-.3-.9-.4-1.5-.4A3 3 0 0 0 10 9.3L20.8 20z" style="fill:#34a853"/><path class="st1" d="M42 10.1h-.9v-.5h2.8V9l-.1-.3-.2-.2-.3-.1-.3.1-.2.1-.1.2-.1.3-.7-.1.2-.5.3-.3.4-.2.5-.1.6.1.4.4.2.6.1.7v.6h-1.4l-.3.1-.3.2-.2.3-.1.4a1.4 1.4 0 0 0 .7 1.2l.7.3.7.1 1-.2c.3-.1.6-.3.8-.6.2-.2.4-.5.5-.9l.2-1.1-.1-.7-.2-.6-.4.3-.4.1-.5-.1-.3-.3-.2-.4-.1-.5.1-.6.2-.5-.2-.1-.2-.1.3-.5.6.4.6.5.5.6.4.7.3.8.1.9-.1.9-.3.8a3 3 0 0 1-.5.7l-.6.5c-.2.1-.5.3-.8.3l-.9.1-1-.2-.8-.4-.6-.7-.2-.9.1-.5c0-.2.1-.3.3-.5zm3.2-2.5v.3l.1.2.2.2.3.1.3-.1.2-.2-.4-.6-.5-.5-.1.3-.1.3zm4.6 2.2.1-.1v-.9l-.1-.2-.1-.1h-.3l-.2.1-.3.4-.2.5-.7-.1c.1-.3.1-.5.3-.7l.4-.4.4-.2.4-.1.4.1.3.2.2.3v.6l.6-.5.7-.4.8-.3.8-.1.9.1.7.4.5.5.4.7.2.8.1.8-.1.8c-.1.3-.1.5-.3.7l-.4.5-.6.2h-.3l-.3-.1v-.6l.3.1h.2l.4-.1.3-.3.2-.5.1-.5v-.5l-.1-.6-.3-.6c-.1-.4-.2-.6-.4-.7l-.6-.4-.8-.1-.7.1-.7.2-.6.3-.6.4.4-.1h.4l.6.1.6.2.5.3.4.4.3.6.1.7-.1.8-.3.5-.4.3-.4.1-.4-.1-.6-.4-.3-.4a.8.8 0 0 1-.2-.4l-.2.4-.2.4-.3.2-.4.1-.4-.1-.3-.1-.2-.2-.2-.2-.1-.1-.2-.1h-.1l-.1.1-.1.1c-.1 0 0 .1 0 .1l-.1.3-.1.1-.5-.1.6-1.3.7-1.1.1-.2.1-.2.1-.2.3-.2zm-.2 1.1-.2.3-.2.3-.1.2-.1.2.2.1.2.1.2.2.2.2.2.1.2.1.4-.2.3-.4.2-.5.1-.6h.6l.1.5.2.5.3.4.4.2.3-.1.3-.2.2-.3.1-.5-.1-.7-.4-.5-.6-.3-.8-.1h-.5l-.4.1-.3.1-.3.1-.1.2-.1.1-.1.1-.4.3zm12.1-1.8-.3-.2-.4-.2-.4-.1h-.5a3 3 0 0 0-1 .1l-.8.4-.5.7-.2.9.2.8.4.6.6.4.8.1.7-.1.6-.3.4-.5.2-.7-.1-.5-.2-.3-.3-.2-.3-.1.2.3v.3l-.1.4-.2.3-.4.2-.5.1-.5-.1-.3-.2-.2-.3-.1-.4.1-.5.3-.4.5-.2.6-.1h.3l.4.1.4.2.4.3.3.5.1.7-.2 1c-.1.3-.3.5-.6.7l-.8.4-.9.1-1-.2-.8-.5-.5-.8-.2-1 .3-1.2.7-.8 1-.5c.3-.2.7-.3 1.2-.3l.6.1.5.1.5.2.4.3-.4.4zM59.6 11h.2l.2-.1.1-.2v-.2l-.1-.4-.2-.3-.4.1-.2.2-.1.2v.4l.1.2.2.1h.2zm6.1-1.3h.4l.8.1.5.4c.1.2.3.3.3.5l.1.6-.1.6-.3.5-.4.4-.5.3-.6.2h-.7l-1.3-.1-1.3-.4.2-.5.8.3.6-1.2.6-.9.1-.5v-.5l-.1-.5-.3-.1h-.2l-.2.1-.2.3-.1.5-.7-.1a1 1 0 0 1 0-.9l.4-.4.4-.2.4-.1.4.1.3.2.2.3c.1.1 0 .2 0 .4v.4l.8-.8.7-.5.7-.2.5-.1.8.1.6.3.5.5.3.6.2.7.1.8-.1.9-.3.7-.5.5-.6.2h-.4l-.4-.1v-.6l.4.1h.3l.3-.1.3-.2.2-.3.1-.4.1-.4v-.8l-.1-.6-.2-.6-.4-.5-.5-.4-.7-.1-.6.1-.6.3-.5.4-.5.7zM64 12.6l.5.1h.5l.8-.1.7-.2.5-.4.2-.6-.1-.5-.2-.4-.4-.2-.5-.1h-.3l-.4.1-.4.6-.3.6-.3.6-.3.5z"/><path class="st1" d="m69.6 5.4.4.1.4.1.4.2.4.3.2.3.1.4-.1.4-.2.3-.3.2-.4.1h-.2l-.2-.1v2.2h-.5V5.4zm.4 1.8.4.1h.2l.2-.1.1-.2v-.2l-.1-.3-.2-.2-.3-.3-.3-.1v1.3zm8 5.3.2.1h.5l.4-.1.3-.3.2-.5.1-.8-.1-1-.4-.7-.5-.4-.6-.1-.6.1-.5.4-.4.5-.3.6.4.1.3.3.2.4.1.5v.4l-.1.4-.3.4-.4.3-.5.2-.7.1-1.1-.2c-.3-.1-.5-.4-.7-.6l-.4-.9-.1-1 .1-.8.2-.6.4-.5.4-.4.5-.2.7-.2h.3l.3.1-.2.5h-.4l-.6.1-.5.4-.3.6-.1.8v.4l.1.5.2.5.3.4.5.3.7.1.7-.1.4-.3.2-.4.1-.4v-.3l-.1-.2-.2-.2-.2-.1h-.2l-.1.3-.1.2-.5-.2.1-.4.2-.5.2-.5.3-.5.3-.5.4-.4.5-.3c.1.2.3.1.5.1l.5.1.5.2.4.4.4.6.2.7.1.9-.1 1.1-.4.7-.5.4-.6.1h-.5l-.2-.1v-.6zm6-2.8h.4l.8.1.5.4c.1.2.3.3.3.5l.1.6-.1.6-.3.5-.4.4-.5.3-.6.2h-.7l-1.3-.1-1.3-.4.2-.5.8.3.6-1.2.6-.9-.1-.7v-.5l-.1-.5-.3-.1h-.2l-.2.1-.2.4-.2.5-.7-.1c.1-.3.1-.5.3-.7l.4-.4.4-.2.4-.1.4.1.3.2.2.3v.8l.8-.8.7-.5.7-.3.5-.1.8.1.6.3.5.5.3.6.2.7.1.8-.1.9-.3.7-.5.5c-.2.2-.4.2-.6.2h-.4l-.4-.1v-.6l.4.1h.4l.3-.1.3-.2.2-.3.1-.4.1-.4v-.8l-.1-.6-.2-.6c-.1-.2-.3-.1-.4-.2l-.5-.4-.7-.1-.6.1-.6.3-.5.4-.6.4zm-1.7 2.9.5.1h.5l.8-.1.7-.2.5-.4.2-.6-.1-.5-.2-.4-.4-.2-.5-.1H84l-.4.1-.4.6-.3.6-.3.6-.3.5z"/><path class="st1" d="m87.9 5.4.4.1.4.1.4.2.3.3.2.3.1.4-.1.4-.2.3-.3.2-.4.1h-.2l-.2-.1v2.2h-.5l.1-4.5zm.4 1.8.4.1h.2l.2-.1.1-.2v-.2l-.1-.3-.1-.3-.4-.2-.3-.1v1.3zm4 2.5h.4l.8.1.5.4c.1.2.3.3.3.5l.1.6-.1.6-.3.5-.4.4-.5.3-.6.2h-.7l-1.3-.1-1.3-.4.2-.5.8.3.6-1.2.6-.9.1-.5v-.5l-.1-.5-.3-.1h-.2l-.2.1-.2.3-.2.5-.7-.1c.1-.3.1-.5.3-.7l.4-.4.4-.2.4-.1.4.1.3.2.2.3v.8l.8-.8.7-.5c.1-.3.4-.4.6-.4l.5-.1.8.1.6.3.5.5.3.6.2.8.1.8-.1.9-.3.7-.5.5c-.2.2-.4.2-.6.2h-.4l-.4-.1v-.6l.4.1h.4l.3-.1.3-.2.2-.3.1-.4.1-.4v-.8l-.1-.6-.2-.6c-.1-.2-.4-.2-.5-.3l-.5-.4-.7-.1-.6.1-.6.3-.6.3-.5.5zm-1.7 2.9.5.1h.5l.8-.1.7-.2.5-.4.2-.6-.1-.5-.2-.4-.4-.2-.5-.1h-.3l-.4.1-.4.6-.3.6-.3.6-.3.5z"/></svg>