<svg version="1.1" id="Слой_1" xmlns="http://www.w3.org/2000/svg" x="0" y="0" viewBox="0 0 135 40" style="enable-background:new 0 0 135 40" xml:space="preserve"><style>.st1{fill:#fff}</style><path d="M130 40H5a5 5 0 0 1-5-5V5a5 5 0 0 1 5-5h125a5 5 0 0 1 5 5v30a5 5 0 0 1-5 5"/><path d="M130 .8c2.3 0 4.2 1.9 4.2 4.2v30c0 2.3-1.9 4.2-4.2 4.2H5A4.2 4.2 0 0 1 .8 35V5C.8 2.7 2.7.8 5 .8h125zm0-.8H5a5 5 0 0 0-5 5v30a5 5 0 0 0 5 5h125a5 5 0 0 0 5-5V5a5 5 0 0 0-5-5" style="fill:#a6a6a6"/><path class="st1" d="M68.1 21.8a4.2 4.2 0 0 0-4.3 4.3c0 2.4 1.9 4.3 4.3 4.3s4.3-1.8 4.3-4.3c0-2.6-1.9-4.3-4.3-4.3m0 6.8c-1.3 0-2.4-1.1-2.4-2.6s1.1-2.6 2.4-2.6 2.4 1 2.4 2.6c0 1.5-1.1 2.6-2.4 2.6m-9.3-6.8a4.2 4.2 0 0 0-4.3 4.3c0 2.4 1.9 4.3 4.3 4.3s4.3-1.8 4.3-4.3c0-2.6-1.9-4.3-4.3-4.3m0 6.8c-1.3 0-2.4-1.1-2.4-2.6s1.1-2.6 2.4-2.6c1.3 0 2.4 1 2.4 2.6 0 1.5-1.1 2.6-2.4 2.6m-11.1-5.5v1.8H52c-.1 1-.5 1.8-1 2.3-.6.6-1.6 1.3-3.3 1.3a4.7 4.7 0 0 1-4.7-4.8 4.7 4.7 0 0 1 8-3.5l1.3-1.3a6.4 6.4 0 0 0-4.5-1.8c-3.6 0-6.7 3-6.7 6.6 0 3.6 3.1 6.6 6.7 6.6a6 6 0 0 0 6.2-6.1l-.1-1.1h-6.2zm45.4 1.4c-.4-1-1.4-2.7-3.6-2.7s-4 1.7-4 4.3c0 2.4 1.8 4.3 4.2 4.3 1.9 0 3.1-1.2 3.5-1.9l-1.5-1c-.5.7-1.1 1.2-2.1 1.2s-1.6-.4-2.1-1.3l5.7-2.4-.1-.5zm-5.8 1.4c0-1.6 1.3-2.5 2.2-2.5.7 0 1.4.4 1.6.9l-3.8 1.6zM82.6 30h1.9V17.5h-1.9V30zm-3-7.3c-.5-.5-1.3-1-2.3-1a4.3 4.3 0 0 0-4.1 4.3c0 2.4 1.9 4.2 4.1 4.2 1 0 1.8-.5 2.2-1h.1v.6c0 1.6-.9 2.5-2.3 2.5-1.1 0-1.9-.8-2.1-1.5l-1.6.7a4.1 4.1 0 0 0 3.8 2.5c2.2 0 4-1.3 4-4.4V22h-1.8v.7zm-2.2 5.9c-1.3 0-2.4-1.1-2.4-2.6s1.1-2.6 2.4-2.6c1.3 0 2.3 1.1 2.3 2.6s-1 2.6-2.3 2.6m24.4-11.1h-4.5V30h1.9v-4.7h2.6c2.1 0 4.1-1.5 4.1-3.9s-2-3.9-4.1-3.9m.1 6h-2.7v-4.3h2.7c1.4 0 2.2 1.2 2.2 2.1-.1 1.1-.9 2.2-2.2 2.2m11.5-1.8c-1.4 0-2.8.6-3.3 1.9l1.7.7c.4-.7 1-.9 1.7-.9 1 0 1.9.6 2 1.6v.1a4 4 0 0 0-1.9-.5c-1.8 0-3.6 1-3.6 2.8 0 1.7 1.5 2.8 3.1 2.8 1.3 0 1.9-.6 2.4-1.2h.1v1h1.8v-4.8c-.2-2.2-1.9-3.5-4-3.5m-.2 6.9c-.6 0-1.5-.3-1.5-1.1 0-1 1.1-1.3 2-1.3.8 0 1.2.2 1.7.4-.2 1.2-1.2 2-2.2 2m10.5-6.6-2.1 5.4h-.1l-2.2-5.4h-2l3.3 7.6-1.9 4.2h1.9l5.1-11.8h-2zm-16.8 8h1.9V17.5h-1.9V30z"/><path d="M20.7 19.4 10.1 30.7a2.8 2.8 0 0 0 2.8 2.1c.5 0 1-.1 1.5-.4l12-6.9-5.7-6.1z" style="fill:#ea4335"/><path d="m31.5 17.5-5.2-3-5.8 5.2 5.9 5.8 5.1-3a2.8 2.8 0 0 0 0-5" style="fill:#fbbc04"/><path d="m10.1 9.3-.1.7v20l.1.7 11-11-11-10.4z" style="fill:#4285f4"/><path d="m20.8 20 5.5-5.5-12-6.9c-.4-.3-.9-.4-1.5-.4A3 3 0 0 0 10 9.3L20.8 20z" style="fill:#34a853"/><path class="st1" d="M41.5 9.4h7.9v.8h-7.9v-.8zm.8 4.2-.1-.2-.1-.3-.1-.3.3-.2.3-.4.3-.4.4-.6.5-.7.4-.8.9.3-.8 1.2-.8 1.1-.8.9-.3.1-.2.1.1.2zm-.1-6.5h6.6v.8h-6.6v-.8zm.1 6.5v-.7l.6-.3 5-.3.1.4.1.4-2.1.2-1.5.1-1 .1-.6.1-.4.1-.2-.1zM45 5.8h.9v4H45v-4zm1.3 5.1.7-.3.8.9.7 1 .5.9-.8.4-.5-.9-.7-1-.7-1zm3.9-4.2h7.7v.7h-7.7v-.7zm.5 1.9h6.5v.7h-5.7v4.6h-.8V8.6zm2.5.7.6.3-.5.5-.6.5-.6.4-.1-.2-.1-.3-.1-.2.8-.5.6-.5zm-1.1-1.7.7-.3.3.5.2.5-.8.3-.2-.5-.2-.5zm.3 3.1h.7v2.4h-.7v-2.4zm.4 0h2.9v2.1h-2.9v-.6H55v-.9h-2.2v-.6zm.7-4.7.8-.2.3.6.2.5-.8.3-.2-.6-.3-.6zm1 3.7.5-.5.6.4.6.5.5.4-.5.6-.5-.4-.6-.5-.6-.5zm.8-2.3.9.2-.4.7-.4.6-.7-.2.2-.4.2-.5.2-.4zm1.4 1.2h.8V13l-.1.4-.3.2-.6.1h-.9l-.1-.3-.1-.3h1.2V8.6zm2.8-1.8h.8v3.4l-.1 1.3-.3 1.3-.5 1.1-.2-.2-.3-.2-.2-.1.4-1 .2-1.1.1-1.1V6.8zm.3 0h6.8v.8h-6.8v-.8zm1.2 3.8h5v3.2h-.8v-2.4h-3.4v2.4H61v-3.2zm.4 2.1h4.2v.7h-4.2v-.7zm1-6.7.8-.2.3.6.2.6-.9.2-.2-.6-.2-.6zm.4 1.9h.9v3.2h-.9V7.9zm.4.9h3.2v.7h-3.2v-.7zm4.5-2.4h7.8v.8h-7.8v-.8zm3.3.7h.9v6.7H71V7.1zm.5 2.1.5-.6.8.4.8.5.8.5.6.4-.6.8-.6-.5-.8-.5-.8-.5-.7-.5zm4.9-1.5h7.9v.7h-7.9v-.7zm.1 4.6 1.3-.1 1.6-.1 1.7-.1v.7l-1.6.2-1.5.1-1.3.1-.2-.8zm0-3.1H81v.7h-4.5v-.7zm.4 2.3-.1-.2-.1-.3-.1-.2.2-.1.2-.3.2-.4.3-.7.3-.8.8.2-.4.9-.5.9-.5.7-.2.1-.2.1c.2 0 .1.1.1.1zm-.1-5.1h3.9V7h-3.9v-.6zm.1 5.1v-.6l.4-.2h3.5v.7h-3.7l-.2.1zm1.5-5.7h.8v2.3h-.8V5.8zm.4 4.2h.8v3.8h-.8V10zm4.4-1.2.7.2-.7 1.9-1 1.7a8 8 0 0 1-1.3 1.3l-.3-.3-.3-.3c.5-.3.9-.7 1.2-1.2l1-1.6.7-1.7zm-2-3h.8v2.3l.2 2a47.8 47.8 0 0 0 .7 2.6c.2.2.3.4.5.4.1 0 .2-.1.2-.3l.1-1 .3.2.3.2-.2 1-.3.5-.5.1a1 1 0 0 1-.7-.3l-.6-.8a47.8 47.8 0 0 1-.7-2.9l-.1-1.9V5.8zm1.2.5.6-.4.4.4.4.4.2.4-.6.4a2 2 0 0 0-.4-.6l-.6-.6z"/></svg>