<svg xmlns="http://www.w3.org/2000/svg" viewBox="0 0 135 40" style="enable-background:new 0 0 135 40" xml:space="preserve"><path d="M130 40H5a5 5 0 0 1-5-5V5a5 5 0 0 1 5-5h125a5 5 0 0 1 5 5v30a5 5 0 0 1-5 5z"/><path d="M130 .8c2.3 0 4.2 1.9 4.2 4.2v30c0 2.3-1.9 4.2-4.2 4.2H5A4.2 4.2 0 0 1 .8 35V5C.8 2.7 2.7.8 5 .8h125m0-.8H5a5 5 0 0 0-5 5v30a5 5 0 0 0 5 5h125a5 5 0 0 0 5-5V5a5 5 0 0 0-5-5z" style="fill:#a6a6a6"/><path d="m44.2 6.3.6.2-.7 1.8-1 1.7c-.4.5-.9 1-1.4 1.3l-.1-.2-.1-.2-.1-.2 1-.9.8-1.1.6-1.2.4-1.2zm-2.7 1.2h7v.6h-7v-.6zm1.1 2.1h.6v4h-.6v-4zm1.1 3.3h4.8v.6h-4.8v-.6zm.3-2.8h4.2v.6H44v-.6zm1.8-1.6h.6v4.7h-.6V8.5zm3.8 4.4 1.1-.2 1.3-.2 1.4-.3v.6l-1.4.3-1.3.2-1.1.2v-.6zm.6-5h.6v5l-.6.1V7.9zm1.5-1.6h.6v6.4l-.6.1V6.3zm.2 2.5h1.5v.6h-1.5v-.6zm2-2.5h.6v6l.1.4.3.1h1l.3-.1.1-.4.1-.9.3.2.3.1-.1 1-.3.6c-.1.2-.3.2-.5.2h-1.2l-.6-.1-.3-.3-.1-.7V6.3zm.4 2.5h2.2v.6h-2.2v-.6zm3.5-1.9h7.1v.6h-7.1v-.6zm3.1.4h.6v6.3h-.6V7.3zm.3 1.9.4-.5.8.4.8.4.7.4.6.4-.4.7-.6-.4-.7-.5-.8-.4-.8-.5zM66 8h7.2v.5H66V8zm.1 4.4H70v.5h-3.9v-.5zm.1-3.3H70v.5h-3.8v-.5zm.1-2.2h3.5v.5h-3.5v-.5zm.1 3.1h3.4v2h-3.4v-2zm.4.3v.5h2.5v-.5h-2.5zm0 .8v.5h2.5v-.5h-2.5zm1-4.8h.6v2.2h-.6V6.3zm0 2.3h.5v1.5h-.5V8.6zm0 1.6h.5v3.4h-.5v-3.4zM72.2 9l.5.2L72 11c-.3.6-.6 1.1-1 1.5-.4.5-.8.9-1.3 1.2l-.2-.2-.2-.2a6.9 6.9 0 0 0 2.3-2.5l.6-1.8zm-2-2.7h.6l.1 2.2.2 1.9.3 1.5c.1.5.3.7.4.9.2.2.3.3.5.3.1 0 .2-.1.2-.3l.1-1.1.2.2.3.1-.1 1-.3.5-.5.1a1 1 0 0 1-.7-.3c-.2-.2-.4-.4-.5-.8l-.4-1.2-.3-1.5-.1-1.7V6.3zm1.2.4.4-.3.6.5.5.5-.4.3-.3-.4-.4-.4-.4-.2z" style="fill:#fff;stroke:#fff;stroke-width:.2;stroke-miterlimit:10"/><path d="M68.1 21.8a4.2 4.2 0 0 0-4.3 4.3c0 2.4 1.9 4.3 4.3 4.3s4.3-1.8 4.3-4.3c0-2.6-1.9-4.3-4.3-4.3zm0 6.8c-1.3 0-2.4-1.1-2.4-2.6s1.1-2.6 2.4-2.6 2.4 1 2.4 2.6c0 1.5-1.1 2.6-2.4 2.6zm-9.3-6.8a4.2 4.2 0 0 0-4.3 4.3c0 2.4 1.9 4.3 4.3 4.3s4.3-1.8 4.3-4.3c0-2.6-1.9-4.3-4.3-4.3zm0 6.8c-1.3 0-2.4-1.1-2.4-2.6s1.1-2.6 2.4-2.6c1.3 0 2.4 1 2.4 2.6 0 1.5-1.1 2.6-2.4 2.6zm-11.1-5.5v1.8H52c-.1 1-.5 1.8-1 2.3-.6.6-1.6 1.3-3.3 1.3a4.7 4.7 0 0 1-4.7-4.8 4.7 4.7 0 0 1 8-3.5l1.3-1.3a6.4 6.4 0 0 0-4.5-1.8c-3.6 0-6.7 3-6.7 6.6 0 3.6 3.1 6.6 6.7 6.6a6 6 0 0 0 6.2-6.1l-.1-1.1h-6.2zm45.4 1.4c-.4-1-1.4-2.7-3.6-2.7s-4 1.7-4 4.3c0 2.4 1.8 4.3 4.2 4.3 1.9 0 3.1-1.2 3.5-1.9l-1.4-1c-.5.7-1.1 1.2-2.1 1.2s-1.6-.4-2.1-1.3l5.7-2.4-.2-.5zm-5.8 1.4c0-1.6 1.3-2.5 2.2-2.5.7 0 1.4.4 1.6.9l-3.8 1.6zM82.6 30h1.9V17.5h-1.9V30zm-3-7.3c-.5-.5-1.3-1-2.3-1a4.3 4.3 0 0 0-4.1 4.3c0 2.4 1.9 4.2 4.1 4.2 1 0 1.8-.5 2.2-1h.1v.6c0 1.6-.9 2.5-2.3 2.5-1.1 0-1.9-.8-2.1-1.5l-1.6.7a4.1 4.1 0 0 0 3.8 2.5c2.2 0 4-1.3 4-4.4V22h-1.8v.7zm-2.2 5.9c-1.3 0-2.4-1.1-2.4-2.6s1.1-2.6 2.4-2.6c1.3 0 2.3 1.1 2.3 2.6s-1 2.6-2.3 2.6zm24.4-11.1h-4.5V30h1.9v-4.7h2.6c2.1 0 4.1-1.5 4.1-3.9s-2-3.9-4.1-3.9zm.1 6h-2.7v-4.3h2.7c1.4 0 2.2 1.2 2.2 2.1-.1 1.1-.9 2.2-2.2 2.2zm11.5-1.8c-1.4 0-2.8.6-3.3 1.9l1.7.7c.4-.7 1-.9 1.7-.9 1 0 1.9.6 2 1.6v.1a4 4 0 0 0-1.9-.5c-1.8 0-3.6 1-3.6 2.8 0 1.7 1.5 2.8 3.1 2.8 1.3 0 1.9-.6 2.4-1.2h.1v1h1.8v-4.8c-.2-2.2-1.9-3.5-4-3.5zm-.2 6.9c-.6 0-1.5-.3-1.5-1.1 0-1 1.1-1.3 2-1.3.8 0 1.2.2 1.7.4-.2 1.2-1.2 2-2.2 2zm10.5-6.6-2.1 5.4h-.1l-2.2-5.4h-2l3.3 7.6-1.9 4.2h1.9l5.1-11.8h-2zm-16.8 8h1.9V17.5h-1.9V30zM30.5 16.9l-15-8.7a4 4 0 0 0-1.8-.5 3.5 3.5 0 0 0-3.5 2.7l-.1.9v17.5l.1.9a3.5 3.5 0 0 0 3.5 2.7c.6 0 1.3-.2 1.8-.5l15-8.6a3.5 3.5 0 0 0 1.9-3.2 3.9 3.9 0 0 0-1.9-3.2zm-1.2 4.4-3.7 2.2-2.7-2.7a1 1 0 0 1 0-1.5l2.7-2.7 3.7 2.2c.5.3.8.7.8 1.3 0 .4-.3.9-.8 1.2zm-15.7 8.9c-.4 0-.8-.2-1-.5l7.4-7.4a1 1 0 0 1 1.5 0l2.3 2.3-9.5 5.4-.7.2zm.7-20.1 6.9 4 2.5 1.4-2.3 2.3a1 1 0 0 1-1.5 0l-7.4-7.4c.4-.5 1.2-.7 1.8-.3zm-2.1 3 6.2 6.2a1 1 0 0 1 0 1.5l-6.2 6.3v-14z" style="fill:#fff"/><path d="M20.7 19.4 10.1 30.7a2.8 2.8 0 0 0 2.8 2.1c.5 0 1-.1 1.5-.4l12-6.9-5.7-6.1z" style="fill:#ea4335"/><path d="m31.5 17.5-5.2-3-5.8 5.2 5.8 5.8 5.1-3c.9-.5 1.5-1.4 1.5-2.5.1-1.1-.5-2-1.4-2.5z" style="fill:#fbbc04"/><path d="m10.1 9.3-.1.7v20l.1.7 11-11-11-10.4z" style="fill:#4285f4"/><path d="m20.8 20 5.5-5.5-12-6.9c-.4-.3-.9-.4-1.5-.4A3 3 0 0 0 10 9.3L20.8 20z" style="fill:#34a853"/></svg>