<svg version="1.1" id="Слой_1" xmlns="http://www.w3.org/2000/svg" x="0" y="0" viewBox="0 0 230 230" style="enable-background:new 0 0 230 230" xml:space="preserve"><style>.st1{fill:#f9cc03;stroke:#000;stroke-width:.5;stroke-miterlimit:10}.st8{fill:#fff}.st11{fill:#055ba2}</style><radialGradient id="SVGID_1_" cx="95" cy="131.1" r="55.9" fx="75.3" fy="130.5" gradientUnits="userSpaceOnUse"><stop offset="0" style="stop-color:#fff"/><stop offset="1" style="stop-color:#f14438"/></radialGradient><path d="M128.4 205.8 24.1 101.6a9.8 9.8 0 0 1 0-13.8l63.6-63.6a9.8 9.8 0 0 1 13.8 0l104.3 104.3a9.8 9.8 0 0 1 0 13.8l-63.6 63.6a9.9 9.9 0 0 1-13.8-.1z" style="fill:url(#SVGID_1_)"/><g id="chip"><path class="st1" d="m155.1 168.8-18.6-18.6a2 2 0 0 1 0-2.8l13.8-13.8a2 2 0 0 1 2.8 0l18.6 18.6c.8.8.8 2 0 2.8l-13.8 13.8c-.8.6-2 .6-2.8 0z"/><path class="st1" d="m150.4 159.9-5.3-5.3c-.9-.9-.9-2.3 0-3.2l9.5-9.5c.9-.9 2.3-.9 3.2 0l5.3 5.3c.9.9.9 2.3 0 3.2l-9.5 9.5c-.8.9-2.4.9-3.2 0z"/><path d="m147.4 136.3 6.5 6.5m-10.5-2.7 6.5 6.5m-10.5-2.4 6.4 6.4m16.6.5 6.5 6.5m-10.5-2.5 6.5 6.5m-10.5-2.4 6.5 6.6m-13-8.5-2.1 2.1m16.6-16.8-2 2.2" style="fill:none;stroke:#000;stroke-width:.5;stroke-miterlimit:10"/></g><g id="Phone_sign"><path id="leg" transform="rotate(-45 36.8 105.1)" d="M30.6 103.1h12.5v4.1H30.6z"/><path id="Back" d="m46.1 105.7-9.9-9.9a2.7 2.7 0 0 1 0-3.9l19.3-19.3a2.7 2.7 0 0 1 3.9 0l9.9 9.9a2.7 2.7 0 0 1 0 3.9L50 105.7a2.7 2.7 0 0 1-3.9 0z" style="fill:#0060b2"/><path id="Phone" d="M47.4 94.5c-1.4-.5-2.3-4.1-1-4.6l2.1-.8c1 0 1.5 1.2 2.1 2.1 1.6-.6 3-1.5 4.4-2.7-.2-1.2-.7-2.4-.1-3.4l1.8-1.7c1.1-1.1 2.9 2.1 2.3 3.7-1.6 4.9-7.7 8.7-11.6 7.4z" style="fill-rule:evenodd;clip-rule:evenodd;fill:#eafdff"/><path id="Down_line" transform="rotate(-45 44.7 97.3)" style="fill:#b7d8a6" d="M43.4 87.6h2.5v19.5h-2.5z"/><path d="M57 76.9h2v2h-2zm3 3h2v2h-2zm3 3h2v2h-2z" style="fill:#eafdff" id="Top_dots"/></g><g id="Text"><path class="st8" d="m89.5 39.6 5.5-5.5.8.8-5.5 5.5-.8-.8zm3.6-6.9.8-.8 4.2 4.2-.8.8-4.2-4.2zm-.4 10 6-6 .8.8-6 6-.8-.8zm.4.4.8-.8 3.4 3.4-.8.8-3.4-3.4zm2.6-2.6.8-.8 3 3-.8.8-3-3zm2.6-2.6.8-.8 3.4 3.4-.8.8-3.4-3.4zm-.6 9.8 6-6 .8.8-6 6-.8-.8zm.4.4.8-.8 3.4 3.4-.8.8-3.4-3.4zm4.3 4.4 6-6 .8.8-6 6-.8-.8zm.4.4.8-.8 3.4 3.4-.8.8-3.4-3.4zm2.6-2.6.8-.8 3 3-.8.8-3-3zm2.7-2.6.8-.8 3.4 3.4-.8.8-3.4-3.4zm1.2 11.8c-.4-.4-.7-.9-.8-1.4s-.1-1 .1-1.5.5-1 .9-1.4l1.7-1.7c.5-.5.9-.8 1.4-.9.5-.2 1-.2 1.5-.1s.9.4 1.4.8c.3.3.6.7.7 1.2s.2.9.1 1.3c-.1.5-.3.9-.6 1.3l-.9-.9.2-.8-.1-.8c-.1-.2-.2-.5-.4-.6-.4-.4-.8-.5-1.3-.5s-.9.3-1.4.7l-1.7 1.7c-.4.4-.7.9-.7 1.4s.1.9.5 1.3c.3.3.6.4 1 .5s.8 0 1.2-.3l.9.9c-.4.3-.9.5-1.3.5-.5.1-.9 0-1.3-.1s-.8-.3-1.1-.6zm5.2 5.1c-.4-.4-.7-.9-.8-1.4s-.1-1 0-1.5c.2-.5.5-1 .9-1.4l1.7-1.7c.4-.4.9-.8 1.4-.9s1-.2 1.5 0 1 .4 1.4.8.7.9.8 1.4v1.5a3 3 0 0 1-.9 1.4l-1.7 1.7c-.4.4-.9.7-1.4.9a2 2 0 0 1-1.5 0c-.5-.1-1-.3-1.4-.8zm.8-.8c.4.4.8.5 1.3.5s.9-.2 1.3-.7l1.8-1.8c.4-.4.6-.9.7-1.3s-.2-.9-.5-1.3c-.4-.4-.8-.5-1.3-.5s-.9.2-1.3.7l-1.8 1.8c-.4.4-.6.8-.6 1.3s0 .9.4 1.3zm7.2 4.7 5.7-2.2.8.8-6 6-.8-.8 4.5-4.5-.2.3-4.9 2-.6-.6 1.9-4.8.4-.3-4.5 4.5-.8-.8 6-6 .8.8-2.3 5.6z" style="opacity:.69"/><path class="st8" d="m74.1 52.5 8.5-8.5 1.4 1.4-8.5 8.5-1.4-1.4zm4-2.6 1.1-1.1 3.3 3.3c.5.5 1 .7 1.5.7.6 0 1-.2 1.5-.6.4-.4.7-.9.7-1.5s-.3-1.1-.7-1.5l-3.3-3.3 1.1-1.1 3.2 3.2c.6.6 1 1.3 1.3 1.9.2.7.3 1.3.2 2a4 4 0 0 1-1 1.8c-.5.5-1.1.9-1.8 1-.6.1-1.3.1-2-.2-.7-.2-1.3-.7-1.9-1.3l-3.2-3.3zM83 61.4l8.5-8.5 1.4 1.4-8.5 8.5-1.4-1.4zm4.5-2.7 1.1-1.1 5.6 5.6-1.1 1.1-5.6-5.6zm1.3 8.5 8.5-8.5 1.4 1.4-8.5 8.5-1.4-1.4zm7.2 7.4c-.7-.7-1.2-1.5-1.5-2.3s-.3-1.6-.1-2.3c.2-.8.6-1.5 1.2-2.1l2.4-2.4c.6-.6 1.3-1 2.1-1.2s1.6-.1 2.3.2a6.5 6.5 0 0 1 3.8 3.8c.3.8.3 1.6.2 2.3-.2.8-.6 1.5-1.2 2.1l-2.5 2.3c-.6.6-1.3 1-2.1 1.2-.8.2-1.6.1-2.3-.1-.8-.3-1.6-.8-2.3-1.5zm1.2-1.2c.6.6 1.3 1 2.1 1s1.4-.2 2-.8l2.5-2.5c.6-.6.9-1.2.8-2 0-.7-.4-1.4-1-2.1-.6-.6-1.3-1-2.1-1s-1.4.2-2 .8L97 69.3c-.6.6-.9 1.2-.8 2 0 .8.3 1.5 1 2.1zm4.8 7 8.5-8.5 1.3 1.3-1.6 11.6h-.3l6.8-6.8 1.4 1.4-8.5 8.5-1.3-1.3 1.5-11.5h.3l-6.7 6.7-1.4-1.4zm10 10 8.5-8.5 1.4 1.4-8.5 8.5-1.4-1.4zm.7.7 1.1-1.1 5.8 5.8-1.1 1.1-5.8-5.8zm3.6-3.7 1.1-1.1 5.1 5.1-1.1 1.1-5.1-5.1zm3.8-3.7 1.1-1.1 5.8 5.8-1.1 1.1-5.8-5.8zM66.5 68.3a4.8 4.8 0 0 1-1.4-2.2c-.3-.8-.3-1.6-.1-2.3.2-.8.6-1.5 1.2-2.1l2.3-2.3c.6-.6 1.3-1.1 2.1-1.2.8-.2 1.5-.1 2.3.1.8.3 1.5.7 2.2 1.4.6.6 1 1.2 1.3 1.9s.4 1.4.3 2.1c-.1.7-.3 1.4-.7 2l-1.3-1.6c.2-.4.3-.7.3-1.2a5 5 0 0 0-.2-1.2l-.7-1c-.6-.6-1.3-.9-2-.9s-1.4.3-2 .9L67.8 63c-.6.6-.9 1.3-.9 2s.3 1.4.9 2c.4.4 1 .7 1.6.9s1.2.1 1.8-.2l1.4 1.4c-.6.4-1.3.6-2 .7s-1.4-.1-2.1-.3c-.8-.2-1.4-.6-2-1.2zm4.6 4.4 12.2-4.8 1.2 1.2-4.8 12.2-1.5-1.5 4.1-9.7-9.7 4.1-1.5-1.5zm3.6-.1 1.1-1.1 5.3 5.3-1.1 1.1-5.3-5.3zm6.5 10.3 8.5-8.5 1.4 1.4-8.5 8.5-1.4-1.4zm4.2-3 1.1-1.1 3.4 3.4c.4.4.9.6 1.4.6s.9-.2 1.3-.6.6-.8.6-1.3-.2-.9-.6-1.4l-3.4-3.4 1.1-1.1 3.4 3.4c.6.6 1 1.2 1.2 1.8.2.6.3 1.3.2 1.9-.1.6-.4 1.2-.9 1.7s-1 .8-1.7.9c-.6.1-1.2.1-1.9-.2a4 4 0 0 1-1.8-1.2l-3.4-3.4zm1.5 8.6 1.6-6.2 1.7 1.1-1.6 6.7-1.7-1.6zm3.6 3.6 8.5-8.5 1.4 1.4-8.5 8.5-1.4-1.4zm.9.9 1.1-1.1 2.3 2.3c.7.7 1.5 1.2 2.2 1.2.7.1 1.4-.2 2-.8l2.5-2.5c.6-.6.9-1.3.8-2s-.5-1.5-1.2-2.2l-2.3-2.3 1.1-1.1 2.2 2.2c1.2 1.2 1.9 2.4 2 3.6s-.3 2.3-1.3 3.3l-2.4 2.4c-.6.6-1.3 1-2.1 1.2s-1.5.1-2.4-.3c-.8-.3-1.6-.9-2.4-1.7L91.4 93zm32.7 68.1.9-.9 5.9-.6.9-.2.7-.4c.3-.3.4-.6.4-.9 0-.3-.2-.7-.5-1s-.6-.5-1-.5-.7.1-1.1.4l-1.1-1.1c.7-.5 1.4-.7 2.1-.7.7.1 1.4.4 2 1 .7.7 1.1 1.4 1.1 2.1.1.7-.2 1.3-.8 1.9-.2.2-.6.5-1 .6-.4.2-.8.3-1.3.3l-5 .5 2.9 2.9-.9.9-4.2-4.3zm7.8 7.8c-.6-.6-.9-1.2-1-1.9s.1-1.4.6-2l1.1 1.1-.3.9c0 .3.2.6.5.9.3.3.7.5 1.1.5.4 0 .8-.2 1.2-.6l.6-.6c.4-.4.6-.8.6-1.2s-.1-.8-.5-1.1l-.7-.4h-.9l-1-1 3.7-3.7 3.9 3.9-.9.9-2.8-2.8-1.6 1.6.7.2.6.4c.7.7 1 1.4 1 2.1 0 .7-.4 1.5-1 2.1l-.6.6a3 3 0 0 1-2.2 1c-.8.1-1.4-.2-2.1-.9zm-12.7 2.2c-.6-.6-1-1.3-1-2s.3-1.3.9-2l3.3-3.3.8.8-3.4 3.4c-.4.4-.6.8-.6 1.2s.2.8.6 1.2.8.6 1.2.6c.4 0 .8-.2 1.2-.6l3.4-3.4.8.8-3.3 3.3c-.6.6-1.3.9-2 .9-.6.1-1.3-.4-1.9-.9zm3.4 3.2 5.2-5.2.7.7-1.2 6.9h-.2l4.1-4.1.8.8-5.2 5.2-.7-.7 1.2-6.8h.2l-4.1 4.1-.8-.9zm11.8 1.3-5.2 5.2-.8-.8 5.2-5.2.8.8zm-3 7.5 4.8-4.8.8.8-4.8 4.8-.8-.8zm3-6.2.7-.7 4.1 4.1-.7.7-4.1-4.1zm1.7 11-.7-.9-.5-.9a3 3 0 0 1-.2-1l1.1-.1c0 .4.2.8.3 1.1l.7 1c.4.4.8.7 1.2.8s.7 0 .9-.2l.3-.6-.2-.7-.5-.7-.5-.8-.4-.8v-.9l.6-.9c.5-.5 1-.7 1.7-.6.6.1 1.3.5 1.9 1.1l.8 1 .5 1.3-1 .1-.3-1-.5-.8c-.4-.4-.8-.6-1.1-.7-.4-.1-.7 0-.9.3l-.3.6c0 .2.1.5.3.7l.5.8.5.8c.2.3.3.5.3.8s.1.6 0 .8l-.5.9c-.5.5-1 .7-1.7.6-1-.1-1.6-.4-2.3-1.1z"/><path class="st8" d="m110.3 175.8 4.5-4.5.7.7-4.5 4.5-.7-.7zm2.1-1.4.6-.6 1.6 1.6c.2.2.5.3.8.3s.5-.1.8-.4c.2-.2.4-.5.4-.8s-.1-.5-.3-.8l-1.6-1.6.6-.6 1.6 1.6c.3.3.5.6.6 1v1l-.5.9c-.3.3-.6.5-.9.5h-1c-.3-.1-.7-.3-1-.6l-1.7-1.5zm7.9 2.4-4.5 4.5-.7-.7 3.8-3.8-1.1-.3.7-.7 1.1.3.7.7zm-3.4 5.5.5-.5 3.8-.4.6-.1.4-.3c.2-.2.3-.4.2-.6l-.3-.6a1 1 0 0 0-.7-.3l-.7.2-.7-.7c.5-.3.9-.5 1.4-.4.5 0 .9.3 1.3.7s.7.9.7 1.3-.1.9-.5 1.2l-.6.4-.8.2-3.2.3 1.9 1.9-.6.6-2.7-2.9zm4.9 5-.6-.9c-.1-.3-.2-.6-.1-.9 0-.3.2-.6.4-.9l.7.7c-.2.2-.2.5-.2.7l.4.7.7.4c.2 0 .5-.1.7-.3l.1-.1c.2-.2.3-.5.3-.7s-.1-.5-.3-.7l-.4-.4.6-.6.4.4.6.3.6-.3.1-.1c.2-.2.3-.4.2-.6l-.3-.6-.6-.3c-.2 0-.4 0-.7.2l-.7-.7c.4-.3.9-.4 1.3-.4.5 0 .9.3 1.2.6.4.4.7.9.7 1.3s-.1.8-.5 1.2l-.1.1c-.2.2-.5.4-.8.4s-.6 0-.9-.2c.2.3.3.7.3 1s-.2.7-.5.9l-.1.1c-.4.4-.8.6-1.3.5-.3 0-.7-.3-1.2-.8zm3.1 1.6.5-.5 4.9-1.6.7.7-4.9 1.6 2.4 2.4-.6.6-3-3.2zm1.5 2.9 2.7-2.7.7.7-2.7 2.7-.7-.7zm3.2 3.4c-.4-.4-.6-.8-.6-1.2s.1-.9.4-1.3l.7.7-.2.6.3.6c.2.2.5.3.7.3.3 0 .5-.1.8-.4l.4-.4c.2-.2.4-.5.4-.8s-.1-.5-.3-.7l-.4-.3h-.6l-.6-.6 2.4-2.4 2.5 2.5-.6.6-1.8-1.8-1 1 .4.1.4.3c.4.4.7.9.6 1.4 0 .5-.2.9-.7 1.4l-.4.4c-.4.4-.9.7-1.4.7-.4-.1-.9-.3-1.4-.7z" style="opacity:.3"/></g><g id="Lypa"><path class="st11" d="M82.4 109.4a31.8 31.8 0 0 0-18.7 19.1c-2.1 6.4-1.5 16 1.5 22.2a35 35 0 0 0 17.7 15.9c7 2.3 17.7 1.5 23.7-1.7a30.8 30.8 0 0 0 14-37.4 32.2 32.2 0 0 0-17.3-17.8c-5.9-2-15.6-2.1-20.9-.3zm21 10.2c2.4 1.4 5.6 4.4 7.1 6.6 2.3 3.6 2.7 5.2 2.7 11.7 0 6.8-.3 8.1-3 12.1a20.3 20.3 0 0 1-18.2 9.4c-5.4 0-6.9-.5-11.3-3.5a20.5 20.5 0 0 1-7.5-8.3c-9.6-19.3 11.7-38.9 30.2-28z"/><path class="st11" d="M86.5 124a16.4 16.4 0 0 0-8.4 11.2c-.7 3.2-.6 3.2 2.7-1.7 1.9-2.7 5.6-6.4 8.4-8.2 5.6-3.7 3.6-4.6-2.7-1.3z"/><path transform="rotate(-45 37.4 193.3)" class="st11" d="M35.3 187.1h4.1v12.3h-4.1z"/><path transform="rotate(-45 68.2 162.7)" class="st11" d="M65.9 156.1h4.6v13h-4.6z"/><path transform="rotate(-45 53.2 177.5)" class="st11" d="M36.1 173.1h34.2v8.9H36.1z"/></g></svg>
