<svg version="1.1" id="Слой_1" xmlns="http://www.w3.org/2000/svg" x="0" y="0" viewBox="0 0 230 230" style="enable-background:new 0 0 230 230" xml:space="preserve"><style>.st2{fill:#085988}.st5{fill:none;stroke:#60594e;stroke-width:2;stroke-linecap:round;stroke-miterlimit:10}</style><path d="M0-.1h230.1V230H0V-.1z" style="fill:#fbf4e8"/><g id="Inside_frame"><g id="top"><circle id="c" cx="26.7" cy="27.3" r="2.5" style="fill:#4e6693"/><use href="#c" transform="translate(6.5)"/><use href="#c" transform="translate(13.5)"/><use href="#c" transform="translate(20)"/><use href="#c" transform="translate(27)"/><use href="#c" transform="translate(34)"/><use href="#c" transform="translate(41)"/><use href="#c" transform="translate(47.5)"/><use href="#c" transform="translate(54)"/><use href="#c" transform="translate(60.5)"/><use href="#c" transform="translate(67.5)"/><use href="#c" transform="translate(74.5)"/><use href="#c" transform="translate(81.5)"/><use href="#c" transform="translate(88.5)"/><use href="#c" transform="translate(95.5)"/><use href="#c" transform="translate(101.5)"/><use href="#c" transform="translate(108.5)"/><use href="#c" transform="translate(115.5)"/><use href="#c" transform="translate(122.5)"/><use href="#c" transform="translate(129.5)"/><use href="#c" transform="translate(136.5)"/><use href="#c" transform="translate(143)"/><use href="#c" transform="translate(150)"/><use href="#c" transform="translate(157)"/><use href="#c" transform="translate(163.5)"/><use href="#c" transform="translate(170.5)"/><use href="#c" transform="translate(176.5)"/></g><use href="#top" transform="translate(0 177)"/><use href="#top" id="r" transform="rotate(90 115 115.5)"/><use href="#r" transform="translate(-177)"/></g><path class="st2" d="M172.8 191.8c3.6-.4 8.9-1.1 11.8-6.3.1-.4 1.7-3.1 1.2-4.2s-2.8-.3-4.7.5l-3.5 1.6c-3 1.3-8.1 2-9.5-1.2a8.7 8.7 0 0 1-.4-4.8c.3-2.1 1.1-3.6 1.3-4.3 1.9-3.2 5.5-5.5 9-5.1 1.6.1 2.8.9 3.8-.1.9-1.1.8-3.1.8-3.4-.1-1.6-.9-3-2.1-3.9-2.8-2-4.3-1.9-9.1 1.2-5.5 3-9.5 8.3-10.7 14.5-.3 1.5-1.6 7.1.5 11a7.3 7.3 0 0 0 2.7 2.8c1 .7 3.7 2.3 8.9 1.7zm-85.7-71.7 12.5 13.1 6.5-6-13.3-12.7-5.7 5.6zm-41.8 38 12.1 13.1 40-36-12.5-12.7-39.6 35.6zm-3.6 1.9c-1.6-1.2-4.4-.8-6.5.8-1.6 1.6-2 4-1.2 5.9L46.6 179c2 .8 4.4.4 6.1-1.2 2-2 1.2-4.4 1.2-4.7L41.7 160z"/><path class="st2" d="M147.4 42.7c-9.4-3-14.6-3-27.4 0a52.9 52.9 0 0 0-18.7 11.4 42.8 42.8 0 0 0-10.1 50.1 46.8 46.8 0 0 0 84.7 1.1c11.9-24.7-1.2-52.7-28.5-62.6zm3.3 72.8a32.4 32.4 0 0 1-44.6-11.8 33.2 33.2 0 0 1-4.1-21.6c3.4-24.7 28.9-37.5 49.5-24.3 19.8 13.3 19.5 46-.8 57.7z"/><path d="M107.6 90.3c0-3.1.5-8.5 3.5-14.3a37.3 37.3 0 0 1 23.5-18" style="fill:none;stroke:#085988;stroke-width:4;stroke-miterlimit:10"/><g id="Waves"><path d="M105.6 175.6c-8 .3-12.9 2.8-16 4.9-6.7 4.7-6.5 9.7-15 15.1-2.4 1.5-6.2 3.9-11.5 4.5-3.4.4-6.3 0-11.9-1-7.5-1.3-7.8-2.2-11.6-2.1-4 .1-7.8 1.1-11.3 3.1-4.1 2.2-5.5 4.3-9.9 8.4a82 82 0 0 1-12.3 9.7" style="fill:none;stroke:#595247;stroke-width:2;stroke-linecap:round;stroke-miterlimit:10"/><path class="st5" d="M26.7 222.4c3.1-2.3 5.8-4 7.9-5.4 1.8-1.3 3.7-2.3 5.8-3.1 2.5-.8 4.5-.7 6.9-.6 2 .1 4.9.3 8.2 1.2 3 1.2 6.2 1.8 9.4 2 4.9.2 8.8-.9 11.2-1.7 5-1.6 7.8-4.1 9.5-6 2.4-2.8 2.4-4.6 5.7-7.8.6-.6 2.1-2.1 5.9-4.5l6.4-3.7c2.2-1.1 4.1-1.1 4.6-1.1 2.4-.3 4.5-.1 5.9.2"/><path d="M100.4 213.1a63.9 63.9 0 0 1-13.3 15.5m35.6-18.5c-1.9-.3-5.9-.8-10.1 0-.9.2-2.6.5-4.7 1.4-1.6.7-2.7 1.4-3.1 1.6-2.7 1.6-4.9 4-6.2 6.9" style="fill:none;stroke:#60594e;stroke-linecap:round;stroke-miterlimit:10"/><path class="st5" d="M229 140.4c-3.5-2-8.4-4.5-14.6-6.8a81.2 81.2 0 0 0-83.4 11.6s-15.8 12.9-23.6 32.1c-2.4 6-3.8 12.2-3.8 12.2-1 4.4-1.6 9-1.8 13.5-.2 5.1.2 9.1.3 10.8l.7 5.2"/><path class="st5" d="m219.2 153.5-10.3-5.5c-5.5-2.3-18.7-7-35.5-4.5a67.2 67.2 0 0 0-52.9 44.3c-1.4 5.1-2.1 10.9-2.1 10.9-.4 4-.4 6.7-.4 12.1 0 4.2.5 7.4.8 9.5.4 2.8.7 5.2 1.1 7"/></g><path d="M1 229.1h8.9c.2-5 3.8-9 8.2-9.6 5.2-.7 10.4 3.6 10.8 9.5l8.9.1c.2-5 3.9-9.1 8.4-9.6 5.5-.4 10.3 3.7 10.8 9.2v.4h7.9c.5-5.1 4.5-9 9.2-9.4 5.3-.5 10.4 3.7 11.1 9.4h7.4c.5-5 4.5-8.8 9.2-9.2 5.2-.4 10.1 3.6 10.7 9.2h7.2a10 10 0 0 1 9.7-9.4 10 10 0 0 1 10 9.4h7.8a9.8 9.8 0 0 1 9.3-9.4 10 10 0 0 1 10.2 9.4h7.2c.4-5.5 5.1-9.7 10.5-9.5 5.1.2 9.3 4.3 9.7 9.5h7.9a10 10 0 0 1 9.9-9.3c5 .1 9.2 4.1 9.5 9.3h7.7v-7.5c-5.6-.7-9.6-5.7-9.3-11 .3-4.9 4.2-9 9.3-9.6v-8.4a10 10 0 0 1-9-9.6 10 10 0 0 1 9-10v-7c-5.7-.7-9.7-5.8-9.2-11 .4-4.6 4.3-8.4 9.2-9v-8.1a10 10 0 0 1-9.3-10.3 9.9 9.9 0 0 1 9.3-9v-7.2c-5.7-.9-9.6-6-9.2-11.3.4-4.7 4.2-8.6 9.2-9.3v-7.6a10 10 0 0 1 0-19.8l.1-7.6c-5.6-.2-10-4.9-9.8-10.3a10 10 0 0 1 9.7-9.5l.1-7.6a9.7 9.7 0 0 1-9.2-9.7c0-5.1 4.1-9.3 9.2-9.6V.9h-8.7a9.7 9.7 0 0 1-8.5 9.2c-5.1.5-10-3.5-10.5-9.2h-8.6a9 9 0 0 1-8.5 9.5h-.5a9.2 9.2 0 0 1-9.1-9.3V.9H166a9.8 9.8 0 0 1-9.9 9.4c-4.9-.2-9-4.3-9.1-9.4h-8.8c.1 5-3.9 9.2-8.9 9.3h-.3c-5-.1-9.1-4.3-9-9.3h-8.7c.1 5.1-4 9.4-9.1 9.4A9.2 9.2 0 0 1 93.1 1V.9h-9.3c0 5.2-4.3 9.4-9.4 9.4-5-.1-9.1-4.3-9.1-9.4h-8.5c-.2 5.5-5 9.7-10.1 9.3A9.5 9.5 0 0 1 38.2.9h-8.3c-.3 5.5-5 9.7-10.2 9.4-5-.4-8.9-4.4-9-9.4H1.2v8.5a10 10 0 0 1 9.1 8.9 10 10 0 0 1-9.1 10.5v7.5a10 10 0 0 1 9.5 9.9 10 10 0 0 1-9.5 10v7c5.2.8 8.9 5.4 8.7 10.5-.2 4.8-3.8 8.9-8.7 9.7v7.9a10 10 0 0 1 9 9.5c.2 5.1-3.7 9.8-9 10.4v7.3a10 10 0 0 1 10 10 10 10 0 0 1-10 10v7.5c5.2.6 9.1 5.2 8.9 10.3-.2 4.9-4 9-8.9 9.6v7.7a10 10 0 0 1 9.4 9.6 9.8 9.8 0 0 1-9.4 9.9v8c5.4.3 9.4 4.9 9.1 10a9.8 9.8 0 0 1-9.1 8.9c-.2 3.1-.2 6.1-.2 9.1z" style="fill:none;stroke:#000;stroke-width:2;stroke-miterlimit:10"/></svg>
