<svg version="1.1" id="Слой_1" xmlns="http://www.w3.org/2000/svg" x="0" y="0" viewBox="0 0 230 230" style="enable-background:new 0 0 230 230" xml:space="preserve"><style>.st1{fill:#523f35}.st2{opacity:.7}.st6{fill:#055ba2}</style><radialGradient id="SVGID_1_" cx="91.3" cy="140.5" r="46.6" gradientUnits="userSpaceOnUse"><stop offset="0" style="stop-color:#fff"/><stop offset="1" style="stop-color:#e1c9a5"/></radialGradient><path style="fill:url(#SVGID_1_)" d="m94.9 16.6 117.9 118.6-77.7 77.2L17.2 93.8z"/><path class="st1" d="M183.9 122.8 94.1 32.6a1 1 0 0 1 0-1.5l1-1a1 1 0 0 1 1.5 0l89.7 90.2a1 1 0 0 1 0 1.5l-1 1c-.3.4-1 .4-1.4 0zm-49.7 74.7-89.7-90.2a1 1 0 0 1 0-1.5l1-1a1 1 0 0 1 1.5 0l89.7 90.2a1 1 0 0 1 0 1.5l-1 1c-.4.4-1 .4-1.5 0zm63.1-61.2-7.4-7.4a1 1 0 0 1 0-1.5l1-1a1 1 0 0 1 1.5 0l7.4 7.4a1 1 0 0 1 0 1.5l-1 1a1 1 0 0 1-1.5 0zM39.3 102 32 94.6a1 1 0 0 1 0-1.5l1-1a1 1 0 0 1 1.5 0l7.4 7.4a1 1 0 0 1 0 1.5l-1 1c-.5.4-1.1.4-1.6 0z" id="Lines"/><path class="st1" d="M117.4 85.9c0 .1 0 .1 0 0l4.5-4.5-.1-6.6-27.5-27.6-5.6-.4-5.2 5.1-2.2-2.2c-.5-.3-1.6-.8-3.1-.7a6 6 0 0 0-2.9.7l-7.6 7.5 5.2 5.2-19.4 19.4 2 2-4 3.9c-.2.4-.6 1-.6 1.9-.1 1.6.6 2.7.8 3.1l4.2 4.2c.4.2 1.3.7 2.6.6 1.2 0 2-.5 2.4-.7l3.8-3.8 11.5 11.6-4 3.9c-.2.4-.6 1-.6 1.9-.1 1.6.6 2.7.8 3.1l4.2 4.2c.4.2 1.3.7 2.6.6 1.2 0 2-.5 2.4-.7l3.8-3.8-2.4-2.5 4.4 4.4 19.5-19.4 5.2 5.2 7.6-7.5c.3-.5.8-1.5.8-2.9 0-1.5-.5-2.6-.8-3.1l-2.3-2.1zm-35.5 27.5-1.1 1.1c-.7.7-1.9.7-2.6 0l-2.5-2.5c-.7-.7-.7-1.9 0-2.6l1.1-1.1c.7-.7 1.9-.7 2.6 0l2.5 2.5c.8.7.8 1.9 0 2.6zm-8.2-57.1 3.6-3.6c.5-.5 1.4-.5 1.9 0l.7.7c.5.5.5 1.4 0 1.9l-3.6 3.6c-.5.5-1.4.5-1.9 0l-.7-.7c-.5-.5-.5-1.3 0-1.9zM61.2 92.6l-1.1 1.1c-.7.7-1.9.7-2.6 0L55 91.2c-.7-.7-.7-1.9 0-2.6l1.1-1.1c.7-.7 1.9-.7 2.6 0l2.5 2.5c.8.7.7 1.9 0 2.6zM75 99.1l-5-5c-.7-.7-.7-1.7 0-2.4l.4-.4c.7-.7 1.7-.7 2.4 0l5 5c.7.7.7 1.7 0 2.4l-.4.4c-.6.6-1.7.6-2.4 0zm20.5 3.2-2.3 2.3c-.5.5-1.3.5-1.8 0l-4.5-4.5L84 103l5 5c.3.3.3.9 0 1.2l-1.6 1.5a1 1 0 0 1-1.2 0l-7.2-7.2a1 1 0 0 1 0-1.2l1.6-1.5.4-.4 3.1-3.1-11.8-12.1-2.9 2.9-.4.4-.2.2-1.6 1.5a1 1 0 0 1-1.2 0L58.8 83a1 1 0 0 1 0-1.2l1.6-1.5a1 1 0 0 1 1.2 0l5 5 2.9-2.9-4.7-4.7c-.5-.5-.5-1.3 0-1.8l2.3-2.3c.5-.5 1.3-.5 1.8 0a336.5 336.5 0 0 0 26.7 26.9c.1.1.4.4.4.9a4 4 0 0 1-.5.9zm5-5a1 1 0 0 1-1.2.1 112 112 0 0 1-27.1-27.3 1 1 0 0 1 .1-1.2l13.1-13a1 1 0 0 1 1.4 0l26.6 26.7c.4.4.4 1 0 1.3l-12.9 13.4zm16.1-5.1-3.6 3.6c-.5.5-1.4.5-1.9 0l-.7-.7c-.5-.5-.5-1.4 0-1.9l3.6-3.6c.5-.5 1.4-.5 1.9 0l.7.7c.5.5.5 1.4 0 1.9zm-.4-12.4L89.6 53c-.5-.5-.5-1.3 0-1.9l.9-.8c.5-.5 1.3-.5 1.9 0L119 77.1c.5.5.5 1.3 0 1.9l-.9.8c-.5.5-1.3.5-1.9 0z"/><g id="Text" class="st2"><path d="m132.8 101.2-.3-.1-.1-.3.1-.3.3-.1.3.1c.1.1.2.3.1.5l-.4.2zm.8.8-.3-.1-.1-.3.1-.3.3-.1.3.1c.1.1.2.3.1.5l-.4.2zm.8.8-.3-.1-.1-.3.1-.3.3-.1.3.1c.1.1.2.3.1.5l-.4.2zm.1-1.7-.3-.1-.1-.3.1-.3.3-.1.3.1c.1.1.2.3.1.5l-.4.2zm.9-.9-.3-.1-.1-.3.1-.3.3-.1.3.1c.1.1.2.3.1.5l-.4.2zm.9-.8-.3-.1-.1-.3.2-.3.3-.1.3.1.1.5-.5.2zm.2-5-.3-.1-.1-.3.1-.3.3-.1.3.1c.1.1.2.3.1.5 0 0-.1.2-.4.2zm.6 4.1-.3-.1-.1-.3.1-.3.3-.1.3.1c.1.1.2.3.1.5 0 .1-.1.2-.4.2zm.3-5-.3-.1-.1-.3.1-.3.3-.1.3.1c.1.1.2.3.1.5l-.4.2zm.6 4.1-.3-.1-.1-.3.1-.3.3-.1.3.1c.1.1.2.3.1.5l-.4.2zm.2-3.3-.3-.1-.1-.3.1-.3.3-.1.3.1c.1.1.2.3.1.5l-.4.2zm.7 2.4-.3-.1-.1-.3.1-.3.3-.1.3.1c.1.1.2.3.1.5l-.4.2zm.1-1.6-.3-.1-.1-.3.1-.3.3-.1.3.1c.1.1.2.3.1.5l-.4.2zm.8.8-.3-.1-.1-.3.1-.3.3-.1.3.1c.1.1.2.3.1.5l-.4.2zm.7.8-.3-.1-.1-.3.1-.3.3-.1.3.1c.1.1.2.3.1.5l-.4.2zm.7 2.4-.3-.1-.1-.3.1-.3.3-.1.3.1c.1.1.2.3.1.5l-.4.2zm.1-1.7-.3-.1-.1-.3.1-.3.3-.1.3.1c.1.1.2.3.1.5l-.4.2zm.8.8-.3-.1-.1-.3.1-.3.3-.1.3.1c.1.1.2.3.1.5l-.4.2zm-4.9 7.4-.3-.1-.1-.3.1-.3.3-.1.3.1c.1.1.2.3.1.5l-.4.2zm.8.8-.3-.1-.1-.3.1-.3.3-.1.3.1c.1.1.2.3.1.5l-.4.2zm.8.8-.3-.1-.1-.3.1-.3.3-.1.3.1c.1.1.2.3.1.5l-.4.2zm.1-1.7-.3-.1-.1-.3.1-.3.3-.1.3.1c.1.1.2.3.1.5l-.4.2zm.9-.9-.3-.1-.1-.3.1-.3.3-.1.3.1c.1.1.2.3.1.5l-.4.2zm.9-.8-.3-.1-.1-.3.2-.3.3-.1.3.1.1.5-.5.2zm.8-.9-.3-.1-.1-.3.1-.3.3-.1.3.1c.1.1.2.3.1.5 0 .1-.1.2-.4.2zm.4 7.4-.3-.1-.1-.3.1-.3.3-.1.3.1c.1.1.2.3.1.5l-.4.2zm.1-1.6-.3-.1-.1-.3.1-.3.3-.1.3.1c.1.1.2.3.1.5l-.4.2zm.1-1.7-.3-.1-.1-.3.1-.3.3-.1.3.1c.1.1.2.3.1.5l-.4.2zm.1-1.7-.3-.1-.1-.3.2-.3.3-.1.3.1.1.5-.5.2zm.1-1.6-.3-.1-.1-.3.1-.3.3-.1.3.1c.1.1.2.3.1.5l-.4.2zm.1-1.7-.3-.1-.1-.3.1-.3.3-.1.3.1c.1.1.2.3.1.5l-.4.2zm.7 2.5-.3-.1-.1-.3.1-.3.3-.1.3.1c.1.1.2.3.1.5l-.4.2zm.2-3.4-.3-.1-.1-.3.1-.3.3-.1.3.1c.1.1.2.3.1.5l-.4.2zm.1-1.6-.3-.1-.1-.3.1-.3.3-.1.3.1c.1.1.2.3.1.5l-.4.2zm.5 5.8-.3-.1-.1-.3.1-.3.3-.1.3.1c.1.1.2.3.1.5l-.4.2zm.3-5-.3-.1-.1-.3.1-.3.3-.1.3.1c.1.1.2.3.1.5l-.4.2zm.5 5.7-.3-.1-.1-.3.1-.3.3-.1.3.1c.1.1.2.3.1.5l-.4.2zm.2-4.9-.3-.1-.1-.3.1-.3.3-.1.3.1c.1.1.2.3.1.5l-.4.2zm.8.8-.3-.1-.1-.3.1-.3.3-.1.3.1c.1.1.2.3.1.5l-.4.2zm.6 4.1-.3-.1-.1-.3.1-.3.3-.1.3.1c.1.1.2.3.1.5l-.4.2zm.2-3.4-.3-.1-.1-.3.1-.3.3-.1.3.1c.1.1.2.3.1.5l-.4.2zm.7 2.5-.3-.1-.1-.3.1-.3.3-.1.3.1c.1.1.2.3.1.5l-.4.2zm.1-1.7-.3-.1-.1-.3.1-.3.3-.1.3.1c.1.1.2.3.1.5l-.4.2zm-4.1 8.2-.3-.1-.1-.3.1-.3.3-.1.3.1c.1.1.2.3.1.5l-.4.2zm.9-.9-.3-.1-.1-.3.1-.3.3-.1.3.1c.1.1.2.3.1.5l-.4.2zm.8-.9-.3-.1-.1-.3.1-.3.3-.1.3.1c.1.1.2.3.1.5 0 .1-.1.2-.4.2zm.9-.8-.3-.1-.1-.3.2-.3.3-.1.3.1.1.5-.5.2zm.8.7-.3-.1-.1-.3.2-.3.3-.1.3.1.1.5-.5.2zm.1-1.6-.3-.1-.1-.3.1-.3.3-.1.3.1c.1.1.2.3.1.5l-.4.2zm.7 2.4-.3-.1-.1-.3.2-.3.3-.1.3.1.1.5-.5.2zm.2-3.3-.3-.1-.1-.3.1-.3.3-.1.3.1c.1.1.2.3.1.5l-.4.2zm.3 9.1-.3-.1-.1-.3.1-.3.3-.1.3.1c.1.1.2.3.1.5l-.4.2zm.3-5-.3-.1-.1-.3.2-.3.3-.1.3.1.1.5-.5.2zm.3-5-.3-.1-.1-.3.1-.3.3-.1.3.1c.1.1.2.3.1.5l-.4.2zm.3 9.2-.3-.1-.1-.3.1-.3.3-.1.3.1c.1.1.2.3.1.5l-.4.2zm.2-3.4-.3-.1-.1-.3.2-.3.3-.1.3.1.1.5-.5.2zm.6 2.5-.3-.1-.1-.3.1-.3.3-.1.3.1c.1.1.2.3.1.5l-.4.2zm.1-1.7-.3-.1-.1-.3.2-.3.3-.1.3.1.1.5-.5.2zm.4-6.6-.3-.1-.1-.3.1-.3.3-.1.3.1c.1.1.2.3.1.5l-.4.2zm.4 7.4-.3-.1-.1-.3.2-.3.3-.1.3.1.1.5-.5.2zm.4-6.6-.3-.1-.1-.3.1-.3.3-.1.3.1c.1.1.2.3.1.5l-.4.2zm.5 5.7-.3-.1-.1-.3.1-.3.3-.1.3.1c.1.1.2.3.1.5l-.4.2zm.3-5-.3-.1-.1-.3.1-.3.3-.1.3.1c.1.1.2.3.1.5l-.4.2zm.6 4.2-.3-.1-.1-.3.1-.3.3-.1.3.1c.1.1.2.3.1.5l-.4.2zm.2-3.4-.3-.1-.1-.3.1-.3.3-.1.3.1c.1.1.2.3.1.5l-.4.2zm.6 2.5-.3-.1-.1-.3.1-.3.3-.1.3.1c.1.1.2.3.1.5 0 .1-.1.2-.4.2zm.1-1.7-.3-.1-.1-.3.1-.3.3-.1.3.1c.1.1.2.3.1.5l-.4.2zm-4.1 8.2-.3-.1-.1-.3.1-.3.3-.1.3.1c.1.1.2.3.1.5l-.4.2zm.9-.9-.3-.1-.1-.3.1-.3.3-.1.3.1c.1.1.2.3.1.5l-.4.2zm.9-.9-.3-.1-.1-.3.1-.3.3-.1.3.1c.1.1.2.3.1.5l-.4.2zm.9-.9-.3-.1-.1-.3.2-.3.3-.1.3.1.1.5-.5.2zm.9-.8-.3-.1-.1-.3.1-.3.3-.1.3.1c.1.1.2.3.1.5l-.4.2zm.8-.9-.3-.1-.1-.3.1-.3.3-.1.3.1c.1.1.2.3.1.5 0 .1-.1.2-.4.2zm.3 9.1-.3-.1-.1-.3.1-.3.3-.1.3.1c.1.1.2.3.1.5l-.4.2zm.6-10-.3-.1-.1-.3.1-.3.3-.1.3.1c.1.1.2.3.1.5l-.4.2zm.3 9.1-.3-.1-.1-.3.1-.3.3-.1.3.1c.1.1.2.3.1.5l-.4.2zm.1-1.6-.3-.1-.1-.3.1-.3.3-.1.3.1c.1.1.2.3.1.5l-.4.2zm.1-1.7-.3-.1-.1-.3.2-.3.3-.1.3.1.1.5-.5.2zm.1-1.7-.3-.1-.1-.3.1-.3.3-.1.3.1c.1.1.2.3.1.5l-.4.2zm.1-1.6-.3-.1-.1-.3.1-.3.3-.1.3.1c.1.1.2.3.1.5l-.4.2zm.1-1.7-.3-.1-.1-.3.1-.3.3-.1.3.1c.1.1.2.3.1.5l-.4.2zm.1-1.6-.3-.1-.1-.3.1-.3.3-.1.3.1c.1.1.2.3.1.5l-.4.2zm.3 9.1-.3-.1-.1-.3.1-.3.3-.1.3.1c.1.1.2.3.1.5l-.4.2zm.9-.9-.3-.1-.1-.3.2-.3.3-.1.3.1.1.5-.5.2zm.8-.9-.3-.1-.1-.3.1-.3.3-.1.3.1c.1.1.2.3.1.5 0 .1-.1.2-.4.2zm.9-.8-.3-.1-.1-.3.1-.3.3-.1.3.1c.1.1.2.3.1.5l-.4.2zm.9-.9-.3-.1-.1-.3.1-.3.3-.1.3.1c.1.1.2.3.1.5l-.4.2zm.9-.9-.3-.1-.1-.3.1-.3.3-.1.3.1c.1.1.2.3.1.5l-.4.2zm-4.1 8.1-.3-.1-.1-.3.1-.3.3-.1.3.1c.1.1.2.3.1.5l-.4.2zm.1-1.6-.3-.1-.1-.3.1-.3.3-.1.3.1c.1.1.2.3.1.5l-.4.2zm.6 2.4-.3-.1-.1-.3.1-.3.3-.1.3.1c.1.1.2.3.1.5 0 .1-.1.2-.4.2zm.8.8-.3-.1-.1-.3.1-.3.3-.1.3.1c.1.1.2.3.1.5l-.4.2zm.8.8-.3-.1-.1-.3.1-.3.3-.1.3.1c.1.1.2.3.1.5l-.4.2zm.8.8-.3-.1-.1-.3.1-.3.3-.1.3.1c.1.1.2.3.1.5l-.4.2zm.3-5-.3-.1-.1-.3.2-.3.3-.1.3.1.1.5-.5.2zm.1-1.7-.3-.1-.1-.3.1-.3.3-.1.3.1c.1.1.2.3.1.5l-.4.2zm.1-1.6-.3-.1-.1-.3.1-.3.3-.1.3.1c.1.1.2.3.1.5l-.4.2zm.6 4.1-.3-.1-.1-.3.2-.3.3-.1.3.1.1.5-.5.2zm.3-5-.3-.1-.1-.3.1-.3.3-.1.3.1c.1.1.2.3.1.5l-.4.2zm.3 9.1-.3-.1-.1-.3.1-.3.3-.1.3.1c.1.1.2.3.1.5l-.4.2zm.2-3.3-.3-.1-.1-.3.2-.3.3-.1.3.1.1.5-.5.2zm.6 2.5-.3-.1-.1-.3.1-.3.3-.1.3.1c.1.1.2.3.1.5l-.4.2zm.1-1.7-.3-.1-.1-.3.2-.3.3-.1.3.1.1.5c-.1.1-.2.2-.5.2zm.4-6.7-.3-.1-.1-.3.1-.3.3-.1.3.1c.1.1.2.3.1.5l-.4.2zm.8.8-.3-.1-.1-.3.1-.3.3-.1.3.1c.1.1.2.3.1.5l-.4.2zm.8.8-.3-.1-.1-.3.1-.3.3-.1.3.1c.1.1.2.3.1.5l-.4.2zm.8.8-.3-.1-.1-.3.1-.3.3-.1.3.1c.1.1.2.3.1.5l-.4.2zm.6 2.5-.3-.1-.1-.3.1-.3.3-.1.3.1c.1.1.2.3.1.5l-.4.2zm.1-1.7-.3-.1-.1-.3.1-.3.3-.1.3.1c.1.1.2.3.1.5 0 .1-.1.2-.4.2zm-4.1 8.1-.3-.1-.1-.3.1-.3.3-.1.3.1c.1.1.2.3.1.5 0 .1-.1.2-.4.2zm.8.8-.3-.1-.1-.3.1-.3.3-.1.3.1c.1.1.2.3.1.5l-.4.2zm.8.8-.3-.1-.1-.3.1-.3.3-.1.3.1c.1.1.2.3.1.5l-.4.2zm.1-1.6-.3-.1-.1-.3.1-.3.3-.1.3.1c.1.1.2.3.1.5l-.4.2zm.9-.9-.3-.1-.1-.3.1-.3.3-.1.3.1c.1.1.2.3.1.5l-.4.2zm.9-.9-.3-.1-.1-.3.2-.3.3-.1.3.1.1.5-.5.2zm.9-.9-.3-.1-.1-.3.1-.3.3-.1.3.1c.1.1.2.3.1.5l-.4.2zm.7.8-.3-.1-.1-.3.1-.3.3-.1.3.1c.1.1.2.3.1.5l-.4.2zm.1-1.6-.3-.1-.1-.3.1-.3.3-.1.3.1c.1.1.2.3.1.5l-.4.2zm.7 2.4-.3-.1-.1-.3.1-.3.3-.1.3.1c.1.1.2.3.1.5l-.4.2zm.2-3.3-.3-.1-.1-.3.1-.3.3-.1.3.1c.1.1.2.3.1.5l-.4.2zm.1-1.6-.3-.1-.1-.3.1-.3.3-.1.3.1c.1.1.2.3.1.5l-.4.2zm.5 5.7-.3-.1-.1-.3.1-.3.3-.1.3.1c.1.1.2.3.1.5l-.4.2zm.3-5-.3-.1-.1-.3.1-.3.3-.1.3.1c.1.1.2.3.1.5l-.4.2zm.5 5.8-.3-.1-.1-.3.1-.3.3-.1.3.1c.1.1.2.3.1.5l-.4.2zm.3-5-.3-.1-.1-.3.1-.3.3-.1.3.1c.1.1.2.3.1.5l-.4.2zm.7.8-.3-.1-.1-.3.1-.3.3-.1.3.1c.1.1.2.3.1.5l-.4.2zm.6 4.1-.3-.1-.1-.3.1-.3.3-.1.3.1c.1.1.2.3.1.5l-.4.2zm.2-3.3-.3-.1-.1-.3.1-.3.3-.1.3.1c.1.1.2.3.1.5l-.4.2zm.7 2.5-.3-.1-.1-.3.1-.3.3-.1.3.1c.1.1.2.3.1.5l-.4.2zm.1-1.7-.3-.1-.1-.3.1-.3.3-.1.3.1c.1.1.2.3.1.5l-.4.2zm-3.3 8.9-.3-.1-.1-.3.1-.3.3-.1.3.1c.1.1.2.3.1.5l-.4.2zm.1-1.6-.3-.1-.1-.3.1-.3.3-.1.3.1c.1.1.2.3.1.5l-.4.2zm.7 2.4-.3-.1-.1-.3.1-.3.3-.1.3.1c.1.1.2.3.1.5l-.4.2zm.2-3.3-.3-.1-.1-.3.1-.3.3-.1.3.1c.1.1.2.3.1.5l-.4.2zm.5 4.1-.3-.1-.1-.3.1-.3.3-.1.3.1c.1.1.2.3.1.5 0 .1-.1.2-.4.2zm.3-5-.3-.1-.1-.3.2-.3.3-.1.3.1.1.5c-.1.1-.2.2-.5.2zm.5 5.8-.3-.1-.1-.3.1-.3.3-.1.3.1c.1.1.2.3.1.5l-.4.2zm.4-6.7-.3-.1-.1-.3.1-.3.3-.1.3.1c.1.1.2.3.1.5l-.4.2zm.4 7.5-.3-.1-.1-.3.1-.3.3-.1.3.1c.1.1.2.3.1.5l-.4.2zm.5-8.3-.3-.1-.1-.3.1-.3.3-.1.3.1c.1.1.2.3.1.5l-.4.2zm.9-.9-.3-.1-.1-.3.1-.3.3-.1.3.1c.1.1.2.3.1.5l-.4.2zm.3 9.1-.3-.1-.1-.3.1-.3.3-.1.3.1c.1.1.2.3.1.5l-.4.2zm.8-.9-.3-.1-.1-.3.1-.3.3-.1.3.1c.1.1.2.3.1.5 0 .1-.1.2-.4.2zm.5-8.3-.3-.1-.1-.3.1-.3.3-.1.3.1c.1.1.2.3.1.5l-.4.2zm.4 7.5-.3-.1-.1-.3.2-.3.3-.1.3.1.1.5-.5.2zm.4-6.7-.3-.1-.1-.3.1-.3.3-.1.3.1c.1.1.2.3.1.5l-.4.2zm.5 5.8-.3-.1-.1-.3.1-.3.3-.1.3.1c.1.1.2.3.1.5l-.4.2zm.3-5-.3-.1-.1-.3.1-.3.3-.1.3.1c.1.1.2.3.1.5l-.4.2zm.6 4.1-.3-.1-.1-.3.1-.3.3-.1.3.1c.1.1.2.3.1.5l-.4.2zm.2-3.3-.3-.1-.1-.3.1-.3.3-.1.3.1c.1.1.2.3.1.5l-.4.2zm.7 2.4-.3-.1-.1-.3.1-.3.3-.1.3.1c.1.1.2.3.1.5l-.4.2zm.1-1.6-.3-.1-.1-.3.1-.3.3-.1.3.1c.1.1.2.3.1.5l-.4.2zm-4.1 8.1-.3-.1-.1-.3.1-.3.3-.1.3.1c.1.1.2.3.1.5l-.4.2zm.7.8-.3-.1-.1-.3.1-.3.3-.1.3.1c.1.1.2.3.1.5l-.4.2zm.8.8-.3-.1-.1-.3.1-.3.3-.1.3.1c.1.1.2.3.1.5l-.4.2zm.1-1.7-.3-.1-.1-.3.1-.3.3-.1.3.1c.1.1.2.3.1.5l-.4.2zm.9-.8-.3-.1-.1-.3.1-.3.3-.1.3.1c.1.1.2.3.1.5l-.4.2zm.9-.9-.3-.1-.1-.3.2-.3.3-.1.3.1.1.5-.5.2zm.9-.9-.3-.1-.1-.3.1-.3.3-.1.3.1c.1.1.2.3.1.5l-.4.2zm.3 7.5-.3-.1-.1-.3.1-.3.3-.1.3.1c.1.1.2.3.1.5l-.4.2zm.1-1.7-.3-.1-.1-.3.1-.3.3-.1.3.1c.1.1.2.3.1.5 0 .1-.1.2-.4.2zm.1-1.7-.3-.1-.1-.3.1-.3.3-.1.3.1c.1.1.2.3.1.5 0 .1-.1.2-.4.2zm.1-1.6-.3-.1-.1-.3.2-.3.3-.1.3.1.1.5c-.1 0-.2.2-.5.2zm.1-1.7-.3-.1-.1-.3.1-.3.3-.1.3.1c.1.1.2.3.1.5l-.4.2zm.1-1.7-.3-.1-.1-.3.1-.3.3-.1.3.1c.1.1.2.3.1.5 0 .1-.1.2-.4.2zm.7 2.5-.3-.1-.1-.3.1-.3.3-.1.3.1c.1.1.2.3.1.5l-.4.2zm.2-3.3-.3-.1-.1-.3.1-.3.3-.1.3.1c.1.1.2.3.1.5l-.4.2zm.1-1.7-.3-.1-.1-.3.1-.3.3-.1.3.1c.1.1.2.3.1.5l-.4.2zm.5 5.8-.3-.1-.1-.3.1-.3.3-.1.3.1c.1.1.2.3.1.5l-.4.2zm.3-5-.3-.1-.1-.3.1-.3.3-.1.3.1c.1.1.2.3.1.5l-.4.2zm.5 5.8-.3-.1-.1-.3.1-.3.3-.1.3.1c.1.1.2.3.1.5l-.4.2zm.3-5-.3-.1-.1-.3.1-.3.3-.1.3.1c.1.1.2.3.1.5l-.4.2zm.7.8-.3-.1-.1-.3.1-.3.3-.1.3.1c.1.1.2.3.1.5 0 .1-.1.2-.4.2zm.6 4.1-.3-.1-.1-.3.1-.3.3-.1.3.1c.1.1.2.3.1.5 0 .1-.1.2-.4.2zm.2-3.3-.3-.1-.1-.3.1-.3.3-.1.3.1c.1.1.2.3.1.5l-.4.2zm.7 2.4-.3-.1-.1-.3.1-.3.3-.1.3.1c.1.1.2.3.1.5l-.4.2zm.1-1.6-.3-.1-.1-.3.1-.3.3-.1.3.1c.1.1.2.3.1.5l-.4.2zm-2.5 9.7-.3-.1-.1-.3.1-.3.3-.1.3.1c.1.1.2.3.1.5l-.4.2zm.7.8-.3-.1-.1-.3.1-.3.3-.1.3.1c.1.1.2.3.1.5 0 .1-.1.2-.4.2zm.8.8-.3-.1-.1-.3.1-.3.3-.1.3.1c.1.1.2.3.1.5l-.4.2zm.1-1.7-.3-.1-.1-.3.1-.3.3-.1.3.1c.1.1.2.3.1.5l-.4.2zm.9-.9-.3-.1-.1-.3.1-.3.3-.1.3.1c.1.1.2.3.1.5l-.4.2zm.9-.8-.3-.1-.1-.3.2-.3.3-.1.3.1.1.5-.5.2zm.3-5-.3-.1-.1-.3.1-.3.3-.1.3.1c.1.1.2.3.1.5l-.4.2zm.6 4.1-.3-.1-.1-.3.1-.3.3-.1.3.1c.1.1.2.3.1.5l-.4.2zm.3-5-.3-.1-.1-.3.1-.3.3-.1.3.1c.1.1.2.3.1.5l-.4.2zm.6 4.1-.3-.1-.1-.3.1-.3.3-.1.3.1c.1.1.2.3.1.5l-.4.2zm.1-3.3-.3-.1-.1-.3.1-.3.3-.1.3.1c.1.1.2.3.1.5l-.4.2zm.7 2.4-.3-.1-.1-.3.1-.3.3-.1.3.1c.1.1.2.3.1.5l-.4.2zm.1-1.6-.3-.1-.1-.3.1-.3.3-.1.3.1c.1.1.2.3.1.5l-.4.2zm.8.8-.3-.1-.1-.3.1-.3.3-.1.3.1c.1.1.2.3.1.5l-.4.2zm.8.8-.3-.1-.1-.3.1-.3.3-.1.3.1c.1.1.2.3.1.5l-.4.2zm.7 2.4-.3-.1-.1-.3.1-.3.3-.1.3.1c.1.1.2.3.1.5l-.4.2zm.1-1.7-.3-.1-.1-.3.1-.3.3-.1.3.1c.1.1.2.3.1.5l-.4.2zm.7.8-.3-.1-.1-.3.1-.3.3-.1.3.1c.1.1.2.3.1.5l-.4.2zM124.1 110l-.3-.1-.1-.3.1-.3.3-.1.3.1c.1.1.2.3.1.5l-.4.2zm.8.8-.3-.1-.1-.3.1-.3.3-.1.3.1c.1.1.2.3.1.5l-.4.2zm.7.8-.3-.1-.1-.3.1-.3.3-.1.3.1c.1.1.2.3.1.5 0 .1-.1.2-.4.2zm.1-1.6-.3-.1-.1-.3.1-.3.3-.1.3.1c.1.1.2.3.1.5l-.4.2zm.8-.8-.3-.1-.1-.3.1-.3.3-.1.3.1c.1.1.2.3.1.5l-.4.2zm.8-.8-.3-.1-.1-.3.1-.3.3-.1.3.1.1.5-.4.2zm0-4.9-.3-.1-.1-.3.1-.3.3-.1.3.1c.1.1.2.3.1.5l-.4.2zm.8 4-.3-.1-.1-.3.1-.3.3-.1.3.1c.1.1.2.3.1.5l-.4.2zm0-4.7-.3-.1-.1-.3.1-.3.3-.1.3.1c.1.1.2.3.1.5l-.4.2zm.8 4-.3-.1-.1-.3.1-.3.3-.1.3.1c.1.1.2.3.1.5l-.4.2zm0-3.2-.3-.1-.1-.3.1-.3.3-.1.3.1c.1.1.2.3.1.5l-.4.2zm.8 2.4-.3-.1-.1-.3.1-.3.3-.1.3.1c.1.1.2.3.1.5l-.4.2zm0-1.6-.3-.1-.1-.3.1-.3.3-.1.3.1c.1.1.2.3.1.5l-.4.2zm.8.8-.3-.1-.1-.3.1-.3.3-.1.3.1c.1.1.2.3.1.5l-.4.2zm.8.8-.3-.1-.1-.3.1-.3.3-.1.3.1c.1.1.2.3.1.5l-.4.2zm.8 2.4-.3-.1-.1-.3.1-.3.3-.1.3.1c.1.1.2.3.1.5l-.4.2zm0-1.6-.3-.1-.1-.3.1-.3.3-.1.3.1c.1.1.2.3.1.5l-.4.2zm.8.8-.3-.1-.1-.3.1-.3.3-.1.3.1c.1.1.2.3.1.5l-.4.2zm-4.4 6.8-.3-.1-.1-.3.1-.3.3-.1.3.1c.1.1.2.3.1.5l-.4.2zm.8.8-.3-.1-.1-.3.1-.3.3-.1.3.1c.1.1.2.3.1.5l-.4.2zm.8.8-.3-.1-.1-.3.1-.3.3-.1.3.1c.1.1.2.3.1.5l-.4.2zm0-1.6-.3-.1-.1-.3.1-.3.3-.1.3.1c.1.1.2.3.1.5l-.4.2zm.8-.8-.3-.1-.1-.3.1-.3.3-.1.3.1c.1.1.2.3.1.5l-.4.2zm.8-.8-.3-.1-.1-.3.1-.3.3-.1.3.1.1.5-.4.2zm.8-.8-.3-.1-.1-.3.1-.3.3-.1.3.1c.1.1.2.3.1.5 0 .1-.1.2-.4.2zm.9-.8-.3-.1-.1-.3.1-.3.3-.1.3.1c.1.1.2.3.1.5l-.4.2zm.8-.8-.3-.1-.1-.3.1-.3.3-.1.3.1c.1.1.2.3.1.5l-.4.2zm0-1.6-.3-.1-.1-.3.1-.3.3-.1.3.1c.1.1.2.3.1.5l-.4.2zm.8.8-.3-.1-.1-.3.1-.3.3-.1.3.1c.1.1.2.3.1.5l-.4.2zm.7.8-.3-.1-.1-.3.1-.3.3-.1.3.1c.1.1.2.3.1.5l-.4.2zm-3.6 7.7-.3-.1-.1-.3.1-.3.3-.1.3.1c.1.1.2.3.1.5l-.4.2zm0-1.7-.3-.1-.1-.3.1-.3.3-.1.3.1c.1.1.2.3.1.5l-.4.2zm.8 2.5-.3-.1-.1-.3.1-.3.3-.1.3.1c.1.1.2.3.1.5l-.4.2zm0-3.3-.3-.1-.1-.3.1-.3.3-.1.3.1c.1.1.2.3.1.5l-.4.2zm.8 4.1-.3-.1-.1-.3.1-.3.3-.1.3.1c.1.1.2.3.1.5l-.4.2zm0-4.9-.3-.1-.1-.3.1-.3.3-.1.3.1c.1.1.2.3.1.5l-.4.2zm.8 5.7-.3-.1-.1-.3.1-.3.3-.1.3.1c.1.1.2.3.1.5l-.4.2zm.1-6.5-.3-.1-.1-.3.1-.3.3-.1.3.1c.1.1.2.3.1.5l-.4.2zm.7 7.3-.3-.1-.1-.3.1-.3.3-.1.3.1c.1.1.2.3.1.5l-.4.2zm.1-8.1-.3-.1-.1-.3.1-.3.3-.1.3.1c.1.1.2.3.1.5l-.4.2zm.8-.8-.3-.1-.1-.3.1-.3.3-.1.3.1c.1.1.2.3.1.5l-.4.2zm.7 8.9-.3-.1-.1-.3.1-.3.3-.1.3.1c.1.1.2.3.1.5l-.4.2zm.9-8.9-.3-.1-.1-.3.1-.3.3-.1.3.1c.1.1.2.3.1.5l-.4.2zm.7.8-.3-.1-.1-.3.1-.3.3-.1.3.1c.1.1.2.3.1.5l-.4.2zm.8.8-.3-.1-.1-.3.1-.3.3-.1.3.1c.1.1.2.3.1.5l-.4.2zm.8.8-.3-.1-.1-.3.1-.3.3-.1.3.1c.1.1.2.3.1.5l-.4.2zm.8 2.4-.3-.1-.1-.3.1-.3.3-.1.3.1c.1.1.2.3.1.5l-.4.2zm0-1.6-.3-.1-.1-.3.1-.3.3-.1.3.1c.1.1.2.3.1.5l-.4.2zm-3.6 7.7-.3-.1-.1-.3.1-.3.3-.1.3.1c.1.1.2.3.1.5 0 .1-.1.2-.4.2zm.9-.8-.3-.1-.1-.3.1-.3.3-.1.3.1c.1.1.2.3.1.5l-.4.2zm.8-.8-.3-.1-.1-.3.1-.3.3-.1.3.1c.1.1.2.3.1.5l-.4.2zm.8-.8-.3-.1-.1-.3.1-.3.3-.1.3.1c.1.1.2.3.1.5l-.4.2zm.8-.8-.3-.1-.1-.3.1-.3.3-.1.3.1c.1.1.2.3.1.5l-.4.2zm.8.8-.3-.1-.1-.3.1-.3.3-.1.3.1c.1.1.2.3.1.5l-.4.2zm0-1.6-.3-.1-.1-.3.1-.3.3-.1.3.1c.1.1.2.3.1.5l-.4.2zm.7 8.8-.3-.1-.1-.3.1-.3.3-.1.3.1c.1.1.2.3.1.5l-.4.2zm0-1.6-.3-.1-.1-.3.1-.3.3-.1.3.1c.1.1.2.3.1.5l-.4.2zm0-1.6-.3-.1-.1-.3.1-.3.3-.1.3.1c.1.1.2.3.1.5l-.4.2zm.1-1.6-.3-.1-.1-.3.1-.3.3-.1.3.1.1.5-.4.2zm0-1.6-.3-.1-.1-.3.1-.3.3-.1.3.1c.1.1.2.3.1.5l-.4.2zm0-3.2-.3-.1-.1-.3.1-.3.3-.1.3.1c.1.1.2.3.1.5l-.4.2zm.8 4-.3-.1-.1-.3.1-.3.3-.1.3.1c.1.1.2.3.1.5l-.4.2zm0-4.8-.3-.1-.1-.3.1-.3.3-.1.3.1c.1.1.2.3.1.5l-.4.2zm1.6 4.8-.3-.1-.1-.3.1-.3.3-.1.3.1c.1.1.2.3.1.5l-.4.2zm1.6 0-.3-.1-.1-.3.1-.3.3-.1.3.1c.1.1.2.3.1.5l-.4.2zm1.5 0-.3-.1-.1-.3.1-.3.3-.1.3.1c.1.1.2.3.1.5 0 .1-.1.2-.4.2zm-4.3 6.9-.3-.1-.1-.3.1-.3.3-.1.3.1c.1.1.2.3.1.5l-.4.2zm.8.8-.3-.1-.1-.3.1-.3.3-.1.3.1c.1.1.2.3.1.5l-.4.2zm0-1.6-.3-.1-.1-.3.1-.3.3-.1.3.1c.1.1.2.3.1.5l-.4.2zm.8 2.4-.3-.1-.1-.3.1-.3.3-.1.3.1c.1.1.2.3.1.5l-.4.2zm0-3.2-.3-.1-.1-.3.1-.3.3-.1.3.1c.1.1.2.3.1.5l-.4.2zm.8 4-.3-.1-.1-.3.1-.3.3-.1.3.1c.1.1.2.3.1.5l-.4.2zm0-4.8-.3-.1-.1-.3.1-.3.3-.1.3.1c.1.1.2.3.1.5l-.4.2zm.8 5.6-.3-.1-.1-.3.1-.3.3-.1.3.1c.1.1.2.3.1.5l-.4.2zm0-6.4-.3-.1-.1-.3.1-.3.3-.1.3.1c.1.1.2.3.1.5l-.4.2zm.7 7.2-.3-.1-.1-.3.1-.3.3-.1.3.1c.1.1.2.3.1.5 0 .1-.1.2-.4.2zm.1-6.4-.3-.1-.1-.3.1-.3.3-.1.3.1c.1.1.2.3.1.5l-.4.2zm0-1.6-.3-.1-.1-.3.1-.3.3-.1.3.1c.1.1.2.3.1.5l-.4.2zm.7 8.8-.3-.1-.1-.3.1-.3.3-.1.3.1c.1.1.2.3.1.5l-.4.2zm.1-6.4-.3-.1-.1-.3.1-.3.3-.1.3.1c.1.1.2.3.1.5l-.4.2zm0-3.2-.3-.1-.1-.3.1-.3.3-.1.3.1c.1.1.2.3.1.5l-.4.2zm.7 8.8-.3-.1-.1-.3.1-.3.3-.1.3.1c.1.1.2.3.1.5l-.4.2zm.1-4.8-.3-.1-.1-.3.1-.3.3-.1.3.1c.1.1.2.3.1.5l-.4.2zm0-4.8-.3-.1-.1-.3.1-.3.3-.1.3.1c.1.1.2.3.1.5l-.4.2zm.8 5.6-.3-.1-.1-.3.1-.3.3-.1.3.1c.1.1.2.3.1.5l-.4.2zm0-4.8-.3-.1-.1-.3.1-.3.3-.1.3.1c.1.1.2.3.1.5l-.4.2zm.8.8-.3-.1-.1-.3.1-.3.3-.1.3.1c.1.1.2.3.1.5l-.4.2zm.8.8-.3-.1-.1-.3.1-.3.3-.1.3.1c.1.1.2.3.1.5l-.4.2zm.8.8-.3-.1-.1-.3.1-.3.3-.1.3.1c.1.1.2.3.1.5l-.4.2zm.8 2.4-.3-.1-.1-.3.1-.3.3-.1.3.1c.1.1.2.3.1.5l-.4.2zm0-1.6-.3-.1-.1-.3.1-.3.3-.1.3.1c.1.1.2.3.1.5l-.4.2zm.8.8-.3-.1-.1-.3.1-.3.3-.1.3.1c.1.1.2.3.1.5l-.4.2zm-2.8 8.5-.3-.1-.1-.3.1-.3.3-.1.3.1c.1.1.2.3.1.5l-.4.2zm.8.8-.3-.1-.1-.3.1-.3.3-.1.3.1c.1.1.2.3.1.5l-.4.2zm.8.8-.3-.1-.1-.3.1-.3.3-.1.3.1c.1.1.2.3.1.5l-.4.2zm0-1.6-.3-.1-.1-.3.1-.3.3-.1.3.1c.1.1.2.3.1.5l-.4.2zm.8-.8-.3-.1-.1-.3.1-.3.3-.1.3.1c.1.1.2.3.1.5l-.4.2zm.8-.9-.3-.1-.1-.3.1-.3.3-.1.3.1.1.5-.4.2zm.1-4.8-.3-.1-.1-.3.1-.3.3-.1.3.1c.1.1.2.3.1.5l-.4.2zm.7 4-.3-.1-.1-.3.1-.3.3-.1.3.1c.1.1.2.3.1.5l-.4.2zm.1-4.8-.3-.1-.1-.3.1-.3.3-.1.3.1c.1.1.2.3.1.5l-.4.2zm.7 4.1-.3-.1-.1-.3.1-.3.3-.1.3.1c.1.1.2.3.1.5l-.4.2zm.1-3.3-.3-.1-.1-.3.1-.3.3-.1.3.1c.1.1.2.3.1.5l-.4.2zm.7 2.4-.3-.1-.1-.3.1-.3.3-.1.3.1c.1.1.2.3.1.5l-.4.2zm0-1.6-.3-.1-.1-.3.1-.3.3-.1.3.1c.1.1.2.3.1.5 0 .1-.1.2-.4.2zm.8.8-.3-.1-.1-.3.1-.3.3-.1.3.1c.1.1.2.3.1.5l-.4.2zm.8.8-.3-.1-.1-.3.1-.3.3-.1.3.1c.1.1.2.3.1.5l-.4.2zm.8 2.4-.3-.1-.1-.3.1-.3.3-.1.3.1c.1.1.2.3.1.5l-.4.2zm0-1.6-.3-.1-.1-.3.1-.3.3-.1.3.1c.1.1.2.3.1.5l-.4.2zm.8.9-.3-.1-.1-.3.1-.3.3-.1.3.1c.1.1.2.3.1.5l-.4.2zm-22.1 26.2-.1.3c-.1.1-.3.2-.5.1s-.3-.2-.3-.4l.1-.3c.1-.1.3-.2.5-.1.2 0 .3.1.3.4zm.1-1.7-.1.3c-.1.1-.3.2-.5.1s-.3-.2-.3-.4l.1-.3c.1-.1.3-.2.5-.1.2 0 .3.1.3.4zm.8 2.5-.1.3c-.1.1-.3.2-.5.1s-.3-.2-.3-.4l.1-.3c.1-.1.3-.2.5-.1.2 0 .3.2.3.4zm.8.8-.1.3c-.1.1-.3.2-.5.1s-.3-.2-.3-.4l.1-.3c.1-.1.3-.2.5-.1s.3.2.3.4zm.8.9-.1.3c-.1.1-.3.2-.5.1s-.3-.2-.3-.4l.1-.3c.1-.1.3-.2.5-.1.2 0 .3.1.3.4zm.1-1.8-.1.3c-.1.1-.3.2-.5.1s-.3-.2-.3-.4l.1-.3c.1-.1.3-.2.5-.1s.3.2.3.4zm0-5-.1.3c-.1.1-.3.2-.5.1s-.3-.2-.3-.4l.1-.3c.1-.1.3-.2.5-.1s.3.2.3.4zm0 1.6-.1.3c-.1.1-.3.2-.5.1s-.3-.2-.3-.4l.1-.3c.1-.1.3-.2.5-.1.3 0 .4.2.3.4zm.7 6-.1.3c-.1.1-.3.2-.5.1s-.3-.2-.3-.4l.1-.3c.1-.1.3-.2.5-.1.3 0 .4.2.3.4zm.2-5.2-.1.3c-.1.1-.3.2-.5.1s-.3-.2-.3-.4l.1-.3c.1-.1.3-.2.5-.1s.3.2.3.4zm0-3.2-.1.3c-.1.1-.3.2-.5.1s-.3-.2-.3-.4l.1-.3c.1-.1.3-.2.5-.1.2 0 .3.1.3.4zm0 5-.1.3c-.1.1-.3.2-.5.1s-.3-.2-.3-.4l.1-.3c.1-.1.3-.2.5-.1.2 0 .3.2.3.4zm.9-.9-.1.3c-.1.1-.3.2-.5.1s-.3-.2-.3-.4l.1-.3c.1-.1.3-.2.5-.1.2 0 .3.2.3.4zm.6 4.3-.1.3c-.1.1-.3.2-.5.1s-.3-.2-.3-.4l.1-.3c.1-.1.3-.2.5-.1.3 0 .4.2.3.4zm.2-5.2-.1.3c-.1.1-.3.2-.5.1s-.3-.2-.3-.4l.1-.3c.1-.1.3-.2.5-.1s.3.2.3.4zm0 1.7-.1.3c-.1.1-.3.2-.5.1s-.3-.2-.3-.4l.1-.3c.1-.1.3-.2.5-.1.2 0 .3.2.3.4zm0-5-.1.3c-.1.1-.3.2-.5.1s-.3-.2-.3-.4l.1-.3c.1-.1.3-.2.5-.1.3 0 .4.2.3.4zm.7 7.6-.1.3c-.1.1-.3.2-.5.1s-.3-.2-.3-.4l.1-.3c.1-.1.3-.2.5-.1.2 0 .3.2.3.4zm.1-1.7-.1.3c-.1.1-.3.2-.5.1s-.3-.2-.3-.4l.1-.3c.1-.1.3-.2.5-.1.2 0 .3.2.3.4zm.1-5.1-.1.3c-.1.1-.3.2-.5.1s-.3-.2-.3-.4l.1-.3c.1-.1.3-.2.5-.1.2 0 .3.2.3.4zm0 1.7-.1.3c-.1.1-.3.2-.5.1s-.3-.2-.3-.4l.1-.3c.1-.1.3-.2.5-.1.2 0 .3.2.3.4zm.9-.9-.1.3c-.1.1-.3.2-.5.1s-.3-.2-.3-.4l.1-.3c.1-.1.3-.2.5-.1.2 0 .3.2.3.4zm.8-.9-.1.3c-.1.1-.3.2-.5.1s-.3-.2-.3-.4l.1-.3c.1-.1.3-.2.5-.1.3 0 .4.2.3.4zm.1 1.8-.1.3c-.1.1-.3.2-.5.1s-.3-.2-.3-.4l.1-.3c.1-.1.3-.2.5-.1s.3.2.3.4zm.7 2.5-.1.3c-.1.1-.3.2-.5.1s-.3-.2-.3-.4l.1-.3c.1-.1.3-.2.5-.1s.3.2.3.4zm.1-1.6-.1.3c-.1.1-.3.2-.5.1s-.3-.2-.3-.4l.1-.3c.1-.1.3-.2.5-.1.2 0 .3.1.3.4zm-3.2 7.7-.3-.1-.1-.3.1-.3.3-.1.3.1c.1.1.2.3.1.5l-.4.2zm.8.9-.3-.1-.1-.3.1-.3.3-.1.3.1c.1.1.2.3.1.5l-.4.2zm.8.8-.3-.1-.1-.3.1-.3.3-.1.3.1c.1.1.2.3.1.5l-.4.2zm.1-1.7-.3-.1-.1-.3.1-.3.3-.1.3.1c.1.1.2.3.1.5l-.4.2zm.9-.9-.3-.1-.1-.3.1-.3.3-.1.3.1c.1.1.2.3.1.5l-.4.2zm.8-.9-.3-.1-.1-.3.2-.3.3-.1.3.1c.1.1.2.3.1.5-.1.1-.2.2-.5.2zm.9-.8-.3-.1-.1-.3.1-.3.3-.1.3.1c.1.1.2.3.1.5l-.4.2zm.9-.9-.3-.1-.1-.3.1-.3.3-.1.3.1c.1.1.2.3.1.5l-.4.2zm.9-.9-.3-.1-.1-.3.1-.3.3-.1.3.1c.1.1.2.3.1.5l-.4.2zm0-1.7-.3-.1-.1-.3.1-.3.3-.1.3.1c.1.1.2.3.1.5l-.4.2zm.9.9-.3-.1-.1-.3.1-.3.3-.1.3.1c.1.1.2.3.1.5l-.4.2zm-3.3 9.1-.3-.1-.1-.3.1-.3.3-.1.3.1c.1.1.2.3.1.5l-.4.2zm0-1.7-.3-.1-.1-.3.1-.3.3-.1.3.1c.1.1.2.3.1.5l-.4.2zm.8 2.6-.3-.1-.1-.3.1-.3.3-.1.3.1c.1.1.2.3.1.5l-.4.2zm.1-1.7-.3-.1-.1-.3.1-.3.3-.1.3.1c.1.1.2.3.1.5l-.4.2zm0-1.8-.3-.1-.1-.3.1-.3.3-.1.3.1c.1.1.2.3.1.5l-.4.2zm.7 4.3-.3-.1-.1-.3.1-.3.3-.1.3.1c.1.1.2.3.1.5l-.4.2zm.2-5.1-.3-.1-.1-.3.2-.3.3-.1.3.1c.1.1.2.3.1.5l-.5.2zm.6 5.9-.3-.1-.1-.3.1-.3.3-.1.3.1c.1.1.2.3.1.5 0 .1-.1.2-.4.2zm.2-3.4-.3-.1-.1-.3.1-.3.3-.1.3.1c.1.1.2.3.1.5l-.4.2zm.1-3.4-.3-.1-.1-.3.1-.3.3-.1.3.1c.1.1.2.3.1.5l-.4.2zm.6 7.7-.3-.1-.1-.3.1-.3.3-.1.3.1c.1.1.2.3.1.5l-.4.2zm.3-8.6-.3-.1-.1-.3.1-.3.3-.1.3.1c.1.1.2.3.1.5l-.4.2zm.7 4.3-.3-.1-.1-.3.2-.3.3-.1.3.1c.1.1.2.3.1.5l-.5.2zm.1-5.2-.3-.1-.1-.3.1-.3.3-.1.3.1c.1.1.2.3.1.5l-.4.2zm.6 9.4-.3-.1-.1-.3.1-.3.3-.1.3.1c.1.1.2.3.1.5l-.4.2zm.9-.8-.3-.1-.1-.3.1-.3.3-.1.3.1c.1.1.2.3.1.5l-.4.2zm.1-3.5-.3-.1-.1-.3.1-.3.3-.1.3.1c.1.1.2.3.1.5l-.4.2zm.1-5.1-.3-.1-.1-.3.1-.3.3-.1.3.1c.1.1.2.3.1.5l-.4.2zm.7 7.7-.3-.1-.1-.3.2-.3.3-.1.3.1c.1.1.2.3.1.5l-.5.2zm.2-6.9-.3-.1-.1-.3.1-.3.3-.1.3.1c.1.1.2.3.1.5l-.4.2zm.6 6-.3-.1-.1-.3.1-.3.3-.1.3.1c.1.1.2.3.1.5 0 .1-.1.2-.4.2zm.1-1.7-.3-.1-.1-.3.1-.3.3-.1.3.1c.1.1.2.3.1.5l-.4.2zm.1-3.4-.3-.1-.1-.3.1-.3.3-.1.3.1c.1.1.2.3.1.5l-.4.2zm.7 4.2-.3-.1-.1-.3.1-.3.3-.1.3.1c.1.1.2.3.1.5l-.4.2zm.1-3.4-.3-.1-.1-.3.1-.3.3-.1.3.1c.1.1.2.3.1.5l-.4.2zm.8 2.6-.3-.1-.1-.3.1-.3.3-.1.3.1c.1.1.2.3.1.5l-.4.2zm0-1.7-.3-.1-.1-.3.1-.3.3-.1.3.1c.1.1.2.3.1.5l-.4.2zm-36.4-3.4-.2-.1-.1-.2.1-.2.2-.1.2.1.1.3-.3.2zm.6.5-.2-.1-.1-.2.1-.2.2-.1.2.1.1.3c-.1.2-.2.2-.3.2zm.6.6-.2-.1-.1-.2.1-.2.2-.1.2.1.1.3-.3.2zm0-1.2-.2-.1-.1-.2.1-.2.2-.1.2.1.1.3c-.1.2-.2.2-.3.2zm.5 1.8-.2-.1-.1-.2.1-.2.2-.1.2.1.1.3c0 .1-.1.2-.3.2zm.6.6-.2-.1-.1-.2.1-.2.2-.1.2.1.1.3-.3.2zm0-2.3-.2-.1-.1-.2.1-.2.2-.1.2.1.1.3-.3.2zm.6 2.9-.2-.1-.1-.2.1-.2.2-.1.2.1.1.3-.3.2zm0-5.8-.2-.1-.1-.2.1-.2.2-.1.2.1.1.3c0 .1-.1.2-.3.2zm.5 6.3-.2-.1-.1-.2.1-.2.2-.1.2.1.1.3c0 .2-.1.2-.3.2zm.1-3.4-.2-.1-.1-.2.1-.2.2-.1.2.1.1.3-.3.2zm0-3.5-.2-.1-.1-.2.1-.2.2-.1.2.1.1.3-.3.2zm1.1 3.4-.2-.1-.1-.2.1-.2.2-.1.2.1.1.3c0 .2-.1.2-.3.2zm.1-3.4-.2-.1-.1-.2.1-.2.2-.1.2.1.1.3-.3.2zm.5.6-.2-.1-.1-.2.1-.2.2-.1.2.1.1.3c0 .1-.1.2-.3.2zm.6 2.9-.2-.1-.1-.2.1-.2.2-.1.2.1.1.3-.3.2zm0-2.4-.2-.1-.1-.2.1-.2.2-.1.2.1.1.3c-.1.2-.2.2-.3.2zm.6.6-.2-.1-.1-.2.1-.2.2-.1.2.1.1.3-.3.2zm.5 1.8-.2-.1-.1-.2.1-.2.2-.1.2.1.1.3c0 .1-.1.2-.3.2zm.1-1.2-.2-.1-.1-.2.1-.2.2-.1.2.1.1.3-.3.2zm-2.1 6.1-.2-.1-.1-.2.1-.2.2-.1.2.1.1.3-.3.2zm0-1.2-.2-.1-.1-.2.1-.2.2-.1.2.1.1.3c0 .1-.1.2-.3.2zm.6 1.8-.2-.1-.1-.2.1-.2.2-.1.2.1.1.3-.3.2zm.5.5-.2-.1-.1-.2.1-.2.2-.1.2.1.1.3c0 .2-.1.2-.3.2zm.6.6-.2-.1-.1-.2.1-.2.2-.1.2.1.1.3c0 .1-.1.2-.3.2zm.1-4.6-.2-.1-.1-.2.1-.2.2-.1.2.1.1.3-.3.2zm.5 5.2-.2-.1-.1-.2.1-.2.2-.1.2.1.1.3-.3.2zm0-4.7-.2-.1-.1-.2.1-.2.2-.1.2.1.1.3c0 .2-.1.2-.3.2zm0-1.1-.2-.1-.1-.2.1-.2.2-.1.2.1.1.3c0 .1-.1.2-.3.2zm.6 1.7-.2-.1-.1-.2.1-.2.2-.1.2.1.1.3c-.1.2-.1.2-.3.2zm0-2.3-.2-.1-.1-.2.1-.2.2-.1.2.1.1.3c0 .1-.1.2-.3.2zm.5 6.4-.2-.1-.1-.2.1-.2.2-.1.2.1.1.3c0 .1-.1.2-.3.2zm.1-3.5-.2-.1-.1-.2.1-.2.2-.1.2.1.1.3-.3.2zm0-3.5-.2-.1-.1-.2.1-.2.2-.1.2.1.1.3c-.1.2-.2.2-.3.2zm.5 6.4-.2-.1-.1-.2.1-.2.2-.1.2.1.1.3c0 .1-.1.2-.3.2zm.1-2.3-.2-.1-.1-.2.1-.2.2-.1.2.1.1.3-.3.2zm0-3.5-.2-.1-.1-.2.1-.2.2-.1.2.1.1.3-.3.2zm.5 5.2-.2-.1-.1-.2.1-.2.2-.1.2.1.1.3c0 .2-.1.2-.3.2zm0-1.1-.2-.1-.1-.2.1-.2.2-.1.2.1.1.3c0 .1-.1.2-.3.2zm0-3.5-.2-.1-.1-.2.1-.2.2-.1.2.1.1.3c0 .1-.1.2-.3.2zm.6.6-.2-.1-.1-.2.1-.2.2-.1.2.1.1.3c0 .1-.1.2-.3.2zm.6.6-.2-.1-.1-.2.1-.2.2-.1.2.1.1.3-.3.2zm.6.5-.2-.1-.1-.2.1-.2.2-.1.2.1.1.3c-.1.2-.2.2-.3.2zm.5.6-.2-.1-.1-.2.1-.2.2-.1.2.1.1.3c0 .2-.1.2-.3.2zm-3.2 4.9-.2-.1-.1-.2.1-.2.2-.1.2.1.1.3-.3.2zm1.1 0-.2-.1-.1-.2.1-.2.2-.1.2.1.1.3c0 .1-.1.2-.3.2zm1.2 0-.2-.1-.1-.2.1-.2.2-.1.2.1.1.3-.3.2zm1.2 0-.2-.1-.1-.2.1-.2.2-.1.2.1.1.3-.3.2zm1.1 0-.2-.1-.1-.2.1-.2.2-.1.2.1.1.3c0 .1-.1.2-.3.2zm1.2 0-.2-.1-.1-.2.1-.2.2-.1.2.1.1.3-.3.2zm1.1 0-.2-.1-.1-.2.1-.2.2-.1.2.1.1.3c0 .1-.1.2-.3.2zm-2 5-.2-.1-.1-.2.1-.2.2-.1.2.1.1.3-.3.2zm0-1.2-.2-.1-.1-.2.1-.2.2-.1.2.1.1.3c0 .1-.1.2-.3.2zm.6 1.7-.2-.1-.1-.2.1-.2.2-.1.2.1.1.3c-.1.2-.2.2-.3.2zm0-1.1-.2-.1-.1-.2.1-.2.2-.1.2.1.1.3c0 .1-.1.2-.3.2zm0-1.2-.2-.1-.1-.2.1-.2.2-.1.2.1.1.3c0 .1-.1.2-.3.2zm.6 2.9-.2-.1-.1-.2.1-.2.2-.1.2.1.1.3-.3.2zm0-3.5-.2-.1-.1-.2.1-.2.2-.1.2.1.1.3c-.1.2-.1.2-.3.2zm.5 4.1-.2-.1-.1-.2.1-.2.2-.1.2.1.1.3c0 .1-.1.2-.3.2zm.1-2.3-.2-.1-.1-.2.1-.2.2-.1.2.1.1.3-.3.2zm0-2.4-.2-.1-.1-.2.1-.2.2-.1.2.1.1.3c-.1.2-.2.2-.3.2zm.5 5.3-.2-.1-.1-.2.1-.2.2-.1.2.1.1.3c0 .1-.1.2-.3.2zm.1-5.8-.2-.1-.1-.2.1-.2.2-.1.2.1.1.3-.3.2zm.5 2.9-.2-.1-.1-.2.1-.2.2-.1.2.1.1.3c0 .1-.1.2-.3.2zm0-3.5-.2-.1-.1-.2.1-.2.2-.1.2.1.1.3c0 .1-.1.2-.3.2zm.6 6.4-.2-.1-.1-.2.1-.2.2-.1.2.1.1.3-.3.2zm.6-.6-.2-.1-.1-.2.1-.2.2-.1.2.1.1.3-.3.2zm0-2.3-.2-.1-.1-.2.1-.2.2-.1.2.1.1.3-.3.2zm0-3.5-.2-.1-.1-.2.1-.2.2-.1.2.1.1.3-.3.2zm.5 5.2-.2-.1-.1-.2.1-.2.2-.1.2.1.1.3c0 .1-.1.2-.3.2zm.1-4.6-.2-.1-.1-.2.1-.2.2-.1.2.1.1.3-.3.2zm.5 4-.2-.1-.1-.2.1-.2.2-.1.2.1.1.3c0 .2-.1.2-.3.2zm0-1.1-.2-.1-.1-.2.1-.2.2-.1.2.1.1.3c0 .1-.1.2-.3.2zm0-2.3-.2-.1-.1-.2.1-.2.2-.1.2.1.1.3c0 .1-.1.2-.3.2zm.6 2.9-.2-.1-.1-.2.1-.2.2-.1.2.1.1.3c0 .1-.1.2-.3.2zm0-2.4-.2-.1-.1-.2.1-.2.2-.1.2.1.1.3c0 .2-.1.2-.3.2zm.6 1.8-.2-.1-.1-.2.1-.2.2-.1.2.1.1.3-.3.2zm0-1.2-.2-.1-.1-.2.1-.2.2-.1.2.1.1.3-.3.2zm-2.1 6.1-.2-.1-.1-.2.1-.2.2-.1.2.1.1.3c0 .1-.1.2-.3.2zm0-1.2-.2-.1-.1-.2.1-.2.2-.1.2.1.1.3c0 .1-.1.2-.3.2zm.6 1.7-.2-.1-.1-.2.1-.2.2-.1.2.1.1.3c-.1.2-.2.2-.3.2zm.6.6-.2-.1-.1-.2.1-.2.2-.1.2.1.1.3c-.1.2-.2.2-.3.2zm.5.6-.2-.1-.1-.2.1-.2.2-.1.2.1.1.3c0 .1-.1.2-.3.2zm.6.6-.2-.1-.1-.2.1-.2.2-.1.2.1.1.3c0 .1-.1.2-.3.2zm0-3.5-.2-.1-.1-.2.1-.2.2-.1.2.1.1.3c0 .1-.1.2-.3.2zm.6.6-.2-.1-.1-.2.1-.2.2-.1.2.1.1.3c0 .1-.1.2-.3.2zm0-3.5-.2-.1-.1-.2.1-.2.2-.1.2.1.1.3c0 .1-.1.2-.3.2zm.6 6.4-.2-.1-.1-.2.1-.2.2-.1.2.1.1.3-.3.2zm0-2.3-.2-.1-.1-.2.1-.2.2-.1.2.1.1.3-.3.2zm.5 1.7-.2-.1-.1-.2.1-.2.2-.1.2.1.1.3c0 .1-.1.2-.3.2zm.1-1.2-.2-.1-.1-.2.1-.2.2-.1.2.1.1.3c-.1.2-.2.2-.3.2zm0-4.6-.2-.1-.1-.2.1-.2.2-.1.2.1.1.3-.3.2zm.6.6-.2-.1-.1-.2.1-.2.2-.1.2.1.1.3-.3.2zm.5 4-.2-.1-.1-.2.1-.2.2-.1.2.1.1.3c0 .2-.1.2-.3.2zm0-3.4-.2-.1-.1-.2.1-.2.2-.1.2.1.1.3c0 .1-.1.2-.3.2zm.6 2.9-.2-.1-.1-.2.1-.2.2-.1.2.1.1.3-.3.2zm0-2.3-.2-.1-.1-.2.1-.2.2-.1.2.1.1.3-.3.2zm.6 1.7-.2-.1-.1-.2.1-.2.2-.1.2.1.1.3-.3.2zm0-1.2-.2-.1-.1-.2.1-.2.2-.1.2.1.1.3c-.1.2-.2.2-.3.2z" class="st2"/></g><g id="Lypa"><path class="st6" d="M82 109.7a31.8 31.8 0 0 0-18.7 19.1c-2.1 6.4-1.5 16 1.5 22.2a35 35 0 0 0 17.7 15.9c7 2.3 17.7 1.5 23.7-1.7a30.8 30.8 0 0 0 14-37.4 32.2 32.2 0 0 0-17.3-17.8c-5.9-2-15.6-2.1-20.9-.3zm21 10.2c2.4 1.4 5.6 4.4 7.1 6.6 2.3 3.6 2.7 5.2 2.7 11.7 0 6.8-.3 8.1-3 12.1a20.3 20.3 0 0 1-18.2 9.4c-5.4 0-6.9-.5-11.3-3.5a20.5 20.5 0 0 1-7.5-8.3c-9.6-19.2 11.7-38.9 30.2-28z"/><path class="st6" d="M86.1 124.3a16.4 16.4 0 0 0-8.4 11.2c-.7 3.2-.6 3.2 2.7-1.7 1.9-2.7 5.6-6.4 8.4-8.2 5.6-3.7 3.6-4.6-2.7-1.3z"/><path transform="rotate(-45 36.8 193.8)" class="st6" d="M34.8 187.6h4.1v12.3h-4.1z"/><path transform="rotate(-45 67.7 163.1)" class="st6" d="M65.4 156.6H70v13h-4.6z"/><path transform="rotate(-45 52.7 178)" class="st6" d="M35.6 173.5h34.2v8.9H35.6z"/></g></svg>
