<?xml version="1.0" encoding="utf-8"?>
<!-- Generator: Adobe Illustrator 27.4.0, SVG Export Plug-In . SVG Version: 6.00 Build 0)  -->
<!DOCTYPE svg PUBLIC "-//W3C//DTD SVG 1.1//EN" "http://www.w3.org/Graphics/SVG/1.1/DTD/svg11.dtd" [
	<!ENTITY ns_extend "http://ns.adobe.com/Extensibility/1.0/">
	<!ENTITY ns_ai "http://ns.adobe.com/AdobeIllustrator/10.0/">
	<!ENTITY ns_graphs "http://ns.adobe.com/Graphs/1.0/">
	<!ENTITY ns_vars "http://ns.adobe.com/Variables/1.0/">
	<!ENTITY ns_imrep "http://ns.adobe.com/ImageReplacement/1.0/">
	<!ENTITY ns_sfw "http://ns.adobe.com/SaveForWeb/1.0/">
	<!ENTITY ns_custom "http://ns.adobe.com/GenericCustomNamespace/1.0/">
	<!ENTITY ns_adobe_xpath "http://ns.adobe.com/XPath/1.0/">
]>
<svg version="1.1" id="Layer_1" xmlns:x="&ns_extend;" xmlns:i="&ns_ai;" xmlns:graph="&ns_graphs;"
	 xmlns="http://www.w3.org/2000/svg" xmlns:xlink="http://www.w3.org/1999/xlink" x="0px" y="0px" viewBox="0 0 246 246"
	 style="enable-background:new 0 0 246 246;" xml:space="preserve">
<style type="text/css">
	.st0{fill:#FFFFFD;}
	.st1{fill:#FFFFFF;}
	.st2{fill:#F9F0EE;stroke:#4C4C4C;stroke-width:0.5;stroke-miterlimit:10;}
	.st3{fill:#434371;}
	.st4{fill:#BA1E3E;}
	.st5{fill:#3D396E;}
	.st6{fill:#ECEEFD;}
</style>
<metadata>
	<sfw  xmlns="&ns_sfw;">
		<slices></slices>
		<sliceSourceBounds  bottomLeftOrigin="true" height="246" width="246" x="-59" y="1861"></sliceSourceBounds>
	</sfw>
</metadata>
<polygon id="background" class="st0" points="219.3,0 219.3,0 26.7,0 0,0 0,246 26.7,246 26.7,25.7 219.3,25.7 219.3,219.2 
	26.7,219.2 26.7,246 219.3,246 219.4,246 246,246 246,0 "/>
<rect id="feame_background" x="26.7" y="25.7" class="st1" width="192.6" height="193.5"/>
<path id="frame" class="st2" d="M244.4,10.2c0.2,0,0.4,0,0.6,0V1.7h-8.5c0.3,3.7-2,7.5-6.7,7.5c-4.7,0-7-3.9-6.7-7.5h-8.4
	c-0.1,3.4-2.3,6.8-6.7,6.8c-4.4,0-6.6-3.4-6.7-6.8h-7.6c0.1,3.6-2.1,7.2-6.7,7.2c-4.6,0-6.8-3.6-6.7-7.2h-7.6
	c0.1,3.5-2.2,7.1-6.7,7.1c-4.6,0-6.8-3.6-6.7-7.1h-7.9c0.1,3.6-2.1,7.2-6.7,7.2c-4.6,0-6.8-3.6-6.7-7.2h-8.1
	c0.2,3.6-2.1,7.3-6.7,7.3c-4.6,0-6.9-3.7-6.7-7.3h-7.9c0.1,3.6-2.1,7.2-6.7,7.2c-4.6,0-6.8-3.6-6.7-7.2h-8.1
	c0.1,3.5-2.2,7.1-6.7,7.1c-4.6,0-6.8-3.6-6.7-7.1h-7.9C66,5.3,63.8,9,59.2,9c-4.6,0-6.9-3.7-6.7-7.3h-7.7c0.2,3.6-2,7.4-6.7,7.4
	c-4.7,0-6.9-3.8-6.7-7.4h-7.6c0.2,3.6-2,7.4-6.7,7.4c-4.7,0-6.9-3.8-6.7-7.4H1v8.1c0.1,0,0.2,0,0.4,0c8.9,0,8.9,13.8,0,13.8
	c-0.1,0-0.2,0-0.4,0v7.9c0.3,0,0.6,0,0.9,0c8.9,0,8.9,13.8,0,13.8c-0.3,0-0.6,0-0.9,0V53c0.3,0,0.6,0,0.9,0c8.9,0,8.9,13.8,0,13.8
	c-0.3,0-0.6,0-0.9,0v7c0.2,0,0.4,0,0.6,0c8.9,0,8.9,13.8,0,13.8c-0.2,0-0.4,0-0.6,0v7.6c0.3,0,0.5,0,0.8,0c8.9,0,8.9,13.8,0,13.8
	c-0.3,0-0.5,0-0.8,0v7.4c0.2,0,0.5,0,0.7,0c8.9,0,8.9,13.8,0,13.8c-0.2,0-0.5,0-0.7,0v7.5c0.2,0,0.3,0,0.5,0c8.9,0,8.9,13.8,0,13.8
	c-0.2,0-0.4,0-0.5,0v7.6c0.3,0,0.6-0.1,0.9-0.1c8.9,0,8.9,13.8,0,13.8c-0.3,0-0.6,0-0.9-0.1v7.7c0.2,0,0.4,0,0.6,0
	c8.9,0,8.9,13.8,0,13.8c-0.2,0-0.4,0-0.6,0v7.2c0.4-0.1,0.8-0.1,1.2-0.1c8.9,0,8.9,13.8,0,13.8c-0.4,0-0.8,0-1.2-0.1v8
	c0.4-0.1,0.8-0.1,1.2-0.1c8.9,0,8.9,13.8,0,13.8c-0.4,0-0.8,0-1.2-0.1v8.3h8.9c-0.2-3.6,2-7.4,6.7-7.4c4.7,0,6.9,3.8,6.7,7.4h8.1
	c-0.3-3.7,2-7.5,6.7-7.5c4.7,0,7,3.9,6.7,7.5h8.1c-0.3-3.7,2-7.5,6.7-7.5c4.7,0,7,3.9,6.7,7.5h7.8c-0.2-3.6,2-7.4,6.7-7.4
	c4.7,0,6.9,3.8,6.7,7.4h7.8c-0.4-3.7,1.9-7.7,6.7-7.7c4.8,0,7,4,6.7,7.7h8c-0.4-3.7,1.8-7.8,6.7-7.8c4.8,0,7.1,4.1,6.7,7.8h8.2
	c-0.4-3.7,1.8-7.8,6.7-7.8c4.8,0,7.1,4.1,6.7,7.8h8.1c-0.5-3.8,1.7-8,6.6-8c4.9,0,7.1,4.2,6.6,8h7.9c-0.4-3.7,1.8-7.8,6.7-7.8
	c4.8,0,7.1,4.1,6.7,7.8h8c-0.4-3.7,1.8-7.8,6.7-7.8c4.8,0,7.1,4.1,6.7,7.8h8.1c-0.4-3.7,1.9-7.7,6.7-7.7c4.8,0,7,4,6.7,7.7h8.4v-8.9
	c0,0,0,0,0,0c-8.9,0-8.9-13.8,0-13.8c0,0,0,0,0,0v-7.3c-0.1,0-0.2,0-0.3,0c-8.9,0-8.9-13.8,0-13.8c0.1,0,0.2,0,0.3,0v-7.1
	c-0.1,0-0.2,0-0.4,0c-8.9,0-8.9-13.8,0-13.8c0.1,0,0.2,0,0.4,0v-7.3c-0.2,0-0.4,0-0.6,0c-8.9,0-8.9-13.8,0-13.8c0.2,0,0.4,0,0.6,0
	v-8c-0.2,0-0.3,0-0.5,0c-8.9,0-8.9-13.8,0-13.8c0.2,0,0.4,0,0.5,0V130c-0.1,0-0.3,0-0.4,0c-8.9,0-8.9-13.8,0-13.8c0.2,0,0.3,0,0.4,0
	v-7.1c-0.1,0-0.2,0-0.3,0c-8.9,0-8.9-13.8,0-13.8c0.1,0,0.2,0,0.3,0v-7.7c-0.1,0-0.3,0-0.4,0c-8.9,0-8.9-13.8,0-13.8
	c0.2,0,0.3,0,0.4,0v-7.6c-0.1,0-0.2,0-0.4,0c-8.9,0-8.9-13.8,0-13.8c0.1,0,0.2,0,0.4,0v-7.2c0,0-0.1,0-0.1,0c-8.9,0-8.9-13.8,0-13.8
	c0,0,0.1,0,0.1,0V24c-0.2,0-0.4,0-0.6,0C235.4,24.1,235.5,10.2,244.4,10.2z M221.6,220.8c-65.7-0.1-131.5-0.1-197.2-0.2
	c0-65.4,0-130.9,0-196.3c65.7,0,131.4,0,197.1,0C221.6,89.8,221.6,155.3,221.6,220.8z"/>
<g>
	<g>
		<path class="st3" d="M60.6,177.1c-0.3,0-0.7,0.1-1.3,0.2c-0.6,0.1-1,0.3-1.4,0.6c-0.4,0.3-0.7,0.7-0.8,1.4c-0.2,0.7-0.2,1.7-0.2,3
			v8.2c0,2.4-0.8,4.4-2.5,5.9c-1.6,1.5-3.8,2.2-6.5,2.2c-3.2,0-5.6-0.7-7.3-2.1c-1.7-1.4-2.6-3.4-2.6-6v-11.3c0-0.4-0.1-0.7-0.2-0.9
			c-0.1-0.3-0.4-0.5-0.8-0.7c-0.3-0.1-0.6-0.2-1-0.3c-0.4-0.1-0.7-0.1-1-0.2v-1.2h11.6v1.2c-0.3,0-0.7,0.1-1,0.1
			c-0.3,0.1-0.7,0.1-1,0.3c-0.4,0.1-0.7,0.3-0.8,0.6c-0.1,0.3-0.2,0.6-0.2,1v11.2c0,2.2,0.5,3.8,1.5,4.8s2.4,1.5,4.2,1.5
			c1.8,0,3.2-0.6,4.3-1.7c1-1.1,1.5-2.7,1.5-4.9v-7.5c0-1.3-0.1-2.3-0.3-3c-0.2-0.7-0.5-1.1-0.8-1.4c-0.3-0.2-0.7-0.4-1.4-0.6
			s-1.1-0.3-1.4-0.3v-1.2h9.6V177.1z"/>
		<path class="st3" d="M71.1,198.6c-1.4,0-2.6-0.2-3.8-0.5s-2.2-0.7-3-1.2l-1.1,1.1h-1.3l-0.2-8H63c0.3,0.8,0.7,1.6,1.2,2.4
			s1,1.6,1.6,2.3c0.6,0.7,1.3,1.3,2.1,1.7c0.8,0.4,1.7,0.7,2.8,0.7c1.4,0,2.5-0.3,3.3-1c0.8-0.7,1.1-1.6,1.1-2.6
			c0-0.9-0.3-1.6-1-2.2c-0.6-0.6-1.6-1.1-3-1.5c-0.9-0.3-1.7-0.5-2.4-0.8c-0.7-0.2-1.4-0.5-2.1-0.7c-1.5-0.6-2.6-1.4-3.3-2.5
			c-0.7-1.1-1.1-2.3-1.1-3.7c0-0.9,0.2-1.7,0.6-2.5s0.9-1.5,1.6-2.1c0.7-0.6,1.6-1.1,2.6-1.5c1.1-0.4,2.2-0.6,3.5-0.6
			c1.2,0,2.4,0.2,3.5,0.5c1.1,0.3,1.9,0.7,2.5,1l1-0.9h1.4l0.1,7.6h-1.3c-0.3-0.8-0.7-1.6-1.1-2.5c-0.4-0.8-0.9-1.6-1.3-2.1
			c-0.5-0.6-1.1-1.1-1.8-1.4c-0.7-0.4-1.4-0.5-2.3-0.5c-1.1,0-2,0.3-2.8,1c-0.7,0.6-1.1,1.4-1.1,2.4c0,0.9,0.3,1.6,0.9,2.2
			c0.6,0.6,1.6,1.1,2.9,1.5c0.8,0.3,1.6,0.5,2.4,0.8c0.8,0.3,1.5,0.5,2.1,0.8c1.5,0.6,2.7,1.4,3.4,2.4c0.8,1,1.2,2.3,1.2,3.8
			c0,1-0.2,1.9-0.7,2.8c-0.4,0.9-1.1,1.6-1.8,2.2c-0.8,0.7-1.8,1.2-2.9,1.5S72.5,198.6,71.1,198.6z"/>
		<path class="st3" d="M100,198.6c-1.4,0-2.6-0.2-3.8-0.5s-2.2-0.7-3-1.2l-1.1,1.1h-1.3l-0.2-8h1.3c0.3,0.8,0.7,1.6,1.2,2.4
			s1,1.6,1.6,2.3c0.6,0.7,1.3,1.3,2.1,1.7c0.8,0.4,1.7,0.7,2.8,0.7c1.4,0,2.5-0.3,3.3-1c0.8-0.7,1.1-1.6,1.1-2.6
			c0-0.9-0.3-1.6-1-2.2c-0.6-0.6-1.6-1.1-3-1.5c-0.9-0.3-1.7-0.5-2.4-0.8c-0.7-0.2-1.4-0.5-2.1-0.7c-1.5-0.6-2.6-1.4-3.3-2.5
			c-0.7-1.1-1.1-2.3-1.1-3.7c0-0.9,0.2-1.7,0.6-2.5s0.9-1.5,1.6-2.1c0.7-0.6,1.6-1.1,2.6-1.5c1.1-0.4,2.2-0.6,3.5-0.6
			c1.2,0,2.4,0.2,3.5,0.5c1.1,0.3,1.9,0.7,2.5,1l1-0.9h1.4l0.1,7.6h-1.3c-0.3-0.8-0.7-1.6-1.1-2.5c-0.4-0.8-0.9-1.6-1.3-2.1
			c-0.5-0.6-1.1-1.1-1.8-1.4c-0.7-0.4-1.4-0.5-2.3-0.5c-1.1,0-2,0.3-2.8,1c-0.7,0.6-1.1,1.4-1.1,2.4c0,0.9,0.3,1.6,0.9,2.2
			c0.6,0.6,1.6,1.1,2.9,1.5c0.8,0.3,1.6,0.5,2.4,0.8c0.8,0.3,1.5,0.5,2.1,0.8c1.5,0.6,2.7,1.4,3.4,2.4c0.8,1,1.2,2.3,1.2,3.8
			c0,1-0.2,1.9-0.7,2.8c-0.4,0.9-1.1,1.6-1.8,2.2c-0.8,0.7-1.8,1.2-2.9,1.5S101.4,198.6,100,198.6z"/>
		<path class="st3" d="M122.9,197.3c-0.7,0.3-1.4,0.6-2.1,0.8c-0.8,0.2-1.7,0.4-2.8,0.4c-1.6,0-2.8-0.4-3.6-1.2
			c-0.8-0.8-1.2-1.9-1.2-3.4v-9.6h-2.8v-1.7h2.9v-4.7h5.1v4.7h4.4v1.7h-4.3v8.6c0,1.2,0.2,2.1,0.5,2.6c0.3,0.5,0.9,0.8,1.8,0.8
			c0.3,0,0.7,0,1.2-0.1c0.5,0,0.8-0.1,1-0.1V197.3z"/>
		<path class="st3" d="M141.8,197.7c-0.5,0.2-1,0.4-1.6,0.5c-0.6,0.2-1.3,0.2-2,0.2c-1.3,0-2.2-0.2-2.8-0.6c-0.6-0.4-1-0.9-1.2-1.6
			h-0.1c-0.4,0.4-0.7,0.7-1,0.9s-0.7,0.5-1.1,0.6c-0.5,0.2-1,0.4-1.4,0.5s-1.1,0.2-1.9,0.2c-1.2,0-2.2-0.4-3.1-1.1
			c-0.9-0.7-1.3-1.7-1.3-2.8c0-0.7,0.1-1.3,0.3-1.7c0.2-0.5,0.5-0.9,0.8-1.3c0.3-0.3,0.7-0.6,1.1-0.8c0.4-0.2,0.9-0.4,1.4-0.6
			c0.9-0.3,2.1-0.7,3.4-1.1c1.3-0.4,2.3-0.7,2.9-1v-1.5c0-0.3,0-0.6-0.1-1c0-0.4-0.1-0.8-0.3-1.1c-0.1-0.3-0.4-0.6-0.7-0.8
			c-0.3-0.2-0.7-0.3-1.2-0.3c-0.5,0-0.8,0.1-1.1,0.2c-0.3,0.1-0.6,0.3-0.7,0.4c0,0.2,0.1,0.5,0.3,1c0.1,0.4,0.2,0.8,0.2,1.2
			c0,0.2,0,0.4-0.1,0.7s-0.2,0.5-0.4,0.6c-0.2,0.2-0.5,0.4-0.8,0.5c-0.3,0.1-0.8,0.2-1.4,0.2c-0.9,0-1.5-0.2-2-0.6
			c-0.4-0.4-0.7-1-0.7-1.6c0-0.6,0.2-1.1,0.7-1.6c0.5-0.5,1-0.8,1.7-1.1c0.7-0.3,1.4-0.6,2.3-0.7c0.9-0.2,1.6-0.3,2.4-0.3
			c1,0,1.9,0.1,2.8,0.2c0.8,0.1,1.6,0.4,2.3,0.7c0.6,0.4,1.2,0.9,1.5,1.6c0.4,0.7,0.6,1.6,0.6,2.7c0,1.2,0,2.6-0.1,4.2
			c0,1.6-0.1,2.7-0.1,3.2c0,0.5,0.1,0.8,0.2,1.1c0.1,0.3,0.4,0.5,0.6,0.6c0.2,0.1,0.5,0.1,0.8,0.1c0.4,0,0.7,0,1,0V197.7z
			 M134.1,189.6c-0.6,0.2-1.2,0.4-1.7,0.7c-0.6,0.3-1,0.5-1.4,0.8c-0.4,0.3-0.7,0.7-0.9,1.1s-0.3,1-0.3,1.6c0,0.8,0.2,1.4,0.6,1.8
			c0.4,0.4,0.8,0.5,1.4,0.5c0.6,0,1-0.1,1.4-0.4c0.4-0.2,0.7-0.5,1-0.9L134.1,189.6z"/>
		<path class="st3" d="M174.1,198h-9.3v-1.1c0.2,0,0.5-0.1,0.7-0.1c0.2,0,0.5-0.1,0.6-0.2c0.2-0.1,0.4-0.3,0.4-0.5
			c0.1-0.2,0.1-0.6,0.1-0.9v-7.3c0-1.1-0.2-1.9-0.6-2.4c-0.4-0.5-0.9-0.8-1.6-0.8c-0.4,0-0.8,0.1-1.2,0.2c-0.3,0.1-0.7,0.3-1,0.5
			c-0.3,0.2-0.5,0.4-0.7,0.7c-0.2,0.2-0.3,0.4-0.4,0.6v8.4c0,0.4,0,0.7,0.1,0.9c0.1,0.2,0.3,0.4,0.5,0.6c0.2,0.1,0.4,0.2,0.6,0.2
			c0.2,0.1,0.4,0.1,0.7,0.2v1.1h-8.9v-1.1c0.2,0,0.4,0,0.7-0.1s0.5-0.1,0.6-0.2c0.2-0.1,0.4-0.3,0.4-0.5c0.1-0.2,0.1-0.5,0.1-1v-7.3
			c0-1.1-0.2-1.9-0.6-2.4c-0.4-0.5-0.9-0.8-1.6-0.8c-0.4,0-0.8,0.1-1.2,0.2c-0.3,0.1-0.7,0.3-1,0.5c-0.3,0.2-0.5,0.4-0.7,0.7
			c-0.2,0.2-0.3,0.4-0.4,0.6v8.4c0,0.4,0,0.7,0.1,0.9c0.1,0.2,0.3,0.4,0.5,0.6c0.2,0.1,0.4,0.2,0.6,0.2c0.2,0.1,0.4,0.1,0.7,0.2v1.1
			H143v-1.1c0.3,0,0.5,0,0.8-0.1c0.3,0,0.5-0.1,0.7-0.2c0.3-0.1,0.6-0.3,0.7-0.5s0.2-0.5,0.2-0.9v-9.1c0-0.3-0.1-0.7-0.3-1
			c-0.2-0.3-0.4-0.6-0.6-0.7c-0.2-0.1-0.4-0.2-0.7-0.3c-0.3-0.1-0.6-0.1-0.9-0.2v-1.1l7.5-0.4l0.2,0.2v2.2h0.1
			c0.3-0.3,0.6-0.6,1-0.9c0.4-0.4,0.8-0.6,1.1-0.9c0.4-0.2,0.9-0.5,1.5-0.6c0.6-0.2,1.3-0.2,2-0.2c1.2,0,2.2,0.3,3,0.8
			s1.4,1.2,1.7,2.1h0.1c0.3-0.3,0.7-0.6,1.1-1c0.4-0.4,0.8-0.7,1.2-0.9c0.4-0.3,0.9-0.5,1.6-0.7c0.6-0.2,1.3-0.3,2-0.3
			c1.6,0,2.8,0.5,3.6,1.4c0.8,0.9,1.3,2.2,1.3,4v7.6c0,0.4,0.1,0.7,0.2,0.9c0.1,0.2,0.3,0.4,0.6,0.5c0.2,0.1,0.4,0.1,0.6,0.2
			c0.2,0.1,0.5,0.1,0.9,0.2V198z"/>
		<path class="st3" d="M194.6,190.4c0,2.2-0.7,4.1-2.2,5.7c-1.5,1.6-3.3,2.4-5.6,2.4c-1,0-1.8-0.1-2.4-0.3s-1.1-0.5-1.5-0.7h-0.1
			v4.4c0,0.4,0.1,0.7,0.2,1c0.2,0.3,0.4,0.5,0.7,0.6c0.3,0.1,0.7,0.2,1.2,0.3s0.9,0.2,1.3,0.2v1.2h-11.3v-1.2c0.3,0,0.6-0.1,1-0.1
			c0.4-0.1,0.7-0.1,0.9-0.2c0.3-0.1,0.6-0.3,0.7-0.6c0.1-0.3,0.2-0.6,0.2-0.9v-16c0-0.3-0.1-0.6-0.2-0.9c-0.1-0.3-0.3-0.5-0.6-0.7
			c-0.2-0.1-0.5-0.2-0.8-0.3c-0.3-0.1-0.7-0.1-1-0.2v-1.1l7.6-0.4l0.2,0.2v1.7l0.1,0c0.7-0.7,1.5-1.2,2.3-1.6
			c0.8-0.4,1.7-0.6,2.5-0.6c2.2,0,3.9,0.8,5.1,2.3C194,185.9,194.6,187.9,194.6,190.4z M189,190.5c0-0.8-0.1-1.5-0.2-2.2
			c-0.1-0.7-0.3-1.4-0.6-1.9c-0.3-0.6-0.7-1-1.1-1.3c-0.5-0.3-1-0.5-1.7-0.5c-0.7,0-1.2,0.1-1.6,0.4s-0.8,0.5-1.1,0.9v8.9
			c0.1,0.2,0.2,0.5,0.4,0.8c0.2,0.3,0.4,0.6,0.5,0.8c0.3,0.3,0.6,0.5,0.9,0.6c0.3,0.1,0.7,0.2,1.1,0.2c1,0,1.9-0.6,2.5-1.7
			C188.7,194.2,189,192.6,189,190.5z"/>
		<path class="st3" d="M203.8,198.6c-1,0-2-0.1-3-0.4c-1-0.3-1.7-0.6-2.2-0.9l-0.5,1.1h-1.2l-0.2-5.8h1.1c0.2,0.5,0.4,1,0.8,1.6
			c0.4,0.6,0.8,1.1,1.2,1.6c0.5,0.5,1,0.9,1.7,1.2c0.6,0.3,1.3,0.5,2,0.5c0.9,0,1.7-0.2,2.1-0.6c0.5-0.4,0.7-0.9,0.7-1.7
			c0-0.4-0.1-0.8-0.3-1c-0.2-0.3-0.5-0.5-0.9-0.7c-0.4-0.2-0.9-0.4-1.3-0.5c-0.5-0.1-1.1-0.3-1.8-0.5c-0.7-0.2-1.3-0.4-1.8-0.6
			c-0.5-0.2-1-0.5-1.6-1c-0.5-0.4-0.8-0.9-1.1-1.5c-0.3-0.6-0.4-1.3-0.4-2c0-1.5,0.6-2.7,1.9-3.6s2.9-1.4,4.9-1.4
			c0.9,0,1.8,0.1,2.6,0.3c0.8,0.2,1.5,0.4,2,0.6l0.3-0.9h1.2l0.2,5.3h-1.1c-0.4-1.1-1-2-1.9-2.8c-0.9-0.8-1.8-1.2-2.9-1.2
			c-0.8,0-1.4,0.2-1.9,0.5c-0.5,0.3-0.7,0.8-0.7,1.4c0,0.8,0.3,1.4,1,1.7c0.7,0.4,1.6,0.7,2.8,1c1.9,0.5,3.2,1.1,4.1,2
			c0.9,0.8,1.3,1.9,1.3,3.2c0,1.7-0.7,3-2,4C207.7,198.1,206,198.6,203.8,198.6z"/>
	</g>
</g>
<g id="Flag">
	<path class="st4" d="M173.1,139.1c-33.3,0-66.7-0.1-100-0.1c-1.5-1.7-3-3.6-4.5-5.8c-1.5-2.1-2.8-4.2-3.8-6.1
		c38.9-0.1,77.9-0.1,116.8-0.2c-1,1.8-2.1,3.6-3.4,5.6C176.5,135,174.8,137.2,173.1,139.1z"/>
	<path class="st4" d="M186.2,116.1c-42.1,0-84.1,0-126.2,0c-0.6-1.8-1.1-3.7-1.6-5.8c-0.5-2.3-0.9-4.5-1.1-6.4
		c43.9,0,87.8,0,131.7,0c-0.3,2-0.6,4.3-1.2,6.6C187.3,112.5,186.8,114.4,186.2,116.1z"/>
	<path class="st4" d="M147.5,157.1c-5.2,2-13.9,4.7-25,4.6c-10.5-0.1-18.8-2.7-23.9-4.7c-2.4-1-5.2-2.2-8-3.8
		c-2.5-1.4-4.6-2.8-6.5-4.1c26,0,51.9,0.1,77.9,0.1c-2.2,1.6-4.8,3.3-7.8,4.8C151.9,155.3,149.6,156.3,147.5,157.1z"/>
	<path class="st4" d="M169.7,47.9c-13.6,0-27.3,0-40.9,0V36c8.1,0,16.2,0,24.3,0c2.4,1.2,5.1,2.8,8,4.8
		C164.5,43.2,167.4,45.7,169.7,47.9z"/>
	<path class="st4" d="M184.9,70.9c-18.7,0-37.4,0-56.1,0V57.7c16.5,0,33,0,49.5,0c1.6,2.5,3.1,5.4,4.6,8.5
		C183.6,67.8,184.3,69.4,184.9,70.9z"/>
	<path class="st4" d="M189.5,93.8c-20.3-0.2-40.5-0.5-60.8-0.7v-12c19.7,0,39.5,0,59.2,0c0.4,2,0.8,4.1,1.1,6.5
		C189.4,89.8,189.5,91.9,189.5,93.8z"/>
	<g>
		<path class="st5" d="M56.8,93.1h72V29c-6.1-0.5-18-0.7-31.3,4.9c-10.9,4.6-18.2,11-22.2,15.2c-2.9,3-6.4,7.2-9.6,12.7
			c-2.8,4.9-4.7,9.5-5.9,13.2c-0.8,2.5-1.6,5.5-2.2,8.8C57.1,87.3,56.9,90.4,56.8,93.1z"/>
		<g id="Stars">
			<polygon class="st6" points="103.8,57.1 101,55.6 98.3,57 98.8,53.9 96.6,51.6 99.6,51.2 101,48.4 102.4,51.3 105.5,51.8 
				103.3,54 			"/>
			<polygon class="st6" points="94.3,49 91.5,47.5 88.8,48.9 89.3,45.8 87,43.5 90.1,43.1 91.5,40.3 92.9,43.2 96,43.7 93.8,45.9 
							"/>
			<polygon class="st6" points="103.8,41.5 101,40 98.3,41.4 98.8,38.3 96.6,36 99.6,35.6 101,32.8 102.4,35.7 105.5,36.2 
				103.3,38.4 			"/>
			<polygon class="st6" points="113.1,49 110.3,47.5 107.5,48.9 108,45.8 105.8,43.5 108.9,43.1 110.3,40.3 111.7,43.2 114.8,43.7 
				112.5,45.9 			"/>
			<polygon class="st6" points="122.4,41.5 119.6,40 116.9,41.4 117.4,38.3 115.2,36 118.3,35.6 119.6,32.8 121,35.7 124.1,36.2 
				121.9,38.4 			"/>
			<polygon class="st6" points="85,57.1 82.2,55.6 79.4,57 80,53.9 77.7,51.6 80.8,51.2 82.2,48.4 83.6,51.3 86.7,51.8 84.4,54 			
				"/>
			<polygon class="st6" points="122.4,57.1 119.6,55.6 116.9,57 117.4,53.9 115.2,51.6 118.3,51.2 119.6,48.4 121,51.3 124.1,51.8 
				121.9,54 			"/>
			<polygon class="st6" points="75.6,65.2 72.8,63.7 70.1,65.1 70.6,62 68.4,59.8 71.4,59.4 72.8,56.6 74.2,59.4 77.3,60 75.1,62.1 
							"/>
			<polygon class="st6" points="94.3,65.2 91.5,63.7 88.8,65.1 89.3,62 87,59.8 90.1,59.4 91.5,56.6 92.9,59.4 96,60 93.8,62.1 			
				"/>
			<polygon class="st6" points="113.1,65.2 110.3,63.7 107.5,65.1 108,62 105.8,59.8 108.9,59.4 110.3,56.6 111.7,59.4 114.8,60 
				112.5,62.1 			"/>
			<polygon class="st6" points="85,73.2 82.2,71.6 79.4,73 80,69.9 77.7,67.7 80.8,67.3 82.2,64.5 83.6,67.4 86.7,67.9 84.4,70 			
				"/>
			<polygon class="st6" points="103.7,73.2 100.9,71.6 98.1,73 98.7,69.9 96.4,67.7 99.5,67.3 100.9,64.5 102.3,67.4 105.4,67.9 
				103.1,70 			"/>
			<polygon class="st6" points="122.4,72.7 119.6,71.2 116.9,72.6 117.4,69.5 115.2,67.2 118.3,66.9 119.6,64.1 121,66.9 
				124.1,67.5 121.9,69.6 			"/>
			<polygon class="st6" points="122.4,89 119.6,87.5 116.9,88.9 117.4,85.8 115.2,83.5 118.3,83.1 119.6,80.3 121,83.2 124.1,83.7 
				121.9,85.9 			"/>
			<polygon class="st6" points="113.1,81.1 110.3,79.6 107.5,81 108,77.9 105.8,75.6 108.9,75.3 110.3,72.5 111.7,75.3 114.8,75.9 
				112.5,78 			"/>
			<polygon class="st6" points="94.3,81.1 91.6,79.6 88.8,81 89.3,77.9 87.1,75.6 90.2,75.3 91.5,72.5 92.9,75.3 96,75.9 93.8,78 
							"/>
			<polygon class="st6" points="103.7,89.2 100.9,87.7 98.1,89.1 98.7,86 96.4,83.7 99.5,83.3 100.9,80.5 102.3,83.4 105.4,83.9 
				103.1,86.1 			"/>
			<polygon class="st6" points="85,89 82.2,87.5 79.4,88.9 80,85.8 77.7,83.5 80.8,83.1 82.2,80.3 83.6,83.2 86.7,83.7 84.4,85.9 
							"/>
			<polygon class="st6" points="75.6,81.1 72.8,79.6 70.1,81 70.6,77.9 68.4,75.6 71.4,75.3 72.8,72.5 74.2,75.3 77.3,75.9 75.1,78 
							"/>
			<polygon class="st6" points="66.2,89 63.5,87.5 60.7,88.9 61.2,85.8 59,83.5 62.1,83.1 63.5,80.3 64.9,83.2 67.9,83.7 65.7,85.9 
							"/>
			<path class="st6" d="M66.2,72.7l-2.8-1.5c-0.9,0.5-1.9,0.9-2.8,1.4c0.1-0.4,0.3-0.7,0.4-1.1c0.2-0.6,0.4-1.2,0.7-1.7
				c0.2-0.4,0.4-0.9,0.6-1.3c0.4-0.8,0.7-1.6,1.1-2.3c0.3-0.6,0.6-1.1,0.9-1.7c0.2,0.8,0.4,1.6,0.6,2.5l3.1,0.5l-2.2,2.1L66.2,72.7z
				"/>
			<path class="st6" d="M113.1,33.7l-2.8-1.5l-2.8,1.4c0.2-1,0.4-2,0.6-3c0.7-0.2,1.3-0.3,1.9-0.4c0.8-0.2,1.3-0.3,2-0.4
				c0.2,0,0.4-0.1,0.5-0.1C112.6,31,112.9,32.3,113.1,33.7z"/>
		</g>
	</g>
</g>
</svg>
