<svg xmlns="http://www.w3.org/2000/svg" viewBox="0 0 246 246" style="enable-background:new 0 0 246 246" xml:space="preserve"><path style="fill:#fffffd" d="M219.3 0H0v246h26.7V25.7h192.6v193.5H26.7V246H246V0z"/><path style="fill:#fff" d="M26.7 25.7h192.6v193.5H26.7z"/><path d="M244.4 10.2h.6V1.7h-8.5c.3 3.7-2 7.5-6.7 7.5s-7-3.9-6.7-7.5h-8.4c-.1 3.4-2.3 6.8-6.7 6.8s-6.6-3.4-6.7-6.8h-7.6c.1 3.6-2.1 7.2-6.7 7.2s-6.8-3.6-6.7-7.2h-7.6c.1 3.5-2.2 7.1-6.7 7.1-4.6 0-6.8-3.6-6.7-7.1h-7.9c.1 3.6-2.1 7.2-6.7 7.2s-6.8-3.6-6.7-7.2h-8.1c.2 3.6-2.1 7.3-6.7 7.3s-6.9-3.7-6.7-7.3h-7.9c.1 3.6-2.1 7.2-6.7 7.2s-6.8-3.6-6.7-7.2h-8.1c.1 3.5-2.2 7.1-6.7 7.1-4.6 0-6.8-3.6-6.7-7.1h-7.9c.2 3.6-2 7.3-6.6 7.3s-6.9-3.7-6.7-7.3h-7.7c.2 3.6-2 7.4-6.7 7.4s-6.9-3.8-6.7-7.4h-7.6c.2 3.6-2 7.4-6.7 7.4s-6.9-3.8-6.7-7.4H1v8.1h.4c8.9 0 8.9 13.8 0 13.8H1v7.9h.9c8.9 0 8.9 13.8 0 13.8H1V53h.9c8.9 0 8.9 13.8 0 13.8H1v7h.6c8.9 0 8.9 13.8 0 13.8H1v7.6h.8c8.9 0 8.9 13.8 0 13.8H1v7.4h.7c8.9 0 8.9 13.8 0 13.8H1v7.5h.5c8.9 0 8.9 13.8 0 13.8H1v7.6l.9-.1c8.9 0 8.9 13.8 0 13.8l-.9-.1v7.7h.6c8.9 0 8.9 13.8 0 13.8H1v7.2l1.2-.1c8.9 0 8.9 13.8 0 13.8L1 215v8l1.2-.1c8.9 0 8.9 13.8 0 13.8l-1.2-.1v8.3h8.9c-.2-3.6 2-7.4 6.7-7.4s6.9 3.8 6.7 7.4h8.1c-.3-3.7 2-7.5 6.7-7.5s7 3.9 6.7 7.5h8.1c-.3-3.7 2-7.5 6.7-7.5s7 3.9 6.7 7.5h7.8c-.2-3.6 2-7.4 6.7-7.4s6.9 3.8 6.7 7.4h7.8c-.4-3.7 1.9-7.7 6.7-7.7 4.8 0 7 4 6.7 7.7h8c-.4-3.7 1.8-7.8 6.7-7.8 4.8 0 7.1 4.1 6.7 7.8h8.2c-.4-3.7 1.8-7.8 6.7-7.8 4.8 0 7.1 4.1 6.7 7.8h8.1c-.5-3.8 1.7-8 6.6-8 4.9 0 7.1 4.2 6.6 8h7.9c-.4-3.7 1.8-7.8 6.7-7.8 4.8 0 7.1 4.1 6.7 7.8h8c-.4-3.7 1.8-7.8 6.7-7.8 4.8 0 7.1 4.1 6.7 7.8h8.1c-.4-3.7 1.9-7.7 6.7-7.7 4.8 0 7 4 6.7 7.7h8.4V236c-8.9 0-8.9-13.8 0-13.8v-7.3h-.3c-8.9 0-8.9-13.8 0-13.8h.3V194h-.4c-8.9 0-8.9-13.8 0-13.8h.4v-7.3h-.6c-8.9 0-8.9-13.8 0-13.8h.6v-8h-.5c-8.9 0-8.9-13.8 0-13.8h.5V130h-.4c-8.9 0-8.9-13.8 0-13.8h.4v-7.1h-.3c-8.9 0-8.9-13.8 0-13.8h.3v-7.7h-.4c-8.9 0-8.9-13.8 0-13.8h.4v-7.6h-.4c-8.9 0-8.9-13.8 0-13.8h.4v-7.2h-.1c-8.9 0-8.9-13.8 0-13.8h.1V24h-.6c-9.6.1-9.5-13.8-.6-13.8zm-22.8 210.6-197.2-.2V24.3h197.1l.1 196.5z" style="fill:#f9f0ee;stroke:#4c4c4c;stroke-width:.5;stroke-miterlimit:10"/><path d="m60.6 177.1-1.3.2a3 3 0 0 0-1.4.6 2 2 0 0 0-.8 1.4c-.2.7-.2 1.7-.2 3v8.2c0 2.4-.8 4.4-2.5 5.9a9.2 9.2 0 0 1-6.5 2.2c-3.2 0-5.6-.7-7.3-2.1a7.4 7.4 0 0 1-2.6-6v-11.3a2 2 0 0 0-.2-.9c-.1-.3-.4-.5-.8-.7l-1-.3-1-.2v-1.2h11.6v1.2l-1 .1c-.3.1-.7.1-1 .3-.4.1-.7.3-.8.6a3 3 0 0 0-.2 1v11.2c0 2.2.5 3.8 1.5 4.8s2.4 1.5 4.2 1.5c1.8 0 3.2-.6 4.3-1.7 1-1.1 1.5-2.7 1.5-4.9v-7.5c0-1.3-.1-2.3-.3-3a3 3 0 0 0-.8-1.4l-1.4-.6-1.4-.3V176h9.6v1.1zm10.5 21.5a15.2 15.2 0 0 1-6.8-1.7l-1.1 1.1h-1.3l-.2-8H63l1.2 2.4 1.6 2.3c.6.7 1.3 1.3 2.1 1.7.8.4 1.7.7 2.8.7 1.4 0 2.5-.3 3.3-1 .8-.7 1.1-1.6 1.1-2.6 0-.9-.3-1.6-1-2.2a7 7 0 0 0-3-1.5l-2.4-.8-2.1-.7a6.6 6.6 0 0 1-3.3-2.5 6.7 6.7 0 0 1-1.1-3.7c0-.9.2-1.7.6-2.5s.9-1.5 1.6-2.1a9.3 9.3 0 0 1 6.1-2.1c1.2 0 2.4.2 3.5.5s1.9.7 2.5 1l1-.9h1.4l.1 7.6h-1.3l-1.1-2.5-1.3-2.1a4.9 4.9 0 0 0-1.8-1.4c-.7-.4-1.4-.5-2.3-.5a4 4 0 0 0-2.8 1 3 3 0 0 0-1.1 2.4c0 .9.3 1.6.9 2.2.6.6 1.6 1.1 2.9 1.5l2.4.8 2.1.8c1.5.6 2.7 1.4 3.4 2.4a6 6 0 0 1 1.2 3.8c0 1-.2 1.9-.7 2.8-.4.9-1.1 1.6-1.8 2.2-.8.7-1.8 1.2-2.9 1.5s-2.3.1-3.7.1zm28.9 0a15.2 15.2 0 0 1-6.8-1.7l-1.1 1.1h-1.3l-.2-8h1.3l1.2 2.4 1.6 2.3c.6.7 1.3 1.3 2.1 1.7.8.4 1.7.7 2.8.7 1.4 0 2.5-.3 3.3-1 .8-.7 1.1-1.6 1.1-2.6 0-.9-.3-1.6-1-2.2a7 7 0 0 0-3-1.5l-2.4-.8-2.1-.7a6.6 6.6 0 0 1-3.3-2.5 6.7 6.7 0 0 1-1.1-3.7c0-.9.2-1.7.6-2.5s.9-1.5 1.6-2.1a9.3 9.3 0 0 1 6.1-2.1c1.2 0 2.4.2 3.5.5s1.9.7 2.5 1l1-.9h1.4l.1 7.6h-1.3l-1.1-2.5-1.3-2.1a4.9 4.9 0 0 0-1.8-1.4c-.7-.4-1.4-.5-2.3-.5a4 4 0 0 0-2.8 1 3 3 0 0 0-1.1 2.4c0 .9.3 1.6.9 2.2.6.6 1.6 1.1 2.9 1.5l2.4.8 2.1.8c1.5.6 2.7 1.4 3.4 2.4a6 6 0 0 1 1.2 3.8c0 1-.2 1.9-.7 2.8-.4.9-1.1 1.6-1.8 2.2-.8.7-1.8 1.2-2.9 1.5s-2.3.1-3.7.1zm22.9-1.3-2.1.8c-.8.2-1.7.4-2.8.4-1.6 0-2.8-.4-3.6-1.2-.8-.8-1.2-1.9-1.2-3.4v-9.6h-2.8v-1.7h2.9v-4.7h5.1v4.7h4.4v1.7h-4.3v8.6c0 1.2.2 2.1.5 2.6s.9.8 1.8.8l1.2-.1 1-.1v1.2zm18.9.4-1.6.5c-.6.2-1.3.2-2 .2a5 5 0 0 1-2.8-.6c-.6-.4-1-.9-1.2-1.6h-.1l-1 .9c-.3.2-.7.5-1.1.6l-1.4.5-1.9.2c-1.2 0-2.2-.4-3.1-1.1a3.4 3.4 0 0 1-1.3-2.8c0-.7.1-1.3.3-1.7l.8-1.3 1.1-.8 1.4-.6 3.4-1.1 2.9-1v-1.5l-.1-1a2 2 0 0 0-.3-1.1c-.1-.3-.4-.6-.7-.8-.3-.2-.7-.3-1.2-.3l-1.1.2-.7.4.3 1 .2 1.2-.1.7c-.1.3-.2.5-.4.6l-.8.5-1.4.2a3 3 0 0 1-2-.6c-.4-.4-.7-1-.7-1.6 0-.6.2-1.1.7-1.6a5 5 0 0 1 1.7-1.1c.7-.3 1.4-.6 2.3-.7l2.4-.3 2.8.2c.8.1 1.6.4 2.3.7.6.4 1.2.9 1.5 1.6.4.7.6 1.6.6 2.7l-.1 4.2-.1 3.2.2 1.1c.1.3.4.5.6.6l.8.1h1v1.1zm-7.7-8.1-1.7.7-1.4.8c-.4.3-.7.7-.9 1.1s-.3 1-.3 1.6c0 .8.2 1.4.6 1.8.4.4.8.5 1.4.5.6 0 1-.1 1.4-.4.4-.2.7-.5 1-.9l-.1-5.2zm40 8.4h-9.3v-1.1l.7-.1.6-.2c.2-.1.4-.3.4-.5l.1-.9v-7.3c0-1.1-.2-1.9-.6-2.4a2 2 0 0 0-1.6-.8 5 5 0 0 0-1.2.2l-1 .5-.7.7-.4.6v8.4l.1.9.5.6.6.2.7.2v1.1h-8.9V197l.7-.1.6-.2c.2-.1.4-.3.4-.5l.1-1v-7.3c0-1.1-.2-1.9-.6-2.4a2 2 0 0 0-1.6-.8 5 5 0 0 0-1.2.2l-1 .5-.7.7-.4.6v8.4l.1.9.5.6.6.2.7.2v1.1H143V197l.8-.1.7-.2c.3-.1.6-.3.7-.5l.2-.9v-9.1a2 2 0 0 0-.3-1l-.6-.7-.7-.3-.9-.2v-1.1l7.5-.4.2.2v2.2h.1l1-.9 1.1-.9c.4-.2.9-.5 1.5-.6.6-.2 1.3-.2 2-.2 1.2 0 2.2.3 3 .8s1.4 1.2 1.7 2.1h.1l1.1-1 1.2-.9c.4-.3.9-.5 1.6-.7.6-.2 1.3-.3 2-.3 1.6 0 2.8.5 3.6 1.4.8.9 1.3 2.2 1.3 4v7.6l.2.9c.1.2.3.4.6.5l.6.2.9.2v.9zm20.5-7.6a8 8 0 0 1-2.2 5.7 7.3 7.3 0 0 1-5.6 2.4c-1 0-1.8-.1-2.4-.3l-1.5-.7h-.1v4.4l.2 1c.2.3.4.5.7.6l1.2.3 1.3.2v1.2h-11.3V204l1-.1.9-.2c.3-.1.6-.3.7-.6l.2-.9v-16l-.2-.9c-.1-.3-.3-.5-.6-.7l-.8-.3-1-.2V183l7.6-.4.2.2v1.7h.1c.7-.7 1.5-1.2 2.3-1.6.8-.4 1.7-.6 2.5-.6 2.2 0 3.9.8 5.1 2.3a9 9 0 0 1 1.7 5.8zm-5.6.1-.2-2.2c-.1-.7-.3-1.4-.6-1.9-.3-.6-.7-1-1.1-1.3-.5-.3-1-.5-1.7-.5s-1.2.1-1.6.4-.8.5-1.1.9v8.9l.4.8.5.8.9.6 1.1.2c1 0 1.9-.6 2.5-1.7.6-1.3.9-2.9.9-5zm14.8 8.1a10.3 10.3 0 0 1-5.2-1.3l-.5 1.1h-1.2l-.2-5.8h1.1l.8 1.6 1.2 1.6c.5.5 1 .9 1.7 1.2.6.3 1.3.5 2 .5.9 0 1.7-.2 2.1-.6.5-.4.7-.9.7-1.7 0-.4-.1-.8-.3-1-.2-.3-.5-.5-.9-.7a7 7 0 0 0-1.3-.5l-1.8-.5-1.8-.6c-.5-.2-1-.5-1.6-1a4.5 4.5 0 0 1-1.5-3.5c0-1.5.6-2.7 1.9-3.6s2.9-1.4 4.9-1.4c.9 0 1.8.1 2.6.3l2 .6.3-.9h1.2l.2 5.3h-1.1c-.4-1.1-1-2-1.9-2.8a4.2 4.2 0 0 0-2.9-1.2c-.8 0-1.4.2-1.9.5s-.7.8-.7 1.4c0 .8.3 1.4 1 1.7.7.4 1.6.7 2.8 1 1.9.5 3.2 1.1 4.1 2a4 4 0 0 1 1.3 3.2c0 1.7-.7 3-2 4-1.2.6-2.9 1.1-5.1 1.1z" style="fill:#434371"/><path d="m173.1 139.1-100-.1a58.6 58.6 0 0 1-8.3-11.9l116.8-.2-3.4 5.6a63.2 63.2 0 0 1-5.1 6.6zm13.1-23H60a68.5 68.5 0 0 1-2.7-12.2H189c-.3 2-.6 4.3-1.2 6.6-.5 2-1 3.9-1.6 5.6zm-38.7 41a67.6 67.6 0 0 1-56.9-3.9 83.4 83.4 0 0 1-6.5-4.1l77.9.1a55.4 55.4 0 0 1-14.5 7.9zm22.2-109.2h-40.9V36h24.3a67.4 67.4 0 0 1 16.6 11.9zm15.2 23h-56.1V57.7h49.5c1.6 2.5 3.1 5.4 4.6 8.5l2 4.7zm4.6 22.9-60.8-.7v-12h59.2a87.5 87.5 0 0 1 1.6 12.7z" style="fill:#ba1e3e"/><path d="M56.8 93.1h72V29a66.6 66.6 0 0 0-72 64.1z" style="fill:#3d396e"/><path d="m103.8 57.1-2.8-1.5-2.7 1.4.5-3.1-2.2-2.3 3-.4 1.4-2.8 1.4 2.9 3.1.5-2.2 2.2zM94.3 49l-2.8-1.5-2.7 1.4.5-3.1-2.3-2.3 3.1-.4 1.4-2.8 1.4 2.9 3.1.5-2.2 2.2zm9.5-7.5L101 40l-2.7 1.4.5-3.1-2.2-2.3 3-.4 1.4-2.8 1.4 2.9 3.1.5-2.2 2.2zm9.3 7.5-2.8-1.5-2.8 1.4.5-3.1-2.2-2.3 3.1-.4 1.4-2.8 1.4 2.9 3.1.5-2.3 2.2zm9.3-7.5-2.8-1.5-2.7 1.4.5-3.1-2.2-2.3 3.1-.4 1.3-2.8 1.4 2.9 3.1.5-2.2 2.2zM85 57.1l-2.8-1.5-2.8 1.4.6-3.1-2.3-2.3 3.1-.4 1.4-2.8 1.4 2.9 3.1.5-2.3 2.2zm37.4 0-2.8-1.5-2.7 1.4.5-3.1-2.2-2.3 3.1-.4 1.3-2.8 1.4 2.9 3.1.5-2.2 2.2zm-46.8 8.1-2.8-1.5-2.7 1.4.5-3.1-2.2-2.2 3-.4 1.4-2.8 1.4 2.8 3.1.6-2.2 2.1zm18.7 0-2.8-1.5-2.7 1.4.5-3.1-2.3-2.2 3.1-.4 1.4-2.8 1.4 2.8 3.1.6-2.2 2.1zm18.8 0-2.8-1.5-2.8 1.4.5-3.1-2.2-2.2 3.1-.4 1.4-2.8 1.4 2.8 3.1.6-2.3 2.1zm-28.1 8-2.8-1.6-2.8 1.4.6-3.1-2.3-2.2 3.1-.4 1.4-2.8 1.4 2.9 3.1.5-2.3 2.1zm18.7 0-2.8-1.6-2.8 1.4.6-3.1-2.3-2.2 3.1-.4 1.4-2.8 1.4 2.9 3.1.5-2.3 2.1zm18.7-.5-2.8-1.5-2.7 1.4.5-3.1-2.2-2.3 3.1-.3 1.3-2.8 1.4 2.8 3.1.6-2.2 2.1zm0 16.3-2.8-1.5-2.7 1.4.5-3.1-2.2-2.3 3.1-.4 1.3-2.8 1.4 2.9 3.1.5-2.2 2.2zm-9.3-7.9-2.8-1.5-2.8 1.4.5-3.1-2.2-2.3 3.1-.3 1.4-2.8 1.4 2.8 3.1.6-2.3 2.1zm-18.8 0-2.7-1.5-2.8 1.4.5-3.1-2.2-2.3 3.1-.3 1.3-2.8 1.4 2.8 3.1.6-2.2 2.1zm9.4 8.1-2.8-1.5-2.8 1.4.6-3.1-2.3-2.3 3.1-.4 1.4-2.8 1.4 2.9 3.1.5-2.3 2.2zM85 89l-2.8-1.5-2.8 1.4.6-3.1-2.3-2.3 3.1-.4 1.4-2.8 1.4 2.9 3.1.5-2.3 2.2zm-9.4-7.9-2.8-1.5-2.7 1.4.5-3.1-2.2-2.3 3-.3 1.4-2.8 1.4 2.8 3.1.6-2.2 2.1zM66.2 89l-2.7-1.5-2.8 1.4.5-3.1-2.2-2.3 3.1-.4 1.4-2.8 1.4 2.9 3 .5-2.2 2.2zm0-16.3-2.8-1.5-2.8 1.4.4-1.1.7-1.7.6-1.3 1.1-2.3.9-1.7.6 2.5 3.1.5-2.2 2.1.4 3.1zm46.9-39-2.8-1.5-2.8 1.4.6-3 1.9-.4 2-.4.5-.1.6 4z" style="fill:#eceefd"/></svg>