<svg version="1.1" id="Слой_1" xmlns="http://www.w3.org/2000/svg" x="0" y="0" viewBox="0 0 128 128" style="enable-background:new 0 0 128 128" xml:space="preserve"><style>.st1{fill:#006f9b}</style><path style="fill:#e1f0fb" d="M0 0h128v128H0z"/><g id="Logo"><path class="st1" d="M10.5 62.3c-2.8 1.2-4.9 2.8-5.6 5.5-.2.6-.8 2.7.3 4.1.4.6.9.9 1.4 1.1.6.2 2 .8 4.7.6 1.9-.2 4.7-.4 6.2-2.4.1-.2.9-1.2.6-1.6-.3-.4-1.4-.1-2.4.2l-1.8.6c-1.5.6-4.1.8-5-.5-.4-.6-.3-1.4-.2-1.8.2-.8.6-1.4.8-1.6a5.7 5.7 0 0 1 4.6-2c.8.1 1.5.4 2-.1.5-.4.4-1.2.4-1.2a2 2 0 0 0-1.1-1.5c-1.7-.7-2.4-.6-4.9.6zM23.4 72l-.2.2h-.3l-1.1-.9c-.1-.1-.1-.2 0-.2l.3-.2h.3l1 .9c.2 0 .2.1 0 .2zm-2-.6-5.5 4.8c-.1.1-.1.3 0 .4l.9.8h.5l5.5-4.9c.1-.1.1-.3 0-.4l-.9-.8-.5.1zm-4.6 6.4-.3.2h-.3l-.9-.9c-.1-.1-.1-.2 0-.2l.2-.2h.3l1.1.9-.1.2z"/><path class="st1" d="M27.1 60.8a10 10 0 0 0-3.7 1.6c-2.8 1.9-3.6 4.6-2 7.1 3.3 5.1 13.4 5.2 16.8.1 2.4-3.5-.2-7.5-5.6-8.8-1.9-.4-2.9-.4-5.5 0zm6.2 2.1c4 1.9 3.9 6.5-.1 8.2-4.7 2-10.3-.8-9.7-4.7.7-3.5 5.8-5.4 9.8-3.5z"/><path class="st1" d="M26.2 63.6c-.7.4-1.4.9-1.4 1.2-.1.5.1.4.7-.2l1.8-1.2c.5-.3.9-.4.7-.5-.3.1-1.1.3-1.8.7zM51 50.9l-.8 1.3a83.3 83.3 0 0 1-6.9 15.2c-3 5.1-3.2 6.8-.8 6.9.8 0 1.5-.2 2.1-.8a34.5 34.5 0 0 0 7.5-20.3c0-2.4-.6-3.5-1.1-2.3zm10.1 10.5c-.8.2-1.7.5-1.8.7-.2.2-.6.2-1 0s-1.2-.4-2-.3c-1.5.1-1.8.7-4.3 6.8-1.2 3.4-1.2 3.9.5 4.6 1.4.6 2.3-.1 4.7-4.4 2.5-4.3 3-4.7 4.1-4.4.5.1.6.7.3 2.8v4.1c.4 1.8 2.3 3.5 3.9 3.5 1.4 0 1.4-.2.5-1.8-.9-1.4-.7-4.1.5-6.6 1.1-2.4.8-3.6-1.2-4.5-1.7-.9-1.9-1-4.2-.5zm18.6 1.3a34.3 34.3 0 0 0-9.5 4.9c-1.1 1-1.2 1.4-.9 2.7.7 3 3.6 4 9.1 3.6 3.1-.4 7.9-1.6 7.9-2.1 0-.2-.5-.2-1-.1-1.8.4-8.3.3-10.1-.1-1.8-.5-2.5-1.4-.9-1.4 1.3 0 6.3-2.4 8.1-3.8 2.5-2 2.8-4 .6-4.1-.6 0-2.1.1-3.3.4zm.2 2.8c-1.3 1-5 2.4-5.5 2.1-.3-.2 1.2-1.2 3.3-2.3 3-1.1 4-1.1 2.2.2zm13.2-2.8c-5.3 2.4-7.4 7.3-4 10 2.3 1.8 6.8 1.7 10.1-.4 1.7-1 2.3-2.3 1.2-2.3-.3 0-1.5.2-2.8.6-2.7.7-4.7.4-5.5-.8-.8-1.2 0-3.1 1.5-4.1 1.2-.9 1.7-1 3.2-.8 1.3.1 1.9.1 2.2-.2 1.2-1.3-.2-3-2.5-3-.7 0-2.2.4-3.4 1zm18.1-4.5-1.8 2.3c-.4.6-1.1.9-2.3 1.1-2.6.4-5.8 1.4-5.8 1.9 0 .7 1.6 1.5 3.3 1.6 1.8.1 1.8 0 .8 2.7-1 2.6-.7 4.6 1 5.6 1.8 1.1 3.4.9 5.3-.4 2-1.3 2.1-1.8.4-1.7-1.8.1-2-.6-.4-3.9 1.2-2.7 1.4-2.8 3.3-3.4a31 31 0 0 1 4.6-1c1.4-.2 3.2-.5 4-.8 1.2-.3 1.2-.4.6-.6a31 31 0 0 0-4.7-.4l-3.8-.2.3-1.1c.3-1.3-.4-2.6-1.7-2.9l-.7-.1c-1 0-1.6.3-2.4 1.3z"/></g></svg>
